<?xml version="1.0" encoding="utf-8"?>
<!-- Generator: Adobe Illustrator 26.0.1, SVG Export Plug-In . SVG Version: 6.00 Build 0)  -->
<svg version="1.1" id="Layer_1" xmlns="http://www.w3.org/2000/svg" xmlns:xlink="http://www.w3.org/1999/xlink" x="0px" y="0px"
	 viewBox="0 0 198 180" style="enable-background:new 0 0 198 180;" xml:space="preserve">
<style type="text/css">
	.st0{fill:#CCF3FD;}
	.st1{clip-path:url(#SVGID_00000075881056764539301750000015096890186195018686_);}
	.st2{fill:#BEE2B5;}
	.st3{fill:#83CA5E;}
	.st4{fill:#B5F49E;}
	.st5{fill:#5096D1;}
	.st6{fill:none;stroke:#1B3562;stroke-width:0.6585;stroke-linecap:round;stroke-miterlimit:10;}
	.st7{fill:#4D4D4D;}
	.st8{fill:#84329B;}
	.st9{fill:#B884CB;}
	.st10{fill:#FFFFFF;}
	.st11{clip-path:url(#SVGID_00000129917628276538964390000004481782300849385097_);fill:#BE7D49;}
	.st12{clip-path:url(#SVGID_00000058572512830912001440000012154243283361348793_);}
	.st13{fill:#FF7E45;}
	.st14{fill:none;stroke:#3D3D3D;stroke-width:0.9878;stroke-linecap:round;stroke-miterlimit:10;}
	.st15{clip-path:url(#SVGID_00000170253767773425622280000013590505401195515306_);fill:#BE7D49;}
	.st16{clip-path:url(#SVGID_00000144307105606771936530000003593494589333931161_);fill:#BE7D49;}
	.st17{clip-path:url(#SVGID_00000143616532896721532980000007854803409566322052_);fill:#D9B173;}
	.st18{clip-path:url(#SVGID_00000030485040028269649790000007813167095966666890_);fill:#093363;}
	.st19{clip-path:url(#SVGID_00000004532232933586709050000013464185164454375346_);fill:#093363;}
	.st20{clip-path:url(#SVGID_00000165914014498149388680000014476662039352466859_);fill:#BE7D49;}
	.st21{clip-path:url(#SVGID_00000028302372210515726210000010031846247882487175_);fill:#FF9998;}
	.st22{clip-path:url(#SVGID_00000166674065195607947680000016761127889165032892_);fill:#84329B;}
	.st23{clip-path:url(#SVGID_00000025441712249687484180000006730489630985112510_);}
	.st24{fill:#FF9998;}
	.st25{clip-path:url(#SVGID_00000121257586278968363900000015798601293000209330_);fill:#84329B;}
	.st26{clip-path:url(#SVGID_00000027588087080604445870000013566422036747151745_);fill:#84329B;}
	.st27{clip-path:url(#SVGID_00000052070544345993160180000003219440288392641422_);fill:#BE7D49;}
	.st28{clip-path:url(#SVGID_00000048469646048466973280000007050456442001329317_);}
	.st29{clip-path:url(#SVGID_00000068673144214579137460000015488297094838338487_);fill:#BE7D49;}
	.st30{clip-path:url(#SVGID_00000108287508544479665460000011587836411891686321_);}
	.st31{clip-path:url(#SVGID_00000014598997202575318690000011699633166273964426_);fill:#BE7D49;}
	.st32{clip-path:url(#SVGID_00000153667026665004947870000011047876802391182517_);}
	.st33{opacity:0.99;fill:#D4B5E0;enable-background:new    ;}
	.st34{fill:none;stroke:#124E93;stroke-width:1.6463;stroke-linecap:round;stroke-miterlimit:10;}
	.st35{fill:#33B45E;}
	.st36{fill:none;stroke:#FFFFFF;stroke-width:0.569;stroke-miterlimit:10;}
	.st37{fill:#47194D;}
	.st38{clip-path:url(#SVGID_00000094600027026247628770000002046092081178478246_);fill:#FF6464;}
	.st39{clip-path:url(#SVGID_00000148659126539227330790000016432171039758177161_);fill:#FF6464;}
	.st40{clip-path:url(#SVGID_00000067954669481728704580000012830768674957520531_);fill:#E9BE81;}
	.st41{clip-path:url(#SVGID_00000049198918382904374370000001295034033675847607_);fill:#E9BE81;}
	.st42{clip-path:url(#SVGID_00000138570017224437148020000008431694342929220536_);}
	.st43{fill:#E9BE81;}
	.st44{fill:#FFE3DF;}
	.st45{clip-path:url(#SVGID_00000042732367059312169980000004139999964942047115_);fill:#E9BE81;}
	.st46{clip-path:url(#SVGID_00000005242360041255073370000011086845307744357285_);fill:#093363;}
	.st47{clip-path:url(#SVGID_00000164504361754402670490000002894576836784378547_);fill:#FF7E45;}
	.st48{clip-path:url(#SVGID_00000054985992643171751230000000204242098501142925_);fill:#FF6464;}
	.st49{clip-path:url(#SVGID_00000016797291219600987700000008341947162551980457_);fill:#FF7E45;}
	.st50{clip-path:url(#SVGID_00000109738949952446678660000016117933322792713105_);fill:#FF7E45;}
	.st51{clip-path:url(#SVGID_00000045614070590773410380000010185317956559554987_);fill:#2E0C03;}
	.st52{clip-path:url(#SVGID_00000145018051928026008890000015461700623722802838_);fill:#33B45E;}
	
		.st53{opacity:0.99;fill:none;stroke:#7F7F7F;stroke-width:0.9878;stroke-linecap:round;stroke-linejoin:round;stroke-miterlimit:10;enable-background:new    ;}
	.st54{clip-path:url(#SVGID_00000111167563591148572710000006775076679480335780_);fill:#92513B;}
	.st55{clip-path:url(#SVGID_00000117649068893815660370000012050625213301265849_);}
	.st56{fill:#D0DBD9;}
	.st57{fill:#293133;}
	.st58{clip-path:url(#SVGID_00000178905000135815670480000000774575355733204608_);}
	.st59{clip-path:url(#SVGID_00000107579339771997375800000004686494880906500538_);fill:#FFE3DF;}
	.st60{clip-path:url(#SVGID_00000176723620786960267100000008006997354623641241_);fill:#FF7E45;}
	.st61{clip-path:url(#SVGID_00000005967971521645495910000011487912428185749898_);fill:#093363;}
	.st62{clip-path:url(#SVGID_00000112614105390886403610000016180329596871688840_);fill:#093363;}
	.st63{clip-path:url(#SVGID_00000044163874315513785920000010759421367168537731_);fill:#093363;}
	.st64{clip-path:url(#SVGID_00000084516091265269508340000012192920920459440513_);fill:#093363;}
	.st65{clip-path:url(#SVGID_00000104691524894927716820000017595542522251689107_);fill:#FFE3DF;}
	.st66{clip-path:url(#SVGID_00000086677800200925677320000000877743526373648779_);fill:#FF6464;}
	.st67{clip-path:url(#SVGID_00000181053628947674258570000017822173546283018370_);fill:#FFE3DF;}
	.st68{clip-path:url(#SVGID_00000152251655538639935500000004664286652588153238_);fill:#33B45E;}
	.st69{clip-path:url(#SVGID_00000031204967972378968080000014221109082465374084_);fill:#131818;}
	.st70{clip-path:url(#SVGID_00000039116736345561433720000000291770191120057276_);fill:#708484;}
	.st71{clip-path:url(#SVGID_00000011733269708364550100000006467083694773367954_);fill:#708484;}
	.st72{clip-path:url(#SVGID_00000089552348622186795250000012237615117665191044_);fill:#708484;}
	.st73{clip-path:url(#SVGID_00000111173578795871502100000003611551788016223649_);fill:#708484;}
	.st74{clip-path:url(#SVGID_00000013910267166185116010000014396583423283470258_);fill:#708484;}
	.st75{clip-path:url(#SVGID_00000137817858573899365200000008261966067237424272_);fill:#131818;}
	.st76{clip-path:url(#SVGID_00000120539888091220704030000011894651632237549455_);fill:#708484;}
	.st77{clip-path:url(#SVGID_00000078038407405408629150000013905646764722891394_);fill:#708484;}
	.st78{clip-path:url(#SVGID_00000141427082559334575090000015171144160341758080_);fill:#84329B;}
	.st79{clip-path:url(#SVGID_00000116210678824215975920000004786317108525974416_);fill:#131818;}
	.st80{clip-path:url(#SVGID_00000036949845161847624230000017121630577286440352_);}
	.st81{clip-path:url(#SVGID_00000078007807354472131910000009602163204360600766_);fill:#FFE3DF;}
	.st82{clip-path:url(#SVGID_00000003821090792364010130000016635550551497976760_);fill:#FFE3DF;}
	.st83{clip-path:url(#SVGID_00000002356853347227206610000012121621626390601902_);fill:#2E0C03;}
	.st84{clip-path:url(#SVGID_00000046315769512612470790000016339660128731353254_);fill:#92513B;}
	.st85{clip-path:url(#SVGID_00000013184825619467818090000010953365926053084321_);}
	.st86{fill:#92513B;}
	.st87{clip-path:url(#SVGID_00000009559585403675997710000009618572644920765572_);fill:#92513B;}
	.st88{clip-path:url(#SVGID_00000068660165276542219850000009353239981575155373_);fill:#093363;}
	.st89{clip-path:url(#SVGID_00000042702976533158204990000009679527695001055672_);fill:#093363;}
	.st90{clip-path:url(#SVGID_00000054252387842879545640000006006149509884434588_);fill:#84329B;}
	.st91{clip-path:url(#SVGID_00000067209938658122835350000000735475962004253107_);fill:#92513B;}
	.st92{clip-path:url(#SVGID_00000083768964134637393000000014398817476973279123_);fill:#2E0C03;}
	.st93{clip-path:url(#SVGID_00000072960970410186609320000016218138071609060285_);fill:#2E0C03;}
	.st94{clip-path:url(#SVGID_00000183231207735369985170000008606743995430087557_);fill:#84329B;}
	.st95{clip-path:url(#SVGID_00000147927021028529742170000013739948889852651163_);fill:#84329B;}
</style>
<g>
	<circle class="st0" cx="99" cy="90" r="90"/>
	<g>
		<g>
			<defs>
				<circle id="SVGID_1_" cx="99" cy="90" r="90"/>
			</defs>
			<clipPath id="SVGID_00000025444873901282560390000013731464315045278620_">
				<use xlink:href="#SVGID_1_"  style="overflow:visible;"/>
			</clipPath>
			<g style="clip-path:url(#SVGID_00000025444873901282560390000013731464315045278620_);">
				<path class="st2" d="M182.9,145.4c0-0.1,0-0.3,0-0.4l0,0c0-1.2,0-2.1,0-2.6c0-14.6,14.2-5.2,16.3-9.8
					c2.2-4.7,16.1-22.4,16.1-32.8c0-7.1-36.6-19.5-36.6-19.5C128.3,65.8,66.3,63.8,16.5,86.7c0,0-27.9,13.5-24.2,21.4
					c3.4,7.2,12.6,11.2,22.9,33.3c0.5,1,0.3,2.2,0.3,3.5c-0.1,0-0.2,0-0.2,0c-2.2,10.1-8.5,20-0.7,20.6c8.9,0.6,0,13.8,9.4,13.9
					c5.9,0,26.3,7.1,31.4,10c5.3,3,43.5-8.2,53.9-9c15.2,0.1,41.7,9.5,51.7,3.3c8.7-5.5,0.4-22.4,10.1-22.6
					c7.6-0.2,10.5-7,11.7-14.4h0.1C182.9,146,182.9,145.7,182.9,145.4z"/>
			</g>
		</g>
	</g>
	<g>
		<g>
			<path class="st3" d="M44.5,24.9"/>
			<path class="st4" d="M21.2,64"/>
		</g>
		<g>
			<g>
				<path class="st5" d="M163.9,56.7c0,0,0.5,18.8-18.6,23.9c-4.1,1.1-5.5-0.5-3-4.9C145.8,69.8,142.6,62.4,163.9,56.7z"/>
				<line class="st6" x1="160" y1="61.5" x2="148" y2="74.2"/>
				<polyline class="st6" points="155.6,61.9 156.4,65.2 160.3,64.7 				"/>
				<polyline class="st6" points="158.5,67.8 153.6,68.4 152.5,64.7 				"/>
				<line class="st6" x1="150.6" y1="70.7" x2="149.5" y2="66.9"/>
				<g>
					<path class="st5" d="M144.6,47.4c0,0-17.3,7.5-13.7,27c0.8,4.1,6.9,6.3,9.8,2.1C144.6,70.9,148.5,69.1,144.6,47.4z"/>
					<line class="st6" x1="141" y1="54.4" x2="135.9" y2="68.5"/>
					<polyline class="st6" points="137.1,56.9 138.5,60.7 143.3,59.1 					"/>
					<polyline class="st6" points="134.8,62.2 136.8,66.1 142.3,64.5 					"/>
				</g>
			</g>
			<g>
				<path class="st5" d="M31.7,56.7c0,0-0.5,18.8,18.6,23.9c4.1,1.1,5.5-0.5,3-4.9C49.8,69.8,53,62.4,31.7,56.7z"/>
				<line class="st6" x1="35.6" y1="61.5" x2="47.5" y2="74.2"/>
				<polyline class="st6" points="40,61.9 39.1,65.2 35.3,64.7 				"/>
				<polyline class="st6" points="37,67.8 42,68.4 43,64.7 				"/>
				<line class="st6" x1="45" y1="70.7" x2="46" y2="66.9"/>
				<g>
					<path class="st5" d="M51,47.4c0,0,17.3,7.5,13.7,27c-0.8,4.1-6.9,6.3-9.8,2.1C51,70.9,47,69.1,51,47.4z"/>
					<line class="st6" x1="54.5" y1="54.4" x2="59.7" y2="68.5"/>
					<polyline class="st6" points="58.5,56.9 57.1,60.7 52.3,59.1 					"/>
					<polyline class="st6" points="60.7,62.2 58.8,66.1 53.2,64.5 					"/>
				</g>
			</g>
			<path class="st7" d="M163.3,98.6L163.3,98.6C163.1,99,163,99.1,163.3,98.6z"/>
			<path class="st7" d="M91.4,137"/>
			<path class="st8" d="M111.3,74.7l-3.6-1.5c-0.2-0.1-0.2-0.2-0.2-0.4V42.9c0-0.3,0.2-0.4,0.5-0.3l3.6,1.5c0.1,0,0.2,0.2,0.2,0.3
				v29.9C111.7,74.6,111.5,74.8,111.3,74.7z"/>
			<path class="st8" d="M171.6,129H168c-0.2,0-0.3-0.1-0.3-0.3V68.9c0-0.2,0.2-0.4,0.5-0.3l3.6,1.4c0.1,0.1,0.2,0.2,0.2,0.3v58.3
				C172,128.8,171.8,129,171.6,129z"/>
			<path class="st9" d="M167.5,129h-140c-0.7,0-1.3-0.6-1.3-1.3V69.8c0-0.7,0.6-1.3,1.3-1.3h140c0.7,0,1.3,0.6,1.3,1.3v57.9
				C168.8,128.4,168.2,129,167.5,129z"/>
			<path class="st9" d="M107.2,73.1H87.8c-0.7,0-1.3-0.6-1.3-1.3v-28c0-0.7,0.6-1.3,1.3-1.3h19.3c0.7,0,1.3,0.6,1.3,1.3v28
				C108.5,72.5,107.9,73.1,107.2,73.1z"/>
			<circle class="st10" cx="97.5" cy="56.3" r="7.3"/>
			<g>
				<g>
					<defs>
						<polygon id="SVGID_00000127744273141364545360000011122179082632918672_" points="103.6,14.9 129.8,14.9 129.8,69.4 104,69.4 
													"/>
					</defs>
					<clipPath id="SVGID_00000178202639953250000890000018089196400924939913_">
						<use xlink:href="#SVGID_00000127744273141364545360000011122179082632918672_"  style="overflow:visible;"/>
					</clipPath>
					<path style="clip-path:url(#SVGID_00000178202639953250000890000018089196400924939913_);fill:#BE7D49;" d="M112.8,31.3
						c0,0,0.3,0,0.3-0.1c0.1-0.1,0.7-0.4,0.8-0.4c0,0,0.1,0.1-0.1-0.1c0,0,0.1-0.5,0-0.5c0-0.1,0-0.2,0-0.2c0-0.1,0-0.2-0.1-0.2l0,0
						v-0.1v-0.1v-0.1v-0.1c0-0.1,0-0.2-0.1-0.2v-0.1c0,0,0,0,0-0.1l0,0v-0.1l0,0l0,0l0,0l0,0c-0.1,0-0.1,0.1-0.1,0.2c0,0,0,0,0,0.1
						l0,0l0,0c0,0,0,0,0,0.1v0.1v0.1v0.1l0,0l0,0c0,0,0,0,0,0.1l0,0l0,0l0,0l0,0l0,0c0,0,0,0,0-0.1s-0.1-0.1-0.1-0.2l-0.1-0.1
						c-0.1-0.1-0.1-0.2-0.2-0.3l0,0l0,0l0,0l0,0l0,0l0,0l0,0l0,0l0,0l0,0l0,0c-0.1-0.2-0.2-0.3-0.4-0.5l-0.1-0.1l0,0l0,0l0,0l0,0
						l0,0l0,0l0,0c0,0,0,0-0.1,0l0,0l0,0c0,0,0,0-0.1,0l0,0c0,0,0,0,0,0.1v0.1c0,0.1,0.1,0.2,0.1,0.3c0.1,0.1,0.1,0.2,0.1,0.3
						l0.1,0.1l0,0c0,0,0,0.1-0.1,0.1c0,0,0-0.1-0.1-0.1l0,0l-0.1-0.1l-0.1-0.1V29c0-0.1-0.1-0.1-0.1-0.2c0,0,0,0-0.1-0.1l0,0l0,0
						c0,0,0,0-0.1,0l0,0l0,0c0,0,0,0-0.1,0v0.1v0.1c0,0.1,0,0.1,0.1,0.2l0.1,0.1l0,0l0,0l-0.1-0.1l0,0v0.1v0.1c0,0.1,0,0.1,0.1,0.2
						v0.1v0.1c0,0,0,0-0.1,0c0,0,0,0-0.1,0l0,0v0.1v0.1c0,0.1,0.1,0.1,0.1,0.2c0.1,0.1,0.1,0.2,0.2,0.3c0,0.1,0.1,0.1,0.1,0.2
						c0.1,0.1,0.1,0.3,0.2,0.4S112.7,31.3,112.8,31.3l-0.1,0.2C112.5,31.1,112.6,31.2,112.8,31.3C112.7,31.3,112.7,31.3,112.8,31.3
						L112.8,31.3z"/>
				</g>
				<g>
					<defs>
						<polygon id="SVGID_00000143576578755129969320000000579071119127887232_" points="103.6,14.9 129.8,14.9 129.8,69.4 104,69.4 
													"/>
					</defs>
					<clipPath id="SVGID_00000036218888499384053050000017002585146961947312_">
						<use xlink:href="#SVGID_00000143576578755129969320000000579071119127887232_"  style="overflow:visible;"/>
					</clipPath>
					<g style="clip-path:url(#SVGID_00000036218888499384053050000017002585146961947312_);">
						<path class="st13" d="M120.4,24.6l-4.3,2.2c-0.2,0.1-0.5,0-0.7-0.2l-3.3-4.7c-0.2-0.3,0-0.8,0.4-0.8h1.6
							c0.2,0,0.4-0.1,0.5-0.3l0.8-1.6c0.2-0.3,0.6-0.4,0.9-0.1l4.4,4.8C120.8,24.1,120.7,24.5,120.4,24.6z"/>
						<line class="st14" x1="105.6" y1="32.3" x2="120.6" y2="24.6"/>
					</g>
				</g>
				<g>
					<defs>
						<polygon id="SVGID_00000139990019622257236860000008621671513476333500_" points="103.6,14.9 129.8,14.9 129.8,69.4 104,69.4 
													"/>
					</defs>
					<clipPath id="SVGID_00000080894429694822894020000011128742222366891441_">
						<use xlink:href="#SVGID_00000139990019622257236860000008621671513476333500_"  style="overflow:visible;"/>
					</clipPath>
					<path style="clip-path:url(#SVGID_00000080894429694822894020000011128742222366891441_);fill:#BE7D49;" d="M116.9,63L116.9,63
						C116.9,62.9,116.9,62.9,116.9,63C116.9,62.9,116.9,63,116.9,63z M117.9,64.6L117.9,64.6L117.9,64.6L117.9,64.6z M117.9,67.7
						C117.9,67.6,117.9,67.6,117.9,67.7C117.9,67.6,117.9,67.6,117.9,67.7z M117.6,67.7L117.6,67.7L117.6,67.7L117.6,67.7z
						 M117.5,67.8L117.5,67.8L117.5,67.8L117.5,67.8z M117.6,68.2C117.5,68.1,117.5,68.1,117.6,68.2c-0.1-0.1-0.2-0.1-0.2-0.1
						s-0.1-0.1-0.1-0.2v-0.1c0-0.1,0-0.2,0-0.2c0-0.2,0-0.3,0-0.5c0-0.4-0.1-0.8-0.1-1.2c-0.1-0.4-0.1-0.9-0.2-1.3
						c0-0.4-0.1-0.9-0.1-1.3c0-0.5,0-0.9-0.1-1.4c0-0.4,0-0.9,0-1.3c0-0.2,0-0.4,0-0.6c0-0.2,0-0.4,0-0.6c0-0.1,0-0.4,0.2-0.3
						c0.1,0,0.1,0.1,0.1,0.2c0,0.1,0,0.2,0,0.2c0,0.2,0.1,0.4,0.1,0.5c0.1,0,0.1,0,0.2,0s0.1,0,0.1,0.1c0,0,0,0,0,0.1l0,0
						c0-0.2,0.1-0.5,0.2-0.7c0-0.1,0.1-0.1,0.1-0.2c0.1-0.1,0.1-0.1,0.2-0.2c0.1,0,0.1-0.1,0.2-0.1s0.2,0,0.3,0.1
						c0.1,0.1,0.3,0.2,0.3,0.4c0,0.1,0,0.3,0,0.4c0,0.2,0,0.4,0,0.6c0,0.4-0.1,0.8-0.1,1.3c0,0.4-0.1,0.9-0.1,1.3
						c0,0.4-0.1,0.9-0.2,1.3c-0.1,0.5-0.1,0.9-0.2,1.4c-0.1,0.7-0.1,1.4-0.2,2.1l0,0l0,0l0,0c0,0.1,0,0.2-0.1,0.3
						c0,0.1-0.1,0.2-0.1,0.2C117.7,68.2,117.7,68.2,117.6,68.2L117.6,68.2z"/>
				</g>
				<g>
					<defs>
						<polygon id="SVGID_00000144319582060206756540000002391438180787115453_" points="103.6,14.9 129.8,14.9 129.8,69.4 104,69.4 
													"/>
					</defs>
					<clipPath id="SVGID_00000108287824205010367010000010673536852333689228_">
						<use xlink:href="#SVGID_00000144319582060206756540000002391438180787115453_"  style="overflow:visible;"/>
					</clipPath>
					<path style="clip-path:url(#SVGID_00000108287824205010367010000010673536852333689228_);fill:#BE7D49;" d="M121.3,59.6
						L121.3,59.6L121.3,59.6L121.3,59.6z M121.8,67.8L121.8,67.8c0-0.1,0-0.1,0-0.2c-0.1-0.1-0.1-0.2-0.1-0.3c0-0.1,0-0.2-0.1-0.3
						c0-0.2-0.1-0.3-0.1-0.5c-0.1-0.2-0.1-0.5-0.2-0.7c-0.2-0.9-0.5-1.7-0.6-2.6c-0.2-0.9-0.3-1.8-0.4-2.6c0-0.1,0-0.3,0-0.4
						c0-0.1,0-0.1,0-0.2v-0.1c0-0.1,0.1-0.1,0.2,0l0.1,0.1c0,0,0,0,0.1,0l0.1,0.1c0,0,0,0.1,0.1,0.1c0,0,0,0,0.1,0s0.2,0,0.2,0
						s0,0,0.1,0l0.1,0.1l0,0c0-0.1,0-0.2,0-0.2c0-0.2,0-0.5,0.1-0.7c0-0.1,0-0.2,0.1-0.2c0.1-0.1,0.1-0.1,0.2-0.1s0.1,0,0.2,0.1
						s0.1,0.2,0.1,0.2c0,0.1,0,0.1,0,0.2c0,0.1,0,0.2,0,0.3c0.1,0.5,0.1,0.9,0.2,1.4c0,0.4,0.1,0.9,0.1,1.3c0,0.4,0.1,0.9,0.1,1.4
						c0,0.4,0.1,0.9,0.1,1.3s0.1,0.9,0.1,1.3c0,0.2,0,0.4,0,0.6c0,0.1,0,0.3-0.1,0.4c0,0,0,0-0.1,0c0,0.1-0.1,0.2-0.2,0.2
						c0,0,0,0-0.1,0C121.9,67.9,121.9,67.9,121.8,67.8z"/>
				</g>
				<g>
					<defs>
						<polygon id="SVGID_00000036973326723268611180000011122046641625197500_" points="103.6,14.9 129.8,14.9 129.8,69.4 104,69.4 
													"/>
					</defs>
					<clipPath id="SVGID_00000019656365639926369220000014737090836007196307_">
						<use xlink:href="#SVGID_00000036973326723268611180000011122046641625197500_"  style="overflow:visible;"/>
					</clipPath>
					<path style="clip-path:url(#SVGID_00000019656365639926369220000014737090836007196307_);fill:#D9B173;" d="M114.2,53.8
						C114.2,53.8,114.1,53.8,114.2,53.8C114.2,53.7,114.2,53.7,114.2,53.8C114.2,53.8,114.2,53.8,114.2,53.8L114.2,53.8z"/>
				</g>
				<g>
					<defs>
						<polygon id="SVGID_00000083089075956482595170000008021564948662671532_" points="103.6,14.9 129.8,14.9 129.8,69.4 104,69.4 
													"/>
					</defs>
					<clipPath id="SVGID_00000007409047290619886100000006151687188482378401_">
						<use xlink:href="#SVGID_00000083089075956482595170000008021564948662671532_"  style="overflow:visible;"/>
					</clipPath>
					<path style="clip-path:url(#SVGID_00000007409047290619886100000006151687188482378401_);fill:#093363;" d="M122.4,48.6
						L122.4,48.6L122.4,48.6L122.4,48.6L122.4,48.6L122.4,48.6C122.5,48.6,122.5,48.6,122.4,48.6C122.5,48.6,122.5,48.6,122.4,48.6
						L122.4,48.6L122.4,48.6L122.4,48.6C122.5,48.6,122.5,48.7,122.4,48.6L122.4,48.6L122.4,48.6C122.5,48.7,122.5,48.7,122.4,48.6z
						"/>
				</g>
				<g>
					<defs>
						<polygon id="SVGID_00000059989521005653268750000013409849380271242385_" points="103.6,14.9 129.8,14.9 129.8,69.4 104,69.4 
													"/>
					</defs>
					<clipPath id="SVGID_00000077288776710737291490000016104151901551017648_">
						<use xlink:href="#SVGID_00000059989521005653268750000013409849380271242385_"  style="overflow:visible;"/>
					</clipPath>
					<path style="clip-path:url(#SVGID_00000077288776710737291490000016104151901551017648_);fill:#093363;" d="M124.6,58.8
						c-1.2-2.6-1.8-5.4-2-8.3v-0.1v-0.1v-0.1c0-0.1,0-0.2,0-0.3V50c0-0.1,0-0.1,0-0.2c0-0.1,0-0.1,0-0.2l0,0l0,0c0-0.2,0-0.3,0-0.4
						l0,0l0,0c0,0,0,0.1-0.1,0.1l0,0c-1.1,1.1-3.7,1.3-5.2,0.7l0,0c-0.1,0-0.2-0.1-0.3-0.1c0,0-0.1,0-0.1-0.1c0,0-0.1,0-0.1-0.1l0,0
						l0,0l0,0c0,0-0.1,0.1-0.2,0l0,0l0,0l0,0l0,0l0,0c0,0,0,0,0,0.1c0,0.3-0.1,0.6-0.1,0.8v0.1c-0.7,2.4-1,5.1-1.4,7.6l0,0
						c0,0,0,0,0,0.1l0,0c-1.2,2.7,6.4,3.1,9.2,1.3C124.3,59.4,124.6,59.2,124.6,58.8z"/>
				</g>
				<g>
					<defs>
						<polygon id="SVGID_00000153676895477828718910000001124857753689866666_" points="103.6,14.9 129.8,14.9 129.8,69.4 104,69.4 
													"/>
					</defs>
					<clipPath id="SVGID_00000075857446497868509160000000861052674682281128_">
						<use xlink:href="#SVGID_00000153676895477828718910000001124857753689866666_"  style="overflow:visible;"/>
					</clipPath>
					<path style="clip-path:url(#SVGID_00000075857446497868509160000000861052674682281128_);fill:#BE7D49;" d="M110.5,32.5
						c0.1-0.6,0.5-0.6,1-0.6c0-0.4,0-1.7,0-2.1c0-0.2-0.1-0.7-0.3-0.4c-0.1,0.2-0.1,1-0.3,0.3c-0.1-0.4-0.3-0.8-0.5-1.2
						c-0.1-0.1-0.1-0.3-0.3-0.2c-0.1,0.1,0,0.5,0.1,0.6c0.1,0.2,0.1,0.2,0,0.4c-0.1-0.2-0.2-0.6-0.3-0.8c-0.2-0.2-0.1,0.4-0.1,0.5
						c0-0.1-0.1-0.2-0.2-0.1s0,0.4,0,0.5c-0.2-0.3-0.1,0.3-0.1,0.3c0.1,0.2,0.1,0.5,0.2,0.7s0.1,0.5,0.2,0.7
						C110,31.4,111,33,110.5,32.5z"/>
				</g>
				<g>
					<defs>
						<polygon id="SVGID_00000168826464884477317520000014700313960400871072_" points="103.6,14.9 129.8,14.9 129.8,69.4 104,69.4 
													"/>
					</defs>
					<clipPath id="SVGID_00000105425854661732602910000002025825737312118459_">
						<use xlink:href="#SVGID_00000168826464884477317520000014700313960400871072_"  style="overflow:visible;"/>
					</clipPath>
					<path style="clip-path:url(#SVGID_00000105425854661732602910000002025825737312118459_);fill:#FF9998;" d="M116.7,49.5
						L116.7,49.5L116.7,49.5L116.7,49.5z M116.7,49.5L116.7,49.5L116.7,49.5L116.7,49.5z M116.7,49.5L116.7,49.5L116.7,49.5
						L116.7,49.5z M117,49.9c-0.1,0-0.2,0-0.2,0c-0.1,0-0.1,0-0.2-0.1c-0.1,0-0.1-0.1-0.2-0.2l0,0l0,0c0,0,0,0,0.1-0.1h0.1h0.1h0.1
						c0,0,0.1,0,0.2,0s0.1,0,0.2,0h0.1h0.1l0.1,0.1c0,0,0,0,0,0.1c0,0,0,0-0.1,0s-0.1,0-0.2,0C117.1,49.9,117.1,49.9,117,49.9
						C117.1,49.9,117.1,49.9,117,49.9z"/>
				</g>
				<g>
					<defs>
						<polygon id="SVGID_00000062888223178037278460000002848388683178108315_" points="103.6,14.9 129.8,14.9 129.8,69.4 104,69.4 
													"/>
					</defs>
					<clipPath id="SVGID_00000058569539174873352720000011959198864360068768_">
						<use xlink:href="#SVGID_00000062888223178037278460000002848388683178108315_"  style="overflow:visible;"/>
					</clipPath>
					<path style="clip-path:url(#SVGID_00000058569539174873352720000011959198864360068768_);fill:#84329B;" d="M120.7,50.9
						c0.7,0,2.3,0.1,2.3-0.8c-0.2-2,0-3.9-0.1-5.9c-0.2-2.9-0.4-5.8-1-6.8c-0.8-1.3-1.3-1.5-3.7-1.8c-1-0.1-4.1-4.3-4.4-5.2
						l-1.3,0.6c0,0.8,1.5,3.2,2.7,4.7c1.5,1.8,2.8,1.7,2.5,2.2c-1.2,1.7-5.9-4.6-6.3-6.6l-1.3,0.5c0.5,2.6,2.1,5,3.7,7.1
						c1.9,2.1,3.3,2.8,3.3,5c0,1.6-0.1,3.1-0.7,4.6c-0.1,0.4-0.4,0.7-0.4,1.2C116.8,50.8,120,50.8,120.7,50.9z"/>
				</g>
				<g>
					<defs>
						<polygon id="SVGID_00000166634924864488557150000011171130941158948792_" points="103.6,14.9 129.8,14.9 129.8,69.4 104,69.4 
													"/>
					</defs>
					<clipPath id="SVGID_00000080206370988147631500000005123946790771369128_">
						<use xlink:href="#SVGID_00000166634924864488557150000011171130941158948792_"  style="overflow:visible;"/>
					</clipPath>
					<g style="clip-path:url(#SVGID_00000080206370988147631500000005123946790771369128_);">
						<path class="st24" d="M268.8,46.1L268.8,46.1c-0.2,0.2-0.3,0.2-0.4,0.3s-0.3,0.1-0.5,0.2c-0.2,0.1-0.4,0.2-0.7,0.2
							c-0.2,0-0.5,0.1-0.7,0.1l0,0c-0.2,0-0.5,0-0.8-0.1c-0.3,0-0.5-0.1-0.7-0.2c-0.2-0.1-0.5-0.2-0.6-0.4c-0.1-0.1-0.2-0.2-0.2-0.3
							s-0.1-0.2-0.1-0.3c-0.1-0.2-0.1-0.4-0.2-0.7l0,0l0,0v-0.1l0,0l0,0l0,0c0-0.1,0-0.3-0.1-0.4c0-0.1-0.1-0.2-0.1-0.3
							c-0.1-0.1-0.1-0.2-0.2-0.3c-0.1-0.2-0.3-0.3-0.5-0.4l0,0c-0.2-0.1-0.3-0.3-0.5-0.4c-0.2-0.2-0.3-0.4-0.4-0.5
							c-0.1-0.2-0.2-0.4-0.3-0.7c-0.1-0.2-0.1-0.4-0.1-0.6v-0.1c0-0.2,0-0.4,0-0.5c0-0.2,0.1-0.4,0.2-0.6c0.1-0.2,0.1-0.4,0.2-0.6
							l0,0l0,0c0.2-0.4,0.4-0.8,0.7-1.2l0,0c0.1-0.1,0.2-0.3,0.3-0.4l0,0c0.2-0.3,0.4-0.5,0.5-0.7l0,0c0-0.1,0.1-0.2,0.1-0.3
							s0.1-0.2,0.1-0.3v-0.1c0,0,0,0,0-0.1v-0.1c0,0,0,0,0-0.1l0,0c0,0-0.1,0-0.1,0.1c0,0,0,0-0.1,0l-0.1,0.1c0,0,0,0.1-0.1,0.1l0,0
							c0,0,0,0-0.1,0c0,0-0.1,0-0.1,0.1l0,0l0,0l0,0l0,0l0,0l0,0c-0.1,0.1-0.2,0.2-0.3,0.3c-0.1,0.1-0.2,0.2-0.3,0.3
							s-0.2,0.2-0.3,0.3c-0.1,0.1-0.2,0.2-0.3,0.3l-0.1,0.1c-0.2,0.2-0.4,0.4-0.7,0.7c-0.1,0.1-0.1,0.1-0.2,0.2l0,0
							c-0.1,0.1-0.1,0.2-0.2,0.3c-0.1,0.2-0.2,0.4-0.2,0.6c-0.1,0.4-0.2,0.8-0.2,1.2c0,0.2,0,0.4-0.1,0.6v0.1v0.1l0,0l0,0
							c0,0.1,0,0.2,0,0.4c-0.1,0.7-0.1,1.3-0.2,1.9c-0.2-0.2-0.5-0.4-0.7-0.6c0,0,0,0-0.1,0l0,0c0,0,0,0-0.1-0.1l0,0
							c-0.2-0.1-0.4-0.3-0.6-0.4c-0.1-0.1-0.2-0.1-0.3-0.2c-0.1,0-0.1-0.1-0.2-0.1H258l0,0c-0.1,0-0.1,0-0.2,0c0,0-0.1,0-0.1,0.1
							c0,0,0,0-0.1,0l0,0c-0.1,0-0.1,0.1-0.1,0.1v0.1c0.1,0.2,0.2,0.4,0.3,0.6c0.1,0.2,0.2,0.4,0.4,0.7c0.2,0.4,0.5,0.8,0.8,1.2l0,0
							c0,0,0,0,0,0.1l0,0l0,0l0,0l0,0c0.2,0.3,0.3,0.6,0.5,0.9c0.1,0.1,0.2,0.2,0.3,0.3c0.1,0.1,0.3,0.1,0.4,0.2l0,0
							c0.2,0,0.3-0.1,0.5-0.1c0.2-0.1,0.3-0.2,0.5-0.4l0.1-0.1c0,0.2,0,0.4,0,0.6c0,0.4,0,0.8,0,1.2c0,0.2,0,0.4,0.1,0.6
							c0,0.2,0.1,0.3,0.2,0.5c0,0,0,0,0,0.1v0.1v0.1v0.1c0,0.1,0,0.1,0,0.2l0,0l0,0c0,0.1,0.1,0.2,0.2,0.2c0,0,0,0,0.1,0h0.1
							c0.1,0,0.1,0.1,0.2,0.1c0.2,0.1,0.4,0.2,0.7,0.3c0.2,0.1,0.4,0.1,0.6,0.2c0.3,0.1,0.6,0.1,0.8,0.1h0.1c0.2,0,0.5,0,0.8-0.1
							c0.4-0.1,0.7-0.1,1-0.2c0.3-0.1,0.6-0.2,0.9-0.3c0.1,0,0.2-0.1,0.3-0.2c0.1-0.1,0.2-0.1,0.3-0.2c0.1-0.1,0.1-0.1,0.1-0.2
							l0.1-0.1l0,0c0,0.1,0,0.3,0,0.4l0,0l0,0v-0.1v0.1c0-0.1,0-0.1,0-0.2c0-0.1,0-0.2,0-0.3v0.1c0-0.3,0.1-0.7,0.3-1v-0.1
							c0-0.1,0-0.1,0.1-0.1c0-0.1,0-0.1,0-0.2c0-0.1,0-0.1,0.1-0.2c0-0.1,0-0.2,0.1-0.3c0-0.1,0-0.2,0.1-0.2c0-0.1,0-0.1,0-0.2v0.1
							c0-0.1,0-0.2,0-0.3s0-0.1,0-0.2c0-0.1,0-0.1,0-0.2C268.6,46.3,268.8,46.1,268.8,46.1L268.8,46.1c0.1-0.1,0.1-0.1,0.1-0.2
							C268.9,45.9,268.8,46,268.8,46.1z M267.9,48.6L267.9,48.6L267.9,48.6L267.9,48.6L267.9,48.6C268,48.6,268,48.6,267.9,48.6
							C268,48.6,268,48.6,267.9,48.6L267.9,48.6L267.9,48.6L267.9,48.6c0.1,0,0.1,0.1,0.1,0.1l0,0C268,48.7,267.9,48.7,267.9,48.6z"
							/>
						<path class="st24" d="M259.2,43.1L259.2,43.1L259.2,43.1z"/>
						<path class="st24" d="M259.1,43.1L259.1,43.1C259.1,43.1,259.2,43.1,259.1,43.1C259.2,43.1,259.1,43.1,259.1,43.1z"/>
					</g>
				</g>
				<g>
					<defs>
						<polygon id="SVGID_00000057145780571850276100000005699168856132302208_" points="103.6,14.9 129.8,14.9 129.8,69.4 104,69.4 
													"/>
					</defs>
					<clipPath id="SVGID_00000123420425148415309320000006688440122558370693_">
						<use xlink:href="#SVGID_00000057145780571850276100000005699168856132302208_"  style="overflow:visible;"/>
					</clipPath>
					<path style="clip-path:url(#SVGID_00000123420425148415309320000006688440122558370693_);fill:#84329B;" d="M118.1,68
						c0-0.1,0-0.1,0-0.2s0-0.1-0.1-0.2l-0.1-0.1h-0.1h-0.1c-0.1,0-0.2,0-0.2,0c-0.1,0-0.1,0-0.1,0.1l0,0c0,0,0,0-0.1,0.1v0.1v0.1
						h-0.1c-0.1,0-0.1,0-0.2,0s-0.2,0-0.4,0c-0.1,0-0.3,0-0.4-0.1c-0.1,0-0.2-0.1-0.4-0.1c-0.1,0-0.2-0.1-0.4-0.1
						c-0.1,0-0.4-0.1-0.4,0.1c-0.1,0.2,0.1,0.3,0.2,0.3c0,0,0,0,0.1,0c0,0,0,0,0.1,0.1s0.2,0.2,0.3,0.2c0.1,0.1,0.2,0.2,0.3,0.2
						c0.1,0.1,0.2,0.1,0.3,0.2l0,0l0,0l0,0l0,0c0.1,0,0.2,0.1,0.3,0.1c0.1,0,0.2,0,0.3,0.1l0,0c0.1,0,0.2,0,0.2,0h0.1l0,0
						c0,0.1,0,0.1,0,0.2s0,0.1,0.1,0.1c0,0,0,0.1,0.1,0.1s0.1,0.1,0.2,0.1h0.1c0.1,0,0.1-0.1,0.2-0.2s0.1-0.3,0.2-0.4
						c0-0.2,0-0.3,0.1-0.5v-0.1C118.1,68.1,118.1,68.1,118.1,68z"/>
				</g>
				<g>
					<defs>
						<polygon id="SVGID_00000109024404929425977930000012070986038586976928_" points="103.6,14.9 129.8,14.9 129.8,69.4 104,69.4 
													"/>
					</defs>
					<clipPath id="SVGID_00000163779557327629680400000006730183244025231548_">
						<use xlink:href="#SVGID_00000109024404929425977930000012070986038586976928_"  style="overflow:visible;"/>
					</clipPath>
					<path style="clip-path:url(#SVGID_00000163779557327629680400000006730183244025231548_);fill:#84329B;" d="M122.5,67.6
						c0-0.1,0-0.1,0-0.2s0-0.1-0.1-0.2l-0.1-0.1h-0.1h-0.1c-0.1,0-0.2,0-0.2,0c-0.1,0-0.1,0-0.1,0.1l0,0c0,0,0,0-0.1,0.1v0.1v0.1
						h-0.1c-0.1,0-0.1,0-0.2,0s-0.2,0-0.4,0c-0.1,0-0.3,0-0.4-0.1c-0.1,0-0.2-0.1-0.4-0.1c-0.1,0-0.2-0.1-0.4-0.1
						c-0.1,0-0.4-0.1-0.4,0.1c-0.1,0.2,0.1,0.3,0.2,0.3c0,0,0,0,0.1,0c0,0,0,0,0.1,0.1s0.2,0.2,0.3,0.2c0.1,0.1,0.2,0.2,0.3,0.2
						c0.1,0.1,0.2,0.1,0.3,0.2l0,0l0,0l0,0l0,0c0.1,0,0.2,0.1,0.3,0.1c0.1,0,0.2,0,0.3,0.1l0,0c0.1,0,0.2,0,0.2,0h0.1l0,0
						c0,0.1,0,0.1,0,0.2s0,0.1,0.1,0.1c0,0,0,0.1,0.1,0.1s0.1,0.1,0.2,0.1h0.1c0.1,0,0.1-0.1,0.2-0.2s0.1-0.3,0.2-0.4
						c0-0.2,0-0.3,0.1-0.5v-0.1C122.5,67.7,122.5,67.7,122.5,67.6z"/>
				</g>
				<g>
					<defs>
						<polygon id="SVGID_00000049916701593985964520000005777569392391234988_" points="103.6,14.9 129.8,14.9 129.8,69.4 104,69.4 
													"/>
					</defs>
					<clipPath id="SVGID_00000023258884681390325560000017879702484319009954_">
						<use xlink:href="#SVGID_00000049916701593985964520000005777569392391234988_"  style="overflow:visible;"/>
					</clipPath>
					<path style="clip-path:url(#SVGID_00000023258884681390325560000017879702484319009954_);fill:#BE7D49;" d="M145,33.7
						c-1.4-0.4-1.6-1.5-1.1-2.8v-0.1c0-0.1,0-0.1,0-0.2s-0.1-0.1-0.1-0.2c-0.1-0.1-0.2-0.3-0.4-0.5l0,0c-0.1-0.2-0.5-0.6-0.1-0.8
						c0.2-0.1,0.4-0.2,0.7-0.4c0.3-0.2,0.6-0.5,0.9-0.7c0,0.1,0,0.1,0,0.2c0,0.2,0,0.4,0.1,0.7c0.1,0.2,0.2,0.5,0.3,0.8l0,0
						c0,0.1,0.1,0.2,0.1,0.3c0,0.1,0,0.1,0,0.2c0,0.4-0.1,0.8-0.2,1.3c-0.1,0.2-0.1,0.4-0.1,0.6c0,0.1,0,0.2,0,0.3s0,0.3,0,0.5
						c0,0.1,0,0.3,0.1,0.4c0,0.1,0.1,0.2,0.1,0.3s0.1,0.1,0.1,0.2l0,0c0,0.1,0.5,0.6,0.6,0.7c-0.1,0-0.5,0.6-0.5,0.6
						C145.6,35,145.1,33.9,145,33.7z"/>
				</g>
				<g>
					<defs>
						<polygon id="SVGID_00000049216896684878271810000017525851209838699439_" points="103.6,14.9 129.8,14.9 129.8,69.4 104,69.4 
													"/>
					</defs>
					<clipPath id="SVGID_00000042717808628736526260000005144566432633132958_">
						<use xlink:href="#SVGID_00000049216896684878271810000017525851209838699439_"  style="overflow:visible;"/>
					</clipPath>
					<path style="clip-path:url(#SVGID_00000042717808628736526260000005144566432633132958_);" d="M218.4,51.7
						c-2.6-0.2-2.3-0.9-3-3.1c-1.6-1.6-2.4-2.4-1.4-4.7c0.3-1.1,1.7-1.9,1.7-3.2c-0.2-0.5-0.5-0.8-0.5-1.5c-0.1-0.8,0.4-1.6,0.3-2.5
						c-1.1-1.5-0.5-3.5,1.7-3.5c4.7-0.7,2.9,5.1,3.1,6.2c0.1,0.9,1,1.6,1,2.6l0,0l0,0c-0.3,4.1,0.9,3.1,0.8,5.5
						C222.5,49.6,220.5,51.7,218.4,51.7z"/>
				</g>
				<g>
					<defs>
						<polygon id="SVGID_00000155141355118561787080000011661367872917545913_" points="103.6,14.9 129.8,14.9 129.8,69.4 104,69.4 
													"/>
					</defs>
					<clipPath id="SVGID_00000049205201134689244860000008711534204647933314_">
						<use xlink:href="#SVGID_00000155141355118561787080000011661367872917545913_"  style="overflow:visible;"/>
					</clipPath>
					<path style="clip-path:url(#SVGID_00000049205201134689244860000008711534204647933314_);fill:#BE7D49;" d="M118.4,37.6
						c0.1-0.2,0.1-0.3,0.2-0.6h-0.1c-1.9-0.8-0.6-3.1-0.8-3.2c-0.9-0.7-0.1-0.9,0.7-1.3c0-0.2,1.3-1.9,1.5-1.4l0,0
						c3.8-1.2,4,4.3,1.3,5.8c0,0.1-0.1,0.7-0.1,0.7c0,0.1-0.8,0.9-1.8,0.7C119,38.2,118.3,37.9,118.4,37.6z"/>
				</g>
				<g>
					<defs>
						<polygon id="SVGID_00000119835613946575286650000012975975471632582530_" points="103.6,14.9 129.8,14.9 129.8,69.4 104,69.4 
													"/>
					</defs>
					<clipPath id="SVGID_00000081617111931256635300000012036405348576302760_">
						<use xlink:href="#SVGID_00000119835613946575286650000012975975471632582530_"  style="overflow:visible;"/>
					</clipPath>
					<path style="clip-path:url(#SVGID_00000081617111931256635300000012036405348576302760_);" d="M120.8,37.2
						c-0.2,0-0.4,0-0.6-0.2c-0.1-0.1-0.1-0.1-0.1-0.2v-0.1c0-0.1,0-0.2-0.1-0.3c0-0.2,0-0.4,0-0.5s0-0.2,0.1-0.2
						c0-0.1,0.1-0.1,0.1-0.2l0,0l0,0c0,0,0-0.1,0.1-0.1l0,0c0,0,0-0.1,0.1-0.1c0.1-0.1,0.1-0.3,0.2-0.4c0-0.1,0-0.1,0-0.2v-0.1
						c0,0,0,0,0-0.1l0,0l0,0h-0.1c0,0-0.1,0-0.2,0l0,0h-0.1c-0.1,0-0.1,0-0.1-0.1c0,0,0-0.1-0.1-0.1v-0.1v-0.1l0,0
						c0.1-0.3,0.1-0.5,0.1-0.8c0-0.1,0-0.2,0-0.3s0-0.2,0-0.3l0,0c-0.1,0-0.1-0.1-0.2-0.1c-0.1-0.1-0.2-0.1-0.3-0.2
						c-0.1-0.1-0.2-0.2-0.4-0.3c-0.1-0.1-0.2-0.2-0.3-0.3c-0.1-0.1-0.1-0.2-0.2-0.3l0,0c0,0,0,0-0.1,0c-0.1-0.1,0-0.2,0.1-0.2
						c0.1-0.1,0.1-0.1,0.2-0.2s0.3-0.1,0.5-0.2c0.1,0,0.2-0.1,0.3-0.1c0.1,0,0.2,0,0.2,0c0.1,0,0.1,0,0.1,0c0.1,0,0.3,0,0.4,0
						s0.1,0,0.1,0l0,0l0,0l0,0c0.1,0,0.1,0.1,0.1,0.2c0-0.1,0.1-0.1,0.1-0.1c0.1,0,0.1-0.1,0.2-0.1s0.2,0,0.3-0.1c0.1,0,0.1,0,0.2,0
						h0.1c0.2,0,0.5,0.1,0.8,0.2c0.1,0,0.1,0,0.2,0.1c0.1,0,0.2,0.1,0.2,0.1c0.1,0.1,0.2,0.1,0.2,0.2c0.1,0.1,0.2,0.2,0.3,0.4
						c0,0,0,0,0.1-0.1s0.2-0.2,0.3-0.2c0.1,0,0.1-0.1,0.2-0.1s0.1,0,0.2-0.1c0.1,0,0.2,0,0.3,0c0.1,0,0.3,0,0.4,0
						c0.2,0,0.5,0.1,0.7,0.3l0,0c0.1,0.1,0.2,0.1,0.3,0.2c0.1,0.1,0.2,0.2,0.3,0.3c0.1,0.1,0.1,0.2,0.2,0.3c0,0.1,0.1,0.2,0.1,0.4
						s0,0.4-0.1,0.7c0,0.1-0.1,0.2-0.1,0.3l0,0v0.1c0,0.1,0,0.1-0.1,0.2c-0.1,0.2-0.1,0.4-0.1,0.6c0,0.1,0,0.3,0,0.4
						c0,0.1,0,0.1,0.1,0.2c0,0,0,0.1,0.1,0.1c0,0,0,0,0.1,0.1c0,0,0.1,0,0.2,0.1h0.1c0.1,0,0.1,0,0.2,0s0.2-0.1,0.4-0.1h0.1l0,0l0,0
						l0,0c0,0,0,0,0.1,0l0,0h0.1c0,0,0.1,0,0.1-0.1c0.1,0,0.1-0.1,0.2-0.1l0,0c0.1,0,0.1,0,0.2,0.1c0,0,0.1,0.1,0.1,0.2
						c0,0.1,0,0.2-0.1,0.3s-0.1,0.2-0.2,0.3c-0.2,0.2-0.4,0.4-0.6,0.6c-0.2,0.2-0.4,0.3-0.7,0.4l0,0l0,0c-0.3,0.1-0.5,0.2-0.7,0.3
						c-0.1,0-0.3,0.1-0.4,0.1s-0.2,0-0.3,0c-0.1,0-0.1,0-0.2,0c-0.2,0-0.3-0.1-0.5-0.1c-0.2-0.1-0.3-0.1-0.4-0.3
						c-0.2-0.2-0.4-0.5-0.4-0.9c0-0.2,0-0.4,0-0.7v-0.1c0-0.1,0-0.1,0-0.2c-0.1,0.1-0.1,0.3-0.2,0.4c-0.2,0.4-0.4,0.8-0.8,1.1
						c-0.2,0.2-0.4,0.3-0.6,0.4c-0.2,0.1-0.4,0.2-0.6,0.3c-0.1,0-0.2,0.1-0.3,0.1C121,37.2,120.9,37.2,120.8,37.2z"/>
				</g>
				<g>
					<defs>
						<polygon id="SVGID_00000129169468378801074990000012961708119282910637_" points="103.6,14.9 129.8,14.9 129.8,69.4 104,69.4 
													"/>
					</defs>
					<clipPath id="SVGID_00000092414671785150358460000008154771358216443553_">
						<use xlink:href="#SVGID_00000129169468378801074990000012961708119282910637_"  style="overflow:visible;"/>
					</clipPath>
					<path style="clip-path:url(#SVGID_00000092414671785150358460000008154771358216443553_);fill:#BE7D49;" d="M113.9,30.8"/>
				</g>
				<g>
					<defs>
						<polygon id="SVGID_00000109014185311067024400000014825975166769210777_" points="103.6,14.9 129.8,14.9 129.8,69.4 104,69.4 
													"/>
					</defs>
					<clipPath id="SVGID_00000113354052300799081810000007700341948719596699_">
						<use xlink:href="#SVGID_00000109014185311067024400000014825975166769210777_"  style="overflow:visible;"/>
					</clipPath>
					<circle style="clip-path:url(#SVGID_00000113354052300799081810000007700341948719596699_);" cx="118.8" cy="33.3" r="0.2"/>
				</g>
			</g>
			<g>
				<path class="st33" d="M119.9,95.2h-9.7c-0.2,0-0.3-0.1-0.3-0.3V81.3c0-2.5,2-4.5,4.5-4.5h1.3c2.5,0,4.5,2,4.5,4.5v13.6
					C120.2,95.1,120,95.2,119.9,95.2z"/>
				<path class="st33" d="M139.8,95.2h-9.7c-0.2,0-0.3-0.1-0.3-0.3V81.3c0-2.5,2-4.5,4.5-4.5h1.3c2.5,0,4.5,2,4.5,4.5v13.6
					C140.1,95.1,140,95.2,139.8,95.2z"/>
				<path class="st33" d="M159.7,95.2H150c-0.2,0-0.3-0.1-0.3-0.3V81.3c0-2.5,2-4.5,4.5-4.5h1.3c2.5,0,4.5,2,4.5,4.5v13.6
					C160,95.1,159.9,95.2,159.7,95.2z"/>
			</g>
			<g>
				<path class="st33" d="M44.5,95.2h-9.7c-0.2,0-0.3-0.1-0.3-0.3V81.3c0-2.5,2-4.5,4.5-4.5h1.3c2.5,0,4.5,2,4.5,4.5v13.6
					C44.8,95.1,44.6,95.2,44.5,95.2z"/>
				<path class="st33" d="M64.4,95.2h-9.7c-0.2,0-0.3-0.1-0.3-0.3V81.3c0-2.5,2-4.5,4.5-4.5h1.3c2.5,0,4.5,2,4.5,4.5v13.6
					C64.7,95.1,64.5,95.2,64.4,95.2z"/>
				<path class="st33" d="M84.3,95.2h-9.7c-0.2,0-0.3-0.1-0.3-0.3V81.3c0-2.5,2-4.5,4.5-4.5h1.3c2.5,0,4.5,2,4.5,4.5v13.6
					C84.6,95.1,84.5,95.2,84.3,95.2z"/>
			</g>
			<g>
				<path class="st33" d="M119.9,119.5h-9.7c-0.2,0-0.3-0.1-0.3-0.3v-13.6c0-2.5,2-4.5,4.5-4.5h1.3c2.5,0,4.5,2,4.5,4.5v13.6
					C120.2,119.3,120,119.5,119.9,119.5z"/>
				<path class="st33" d="M139.8,119.5h-9.7c-0.2,0-0.3-0.1-0.3-0.3v-13.6c0-2.5,2-4.5,4.5-4.5h1.3c2.5,0,4.5,2,4.5,4.5v13.6
					C140.1,119.3,140,119.5,139.8,119.5z"/>
				<path class="st33" d="M159.7,119.5H150c-0.2,0-0.3-0.1-0.3-0.3v-13.6c0-2.5,2-4.5,4.5-4.5h1.3c2.5,0,4.5,2,4.5,4.5v13.6
					C160,119.3,159.9,119.5,159.7,119.5z"/>
			</g>
			<g>
				<path class="st33" d="M44.5,119.5h-9.7c-0.2,0-0.3-0.1-0.3-0.3v-13.6c0-2.5,2-4.5,4.5-4.5h1.3c2.5,0,4.5,2,4.5,4.5v13.6
					C44.8,119.3,44.6,119.5,44.5,119.5z"/>
				<path class="st33" d="M64.4,119.5h-9.7c-0.2,0-0.3-0.1-0.3-0.3v-13.6c0-2.5,2-4.5,4.5-4.5h1.3c2.5,0,4.5,2,4.5,4.5v13.6
					C64.7,119.3,64.5,119.5,64.4,119.5z"/>
				<path class="st33" d="M84.3,119.5h-9.7c-0.2,0-0.3-0.1-0.3-0.3v-13.6c0-2.5,2-4.5,4.5-4.5h1.3c2.5,0,4.5,2,4.5,4.5v13.6
					C84.6,119.3,84.5,119.5,84.3,119.5z"/>
			</g>
			<g>
				<line class="st34" x1="129.4" y1="79.6" x2="142.3" y2="131.7"/>
				<line class="st34" x1="120.5" y1="79.6" x2="133.4" y2="131.7"/>
				<line class="st34" x1="131.2" y1="87.4" x2="123" y2="87.4"/>
				<line class="st34" x1="133.5" y1="96.8" x2="125.3" y2="96.8"/>
				<line class="st34" x1="135.6" y1="106.3" x2="127.4" y2="106.3"/>
				<line class="st34" x1="137.9" y1="115.7" x2="129.7" y2="115.7"/>
				<line class="st34" x1="140.7" y1="125.1" x2="132.4" y2="125.1"/>
			</g>
			<g>
				<g>
					<path class="st35" d="M176.6,129c0.8,0,1.7,0,2.5-0.1s1.6-0.4,2.3-0.7s1.5-0.8,2-1.3c0.6-0.6,0.9-1.3,1.1-2
						c0.1-0.4,0.1-0.8,0.1-1.3c-0.1-0.4-0.2-0.8-0.3-1.2c-0.3-0.8-0.7-1.6-1-2.5c-0.1-0.4-0.2-0.8-0.2-1.2c0-0.4,0.1-0.8,0.2-1.1
						c0.3-0.6,0.7-1.2,1.1-1.7c0.5-0.7,1-1.4,1.4-2.1c0.3-0.8,0.5-1.6,0.6-2.4c0-0.4,0-0.8-0.1-1.2c-0.1-0.4-0.3-0.8-0.5-1.1
						c-0.4-0.7-0.8-1.5-1.2-2.2c-0.2-0.3-0.3-0.7-0.4-1.1c-0.1-0.4,0-0.8,0.1-1.1c0.3-0.6,0.7-1.2,1-1.8c0.4-0.7,0.8-1.4,1.2-2.2
						c0.3-0.8,0.6-1.6,0.5-2.5c-0.1-0.8-0.5-1.5-1.1-2c-0.7-0.5-1.5-0.5-2.3-0.2c-0.7,0.3-1.4,0.8-1.9,1.4c-0.3,0.3-0.6,0.6-0.8,1
						c-0.2,0.3-0.4,0.7-0.5,1c-0.3,0.7-0.6,1.4-0.9,2.1c-0.2,0.4-0.4,0.8-0.6,1.1c-0.3,0.3-0.6,0.6-0.9,0.8c-0.7,0.5-1.5,0.7-2.3,1
						s-1.5,0.7-2.2,1.1s-1.3,1-1.9,1.5c-0.6,0.6-1.1,1.3-1.5,2s-0.7,1.4-0.9,2.2c-0.2,0.7-0.3,1.5-0.5,2.2c-0.1,0.8-0.3,1.6-0.7,2.3
						c-0.4,0.7-0.8,1.4-1.4,2c-1.1,1.2-2.4,2.4-3.1,3.9c-0.4,0.8-0.5,1.6-0.6,2.4c-0.1,0.9-0.1,1.7-0.1,2.6c0,0.4,0.1,0.9,0.2,1.3
						c0.1,0.3,0.3,0.7,0.6,0.9s0.8,0.2,1.2,0.2s0.8,0,1.1,0c1.3,0,2.6,0,3.9,0c1.5,0,3,0,4.5,0C175,129,175.8,129,176.6,129z"/>
					<path class="st36" d="M186,96c0,0-13.7,21.2-14.4,33"/>
					<path class="st36" d="M186.1,112.8c0,0-4.3,2.2-10.6,1.6"/>
					<path class="st36" d="M183.9,121.3c0,0-3.3,3.2-12.3,2.5"/>
					<path class="st36" d="M184.5,122.8c0,0-5.6,5.2-12.9,2.9"/>
					<path class="st3" d="M175.3,120.1c0.3,0.6,0.8,1.2,1.1,1.8c0.3,0.6,0.6,1.2,0.8,1.9c0.3,1.3,0,2.8-0.7,3.9
						c-0.3,0.5-0.6,0.9-1,1.3h-22.7c-0.3-2-0.4-2.5-0.4-3.5c0-1.4,0.5-3.5,1.3-4.4c0.8-1,1.5-1.5,2.5-2.4c0.5-0.4,1.1-0.8,1.7-1.1
						c0.5-0.3,1.1-0.7,1.4-1.2c0.7-1.1,0.5-2.6,0.3-3.9c-0.1-0.7-0.3-1.3-0.4-2c-0.1-0.7,0-1.3,0.1-2c0.3-1.2,1-2.3,2-3.1
						c0.9-0.8,2.2-1.3,3.4-1.5c0.7-0.1,1.4-0.1,2.1-0.3c0.7-0.1,1.3-0.4,1.9-0.8c0.5-0.4,1-0.8,1.3-1.3c0.4-0.5,0.7-1.1,1.2-1.6
						c0.4-0.4,1-0.8,1.6-0.8s1.3,0.2,1.8,0.5c0.9,0.6,1.3,1.8,1.3,2.8c0,0.7-0.1,1.3-0.3,1.9c-0.2,0.7-0.5,1.4-0.5,2.1
						c-0.1,0.7,0.1,1.3,0.6,1.8s1,0.9,1.5,1.4c0.5,0.4,0.9,0.9,1.1,1.5c0.3,0.6,0.3,1.3,0.1,2c-0.3,1.3-1.1,2.4-1.9,3.4
						c-0.4,0.5-0.9,1-1.2,1.6c-0.2,0.3-0.3,0.6-0.2,1C175,119.5,175.2,119.8,175.3,120.1z"/>
					<path class="st36" d="M173.6,99.2c0,0-10.2,17.3-10.1,29.7"/>
					<path class="st36" d="M177.1,109.7c0,0-3.3,1.5-8.9,0.3"/>
					<path class="st36" d="M178.2,111.2c0,0-4.4,2.8-10.7,1.1"/>
					<path class="st36" d="M166.1,103.7c0,0-0.4,1.8,3,4.4"/>
					<path class="st36" d="M164.1,123.1c0,0-4.5,0.2-8.3-4.2"/>
					<path class="st36" d="M164.4,121.8c0,0,7.3,1.5,10.9-1.9"/>
				</g>
				<g>
					<g>
						<path class="st3" d="M21.5,129c-0.8,0-1.7,0-2.5-0.1s-1.6-0.4-2.3-0.7c-0.7-0.3-1.5-0.8-2-1.3c-0.6-0.6-0.9-1.3-1.1-2
							c-0.1-0.4-0.1-0.8-0.1-1.3c0.1-0.4,0.2-0.8,0.3-1.2c0.3-0.8,0.7-1.6,1-2.5c0.1-0.4,0.2-0.8,0.2-1.2c0-0.4-0.1-0.8-0.2-1.1
							c-0.3-0.6-0.7-1.2-1.1-1.7c-0.5-0.7-1-1.4-1.4-2.1c-0.3-0.8-0.5-1.6-0.6-2.4c0-0.4,0-0.8,0.1-1.2c0.1-0.4,0.3-0.8,0.5-1.1
							c0.4-0.7,0.8-1.5,1.2-2.2c0.2-0.3,0.3-0.7,0.4-1.1c0.1-0.4,0-0.8-0.1-1.1c-0.3-0.6-0.7-1.2-1-1.8c-0.4-0.7-0.8-1.4-1.2-2.2
							c-0.3-0.8-0.6-1.6-0.5-2.5c0.1-0.8,0.5-1.5,1.1-2c0.7-0.5,1.5-0.5,2.3-0.2c0.7,0.3,1.4,0.8,1.9,1.4c0.3,0.3,0.6,0.6,0.8,1
							c0.2,0.3,0.4,0.7,0.5,1c0.3,0.7,0.6,1.4,0.9,2.1c0.2,0.4,0.4,0.8,0.6,1.1c0.3,0.3,0.6,0.6,0.9,0.8c0.7,0.5,1.5,0.7,2.3,1
							s1.5,0.7,2.2,1.1s1.3,1,1.9,1.5c0.6,0.6,1.1,1.3,1.5,2s0.7,1.4,0.9,2.2c0.2,0.7,0.3,1.5,0.5,2.2c0.1,0.8,0.3,1.6,0.7,2.3
							c0.4,0.7,0.8,1.4,1.4,2c1.1,1.2,2.4,2.4,3.1,3.9c0.4,0.8,0.5,1.6,0.6,2.4c0.1,0.9,0.1,1.7,0.1,2.6c0,0.4-0.1,0.9-0.2,1.3
							c-0.1,0.3-0.3,0.7-0.6,0.9c-0.3,0.2-0.8,0.2-1.2,0.2c-0.4,0-0.8,0-1.1,0c-1.3,0-2.6,0-3.9,0c-1.5,0-3,0-4.5,0
							C23.1,129,22.3,129,21.5,129z"/>
						<path class="st36" d="M12.1,96c0,0,13.7,21.2,14.4,33"/>
						<path class="st36" d="M11.9,112.8c0,0,4.3,2.2,10.6,1.6"/>
						<path class="st36" d="M14.1,121.3c0,0,3.3,3.2,12.3,2.5"/>
						<path class="st36" d="M13.6,122.8c0,0,5.6,5.2,12.9,2.9"/>
						<path class="st35" d="M22.7,120.1c-0.3,0.6-0.8,1.2-1.1,1.8c-0.3,0.6-0.6,1.2-0.8,1.9c-0.3,1.3,0,2.8,0.7,3.9
							c0.3,0.5,0.6,0.9,1,1.3h22.7c0.3-2,0.4-2.5,0.4-3.5c0-1.4-0.5-3.5-1.3-4.4c-0.8-1-1.5-1.5-2.5-2.4c-0.5-0.4-1.1-0.8-1.7-1.1
							c-0.5-0.3-1.1-0.7-1.4-1.2c-0.7-1.1-0.5-2.6-0.3-3.9c0.1-0.7,0.3-1.3,0.4-2s0-1.3-0.1-2c-0.3-1.2-1-2.3-2-3.1
							c-0.9-0.8-2.2-1.3-3.4-1.5c-0.7-0.1-1.4-0.1-2.1-0.3c-0.7-0.1-1.3-0.4-1.9-0.8c-0.5-0.4-1-0.8-1.3-1.3
							c-0.4-0.5-0.7-1.1-1.2-1.6c-0.4-0.4-1-0.8-1.6-0.8s-1.3,0.2-1.8,0.5c-0.9,0.6-1.3,1.8-1.3,2.8c0,0.7,0.1,1.3,0.3,1.9
							c0.2,0.7,0.5,1.4,0.5,2.1c0.1,0.7-0.1,1.3-0.6,1.8s-1,0.9-1.5,1.4c-0.5,0.4-0.9,0.9-1.1,1.5c-0.3,0.6-0.3,1.3-0.1,2
							c0.3,1.3,1.1,2.4,1.9,3.4c0.4,0.5,0.9,1,1.2,1.6c0.2,0.3,0.3,0.6,0.2,1C23,119.5,22.9,119.8,22.7,120.1z"/>
						<path class="st36" d="M24.5,99.2c0,0,10.2,17.3,10.1,29.7"/>
						<path class="st36" d="M21,109.7c0,0,3.3,1.5,8.9,0.3"/>
						<path class="st36" d="M19.8,111.2c0,0,4.4,2.8,10.7,1.1"/>
						<path class="st36" d="M34,123.1c0,0,4.5,0.2,8.3-4.2"/>
						<path class="st36" d="M33.7,121.8c0,0-7.3,1.5-10.9-1.9"/>
					</g>
					<path class="st36" d="M30.1,110.7c0,0,3.3-1.8,4.4-6.5"/>
					<path class="st36" d="M32.9,103.8c0,0-1.5,4.3-3.8,5"/>
				</g>
			</g>
			<path class="st37" d="M104.7,129.1H90.2v-21.7c0-3.5,2.9-6.4,6.4-6.4h1.8c3.5,0,6.4,2.9,6.4,6.4v21.7H104.7z"/>
			<g>
				<g>
					<defs>
						<rect id="SVGID_00000140732575845736591390000008164533939518921635_" x="126.5" y="94.3" width="25.5" height="38.5"/>
					</defs>
					<clipPath id="SVGID_00000129201244326571678010000011656774564023695248_">
						<use xlink:href="#SVGID_00000140732575845736591390000008164533939518921635_"  style="overflow:visible;"/>
					</clipPath>
					<path style="clip-path:url(#SVGID_00000129201244326571678010000011656774564023695248_);fill:#FF6464;" d="M146.5,132
						c0.1-0.3,0.6-0.3,0.8-0.3c0.3,0,0.7,0,1-0.1c0.3,0,0.6-0.1,0.8-0.2c0.2-0.1,0.5-0.5,0.7-0.4c0-0.2-0.1-0.4,0.1-0.2
						c0.1,0.1,0.2,0.4,0.2,0.6c0,0.5-0.6,0.8-1,1c-0.5,0.2-1.1,0.3-1.6,0.3C147.3,132.5,146.4,132.4,146.5,132z"/>
				</g>
				<g>
					<defs>
						<rect id="SVGID_00000011735171666521167470000015662123190586532003_" x="126.5" y="94.3" width="25.5" height="38.5"/>
					</defs>
					<clipPath id="SVGID_00000157989611717507171820000006375187878679663760_">
						<use xlink:href="#SVGID_00000011735171666521167470000015662123190586532003_"  style="overflow:visible;"/>
					</clipPath>
					<path style="clip-path:url(#SVGID_00000157989611717507171820000006375187878679663760_);fill:#FF6464;" d="M142.7,132.2
						c0.5,0,1-0.2,1.5-0.4s1-0.5,1.3-1c0.1-0.2,0.2-0.5,0.1-0.8c0-0.1-0.1-0.3-0.2-0.2c0,0.1,0,0.2,0,0.3c-0.1,0-0.3,0.2-0.4,0.2
						c-0.1,0.1-0.3,0.2-0.4,0.3c-0.3,0.2-0.6,0.4-1,0.5c-0.6,0.1-1.6-0.2-2,0.3C141.2,132,142.5,132.2,142.7,132.2z"/>
				</g>
				<g>
					<defs>
						<rect id="SVGID_00000036938819169076525580000015285553604906776961_" x="126.5" y="94.3" width="25.5" height="38.5"/>
					</defs>
					<clipPath id="SVGID_00000102544228944618686170000010791700883188485034_">
						<use xlink:href="#SVGID_00000036938819169076525580000015285553604906776961_"  style="overflow:visible;"/>
					</clipPath>
					<path style="clip-path:url(#SVGID_00000102544228944618686170000010791700883188485034_);fill:#E9BE81;" d="M147.9,132
						c0.6,0,1.6-0.3,1.9-0.9c0.1-0.1,0.1-0.6-0.1-0.7c-0.1,0-0.3,0.1-0.4,0.1c-0.2,0.1-0.3,0.4-0.5,0.5s-0.5,0.3-0.7,0.3
						c-0.2,0.1-0.7,0.1-0.7,0.3C147.3,132,147.8,132,147.9,132z"/>
				</g>
				<g>
					<defs>
						<rect id="SVGID_00000164494093115451340350000013251787879526656157_" x="126.5" y="94.3" width="25.5" height="38.5"/>
					</defs>
					<clipPath id="SVGID_00000083074981683938138890000016585557685283390610_">
						<use xlink:href="#SVGID_00000164494093115451340350000013251787879526656157_"  style="overflow:visible;"/>
					</clipPath>
					<path style="clip-path:url(#SVGID_00000083074981683938138890000016585557685283390610_);fill:#E9BE81;" d="M143,131.7
						c0.7,0,1.6-0.4,2-1c0.2-0.2,0.3-0.5,0.3-0.8s-0.2-0.2-0.4-0.1c-0.2,0.1-0.5,0-0.6,0.3s-0.3,0.5-0.6,0.7s-0.6,0.3-0.8,0.4
						c-0.1,0-0.3,0.1-0.4,0.2C142.5,131.7,142.8,131.7,143,131.7z"/>
				</g>
				<g>
					<defs>
						<rect id="SVGID_00000085251206147319292760000015714824888614227873_" x="126.5" y="94.3" width="25.5" height="38.5"/>
					</defs>
					<clipPath id="SVGID_00000153688387805238492630000016921807677165510835_">
						<use xlink:href="#SVGID_00000085251206147319292760000015714824888614227873_"  style="overflow:visible;"/>
					</clipPath>
					<g style="clip-path:url(#SVGID_00000153688387805238492630000016921807677165510835_);">
						<path class="st43" d="M126.6,109.4C126.6,109.4,126.7,109.4,126.6,109.4C126.7,109.5,126.7,109.5,126.6,109.4l0.2,0.1l0,0
							c0,0-0.1,0-0.1,0.1v0.1c0,0,0,0,0.1,0.1h0.1h0.1h0.1c0.1,0,0.3,0,0.4,0c0.3,0,0.5,0,0.8,0l0,0c-0.1,0-0.2,0-0.2,0.1
							c-0.1,0-0.1,0-0.2,0.1h-0.1l0,0l0,0l0,0l0,0c0.1,0,0.1,0,0.2,0c0.1,0,0.2,0,0.3,0l0,0c0.1,0,0.3,0,0.4,0c0.1,0,0.3,0,0.4-0.1
							c0.2,0,0.3-0.1,0.5-0.1c0.1,0,0.2,0,0.2,0c0.1,0,0.2,0,0.3-0.1c0,0,0.1,0,0.1-0.1v-0.1c0,0,0,0,0.1,0h0.1l0.1-0.1l0,0v-0.1
							v-0.1c0,0,0,0,0-0.1c0,0,0-0.1-0.1-0.1c-0.1-0.1-0.1-0.1-0.2-0.2c-0.1,0-0.1-0.1-0.2-0.1c-0.1,0-0.2-0.1-0.3-0.1l0,0
							c0.1,0,0.2,0,0.2,0c0.1,0,0.1,0,0.2,0h0.1l0,0l0.1-0.1l-0.1-0.1l0,0c-0.1,0-0.2,0-0.2,0c-0.1,0-0.2,0-0.3,0
							c-0.2,0-0.4,0-0.6-0.1c-0.1,0-0.1,0-0.2,0c-0.1,0-0.1,0-0.2-0.1c-0.1,0-0.1,0-0.2-0.1c-0.1,0-0.1,0-0.2,0h-0.1c0,0,0,0-0.1,0
							l0,0l0,0l0,0H128c0,0-0.1,0-0.1,0.1c0,0,0,0,0,0.1l0,0l0.1,0.1c0.1,0,0.1,0.1,0.2,0.1c-0.1,0-0.3,0-0.4,0s-0.3,0-0.4,0
							s-0.1,0-0.2,0h-0.1c0,0,0,0-0.1,0l-0.1,0.1c0,0.1,0.1,0.1,0.2,0.2c0.1,0,0.1,0,0.2,0.1c0.1,0,0.3,0.1,0.4,0.1
							c0.2,0,0.3,0,0.5,0.1h0.1c0,0,0,0-0.1,0s-0.2,0-0.4,0h-0.1c-0.1,0-0.2,0-0.2,0c-0.1,0-0.1,0-0.2,0s-0.1,0-0.2,0s-0.1,0-0.2,0
							c0,0,0,0-0.1,0C126.6,109.3,126.6,109.4,126.6,109.4z M128.9,108.5L128.9,108.5L128.9,108.5L128.9,108.5z M130.2,109.4
							L130.2,109.4L130.2,109.4c-0.1,0-0.1,0.1-0.2,0.1c0-0.1-0.1-0.1-0.1-0.2h-0.1l0,0c0.1,0,0.2,0.1,0.2,0.1
							C130.1,109.3,130.1,109.3,130.2,109.4z"/>
						<path class="st44" d="M126.9,109.2L126.9,109.2L126.9,109.2L126.9,109.2z"/>
					</g>
				</g>
				<g>
					<defs>
						<rect id="SVGID_00000072242944613008802000000007551264186629206705_" x="126.5" y="94.3" width="25.5" height="38.5"/>
					</defs>
					<clipPath id="SVGID_00000121238813918141611950000008182063781992454845_">
						<use xlink:href="#SVGID_00000072242944613008802000000007551264186629206705_"  style="overflow:visible;"/>
					</clipPath>
					<path style="clip-path:url(#SVGID_00000121238813918141611950000008182063781992454845_);fill:#E9BE81;" d="M137.8,100.9
						c0.2,0,0.3-0.2,0.3-0.4c0.1,0.1,0.4,0,0.4-0.2c0.3,0.2,0.2-0.3,0.2-0.4s-0.1-0.2-0.1-0.2c-0.2-0.2-0.3-0.3-0.4-0.6
						c-0.3-0.5-0.4-1.1-0.9-1.6c-0.5-0.4-1-0.8-1.6-1c-0.6-0.2-1.3-0.2-1.8,0.1c-0.5,0.2-0.7,0.6-0.6,1.1s0.3,1,0.5,1.5
						c0.1,0.1,0.1,0.3,0.2,0.4c0,0.3-0.1,0.7,0.3,0.7c0.2,0,0.3-0.1,0.5-0.2s0.2,0,0.4,0.1c0.1,0.1,0.3,0.1,0.5,0.2
						c0.8,0.2,1.4,0,2-0.5C137.5,100.2,137.6,100.9,137.8,100.9z"/>
				</g>
				<g>
					<defs>
						<rect id="SVGID_00000018928035738851519400000017690954340638121650_" x="126.5" y="94.3" width="25.5" height="38.5"/>
					</defs>
					<clipPath id="SVGID_00000000944372728938386810000000486083149702127021_">
						<use xlink:href="#SVGID_00000018928035738851519400000017690954340638121650_"  style="overflow:visible;"/>
					</clipPath>
					<path style="clip-path:url(#SVGID_00000000944372728938386810000000486083149702127021_);fill:#093363;" d="M139.2,117.9
						c0.1-0.8,0.4-1.5,0.6-2.2c0.3-0.8,0.5-1.6,0.7-2.4c0.1-0.4,0.1-1.5,0.6-1.4c0.6,0.1,1.1,0.3,1.7,0.4c0.8,0.1,1.6-0.1,2.4-0.3
						c0.7-0.2,1.4-0.4,2.1-0.7c0.3-0.1,0.5-0.2,0.8-0.3c0.1,0,0.4-0.3,0.5-0.2c0.1,0.1,0,0.5,0.1,0.6c0,0.3,0,0.6,0.1,1
						c0.1,1.7,0.1,3.4-0.1,5.1c-0.1,0.8-0.3,1.6-0.4,2.3c-0.2,0.9,0,1.7,0.3,2.6c0.5,1.5,1.2,2.9,1.4,4.5c0.1,0.8,0.2,1.6,0.2,2.5
						c0,0.5,0,1.1-0.5,1.3c-0.2,0.1-0.4,0.2-0.6,0.1c-0.3-0.2-0.4-0.7-0.5-0.9c-0.4-0.8-0.8-1.6-1.2-2.4c-0.8-1.8-1.5-3.5-2.2-5.3
						c0,0,0,0,0,0.1c-0.7-1.6-1.1-3.2-1.4-4.8c-0.3,0.3-0.5,0.8-0.6,1.2c-0.2,0.4-0.4,0.9-0.2,1.4c0.3,0.8,0.6,1.6,0.9,2.4
						c0.3,1,0.6,1.9,0.8,2.9c0.2,0.8,0.4,1.6,0.7,2.4c0.1,0.4,0.2,0.8,0.2,1.2c0,0.3,0.1,0.7-0.2,0.9c-0.2,0.1-0.7,0.3-1,0.2
						c-0.2-0.1-0.2-0.2-0.3-0.4c-0.1-0.3-0.2-0.5-0.4-0.8c-0.8-1.6-1.7-3.1-2.4-4.7c-0.5-1-1-2-1.4-3.1
						C139.4,120,139,119,139.2,117.9z"/>
				</g>
				<g>
					<defs>
						<rect id="SVGID_00000103252928582187772600000001828198190641576858_" x="126.5" y="94.3" width="25.5" height="38.5"/>
					</defs>
					<clipPath id="SVGID_00000034059632773438179280000008061082986503425920_">
						<use xlink:href="#SVGID_00000103252928582187772600000001828198190641576858_"  style="overflow:visible;"/>
					</clipPath>
					<path style="clip-path:url(#SVGID_00000034059632773438179280000008061082986503425920_);fill:#FF7E45;" d="M140.1,105.1
						C140.1,105,140.1,105,140.1,105.1C140.1,105,140.1,105,140.1,105.1C140.1,105,140.1,105,140.1,105.1
						C140.1,105,140.1,105,140.1,105.1C140.1,105,140.1,105,140.1,105.1C140.1,105,140.1,105,140.1,105.1L140.1,105.1L140.1,105.1
						C140,105,140,105,140.1,105.1C140,105,140,105,140.1,105.1C140,105.1,140,105.1,140.1,105.1L140.1,105.1z"/>
				</g>
				<g>
					<defs>
						<rect id="SVGID_00000169557992779085896400000003759164154099921332_" x="126.5" y="94.3" width="25.5" height="38.5"/>
					</defs>
					<clipPath id="SVGID_00000065768082341883570900000011212999681582654614_">
						<use xlink:href="#SVGID_00000169557992779085896400000003759164154099921332_"  style="overflow:visible;"/>
					</clipPath>
					<path style="clip-path:url(#SVGID_00000065768082341883570900000011212999681582654614_);fill:#FF6464;" d="M140,105
						c0,0,0.1,0.1,0.1,0S140,105,140,105z M141.9,112.9c-0.3-0.1-0.6-0.3-0.9-0.4c-0.3-0.1-0.2-0.4-0.2-0.7c0-0.4,0.1-0.8,0.1-1.1
						c0-0.9,0.1-1.8-0.1-2.7c-0.2-0.8-0.7-1.5-1.1-2.2c-0.7,1.8-2.5,2.8-4.2,3.5c-1,0.4-2,0.7-3,0.8c-0.8,0.1-2.5,0.1-2.5,0.1
						c-0.1-0.1-0.1-0.2-0.1-0.4c0-0.3-0.1-0.5-0.1-0.8s0-0.6,0-0.6c0.2,0,0.7,0,0.8,0c1.5-0.1,3-0.5,4.4-1.1c-0.3,0,1.7-0.9,1.9-4.2
						c0.1-1,0.4-2.2,0.6-2.4c0.2-0.1,0.5-0.3,0.7-0.3c0.1,0,0.6-0.1,0.7-0.1c0.1,0.1,0.3,0.2,0.4,0.3c0.6,0.3,1.1-0.1,1.7-0.1
						c0.6,0,1.6,0.6,1.9,1.2c0.2,0.4,0.5,0.2,0.8,0.6c0.4,0.5,0.3,0.7,1,0.8c0.2,0,0,0.5,0.2,0.6s0.1,0.7,0.2,0.8l0.1,0.2
						c0.1,0.3,0.3,0.6,0.5,0.8c0.4,0.5,0.8,1,1.2,1.5s0.7,1,1.1,1.5c0.2,0.3,0.4,0.6,0.5,1c0.1,0.2,0.1,0.5,0.2,0.7
						c0.1,0.2,0.2,0.4,0.1,0.7c-0.1,0.2-0.2,0.3-0.4,0.4c-0.4,0.4-0.9,0.6-1.5,0.9c-1.1,0.4-2.3,0.6-3.5,0.7
						C142.7,113,142.3,113,141.9,112.9z"/>
				</g>
				<g>
					<defs>
						<rect id="SVGID_00000140004221948624298700000000049288840737177778_" x="126.5" y="94.3" width="25.5" height="38.5"/>
					</defs>
					<clipPath id="SVGID_00000046307772608375069080000016137876894892837813_">
						<use xlink:href="#SVGID_00000140004221948624298700000000049288840737177778_"  style="overflow:visible;"/>
					</clipPath>
					<path style="clip-path:url(#SVGID_00000046307772608375069080000016137876894892837813_);fill:#FF7E45;" d="M132.9,97.1
						L132.9,97.1L132.9,97.1L132.9,97.1z M132.9,97.1L132.9,97.1L132.9,97.1z M133,97.2L133,97.2L133,97.2
						C132.9,97.2,132.9,97.2,133,97.2c-0.1-0.1-0.1-0.1-0.1-0.1l0,0l0,0l0,0l0,0l0,0l0,0l0,0l0,0l0,0l0,0l0,0l0,0l0,0c0,0,0,0,0-0.1
						c0,0,0,0,0.1,0h0.1c0,0,0,0,0.1,0.1l0,0C133.1,97.1,133.1,97.1,133,97.2C133.1,97.2,133.1,97.2,133,97.2L133,97.2
						C133.1,97.2,133.1,97.2,133,97.2C133.1,97.2,133.1,97.2,133,97.2L133,97.2z"/>
				</g>
				<g>
					<defs>
						<rect id="SVGID_00000068651355497818614950000012260142345607998903_" x="126.5" y="94.3" width="25.5" height="38.5"/>
					</defs>
					<clipPath id="SVGID_00000132770113146194841840000009152250738148437934_">
						<use xlink:href="#SVGID_00000068651355497818614950000012260142345607998903_"  style="overflow:visible;"/>
					</clipPath>
					<path style="clip-path:url(#SVGID_00000132770113146194841840000009152250738148437934_);fill:#FF7E45;" d="M133.1,97.6
						L133.1,97.6L133.1,97.6z M133.1,97.6L133.1,97.6L133.1,97.6L133.1,97.6z M133.1,97.7L133.1,97.7
						C133.1,97.7,133,97.6,133.1,97.7C133,97.6,133,97.6,133.1,97.7C133,97.6,133,97.6,133.1,97.7C133,97.6,133,97.6,133.1,97.7
						C133,97.6,133,97.6,133.1,97.7C133.1,97.6,133.1,97.6,133.1,97.7C133.1,97.6,133.1,97.6,133.1,97.7
						C133.1,97.6,133.1,97.6,133.1,97.7C133.1,97.6,133.1,97.6,133.1,97.7C133.1,97.6,133.1,97.7,133.1,97.7z"/>
				</g>
				<g>
					<defs>
						<rect id="SVGID_00000133502357601122764790000011751818318774041527_" x="126.5" y="94.3" width="25.5" height="38.5"/>
					</defs>
					<clipPath id="SVGID_00000047048957306425616620000008828424882027230368_">
						<use xlink:href="#SVGID_00000133502357601122764790000011751818318774041527_"  style="overflow:visible;"/>
					</clipPath>
					<path style="clip-path:url(#SVGID_00000047048957306425616620000008828424882027230368_);fill:#2E0C03;" d="M132.9,96.1
						c0.5-1.5,2.8-2.2,4.2-1.5c0.9,0.5,1.8,1,2.7,1.5s1.9,0.9,2.9,1.2c1.9,0.6,3.8,0.9,5.4,2.1c1.3,0.9,2.4,2.3,2.6,3.9
						c0.2,1.3-0.1,3.6-1.8,3.7c-0.7,0.1-1.3-0.3-1.9-0.6c-0.3-0.1-0.6-0.3-1-0.3c-0.4-0.1-0.8,0.1-1.1,0.2c-0.8,0.3-1.6,0.5-2.5,0.2
						c-0.8-0.3-1.3-1-1.6-1.9c-0.2-0.7-0.2-1.4-0.7-1.9s-1.3-0.5-2-0.8c-0.8-0.4-1.2-1.5-1.3-2.4c-0.1-0.5,0-1-0.2-1.5
						s-0.5-0.5-0.9-0.5c-0.5,0.1-1-0.1-1.3-0.5c-0.2-0.2-0.3,0-0.7,0.2c-0.2,0.1-0.6,0.5-0.8,0.5C132.7,97.7,132.9,96.2,132.9,96.1z
						"/>
				</g>
				<g>
					<defs>
						<rect id="SVGID_00000101079827082741291010000016790375055586690996_" x="126.5" y="94.3" width="25.5" height="38.5"/>
					</defs>
					<clipPath id="SVGID_00000124871072891665793230000004941192388560129203_">
						<use xlink:href="#SVGID_00000101079827082741291010000016790375055586690996_"  style="overflow:visible;"/>
					</clipPath>
					
						<circle style="clip-path:url(#SVGID_00000124871072891665793230000004941192388560129203_);fill:#33B45E;" cx="134.8" cy="98.8" r="0.2"/>
				</g>
			</g>
			<polyline class="st53" points="93.3,56.3 97.3,56.3 97.3,51.1 			"/>
			<g>
				<g>
					<defs>
						<rect id="SVGID_00000127041180153317373370000008749363500814924726_" x="44.5" y="86.7" width="55.8" height="60.5"/>
					</defs>
					<clipPath id="SVGID_00000083073378584493790380000012723131762218026162_">
						<use xlink:href="#SVGID_00000127041180153317373370000008749363500814924726_"  style="overflow:visible;"/>
					</clipPath>
					<path style="clip-path:url(#SVGID_00000083073378584493790380000012723131762218026162_);fill:#92513B;" d="M66.5,107.2
						L66.5,107.2C66.6,107.2,66.6,107.2,66.5,107.2c0.1,0,0.1,0,0.2,0c0,0,0,0,0.1,0l0,0l0,0c0.1,0,0.1,0,0.2-0.1
						c0.1,0,0.1-0.1,0.2-0.1c0.1-0.1,0.1-0.1,0.2-0.2c0.1-0.1,0.1-0.2,0.2-0.3l0,0v-0.1v-0.1l0,0l0,0l0,0l0,0l0,0c0.1,0,0.1,0,0.2,0
						c0.1,0,0.2,0,0.2,0.1c0.1,0,0.2,0.1,0.2,0.1l0,0h0.1h0.1h0.1c0,0,0.1,0,0.1,0.1c0.1,0,0.2,0.1,0.2,0.1s0.1,0,0.1,0.1
						c0,0,0,0,0.1,0l0,0c0,0,0.1,0,0.1,0.1l0,0l0,0l0,0l0,0c0,0.1-0.1,0.1-0.2,0.1c0,0,0,0-0.1,0l0,0l0,0c0,0,0,0-0.1,0h-0.1h-0.1
						h-0.1l0,0l0,0c0,0,0,0-0.1,0l0,0l0,0l0,0l0,0l0,0c0,0,0,0,0.1,0.1c0.1,0,0.1,0.1,0.2,0.1l0.1,0.1c0.1,0.1,0.2,0.1,0.3,0.2l0,0
						l0,0l0,0l0,0l0,0l0,0l0,0l0,0l0,0l0,0l0,0c0.2,0.1,0.3,0.3,0.5,0.4l0.1,0.1l0,0l0,0l0,0l0,0c0,0,0,0,0,0.1l0,0l0,0
						c0,0,0,0,0,0.1l0,0l0,0l0,0c0,0,0,0-0.1,0c0,0,0,0-0.1,0h-0.1c-0.1,0-0.2-0.1-0.3-0.1c-0.1-0.1-0.2-0.1-0.3-0.2l-0.1-0.1l0,0
						h-0.1c0,0,0,0.1,0.1,0.1l0,0l0.1,0.1l0.1,0.1h0.1c0.1,0.1,0.1,0.1,0.2,0.2c0,0,0,0,0.1,0.1l0,0l0,0c0,0,0,0,0,0.1l0,0l0,0
						c0,0,0,0-0.1,0H69h-0.1c-0.1,0-0.1-0.1-0.2-0.1l-0.1-0.1l0,0l0,0l0.1,0.1l0,0h-0.1h-0.1c-0.1,0-0.1-0.1-0.1-0.1s-0.1,0-0.1-0.1
						c0,0-0.1,0-0.1-0.1c0,0,0,0,0,0.1c0,0,0,0,0,0.1l0,0h-0.1H68c-0.1,0-0.1-0.1-0.2-0.1c-0.1-0.1-0.2-0.1-0.3-0.2l-0.1-0.1
						c-0.1-0.1-0.2-0.2-0.4-0.3c-0.1-0.1-0.3-0.2-0.4-0.3l0,0C66.7,107.5,66.6,107.4,66.5,107.2C66.5,107.3,66.5,107.2,66.5,107.2
						L66.5,107.2z"/>
				</g>
				<g>
					<defs>
						<rect id="SVGID_00000121272820706102475330000007766065585832369306_" x="44.5" y="86.7" width="55.8" height="60.5"/>
					</defs>
					<clipPath id="SVGID_00000127013142811973367780000016844073486110282118_">
						<use xlink:href="#SVGID_00000121272820706102475330000007766065585832369306_"  style="overflow:visible;"/>
					</clipPath>
					<g style="clip-path:url(#SVGID_00000127013142811973367780000016844073486110282118_);">
						<path class="st56" d="M87.7,136.7c-3.6-0.4-6.5-3.7-6.6-7.2c0-3.5,2.9-6,6.4-5.5c3.6,0.4,6.5,3.7,6.6,7.2
							S91.3,137.2,87.7,136.7L87.7,136.7L87.7,136.7z"/>
						<path class="st57" d="M89.1,123.8L89.1,123.8c-0.5-0.2-1-0.3-1.5-0.3c-0.3,0-0.6-0.1-0.9-0.1c-0.9,0-1.7,0.1-2.5,0.5
							c-1.6,0.7-2.8,1.9-3.4,3.6s-0.4,3.7,0.6,5.5c0.9,1.7,2.4,3.1,4.2,3.9c1.8,0.8,3.8,0.9,5.5,0.2s3-2,3.5-3.7s0.3-3.6-0.5-5.3
							c-0.6-1.2-1.5-2.3-2.6-3.1c-0.2-0.1-0.4-0.3-0.6-0.4c-0.1,0-0.2-0.1-0.2-0.1l0,0l0,0l0,0c-0.1,0-0.1-0.1-0.2-0.1
							c0,0-0.1,0-0.1-0.1l0,0C89.8,124,89.5,123.9,89.1,123.8L89.1,123.8z M86.8,124.6L86.8,124.6c0.5,0,1.1,0.1,1.6,0.2
							s1,0.3,1.5,0.6c0.3,0.2,0.5,0.3,0.8,0.5c0.2,0.1,0.3,0.3,0.5,0.4c0.4,0.4,0.7,0.7,1.1,1.2c0.3,0.4,0.6,0.9,0.8,1.4
							c0.2,0.5,0.3,1,0.4,1.5s0.1,1,0,1.5s-0.2,0.9-0.4,1.4c-0.2,0.4-0.4,0.8-0.7,1.2c-0.3,0.3-0.7,0.6-1.1,0.9
							c-0.4,0.2-0.8,0.4-1.3,0.6c-0.5,0.1-1,0.2-1.5,0.2s-1-0.1-1.6-0.2c-0.5-0.1-1-0.3-1.5-0.6s-0.9-0.6-1.3-0.9
							c-0.4-0.4-0.8-0.8-1.1-1.2c-0.3-0.4-0.6-0.9-0.8-1.4c-0.2-0.5-0.3-1-0.4-1.5s-0.1-1,0-1.5s0.2-0.9,0.4-1.4
							c0.2-0.4,0.5-0.8,0.8-1.2c0.3-0.3,0.7-0.6,1.1-0.9c0.4-0.2,0.8-0.4,1.3-0.6C85.8,124.7,86.3,124.6,86.8,124.6L86.8,124.6z
							 M84,125.4L84,125.4L84,125.4L84,125.4L84,125.4z M81.8,130.3L81.8,130.3L81.8,130.3L81.8,130.3L81.8,130.3z M88.4,136.1
							L88.4,136.1L88.4,136.1L88.4,136.1L88.4,136.1z M87,136L87,136L87,136L87,136L87,136z"/>
					</g>
				</g>
				<g>
					<defs>
						<rect id="SVGID_00000132806843948944196540000010883134864599577744_" x="44.5" y="86.7" width="55.8" height="60.5"/>
					</defs>
					<clipPath id="SVGID_00000094589225617886830140000001814034716201858742_">
						<use xlink:href="#SVGID_00000132806843948944196540000010883134864599577744_"  style="overflow:visible;"/>
					</clipPath>
					<path style="clip-path:url(#SVGID_00000094589225617886830140000001814034716201858742_);" d="M84.7,117L84.7,117L84.7,117
						C84.8,117,84.7,117,84.7,117L84.7,117z M88.4,117.2L88.4,117.2L88.4,117.2L88.4,117.2L88.4,117.2L88.4,117.2L88.4,117.2
						L88.4,117.2L88.4,117.2L88.4,117.2z M83.7,122.4c0-0.4,0-0.8,0-1.2v-0.1c0-0.3,0-0.5,0-0.8c0-0.2,0-0.4,0-0.6v-0.3
						c0-0.3,0-0.6,0-0.9s0-0.6,0.1-0.8c0-0.2,0-0.3,0.1-0.5l0,0l0,0c0-0.2,0.1-0.4,0.1-0.6c0-0.1,0.1-0.2,0.1-0.2
						c0.1,0,0.1-0.1,0.2-0.1l0,0c0.1-0.1,0.2-0.1,0.3-0.1l0,0c0.1,0,0.1,0,0.2,0l0,0c0.2,0,0.3,0,0.5,0c0.1,0,0.2,0,0.3,0
						c0.3,0,0.6,0,0.8,0c0.2,0,0.5,0,0.7,0s0.3,0,0.5,0s0.5,0,0.7,0c0.1,0,0.1,0,0.2,0c0.2,0,0.5,0,0.7,0c-0.1,0.1-0.1,0.2-0.2,0.2
						c-0.1,0.1-0.2,0.3-0.4,0.4c0,0,0,0-0.1,0.1c0,0.1-0.1,0.1-0.2,0.2l0,0l0,0l0,0l0,0l0,0l0,0c-0.2,0.1-0.4,0.3-0.3,0.6l0,0l0,0
						c-0.1,0.1-0.2,0.2-0.3,0.2c-0.2,0.2-0.3,0.3-0.5,0.5c-0.1,0.1-0.2,0.3-0.3,0.4c-0.1,0.3-0.2,0.6-0.1,0.9
						c0.1,0.2,0.1,0.3,0.2,0.4c-0.1,0.1-0.1,0.2-0.2,0.3c-0.6,0.5-1.1,1-1.7,1.6c-0.1,0.1-0.3,0.3-0.4,0.4c-0.2-0.1-0.4-0.1-0.5-0.1
						C84,122.3,83.9,122.3,83.7,122.4C83.8,122.5,83.7,122.5,83.7,122.4z"/>
				</g>
				<g>
					<defs>
						<rect id="SVGID_00000000187316271976686530000010083738943999424653_" x="44.5" y="86.7" width="55.8" height="60.5"/>
					</defs>
					<clipPath id="SVGID_00000159458377758070638890000012477601307841875644_">
						<use xlink:href="#SVGID_00000000187316271976686530000010083738943999424653_"  style="overflow:visible;"/>
					</clipPath>
					<path style="clip-path:url(#SVGID_00000159458377758070638890000012477601307841875644_);fill:#FFE3DF;" d="M85.1,116
						c-0.1-0.1-0.1-0.2-0.1-0.3v-0.1v-0.1c0-0.1,0-0.2,0-0.3l0,0c0-0.1,0-0.2,0.1-0.3v-0.1v-0.1c0-0.1,0-0.2,0.1-0.3v-0.1
						c0-0.1,0-0.2,0-0.2l0,0c-0.1,0-0.1,0-0.2-0.1l0,0c-0.1,0-0.1,0-0.2-0.1l0,0c-0.1,0-0.1-0.1-0.2-0.1c-0.2-0.1-0.3-0.2-0.4-0.4
						c-0.1-0.2-0.2-0.3-0.2-0.6c0-0.3,0-0.6,0.2-0.9c0.1-0.1,0.1-0.3,0.2-0.5v-0.1c0-0.1,0.1-0.2,0.1-0.3v-0.1c0,0,0-0.1-0.1-0.1
						l0,0c-0.1-0.1-0.2-0.2-0.2-0.3c0-0.1,0-0.3,0.1-0.4l0.1-0.1l0,0h0.1l0,0l0,0l0,0l0,0l0,0l0.1-0.1l0.1-0.1
						c0.2-0.1,0.3-0.3,0.4-0.4l0.1-0.1c0.1-0.1,0.2-0.2,0.3-0.3c0.1-0.1,0.2-0.2,0.4-0.3v0.1c0,0.1,0,0.1,0.1,0.2l0,0l0,0l0,0v0.1
						l0,0v0.1c0,0.2,0.1,0.3,0.1,0.5s0.1,0.3,0.1,0.5v0.1c0,0.2,0.1,0.4,0.1,0.6l0,0c0,0.1,0,0.2,0.1,0.3c0,0,0,0.1,0.1,0.1
						c0,0.1,0.1,0.1,0.1,0.1c0.1,0,0.1,0.1,0.2,0.1s0.2,0,0.2-0.1c0,0,0,0,0.1-0.1l0,0l0,0l0,0l0,0l0,0l0,0l0,0l0,0l0.1,0.1
						c0.1,0.1,0.1,0.2,0.2,0.3c0,0.1,0,0.1,0,0.1v0.1c0,0.1,0,0.1,0,0.2s-0.1,0.1-0.1,0.2l-0.1,0.1l-0.1,0.1c0,0.1-0.1,0.1-0.1,0.2
						s0,0.1,0,0.2s0,0.2,0,0.2c0,0.1,0.1,0.2,0.1,0.3v0.1c0,0.1,0.1,0.2,0.1,0.3c0,0.1,0,0.1,0.1,0.2c0,0,0,0.1,0.1,0.1
						c0,0,0,0.1,0.1,0.1l0,0c0,0,0,0,0.1,0.1s0.2,0.1,0.3,0.1l0,0c0.1,0,0.1,0,0.2,0c0,0,0,0,0.1,0l0,0h0.1l0,0h0.1l0,0
						c0,0.1,0,0.2-0.1,0.2v0.1v0.1c0,0.2-0.1,0.4-0.3,0.6l-0.1,0.1v0.1v0.1c0,0.1-0.1,0.1-0.1,0.2c-0.1,0.1-0.2,0.3-0.3,0.4
						c-0.1,0.1-0.2,0.2-0.4,0.2l0,0c-0.1,0.1-0.2,0.1-0.3,0.1c-0.1,0-0.3,0.1-0.4,0.1s-0.1,0-0.2,0c-0.2,0-0.4,0-0.5-0.1
						c-0.1,0-0.2-0.1-0.4-0.2c0,0-0.1,0-0.1-0.1l0,0c0,0.1-0.1,0.1-0.1,0.2c-0.1,0.1-0.2,0.1-0.3,0.1C85.3,116.1,85.2,116,85.1,116z
						"/>
				</g>
				<g>
					<defs>
						<rect id="SVGID_00000128450541448998661330000014417215671859344780_" x="44.5" y="86.7" width="55.8" height="60.5"/>
					</defs>
					<clipPath id="SVGID_00000070810210906866819880000004555522879913920671_">
						<use xlink:href="#SVGID_00000128450541448998661330000014417215671859344780_"  style="overflow:visible;"/>
					</clipPath>
					<path style="clip-path:url(#SVGID_00000070810210906866819880000004555522879913920671_);fill:#FF7E45;" d="M88.4,114.1
						c-0.1,0-0.2-0.1-0.3-0.1c-0.1,0-0.1-0.1-0.1-0.1l0,0c0,0,0,0-0.1-0.1c0,0,0-0.1-0.1-0.1c0-0.1,0-0.1-0.1-0.2
						c0-0.1-0.1-0.2-0.1-0.3v-0.1c0-0.1-0.1-0.2-0.1-0.3c0-0.1,0-0.1,0-0.2s0-0.1,0-0.2s0-0.1,0.1-0.2c0,0,0-0.1,0.1-0.1l0.1-0.1
						c0.1-0.1,0.1-0.1,0.1-0.2s0-0.1,0-0.2v-0.1v-0.1c0-0.1-0.1-0.2-0.2-0.3l-0.1-0.1l0,0l0,0l0,0l0,0l0,0l0,0c0,0,0,0,0,0.1
						c0,0,0,0-0.1,0.1s-0.2,0.1-0.2,0.1c-0.1,0-0.1,0-0.2-0.1c-0.1,0-0.1-0.1-0.1-0.1s0-0.1-0.1-0.1c0-0.1-0.1-0.2-0.1-0.3l0,0
						c0-0.2-0.1-0.4-0.1-0.6V110c0-0.2-0.1-0.3-0.1-0.5s-0.1-0.3-0.1-0.5v-0.1l0,0v-0.1l0,0l0,0l0,0c0-0.1,0-0.1-0.1-0.2
						c0-0.2-0.1-0.3-0.1-0.5s0.1-0.4,0.2-0.5l0,0v-0.1c0-0.2,0.1-0.4,0.2-0.5c0.1-0.2,0.2-0.3,0.4-0.4c0.2-0.1,0.3-0.3,0.5-0.3
						c0.2-0.1,0.3-0.1,0.6-0.2c0.1,0,0.2,0,0.3,0c0.1,0,0.2,0,0.3,0c0.2,0,0.4,0.1,0.6,0.2s0.4,0.2,0.5,0.4c0.1,0.1,0.2,0.3,0.3,0.4
						l0,0c0.1,0.1,0.1,0.2,0.2,0.2c0.1,0.1,0.2,0.3,0.3,0.4c0,0,0.1,0.1,0.2,0.1l0,0c0.1,0.1,0.2,0.1,0.2,0.2
						c0.1,0.1,0.2,0.2,0.2,0.3c0.1,0.1,0.1,0.2,0.1,0.3l0,0l0,0v0.1c0,0,0,0,0.1,0.1c0.2,0.2,0.3,0.4,0.3,0.5
						c0.1,0.2,0.1,0.3,0.2,0.5c0,0.2,0.1,0.3,0.1,0.4c0,0.2-0.1,0.5-0.2,0.7s-0.2,0.3-0.3,0.4c-0.1,0.2-0.2,0.3-0.3,0.4
						c-0.1,0.1-0.1,0.2-0.2,0.2c-0.1,0.1-0.2,0.3-0.3,0.5c-0.1,0.2-0.3,0.3-0.4,0.5c-0.2,0.2-0.4,0.3-0.5,0.4s-0.3,0.2-0.5,0.3
						c-0.1,0.1-0.3,0.2-0.4,0.2h-0.1l0,0h-0.1l0,0l0,0h-0.1C88.5,114,88.5,114.1,88.4,114.1L88.4,114.1z"/>
				</g>
				<g>
					<defs>
						<rect id="SVGID_00000025425073049685281440000006378202824144134843_" x="44.5" y="86.7" width="55.8" height="60.5"/>
					</defs>
					<clipPath id="SVGID_00000019656141046909860560000007751712584557159081_">
						<use xlink:href="#SVGID_00000025425073049685281440000006378202824144134843_"  style="overflow:visible;"/>
					</clipPath>
					<path style="clip-path:url(#SVGID_00000019656141046909860560000007751712584557159081_);fill:#093363;" d="M82.7,122.1
						c-0.1,0-0.2-0.1-0.3-0.2c-0.1-0.1-0.2-0.1-0.3-0.2c0,0-0.1,0-0.1-0.1v-0.1c0-0.1,0-0.2,0.1-0.3c0-0.2,0-0.4,0-0.5
						c0.2,0.1,0.4,0.2,0.6,0.4c0.1,0.1,0.2,0.2,0.4,0.3c0.1,0.1,0.2,0.4,0.1,0.5c0,0.1-0.1,0.1-0.2,0.2c-0.1,0-0.1,0.1-0.2,0.1
						C82.7,122.1,82.7,122.1,82.7,122.1z"/>
				</g>
				<g>
					<defs>
						<rect id="SVGID_00000144319686537568852370000002770008764697617309_" x="44.5" y="86.7" width="55.8" height="60.5"/>
					</defs>
					<clipPath id="SVGID_00000004510935418269795550000018130834226856816275_">
						<use xlink:href="#SVGID_00000144319686537568852370000002770008764697617309_"  style="overflow:visible;"/>
					</clipPath>
					<path style="clip-path:url(#SVGID_00000004510935418269795550000018130834226856816275_);fill:#093363;" d="M83.1,121.8
						C83,121.7,83,121.7,83.1,121.8c-0.3-0.2-0.6-0.3-0.9-0.4l-0.1-0.1c0-0.2,0-0.4,0.1-0.6l0,0l0,0v-0.2v-0.1
						c0.3,0.2,0.7,0.3,1,0.5c0.1,0,0.1,0.1,0.2,0.1c0,0,0,0,0.1,0s0.1,0,0.2,0.1c0.1,0,0.1,0.1,0.1,0.1l0.1,0.1
						c0.1,0.1,0.1,0.3,0.1,0.4c0,0.2-0.2,0.3-0.3,0.3h-0.1C83.3,121.8,83.2,121.8,83.1,121.8z"/>
				</g>
				<g>
					<defs>
						<rect id="SVGID_00000129906664128192937530000011894404793805344392_" x="44.5" y="86.7" width="55.8" height="60.5"/>
					</defs>
					<clipPath id="SVGID_00000152232835401995928640000013561003613612245145_">
						<use xlink:href="#SVGID_00000129906664128192937530000011894404793805344392_"  style="overflow:visible;"/>
					</clipPath>
					<path style="clip-path:url(#SVGID_00000152232835401995928640000013561003613612245145_);fill:#093363;" d="M72.3,131.4
						L72.3,131.4L72.3,131.4z M72.8,132.1C72.8,132.1,72.7,132.1,72.8,132.1C72.7,132.1,72.8,132.1,72.8,132.1z M73.1,132.6
						c-0.1,0-0.2,0-0.3-0.1c-0.1,0-0.1,0-0.2-0.1l0,0c-0.1,0-0.1-0.1-0.2-0.1l-0.1-0.1l-0.1-0.1l-0.1-0.1l-0.1-0.1l0,0
						c-0.1-0.1-0.1-0.2-0.1-0.3v-0.1v-0.1c0,0,0-0.1,0.1-0.1h0.1c0.1,0,0.1,0,0.2,0h0.1l0,0l0,0l0,0l0,0c0,0,0.1,0,0.1,0.1
						c0,0,0,0.1-0.1,0.1l0,0c0,0,0,0-0.1,0s-0.1,0-0.2,0l0,0l0,0l0,0l0,0l0,0l0,0c0,0,0,0.1,0.1,0.1c0,0,0,0.1,0.1,0.1
						c0.1,0.1,0.2,0.2,0.2,0.2c0.1,0.1,0.2,0.2,0.4,0.2c0.1,0.1,0.3,0.1,0.4,0.1s0.2,0.1,0.1,0.2c0,0,0,0.1-0.1,0.1
						C73.2,132.6,73.2,132.6,73.1,132.6L73.1,132.6L73.1,132.6z"/>
				</g>
				<g>
					<defs>
						<rect id="SVGID_00000059271622841158282280000017189614126283978673_" x="44.5" y="86.7" width="55.8" height="60.5"/>
					</defs>
					<clipPath id="SVGID_00000145046611811221883680000002933249194920702364_">
						<use xlink:href="#SVGID_00000059271622841158282280000017189614126283978673_"  style="overflow:visible;"/>
					</clipPath>
					<path style="clip-path:url(#SVGID_00000145046611811221883680000002933249194920702364_);fill:#093363;" d="M82.4,121.8
						c-0.1-0.2-0.1-0.2-0.4-0.4c0,0,0,0.2-0.1,0.4l0,0c0,0,0,0-0.1,0c0,0,0,0,0.1,0l0,0c0.2-0.4,0.2-1.1,0.2-1.6
						c-0.9-0.3-2.3-1-3.1,0c-3.5-0.6-4.2,2.6-4.5,5.2l0,0l0,0l0,0c-0.3,2-0.2,4-0.2,6.1c-0.6-0.1-1.2-0.3-1.9-0.5l0,0
						c-0.3-0.1-0.9,0-0.7,0.5c0.2,1.1,3,2.5,3.8,0.9c0.4-1,0.6-9.5,2-9.7l0,0c0.1-0.1,2.8,0.9,3.6,0.9
						C81.2,123.6,82.3,122.4,82.4,121.8z"/>
				</g>
				<g>
					<defs>
						<rect id="SVGID_00000071559016096045803510000004451276685283966614_" x="44.5" y="86.7" width="55.8" height="60.5"/>
					</defs>
					<clipPath id="SVGID_00000032632940618034814540000015876450391401972370_">
						<use xlink:href="#SVGID_00000071559016096045803510000004451276685283966614_"  style="overflow:visible;"/>
					</clipPath>
					<path style="clip-path:url(#SVGID_00000032632940618034814540000015876450391401972370_);fill:#FFE3DF;" d="M78.5,114.3
						L78.5,114.3C78.5,114.2,78.4,114.2,78.5,114.3c-0.1-0.1-0.1-0.1-0.1-0.2c0,0,0,0,0-0.1l0,0l0,0c0-0.1,0.3,0,0.3,0
						c0-0.1,0.4-0.2,0.4-0.3c0-0.1-0.2-0.1-0.2-0.2s0.2-0.2,0.2-0.3L79,113c0,0,0,0-0.4,0c0,0,0-0.1,0.1-0.1l0,0l0,0l0,0l0,0l0,0
						l-0.1-0.1c-0.1-0.1-0.1-0.1-0.2-0.2s-0.1-0.1-0.2-0.2l0,0l-0.1-0.1c0,0-0.1,0-0.1-0.1c0,0-0.1,0-0.1-0.1l-0.1-0.1
						c-0.1-0.1-0.1-0.1-0.2-0.1c0,0-0.1,0-0.1-0.1c0,0,0,0-0.1,0l0,0h-0.1l0,0l0,0l0,0l0,0c0,0.1,0,0.1,0,0.2c0,0,0,0,0,0.1l0,0l0,0
						c0,0,0,0,0,0.1l0.1,0.1l0.1,0.1c0,0,0,0,0,0.1l0,0l0,0l0,0l0,0l0,0l0,0l0,0l0,0h-0.1c-0.1,0-0.1-0.1-0.2-0.1h-0.1
						c-0.1,0-0.2-0.1-0.3-0.1l0,0l0,0l0,0l0,0l0,0l0,0l0,0l0,0l0,0l0,0l0,0c-0.2-0.1-0.4-0.1-0.6-0.2h-0.1l0,0c0,0,0,0-0.1,0l0,0
						l0,0c0,0,0,0-0.1,0l0,0l0,0l0,0l0,0l0,0c0,0,0,0,0,0.1c0,0,0,0,0,0.1c0,0,0,0,0,0.1c0,0,0,0,0.1,0.1s0.2,0.1,0.2,0.2
						c0.1,0.1,0.2,0.1,0.3,0.1c0.1,0,0.1,0.1,0.2,0.1l0,0v0.1h-0.1l0,0h-0.1c-0.1,0-0.1,0-0.2-0.1h-0.1c-0.1,0-0.1,0-0.2-0.1h-0.1
						l0,0l0,0c0,0,0,0-0.1,0l0,0l0,0c0,0,0,0,0,0.1c0,0,0,0,0,0.1c0,0,0,0,0.1,0.1c0.1,0,0.1,0.1,0.2,0.1l0.1,0.1l0,0l0,0h-0.1l0,0
						v0.1c0,0,0,0,0.1,0.1l0.1,0.1c0,0,0.1,0,0.1,0.1c0,0,0.1,0,0.1,0.1c0,0,0,0-0.1,0c0,0,0,0-0.1,0l0,0v0.1l0.1,0.1
						c0.1,0,0.1,0.1,0.2,0.1c0.1,0.1,0.2,0.1,0.3,0.2c0.1,0,0.1,0.1,0.2,0.1c0.1,0.1,0.3,0.1,0.4,0.2s0.3,0.2,0.4,0.2H78
						C78.2,114.3,78.3,114.3,78.5,114.3L78.5,114.3C78.6,114.3,78.5,114.3,78.5,114.3z"/>
				</g>
				<g>
					<defs>
						<rect id="SVGID_00000176011703378859068350000009515459543763584953_" x="44.5" y="86.7" width="55.8" height="60.5"/>
					</defs>
					<clipPath id="SVGID_00000173152705813797358440000009353338139246938046_">
						<use xlink:href="#SVGID_00000176011703378859068350000009515459543763584953_"  style="overflow:visible;"/>
					</clipPath>
					<path style="clip-path:url(#SVGID_00000173152705813797358440000009353338139246938046_);fill:#FF6464;" d="M72.9,117.1
						l-1.5-1.4c-5.4-4.9-9-8.1-9-12.1c0-3.2,2.5-5.8,5.8-5.8c1.8,0,3.6,0.8,4.7,2.2c1.1-1.3,2.9-2.2,4.7-2.2c3.2,0,5.8,2.5,5.8,5.8
						c0,4-3.6,7.2-9,12.1L72.9,117.1z"/>
				</g>
				<g>
					<defs>
						<rect id="SVGID_00000183965202053829071850000009938942449147720626_" x="44.5" y="86.7" width="55.8" height="60.5"/>
					</defs>
					<clipPath id="SVGID_00000108999159147113788890000002520777350505248134_">
						<use xlink:href="#SVGID_00000183965202053829071850000009938942449147720626_"  style="overflow:visible;"/>
					</clipPath>
					<path style="clip-path:url(#SVGID_00000108999159147113788890000002520777350505248134_);fill:#FFE3DF;" d="M76.5,116.6
						c-0.4-0.5-0.1-0.8,0.2-1.2c-0.3-0.3-1.2-1.1-1.6-1.4c-0.1-0.1-0.6-0.4-0.5,0c0.1,0.3,0.7,0.7,0,0.4c-0.4-0.2-0.8-0.3-1.2-0.5
						c-0.1,0-0.3-0.1-0.3,0.1c0,0.1,0.4,0.3,0.5,0.4c0.2,0.1,0.3,0.1,0.3,0.3c-0.2,0-0.6-0.3-0.8-0.3c-0.3,0.1,0.2,0.3,0.3,0.4
						c-0.1,0-0.2,0-0.2,0.1s0.3,0.3,0.4,0.3c-0.3-0.1,0.1,0.3,0.2,0.3c0.2,0.1,0.4,0.2,0.7,0.3c0.2,0.1,0.4,0.2,0.7,0.3
						C75.3,116.3,77.1,116.5,76.5,116.6z"/>
				</g>
				<g>
					<defs>
						<rect id="SVGID_00000052796969004197424070000015431121497442242211_" x="44.5" y="86.7" width="55.8" height="60.5"/>
					</defs>
					<clipPath id="SVGID_00000138567036286639649980000018014326109959900090_">
						<use xlink:href="#SVGID_00000052796969004197424070000015431121497442242211_"  style="overflow:visible;"/>
					</clipPath>
					<path style="clip-path:url(#SVGID_00000138567036286639649980000018014326109959900090_);fill:#33B45E;" d="M90.4,116.2
						C90.4,116.1,90.4,116.1,90.4,116.2c0-0.1,0-0.1,0-0.2s0-0.2,0-0.2c0-0.1,0-0.2-0.1-0.3c0-0.1-0.1-0.2-0.1-0.3
						c0-0.1-0.1-0.1-0.1-0.2c-0.1-0.2-0.2-0.3-0.3-0.4c-0.1-0.1-0.1-0.1-0.2-0.2s-0.2-0.1-0.2-0.1c-0.1,0-0.2-0.1-0.3-0.1
						c-0.2,0-0.3,0-0.5,0.1c-0.2,0-0.5,0.1-0.7,0.2h-0.1c-0.6,0.2-1,0.3-1.4,0.3c-0.3,0-0.5,0.1-0.8,0.1h-0.1c-0.1,0-0.2,0-0.2,0
						c-0.1,0-0.1,0-0.2,0l-5.7-2.3c-0.3-0.1-0.6,0-0.7,0.3l-0.4,0.9c-0.1,0.3,0,0.6,0.3,0.7l4.2,1.7c0.2,0.1,0.3,0.3,0.2,0.5
						c0,0.1-0.1,0.1-0.1,0.2c-0.1,0.2-0.3,0.3-0.5,0.2l-5.5-2.1c-0.3-0.1-0.6,0-0.7,0.3l-0.4,0.9c-0.1,0.3,0,0.6,0.3,0.7l6,2.3
						c0.2,0.1,0.3,0.2,0.2,0.4c0,0.2,0,0.3,0,0.5l0,0v0.3l0,0c0,0,0,0.5-0.1,0.7c0,0.1,0,0.2-0.1,0.3c0,0.1-0.1,0.2-0.1,0.2l0,0l0,0
						l0,0c0,0-1.7,1.9-1.4,2c0.3,0.1,0.6,0.2,0.8,0.4c0.3,0.1,0.5,0.2,0.7,0.3c0.3,0.1,0.5,0.1,0.7,0.2c0.3,0.1,0.6,0.1,0.8,0.1
						c0.1,0,0.2,0,0.2,0c0.2,0,0.4,0,0.5,0c0.3,0,0.6-0.1,0.9-0.1c0.2-0.1,0.4-0.1,0.7-0.3c0.2-0.1,0.5-0.2,0.7-0.4
						c0.2-0.1,0.4-0.3,0.7-0.4c0.2-0.1,0.4-0.3,0.6-0.5s0.4-0.4,0.5-0.6c0.3-0.4,0.5-0.8,0.7-1.3l0,0l0,0l0,0l0,0l0,0
						c0.1-0.1,0.1-0.3,0.2-0.5s0.1-0.3,0.1-0.5s0.1-0.5,0.1-0.7c0-0.1,0-0.2,0.1-0.3c0-0.2,0.1-0.5,0.1-0.7c0-0.1,0-0.2,0.1-0.4
						c0-0.1,0-0.2,0.1-0.3c0-0.2,0.1-0.5,0.2-0.8l0,0c0,0,0-0.1,0.1-0.1c0-0.1,0.1-0.1,0.1-0.2v-0.1l0,0
						C90.4,116.3,90.4,116.2,90.4,116.2z"/>
				</g>
				<g>
					<defs>
						<rect id="SVGID_00000145777820248858754810000010349064020443742638_" x="44.5" y="86.7" width="55.8" height="60.5"/>
					</defs>
					<clipPath id="SVGID_00000116925789891259176470000004137525129956457872_">
						<use xlink:href="#SVGID_00000145777820248858754810000010349064020443742638_"  style="overflow:visible;"/>
					</clipPath>
					<polygon style="clip-path:url(#SVGID_00000116925789891259176470000004137525129956457872_);fill:#131818;" points="
						85.1,119.2 90.3,117.6 90.6,125.9 86.7,128.3 77,128.7 77.1,122 84.8,124.4 					"/>
				</g>
				<g>
					<defs>
						<rect id="SVGID_00000059267509526011827590000000625083933096509620_" x="44.5" y="86.7" width="55.8" height="60.5"/>
					</defs>
					<clipPath id="SVGID_00000172404808711148619540000007826281776327542930_">
						<use xlink:href="#SVGID_00000059267509526011827590000000625083933096509620_"  style="overflow:visible;"/>
					</clipPath>
					<path style="clip-path:url(#SVGID_00000172404808711148619540000007826281776327542930_);fill:#708484;" d="M85.4,128.7
						L85.4,128.7c-0.3-0.1-0.6-0.5-0.6-0.8l-0.1-10.8c0-0.3,0.3-0.5,0.6-0.4l0,0c0.3,0.1,0.6,0.5,0.6,0.8l0.1,10.8
						C86,128.6,85.8,128.8,85.4,128.7z"/>
				</g>
				<g>
					<defs>
						<rect id="SVGID_00000121269950443498025610000002816712819326131391_" x="44.5" y="86.7" width="55.8" height="60.5"/>
					</defs>
					<clipPath id="SVGID_00000066480877378753208580000013656428639365592986_">
						<use xlink:href="#SVGID_00000121269950443498025610000002816712819326131391_"  style="overflow:visible;"/>
					</clipPath>
					<path style="clip-path:url(#SVGID_00000066480877378753208580000013656428639365592986_);fill:#708484;" d="M89.5,118.2
						l-4.2-0.5c-0.3,0-0.6-0.4-0.6-0.7l0,0c0-0.3,0.3-0.6,0.6-0.5l4.2,0.5c0.3,0,0.6,0.4,0.6,0.7l0,0
						C90.2,118,89.9,118.3,89.5,118.2z"/>
				</g>
				<g>
					<defs>
						<rect id="SVGID_00000056424717082736473330000014142043432346871945_" x="44.5" y="86.7" width="55.8" height="60.5"/>
					</defs>
					<clipPath id="SVGID_00000098923120373484003900000010999426766907249288_">
						<use xlink:href="#SVGID_00000056424717082736473330000014142043432346871945_"  style="overflow:visible;"/>
					</clipPath>
					<path style="clip-path:url(#SVGID_00000098923120373484003900000010999426766907249288_);fill:#708484;" d="M84.6,125.1
						l-7.8-2.4c-0.3-0.1-0.6-0.5-0.5-0.8l0,0c0.1-0.3,0.4-0.5,0.7-0.4l7.8,2.4c0.3,0.1,0.6,0.5,0.5,0.8l0,0
						C85.3,125,85,125.2,84.6,125.1z"/>
				</g>
				<g>
					<defs>
						<rect id="SVGID_00000062874510992017037080000005428205136281628599_" x="44.5" y="86.7" width="55.8" height="60.5"/>
					</defs>
					<clipPath id="SVGID_00000154411904572639657410000013494810632742794653_">
						<use xlink:href="#SVGID_00000062874510992017037080000005428205136281628599_"  style="overflow:visible;"/>
					</clipPath>
					<path style="clip-path:url(#SVGID_00000154411904572639657410000013494810632742794653_);fill:#708484;" d="M90.6,124.1v-1.8
						c-0.3-0.1-0.6-0.5-0.6-0.8l-0.1-5.5c0-0.3,0.3-0.5,0.6-0.4l0,0c0.3,0.1,0.6,0.5,0.6,0.8l0.1,5.5
						C91.2,122.2,90.9,124.2,90.6,124.1z"/>
				</g>
				<g>
					<defs>
						<rect id="SVGID_00000155124552432155203810000001996788163929452970_" x="44.5" y="86.7" width="55.8" height="60.5"/>
					</defs>
					<clipPath id="SVGID_00000134970108062071717450000018104940540703998336_">
						<use xlink:href="#SVGID_00000155124552432155203810000001996788163929452970_"  style="overflow:visible;"/>
					</clipPath>
					<path style="clip-path:url(#SVGID_00000134970108062071717450000018104940540703998336_);fill:#708484;" d="M94.7,117.1
						l-4.2-0.5c-0.3,0-0.6-0.4-0.6-0.7l0,0c0-0.3,0.3-0.6,0.6-0.5l4.2,0.5c0.3,0,0.6,0.4,0.6,0.7l0,0
						C95.3,116.9,95,117.1,94.7,117.1z"/>
				</g>
				<g>
					<defs>
						<rect id="SVGID_00000114048384146880719480000018272977946097343143_" x="44.5" y="86.7" width="55.8" height="60.5"/>
					</defs>
					<clipPath id="SVGID_00000155125470011037303270000005093294367981736578_">
						<use xlink:href="#SVGID_00000114048384146880719480000018272977946097343143_"  style="overflow:visible;"/>
					</clipPath>
					<path style="clip-path:url(#SVGID_00000155125470011037303270000005093294367981736578_);fill:#131818;" d="M94.7,117.1l-3-0.4
						c0,0,0.3-0.2,0.3-0.6l0,0c0-0.3-0.3-0.6-0.3-0.6l3,0.4c0.3,0,0.6,0.4,0.6,0.7l0,0C95.3,116.9,95,117.1,94.7,117.1z"/>
				</g>
				<g>
					<defs>
						<rect id="SVGID_00000142897875021410904850000003581578698752759204_" x="44.5" y="86.7" width="55.8" height="60.5"/>
					</defs>
					<clipPath id="SVGID_00000111877031880839119790000018364022216828152220_">
						<use xlink:href="#SVGID_00000142897875021410904850000003581578698752759204_"  style="overflow:visible;"/>
					</clipPath>
					<path style="clip-path:url(#SVGID_00000111877031880839119790000018364022216828152220_);fill:#708484;" d="M71.5,131.9
						c1.8,0.9,3.5,1.9,5.2,3c0.1,0.1,0.1,0.2,0.1,0.3c-0.1,0.1-0.2,0.1-0.3,0c-1.3-0.8-2.6-1.6-4-2.4c0,0,0,0,0.1,0
						c-0.4-0.2-0.7-0.4-1.1-0.6c-0.1,0-0.1-0.1-0.1-0.1c0-0.1,0-0.1,0-0.2C71.3,132,71.4,131.9,71.5,131.9L71.5,131.9L71.5,131.9
						L71.5,131.9z"/>
				</g>
				<g>
					<defs>
						<rect id="SVGID_00000048482034472341041580000001574392013806751160_" x="44.5" y="86.7" width="55.8" height="60.5"/>
					</defs>
					<clipPath id="SVGID_00000008139777751502643480000001549963345172494755_">
						<use xlink:href="#SVGID_00000048482034472341041580000001574392013806751160_"  style="overflow:visible;"/>
					</clipPath>
					<path style="clip-path:url(#SVGID_00000008139777751502643480000001549963345172494755_);fill:#708484;" d="M77.4,134.6
						L77.4,134.6c-0.3,0-0.6-0.4-0.6-0.7l-0.1-10.1c0-0.3,0.3-0.6,0.6-0.5l0,0c0.3,0,0.6,0.4,0.6,0.7l0.1,10.1
						C78,134.4,77.8,134.6,77.4,134.6z"/>
				</g>
				<g>
					<defs>
						<rect id="SVGID_00000000944143993901172040000014957459531216371109_" x="44.5" y="86.7" width="55.8" height="60.5"/>
					</defs>
					<clipPath id="SVGID_00000033348623502299605010000004373421344115743891_">
						<use xlink:href="#SVGID_00000000944143993901172040000014957459531216371109_"  style="overflow:visible;"/>
					</clipPath>
					<path style="clip-path:url(#SVGID_00000033348623502299605010000004373421344115743891_);fill:#84329B;" d="M86.8,128.9
						c-0.4,0-0.9-0.1-1.2-0.3c-0.1-0.1-0.1-0.1-0.2-0.2c-0.1,0,0,0-0.1,0s-0.1,0-0.2,0c-0.2,0-0.5,0-0.7-0.1
						c-0.8-0.4-0.8-1.5-0.8-2.2c0-0.5,0-0.9,0-1.4c0-0.3,0.3-0.6,0.5-0.6c0.2-0.1,0.4-0.1,0.6-0.2v0.4c0,0-0.4,0-0.4,0.2
						c0,0.4,0,0.9-0.1,1.3c0,0.4,0,0.9,0.1,1.3c0,0.1-0.1,0.2,0,0.3c0,0.1,0,0.2,0.1,0.2c0.2,0.1,0.4,0.1,0.5,0
						c0.9-0.2,1.3-1.2,1.5-2c0.1-0.4,0.3-0.9,0.4-1.3s0.1-0.9,0.2-1.3c0.1-0.9,0.1-1.9,0-2.8c0-0.2,0-0.3-0.1-0.4
						c-0.1-0.2-0.2-0.4-0.4-0.6c-0.1-0.1-0.2-0.2-0.3-0.3c-0.1,0-0.2,0-0.2,0c-0.1,0-0.2,0-0.2-0.2v-0.1c0-0.1,0-0.1,0-0.2
						c0.1-0.3,0.6-0.3,0.9-0.2c0.4,0.2,0.8,0.8,0.9,1.2c0.6-0.5,1.4-0.9,2.1-1c-0.2-0.2-0.3-0.5-0.5-0.7c-0.2-0.1-0.3-0.4,0-0.5
						c0.1,0,0.3,0,0.4,0l0.1,0.1c0,0,0.1,0,0.2,0l0.1,0.1c0.1,0,0.1,0.1,0.2,0.1c0.1,0.1,0.2,0.1,0.3,0.2c0.4,0.3,0.7,0.9,0.8,1.4
						c0.1,0.5,0.2,1.1,0.2,1.6c0,1.2-0.1,2.4-0.4,3.6c-0.2,1.1-0.6,2.2-1.3,3.1c-0.4,0.5-0.8,0.9-1.4,1.1c-0.3,0.1-0.6,0.1-0.9,0.2
						C87.4,128.9,87.1,128.9,86.8,128.9z"/>
				</g>
				<g>
					<defs>
						<rect id="SVGID_00000132067969567663072870000018215816716939638924_" x="44.5" y="86.7" width="55.8" height="60.5"/>
					</defs>
					<clipPath id="SVGID_00000154425483717199894840000013654455113278882467_">
						<use xlink:href="#SVGID_00000132067969567663072870000018215816716939638924_"  style="overflow:visible;"/>
					</clipPath>
					<path style="clip-path:url(#SVGID_00000154425483717199894840000013654455113278882467_);fill:#131818;" d="M89.5,118.2l-3-0.4
						c0,0,0.3-0.2,0.3-0.6l0,0c0-0.3-0.3-0.6-0.3-0.6l3,0.4c0.3,0,0.6,0.4,0.6,0.7l0,0C90.2,118,89.9,118.3,89.5,118.2z"/>
				</g>
				<g>
					<defs>
						<rect id="SVGID_00000158744201748693966160000007363577023246999172_" x="44.5" y="86.7" width="55.8" height="60.5"/>
					</defs>
					<clipPath id="SVGID_00000007414195214537879020000008029610085506405042_">
						<use xlink:href="#SVGID_00000158744201748693966160000007363577023246999172_"  style="overflow:visible;"/>
					</clipPath>
					<g style="clip-path:url(#SVGID_00000007414195214537879020000008029610085506405042_);">
						<path class="st56" d="M82.9,139c-3.6-0.4-6.5-3.7-6.6-7.2c0-3.5,2.9-6,6.4-5.5c3.6,0.4,6.5,3.7,6.6,7.2S86.5,139.5,82.9,139
							L82.9,139L82.9,139z"/>
						<path class="st57" d="M84.3,126.1L84.3,126.1c-0.5-0.2-1-0.3-1.5-0.3c-0.3,0-0.6-0.1-0.9-0.1c-0.9,0-1.7,0.1-2.5,0.5
							c-1.6,0.7-2.8,1.9-3.4,3.6c-0.6,1.7-0.4,3.7,0.6,5.5c0.9,1.7,2.4,3.1,4.2,3.9c1.8,0.8,3.8,0.9,5.5,0.2s3-2,3.5-3.7
							s0.3-3.6-0.5-5.3c-0.6-1.2-1.5-2.3-2.6-3.1c-0.2-0.1-0.4-0.3-0.6-0.4c-0.1,0-0.2-0.1-0.2-0.1l0,0l0,0l0,0
							c-0.1,0-0.1-0.1-0.2-0.1c0,0-0.1,0-0.1-0.1l0,0C85,126.4,84.6,126.2,84.3,126.1L84.3,126.1z M82,126.9L82,126.9
							c0.5,0,1.1,0.1,1.6,0.2s1,0.3,1.5,0.6c0.3,0.2,0.5,0.3,0.8,0.5c0.2,0.1,0.3,0.3,0.5,0.4c0.4,0.4,0.7,0.7,1.1,1.2
							c0.3,0.4,0.6,0.9,0.8,1.4c0.2,0.5,0.3,1,0.4,1.5s0.1,1,0,1.5s-0.2,0.9-0.4,1.4c-0.2,0.4-0.4,0.8-0.7,1.2
							c-0.3,0.3-0.7,0.6-1.1,0.9c-0.4,0.2-0.8,0.4-1.3,0.6c-0.5,0.1-1,0.2-1.5,0.2s-1-0.1-1.6-0.2c-0.5-0.1-1-0.3-1.5-0.6
							s-0.9-0.6-1.3-0.9c-0.4-0.4-0.8-0.8-1.1-1.2c-0.3-0.4-0.6-0.9-0.8-1.4c-0.2-0.5-0.3-1-0.4-1.5s-0.1-1,0-1.5s0.2-0.9,0.4-1.4
							c0.2-0.4,0.5-0.8,0.8-1.2c0.3-0.3,0.7-0.6,1.1-0.9c0.4-0.2,0.8-0.4,1.3-0.6C81,127,81.5,126.9,82,126.9L82,126.9z M79.2,127.7
							L79.2,127.7C79.1,127.8,79.1,127.8,79.2,127.7C79.1,127.8,79.1,127.8,79.2,127.7L79.2,127.7z M77,132.6L77,132.6
							C77,132.6,77,132.7,77,132.6C77,132.7,77,132.6,77,132.6L77,132.6z M83.6,138.5L83.6,138.5L83.6,138.5L83.6,138.5L83.6,138.5z
							 M82.1,138.3L82.1,138.3C82.2,138.3,82.2,138.3,82.1,138.3C82.2,138.3,82.2,138.3,82.1,138.3L82.1,138.3z"/>
					</g>
				</g>
				<g>
					<defs>
						<rect id="SVGID_00000041293410566354742470000007857740738183314101_" x="44.5" y="86.7" width="55.8" height="60.5"/>
					</defs>
					<clipPath id="SVGID_00000075868571849648190930000014519955382144695989_">
						<use xlink:href="#SVGID_00000041293410566354742470000007857740738183314101_"  style="overflow:visible;"/>
					</clipPath>
					<path style="clip-path:url(#SVGID_00000075868571849648190930000014519955382144695989_);fill:#FFE3DF;" d="M79,121.5"/>
				</g>
				<g>
					<defs>
						<rect id="SVGID_00000157301768659126247390000006020352934279139765_" x="44.5" y="86.7" width="55.8" height="60.5"/>
					</defs>
					<clipPath id="SVGID_00000116222622435920801280000000289102874743231398_">
						<use xlink:href="#SVGID_00000157301768659126247390000006020352934279139765_"  style="overflow:visible;"/>
					</clipPath>
					<path style="clip-path:url(#SVGID_00000116222622435920801280000000289102874743231398_);fill:#FFE3DF;" d="M78.2,121.6"/>
				</g>
				<g>
					<defs>
						<rect id="SVGID_00000165196881264680560660000013088661020558459566_" x="44.5" y="86.7" width="55.8" height="60.5"/>
					</defs>
					<clipPath id="SVGID_00000072976373006921918610000002318608968084410788_">
						<use xlink:href="#SVGID_00000165196881264680560660000013088661020558459566_"  style="overflow:visible;"/>
					</clipPath>
					<path style="clip-path:url(#SVGID_00000072976373006921918610000002318608968084410788_);fill:#2E0C03;" d="M85.7,110.4
						c0.1-0.1,0.2-0.1,0.3,0c0.1,0.1,0.1,0.2,0,0.3c-0.1,0.1-0.2,0.1-0.3,0C85.6,110.6,85.6,110.5,85.7,110.4z"/>
				</g>
				<g>
					<defs>
						<rect id="SVGID_00000093886764987111428280000015508165137378762901_" x="44.5" y="86.7" width="55.8" height="60.5"/>
					</defs>
					<clipPath id="SVGID_00000040559668445941712280000012244794206959270323_">
						<use xlink:href="#SVGID_00000093886764987111428280000015508165137378762901_"  style="overflow:visible;"/>
					</clipPath>
					<path style="clip-path:url(#SVGID_00000040559668445941712280000012244794206959270323_);fill:#92513B;" d="M48.7,134.4
						L48.7,134.4L48.7,134.4L48.7,134.4C48.6,134.4,48.6,134.4,48.7,134.4L48.7,134.4h-0.2h-0.1l0,0h-0.1h-0.1c0,0,0,0-0.1,0
						c0,0-0.1,0-0.1,0.1l0,0l0,0l0,0c0-0.2,0-0.3,0.1-0.5c0-0.1,0-0.1,0-0.2l0,0l0,0h0.1c0,0,0,0,0,0.1l0,0l0,0h0.1c0,0,0,0,0.1,0
						c0,0,0,0,0,0.1l0,0l0,0l0.1-0.1c0.1,0,0.1,0,0.1,0.1l0,0c0,0,0.1,0,0.2,0c0.1,0,0.1,0.1,0.1,0.1v0.1c0,0,0,0,0,0.1s0,0.1,0,0.2
						c0,0.1,0,0.1,0,0.2v0.1c0,0,0,0,0,0.1l0,0l0,0l0,0c0,0,0,0-0.1,0c0,0,0,0-0.1,0h-0.1L48.7,134.4
						C48.8,134.4,48.7,134.4,48.7,134.4L48.7,134.4z"/>
				</g>
				<g>
					<defs>
						<rect id="SVGID_00000155125018826045649130000009565381541108042148_" x="44.5" y="86.7" width="55.8" height="60.5"/>
					</defs>
					<clipPath id="SVGID_00000106141639189449702200000007343867069022123430_">
						<use xlink:href="#SVGID_00000155125018826045649130000009565381541108042148_"  style="overflow:visible;"/>
					</clipPath>
					<g style="clip-path:url(#SVGID_00000106141639189449702200000007343867069022123430_);">
						<path class="st86" d="M57.9,133.8L57.9,133.8L57.9,133.8h-0.2l0,0h-0.1c0,0,0,0-0.1,0l0,0c0-0.1-0.1-0.1-0.1-0.1s0,0,0-0.1
							c-0.1-0.1-0.1-0.1-0.2,0c0,0,0,0-0.1,0.1l0,0l0,0v-0.1l0,0l0,0l0,0l0,0l0,0c0,0,0,0,0,0.1v0.1c0,0.1,0,0.1,0,0.2l0,0l0,0l0,0
							l0,0c0,0.1,0,0.2-0.1,0.3c0,0.2-0.1,0.3-0.1,0.5c0,0.1,0,0.1,0,0.2l0,0c0-0.1,0-0.1,0.1-0.2c0,0,0-0.1,0.1-0.1v-0.1
							c0,0,0,0,0-0.1l0,0l0,0l0,0h0.1c0.1,0,0.2,0,0.3,0s0.2,0,0.3,0l0,0c0,0,0,0,0.1,0H58h0.1l0,0l0,0c0-0.1,0-0.2,0-0.3v-0.1V134
							C58,133.9,58,133.9,57.9,133.8z"/>
						<path class="st86" d="M56.9,133.7L56.9,133.7L56.9,133.7z"/>
						<path class="st86" d="M56.8,134.1L56.8,134.1L56.8,134.1z"/>
					</g>
				</g>
				<g>
					<defs>
						<rect id="SVGID_00000170973130800423563020000010805804899209808811_" x="44.5" y="86.7" width="55.8" height="60.5"/>
					</defs>
					<clipPath id="SVGID_00000032616312312663010960000012736898293839992233_">
						<use xlink:href="#SVGID_00000170973130800423563020000010805804899209808811_"  style="overflow:visible;"/>
					</clipPath>
					<path style="clip-path:url(#SVGID_00000032616312312663010960000012736898293839992233_);fill:#92513B;" d="M65.8,110.6
						c0.6,0,0.7-0.4,0.7-0.9c0.4,0,1.7,0.1,2.1,0.2c0.1,0,0.7,0.2,0.3,0.3c-0.3,0.1-1,0-0.4,0.3c0.4,0.2,0.8,0.4,1.2,0.6
						c0.1,0.1,0.3,0.2,0.2,0.3c-0.1,0.1-0.5-0.1-0.6-0.1c-0.2-0.1-0.2-0.1-0.4,0c0.2,0.1,0.6,0.2,0.7,0.4c0.2,0.3-0.4,0.1-0.5,0
						c0.1,0,0.1,0.1,0.1,0.2c-0.1,0.1-0.4-0.1-0.5-0.1c0.3,0.2-0.3,0.1-0.3,0.1c-0.2-0.1-0.5-0.2-0.7-0.3c-0.2-0.1-0.5-0.2-0.7-0.3
						C66.9,111.3,65.4,110,65.8,110.6z"/>
				</g>
				<g>
					<defs>
						<rect id="SVGID_00000011754111344562867560000012181768627738440370_" x="44.5" y="86.7" width="55.8" height="60.5"/>
					</defs>
					<clipPath id="SVGID_00000032620526943721684240000000717539223968964793_">
						<use xlink:href="#SVGID_00000011754111344562867560000012181768627738440370_"  style="overflow:visible;"/>
					</clipPath>
					<path style="clip-path:url(#SVGID_00000032620526943721684240000000717539223968964793_);fill:#093363;" d="M56.4,120.8
						L56.4,120.8L56.4,120.8L56.4,120.8z M56.4,120.8L56.4,120.8L56.4,120.8L56.4,120.8z M57.3,122.3L57.3,122.3L57.3,122.3z
						 M57.5,124.7L57.5,124.7c-0.1-0.1-0.1-0.1-0.1-0.2s0-0.2,0-0.3c0-0.1,0-0.1,0-0.2s0-0.3,0-0.4c0-0.3,0-0.6,0-0.8l0,0
						c0-0.2-0.1-0.4-0.2-0.6c-0.1-0.2-0.2-0.4-0.3-0.6c-0.2-0.2-0.3-0.5-0.5-0.7c0,0,0-0.1-0.1-0.1l0,0c0,0,0,0,0-0.1
						c-0.2-0.2-0.4-0.4-0.6-0.6c-0.2-0.2-0.4-0.4-0.6-0.7c-0.1-0.1-0.2-0.2-0.3-0.3l-0.1-0.1l0,0l0,0c0,0-0.1,0,0-0.1
						c0,0,0-0.1,0.1-0.1c0,0,0,0,0.1,0l0,0c0,0,0.1,0,0.1,0.1c0.1,0,0.1,0.1,0.2,0.1c0.1,0,0.1,0.1,0.2,0.1l0,0l0,0l0,0l0,0
						c0.2,0.2,0.5,0.4,0.7,0.6s0.4,0.4,0.6,0.6c0.2,0.2,0.4,0.5,0.6,0.7c0.2,0.2,0.3,0.5,0.4,0.7c0.1,0.1,0.1,0.3,0.2,0.4
						c0.1,0.1,0.1,0.3,0.1,0.4c0,0.2,0,0.3,0,0.5c0,0.1,0,0.3,0,0.4c0,0.2,0,0.4,0,0.5s0,0.2,0,0.3c0,0.1,0,0.2,0,0.3
						c0,0.1-0.1,0.2-0.2,0.2C57.6,124.8,57.6,124.8,57.5,124.7z"/>
				</g>
				<g>
					<defs>
						<rect id="SVGID_00000178896454234879500130000003387399535769837704_" x="44.5" y="86.7" width="55.8" height="60.5"/>
					</defs>
					<clipPath id="SVGID_00000121239256931402203400000015250995128450016954_">
						<use xlink:href="#SVGID_00000178896454234879500130000003387399535769837704_"  style="overflow:visible;"/>
					</clipPath>
					<path style="clip-path:url(#SVGID_00000121239256931402203400000015250995128450016954_);fill:#093363;" d="M61.2,121.1
						c-0.1-1.5-1-2.8-1.6-4.1c-0.5-1-0.9-2.1-1.3-3.2c-0.5,0.2-1.1,0.3-1.7,0.5c-0.7,0.2-1.5,0.3-2.3,0.4c-0.7,0-1.5,0.1-2.2,0
						c-0.4-0.1-1.4-0.1-1.4-0.7c-0.2,1.7,0.3,3.5,0.5,5.1l0,0c0.2,1,0.4,2.3,0.2,3.4c-0.2,0.9-1.1,1.6-1.7,2.4
						c-1.5,1.9-2.2,4.1-2.2,6.5c0,0.6,0,1.1,0.1,1.7c0.1,0.4,0.2,0.8,0.6,1c0.4,0.2,0.6,0.1,0.9-0.3c0.3-0.5,0.6-1.1,0.9-1.6
						c1.1-1.8,2.3-3.6,3.3-5.4c0.6-1.1,1.2-2.3,1.6-3.5c0.3-0.9,0.7-1.9,0.7-2.9c0.7,0.7,1.3,1.5,1.5,2.4s-0.1,2-0.2,3
						c-0.1,2.2,0,4.4-0.1,6.6c0,0.5-0.2,1.1-0.1,1.6c0,0.3,0.2,0.5,0.5,0.5c0.2,0,0.5,0,0.7-0.2c0.1-0.2,0.1-0.5,0.2-0.7
						c0-0.2,0.1-0.4,0.1-0.7c0.4-1.9,1.1-3.7,1.6-5.5C60.5,125.1,61.4,123.2,61.2,121.1z"/>
				</g>
				<g>
					<defs>
						<rect id="SVGID_00000108295214198861009390000015208597955969137086_" x="44.5" y="86.7" width="55.8" height="60.5"/>
					</defs>
					<clipPath id="SVGID_00000178163085899126252850000004286501191375013020_">
						<use xlink:href="#SVGID_00000108295214198861009390000015208597955969137086_"  style="overflow:visible;"/>
					</clipPath>
					<path style="clip-path:url(#SVGID_00000178163085899126252850000004286501191375013020_);fill:#84329B;" d="M53.5,114.7
						c-0.9,0-2.8,0.1-2.7-0.9c0.2-2.3-0.1-4.7,0.1-7c-3.9,0.5-3.1-2.9-1.7-5.1c0-0.5-0.5-1.4,0.1-1.7c2.4-0.6,5-0.8,4.9-1.3
						c0.2-1.1,0.7,0.9,1.8,1.5c2.6,1.5,5.6,3.7,7.8,4.5c0,0-0.1,1,0.2,2.1c0.1,0.4,0,0.2-2-0.6c-1.9-0.7-5-2.4-5-2.4
						c-0.4,0.6,9.7,5.5,9.9,5.8c0.3,0.5-0.1,0.6-0.7,0.9c-0.3,0.2-5.2-1.7-6.9-2.5c-1.2-0.6-1.9-0.8-1.9-0.8
						c-0.1,0.3,0.5,2.1,0.8,3.4c0.1,0.8,0.7,1.6,0.8,2.4C58.5,114.5,54.1,114.7,53.5,114.7z"/>
				</g>
				<g>
					<defs>
						<rect id="SVGID_00000018959024131048089830000005283630466724864955_" x="44.5" y="86.7" width="55.8" height="60.5"/>
					</defs>
					<clipPath id="SVGID_00000147196010019061858340000012701313736584128919_">
						<use xlink:href="#SVGID_00000018959024131048089830000005283630466724864955_"  style="overflow:visible;"/>
					</clipPath>
					<path style="clip-path:url(#SVGID_00000147196010019061858340000012701313736584128919_);fill:#92513B;" d="M52.9,99.3
						C53,99.3,53,99.3,52.9,99.3c0.1-0.1,0.2-0.1,0.2-0.1c0.1-0.1,0.1-0.1,0.2-0.2l0,0c0,0,0,0,0.1-0.1l0,0l0,0l0,0l0,0l0,0l0,0l0,0
						l0,0l0,0l0.1-0.1c0.1-0.1,0.2-0.2,0.3-0.4c0.1-0.1,0.1-0.2,0.1-0.3V98v-0.1v-0.1v-0.1v-0.1v-0.1c0,0,0-0.1,0.1-0.1l0,0
						c0,0,0,0,0.1-0.1c0,0,0,0,0.1,0c0.1-0.1,0.2-0.1,0.3-0.1s0.1,0,0.2,0.1c0,0,0.1,0.1,0.2,0.1l0,0l0,0l0,0c0,0,0,0,0.1,0l0,0l0,0
						l0,0l0,0l0,0l0,0l0,0l0,0l0,0c0,0,0,0,0-0.1s0.1-0.2,0.1-0.3c0,0,0-0.1,0.1-0.1l0,0l0,0c0-0.1,0-0.1,0.1-0.2
						c0-0.1,0.1-0.1,0.1-0.2c0,0,0-0.1,0.1-0.1l0,0c0.1-0.1,0.2-0.2,0.4-0.2c0,0,0,0,0.1,0l0,0l0,0l0,0l0,0l0,0l0,0l0,0l0,0l0,0l0,0
						l0,0l0,0l0,0c0.1,0,0.2,0,0.3,0s0.2,0,0.3,0l0,0l0,0c0,0,0,0,0.1,0h0.1c0.1,0,0.1,0.1,0.2,0.1h0.1l0,0l0,0c0,0.1,0,0.2,0,0.3
						c0,0.1,0,0.2,0,0.3c0,0.1,0,0.2,0,0.2c0,0.1,0,0.1,0.1,0.2l0.1,0.1l0.1,0.1c0,0,0,0.1,0.1,0.1l0,0l0,0l0,0l0,0c0,0,0,0,0.1,0.1
						v0.1c0,0,0,0,0,0.1l0,0L57.5,98c0,0-0.1,0-0.1,0.1c-0.1,0-0.1,0.1-0.2,0.1c-0.1,0-0.1,0.1-0.1,0.1H57l0,0l0,0l0,0l0,0v0.1
						c0,0.1,0,0.3,0,0.4l0,0l0,0l0,0l0,0l0,0l0,0l0,0c0,0.2-0.1,0.4-0.1,0.6c0,0.1-0.1,0.2-0.2,0.3l0,0c-0.1,0.1-0.2,0.2-0.3,0.2
						c-0.1,0.1-0.2,0.1-0.3,0.2c-0.1,0-0.3,0.1-0.4,0.1c-0.1,0-0.2,0-0.4,0c-0.1,0-0.2,0-0.3-0.1c-0.1,0-0.2-0.1-0.2-0.1l0,0l0,0
						c0,0-0.1,0.6-0.2,0.6c-0.1,0-0.6,0-0.9-0.1c-0.1,0-1-0.3-1.1-0.4s0.2-0.9,0.2-0.9C52.7,99.3,52.9,99.3,52.9,99.3z"/>
				</g>
				<g>
					<defs>
						<rect id="SVGID_00000129916480539179746860000010435067829140539028_" x="44.5" y="86.7" width="55.8" height="60.5"/>
					</defs>
					<clipPath id="SVGID_00000153705161076415161240000004962861109327492252_">
						<use xlink:href="#SVGID_00000129916480539179746860000010435067829140539028_"  style="overflow:visible;"/>
					</clipPath>
					<path style="clip-path:url(#SVGID_00000153705161076415161240000004962861109327492252_);fill:#2E0C03;" d="M51.9,98.8
						c-0.1-0.1-0.2-0.1-0.3-0.2l0,0l0,0c-0.1-0.1-0.1-0.1-0.1-0.2s-0.1-0.1-0.1-0.2c0,0,0-0.1,0-0.2l0,0v-0.1l0,0l0,0l0,0l0,0l0,0
						l0,0l-0.1-0.1l0,0c-0.1-0.1-0.1-0.2-0.1-0.2c0-0.1,0-0.2,0.1-0.3l0.1-0.1c0,0,0.1,0,0.1-0.1c0,0,0-0.1-0.1-0.1
						c0-0.1-0.1-0.1-0.1-0.2s-0.1-0.1-0.1-0.2s0-0.2,0-0.3c0,0,0-0.1,0.1-0.1c0,0,0-0.1,0.1-0.1c0.1-0.1,0.1-0.1,0.2-0.2
						c0.1-0.1,0.1-0.1,0.2-0.1h0.1c0,0,0,0,0.1,0v-0.1c0-0.1,0-0.1-0.1-0.2l0,0l0,0l0,0v-0.1l0,0c0-0.1,0-0.1-0.1-0.2l0,0
						c0-0.1,0-0.1,0-0.2s0-0.2,0-0.2c0-0.1,0-0.1,0.1-0.2c0,0,0-0.1,0.1-0.1l0.1-0.1l0,0c0.1-0.1,0.1-0.1,0.2-0.1
						c0.1,0,0.1-0.1,0.2-0.1c0.1,0,0.3-0.1,0.4-0.1c0.1,0,0.2,0,0.2,0h0.1l0,0l0,0l0,0l0,0l0,0l0,0c0,0,0,0,0-0.1
						c0.1-0.1,0.2-0.2,0.2-0.3c0,0,0.1-0.1,0.2-0.2c0,0,0.1,0,0.1-0.1c0,0,0.1,0,0.1-0.1c0.1,0,0.1-0.1,0.2-0.1c0.1,0,0.1,0,0.2,0
						c0.1,0,0.2,0,0.3,0s0.2,0,0.3,0.1c0,0,0.1,0,0.1,0.1l0,0l0.1,0.1l0,0c0,0,0,0,0.1,0l0,0l0,0l0,0l0,0l0,0
						c0.1-0.1,0.2-0.1,0.3-0.1s0.2,0,0.4,0c0,0,0.1,0,0.1,0.1l0,0l0,0c0.1,0,0.1,0.1,0.2,0.1c0,0,0,0,0.1,0s0.1,0.1,0.2,0.2l0,0l0,0
						l0,0l0,0l0.1,0.1l0,0l0,0l0,0l0,0l0,0l0,0l0,0c0.1,0,0.2,0,0.2,0h0.1c0,0,0.1,0,0.1-0.1c0,0,0.1,0,0.2-0.1l0,0c0,0,0.1,0,0.2,0
						c0.1,0,0.1,0,0.2,0c0,0,0.1,0,0.2,0c0.1,0,0.1,0,0.2,0c0,0,0.1,0,0.2,0.1c0.1,0,0.1,0.1,0.1,0.1l0,0c0.1,0.1,0.2,0.2,0.2,0.3
						c0,0.1,0.1,0.1,0.1,0.2s0,0.2,0,0.3c0,0.1,0,0.2,0,0.3v0.1v0.1l0,0l0,0c0,0.2-0.1,0.4-0.3,0.5c-0.1,0.1-0.1,0.2-0.2,0.2
						c-0.1,0.1-0.2,0.1-0.2,0.2l0,0c-0.1,0.1-0.3,0.2-0.5,0.2h-0.1l0,0h-0.1c-0.1,0-0.1,0-0.1,0c-0.1,0-0.1,0-0.2,0
						c-0.1,0-0.1,0-0.2-0.1h-0.1c0,0,0,0-0.1,0l0,0l0,0c-0.1,0-0.2,0-0.3,0s-0.2,0-0.3,0l0,0l0,0c0,0,0,0-0.1,0
						c-0.1,0.1-0.3,0.1-0.4,0.2l0,0l-0.1,0.1c0,0.1-0.1,0.1-0.1,0.2s0,0.1-0.1,0.2l0,0l0,0c0,0,0,0.1-0.1,0.1c0,0.1-0.1,0.2-0.1,0.3
						c0,0,0,0,0,0.1l0,0l0,0c0,0,0,0-0.1,0l0,0c0,0,0,0-0.1,0l0,0l0,0l0,0c-0.1,0-0.1-0.1-0.2-0.1c0,0-0.1,0-0.2-0.1
						c-0.1,0-0.2,0-0.3,0.1c0,0,0,0-0.1,0c0,0,0,0-0.1,0.1l0,0c0,0,0,0.1-0.1,0.1v0.1v0.1v0.1c0,0,0,0,0,0.1s0,0.1,0,0.1v0.1
						c0,0.1-0.1,0.2-0.1,0.3c-0.1,0.1-0.2,0.2-0.3,0.4l-0.1,0.1l0,0L53,99l0,0c0,0-0.1,0.1-0.2,0.2c-0.1,0-0.1,0.1-0.1,0.1
						s-0.1,0-0.1,0.1c0,0,0,0-0.1,0l0,0l0,0l0,0h-0.1l0,0h-0.1c-0.1,0-0.1-0.1-0.1-0.1l-0.1-0.1L52,99.1c0,0-0.1-0.1-0.2-0.1
						C52.1,98.9,52,98.9,51.9,98.8C52,98.8,52,98.8,51.9,98.8L51.9,98.8z"/>
				</g>
				<g>
					<defs>
						<rect id="SVGID_00000063628815884658582740000005152131863294456755_" x="44.5" y="86.7" width="55.8" height="60.5"/>
					</defs>
					<clipPath id="SVGID_00000019660796791307902700000017397230628083192731_">
						<use xlink:href="#SVGID_00000063628815884658582740000005152131863294456755_"  style="overflow:visible;"/>
					</clipPath>
					<path style="clip-path:url(#SVGID_00000019660796791307902700000017397230628083192731_);fill:#2E0C03;" d="M55.6,97.4
						c0.1-0.1,0.2-0.1,0.3,0s0.1,0.2,0,0.3c-0.1,0.1-0.2,0.1-0.3,0C55.6,97.7,55.6,97.5,55.6,97.4z"/>
				</g>
				<g>
					<defs>
						<rect id="SVGID_00000161630378812935029340000003605882277372292760_" x="44.5" y="86.7" width="55.8" height="60.5"/>
					</defs>
					<clipPath id="SVGID_00000098218118705362733650000005037494956395507647_">
						<use xlink:href="#SVGID_00000161630378812935029340000003605882277372292760_"  style="overflow:visible;"/>
					</clipPath>
					<path style="clip-path:url(#SVGID_00000098218118705362733650000005037494956395507647_);fill:#84329B;" d="M50.2,136.3
						c-0.5,0-0.9,0-1.4-0.2c-0.4-0.1-1.2-0.4-1.3-0.8c-0.1-0.2,0.1-0.9,0.4-1c0.2-0.1,0.5,0.1,0.8,0.1c0.1,0,0.3-0.1,0.4,0
						c0.1,0.1,0.2,0.2,0.2,0.3c0.3,0.5,0.6,0.6,1.1,0.8c0.3,0.1,0.9,0.3,0.5,0.6C50.8,136.3,50.5,136.3,50.2,136.3z"/>
				</g>
				<g>
					<defs>
						<rect id="SVGID_00000078005682020833870950000014935684318879384195_" x="44.5" y="86.7" width="55.8" height="60.5"/>
					</defs>
					<clipPath id="SVGID_00000142172125841993682700000012734237181496034968_">
						<use xlink:href="#SVGID_00000078005682020833870950000014935684318879384195_"  style="overflow:visible;"/>
					</clipPath>
					<path style="clip-path:url(#SVGID_00000142172125841993682700000012734237181496034968_);fill:#84329B;" d="M59.1,136.3
						c-0.5,0-0.9,0-1.4-0.2c-0.4-0.1-1.2-0.4-1.3-0.8c-0.1-0.2,0.1-0.9,0.4-1c0.2-0.1,0.5,0.1,0.8,0.1c0.1,0,0.3-0.1,0.4,0
						c0.1,0.1,0.2,0.2,0.2,0.3c0.3,0.5,0.6,0.6,1.1,0.8c0.3,0.1,0.9,0.3,0.5,0.6C59.8,136.3,59.4,136.3,59.1,136.3z"/>
				</g>
			</g>
		</g>
	</g>
</g>
</svg>
