<?xml version="1.0" encoding="utf-8"?>
<!-- Generator: Adobe Illustrator 26.0.1, SVG Export Plug-In . SVG Version: 6.00 Build 0)  -->
<svg version="1.1" id="Layer_1" xmlns="http://www.w3.org/2000/svg" xmlns:xlink="http://www.w3.org/1999/xlink" x="0px" y="0px"
	 viewBox="0 0 198 180" style="enable-background:new 0 0 198 180;" xml:space="preserve">
<style type="text/css">
	.st0{fill:#CCF3FD;}
	.st1{fill:#CDEBF6;}
	.st2{fill:#618BC8;}
	.st3{fill:#5980C0;}
	.st4{fill:#97BEE4;}
	.st5{fill:#17AD9F;}
	.st6{fill:#FFD35C;}
	.st7{clip-path:url(#SVGID_00000005957312233486228460000012671261978149138343_);fill:#303084;}
	.st8{clip-path:url(#SVGID_00000145045701866425692730000013794630013564609433_);fill:#303084;}
	.st9{fill:#303084;}
	.st10{fill:#B4792A;}
	.st11{fill:#F05F40;}
	.st12{fill:#F27251;}
	.st13{fill:#FCE1D8;}
	.st14{fill:#FAAF55;}
	.st15{fill:none;}
	.st16{fill:#31B45D;}
	.st17{fill:#FFFFFF;}
	.st18{fill:#83CA5E;}
	.st19{display:none;}
	.st20{display:inline;}
	.st21{fill:#F0B323;}
	.st22{fill:#F3D03E;}
	.st23{fill:#12121B;}
	.st24{clip-path:url(#SVGID_00000119105532964564904930000012816584003037381286_);fill:#3C60AB;}
	.st25{clip-path:url(#SVGID_00000031199509951839880750000002085680969056293284_);fill:#3C60AB;}
	.st26{clip-path:url(#SVGID_00000104700905190428744350000010112378087913031556_);fill:#9A5223;}
	.st27{clip-path:url(#SVGID_00000067202341279662945420000001221628537236111774_);}
	.st28{fill:#3C60AB;}
	.st29{fill:#9A5223;}
	.st30{fill:#985223;}
	.st31{fill:none;stroke:#00A8D5;stroke-width:0.8307;stroke-linecap:round;stroke-miterlimit:10;}
	.st32{fill:none;stroke:#00A8D5;stroke-width:0.8307;stroke-linecap:round;stroke-miterlimit:10;stroke-dasharray:2.7354,2.7354;}
	.st33{fill:none;stroke:#00A8D5;stroke-width:0.8307;stroke-linecap:round;stroke-miterlimit:10;stroke-dasharray:2.7201,2.7201;}
	.st34{fill:none;stroke:#303184;stroke-width:1.1076;stroke-miterlimit:10;stroke-dasharray:3.3228;}
	.st35{fill:none;stroke:#00A8D5;stroke-width:0.8307;stroke-linecap:round;stroke-miterlimit:10;stroke-dasharray:2.769;}
	.st36{fill:#AAD2EE;}
	.st37{fill:#5B5455;}
	.st38{fill:#CDCDCD;}
	.st39{fill:none;stroke:#97BEE4;stroke-width:1.3845;stroke-miterlimit:10;}
	.st40{fill:#BCBDBF;}
	.st41{fill:#E5E6E6;}
	.st42{fill:#5B5455;stroke:#E5E6E6;stroke-width:0.8307;stroke-miterlimit:10;}
	.st43{clip-path:url(#SVGID_00000063618935530355737020000017889697908791823269_);fill:#3C60AB;}
	.st44{clip-path:url(#SVGID_00000110437108105914480300000005220544628165704861_);fill:#3C60AB;}
	.st45{clip-path:url(#SVGID_00000053535718448800877880000007717688396633362344_);fill:#FCE1D8;}
	.st46{clip-path:url(#SVGID_00000159449195744198648300000015177702955866570374_);fill:#FCE1D8;}
	.st47{clip-path:url(#SVGID_00000155144905391991416980000012430131676210744232_);fill:#3C60AB;}
	.st48{clip-path:url(#SVGID_00000157267226815624665540000014053640315422976940_);fill:#3C60AB;}
	.st49{clip-path:url(#SVGID_00000014613443793272033880000005342331106355020706_);fill:#FCE1D8;}
	.st50{fill:#FFD45E;}
	.st51{fill:#4E4FA0;}
	.st52{fill:#CC8A00;}
	.st53{fill:#FCE3DA;}
	.st54{fill:#D3D4D4;}
	.st55{fill:#FFFFFF;stroke:#2B2D2D;stroke-width:1.3845;stroke-miterlimit:10;}
	.st56{fill:#EA484A;stroke:#AF3636;stroke-width:0.2769;stroke-miterlimit:10;}
	.st57{fill:#CFDBD8;}
	.st58{fill:none;stroke:#708383;stroke-width:0.2769;stroke-linecap:round;stroke-linejoin:round;stroke-miterlimit:10;}
	.st59{fill:none;stroke:#CFDBD8;stroke-width:0.5538;stroke-linecap:round;stroke-miterlimit:10;}
	.st60{fill:#EA484A;}
	.st61{fill:#F2AA28;stroke:#0BA9B0;stroke-width:0.2769;stroke-miterlimit:10;}
	.st62{fill:none;stroke:#AF3636;stroke-width:0.2769;stroke-linecap:round;stroke-linejoin:round;stroke-miterlimit:10;}
	.st63{fill:#AF3636;}
	.st64{fill:none;stroke:#7F7F7F;stroke-width:0.2769;stroke-linecap:round;stroke-miterlimit:10;}
	.st65{fill:none;stroke:#0BA9B0;stroke-width:0.2769;stroke-linecap:round;stroke-linejoin:round;stroke-miterlimit:10;}
	.st66{fill:#111119;}
	.st67{fill:#292A30;}
</style>
<g>
	<circle class="st0" cx="99" cy="90" r="90"/>
	<g>
		<g>
			<path class="st1" d="M57.6,41.4c2.6-2.9,3.1-2.3,5.7-5.2c2.6-2.9,6.4-5.3,10.6-4.8c1.2,0.1,2.3,0.5,3.4,0.9
				c2.6,0.9,5.2,2.1,6.9,4.2c1.7,2.1,2,5.2,0.1,6.9c-3.2,2.9-8.3-0.1-11.9,2.3c-1.8,1.2-3.5,3-5,4.5c-2,1.9-7.4,2.5-9.7,0.5
				C55.4,48.7,55.8,43.4,57.6,41.4z"/>
		</g>
		<path class="st2" d="M74.3,49.4c0.7-1.9,0-4.4-1-6.1c0.7-0.1,1-0.9,0.7-1.5c-0.2-0.4-0.8-0.6-1.2-0.8c-1.7-0.9-3.5-0.7-5.3-0.5
			c-2.3,0.4-8.5,3.6-8.9,3.6c-0.4,0.1-0.9-0.4-1.3-0.7c-1.6-1.2-3-2.5-4.5-3.8c-2.3-2.1-4.4-4.8-6-7.5c-2.1-3.5-3.6-7.3-4.6-11.3
			c-0.4-1.6-0.9-3.3-1.2-4.9c-0.2-1-0.7-3.5-1-5.3c-0.4-2.6,1.5-1.2,4.7,0.1c7.8,3,13.2,5.5,16.5,7.8c1,0.7,2,1.4,2.9,2.2
			c0.6,0.5,0.8,0.6,0.9,1.3c0.1,0.6,0.2,1.1,0.3,1.7c0.4,1.9,0.8,3.7,1.4,5.5c0.4,1.3,1,2.4,1.9,3.4c0.5,0.6,1.1,1.4,1.9,0.8
			c0.4-0.3,0.5-0.9,0.2-1.3c1.2,0,2.3-0.4,3.2-1.2c1.3,1.7,2.5,3.3,3.6,5.1c0.4,0.7,1.3,1.6,1.4,2.5c0.1,0.6-0.3,0.8-0.4,1.2
			s0.3,1.3,0.3,1.7c0.3,1.7,0.3,3.4-0.5,5c-0.3,0.7-1,1.5-1.7,1.7c-0.6,0.1-0.9,0-1.4,0.5C75.1,48.7,74.2,49.8,74.3,49.4z"/>
		<path class="st3" d="M77,33.7c-1,0-1.2-0.9-1.4-1.6c-0.2-0.7-0.5-1.4-0.7-2.1c-0.8,1.4-2.5,2.2-4.1,2.2c0.3,0.4,0.2,0.9-0.1,1.2
			c-0.8,0.8-1.5-0.1-1.9-0.7c-0.8-1-1.4-2.1-1.9-3.4c-1-2.9-1.6-6.1-2-9.2c-0.2-1.3-0.3-2.5-0.4-3.8c-0.1-1-0.1-2-0.1-3.1
			c0-0.8,0.2-1.1,1-0.9c1.3,0.3,3,1.9,4,2.7c0.5,0.4,1,0.9,1.5,1.4c2.4,2.7,4,6.1,5.4,9.5l0,0l0,0C76.8,27.1,79.8,33.7,77,33.7z"/>
		<path class="st3" d="M63.6,56.3c-3.6,0-7.9-0.7-10.7-3c-0.6-0.5-1-1-1.5-1.6c-0.4-0.5-0.2-0.6,0.2-1.1c0.9-1.1,1.8-2.1,2.8-3
			c3-3,7-5.4,11.1-6.6c1.9-0.5,4.4-1.1,6.4-0.4c0.5,0.2,1.4,0.5,1.8,0.9c0.6,0.5,0.7,1.6-0.3,1.8c1.2,2,1.7,4.5,0.8,6.7
			c0.7-0.7,1.2-1.8,2.3-1.8c0.9,0,1.7,0.8,1.6,1.7c-0.1,1.2-1.4,2.6-2.4,3.2c-2,1.3-4.4,1.9-6.7,2.5C67.2,56.1,65.4,56.3,63.6,56.3z
			"/>
		<path class="st4" d="M67,39c-0.1-0.1-0.2-0.2-0.4-0.4c-0.1-0.1-0.2-0.2-0.3-0.3c-0.2-0.2-0.4-0.5-0.7-0.7c-0.4-0.5-0.8-1-1.3-1.5
			c-0.4-0.5-0.9-0.9-1.4-1.4s-1-0.9-1.4-1.4s-0.9-0.9-1.3-1.4c-0.5-0.5-0.9-0.9-1.4-1.4c-0.9-1-1.8-2-2.7-3c-0.4-0.5-0.9-1-1.4-1.4
			c-0.5-0.5-0.9-1-1.4-1.5c-0.4-0.5-0.9-1-1.3-1.5c-0.4-0.5-0.9-1-1.3-1.4c-0.4-0.5-0.9-1-1.3-1.5c-0.4-0.5-0.8-1-1.3-1.6
			c-0.4-0.5-0.8-1-1.3-1.5c-0.2-0.2-0.4-0.5-0.7-0.7c-0.2-0.2-0.4-0.4-0.6-0.7c-0.1-0.1-0.2-0.3-0.3-0.4l0,0c-0.1,0-0.2-0.2-0.1-0.3
			c0.1-0.1,0.2,0,0.3,0.1l0,0c0.1,0.1,0.2,0.2,0.3,0.3s0.2,0.2,0.3,0.3c0.2,0.2,0.5,0.4,0.7,0.6s0.5,0.4,0.7,0.7
			c0.2,0.2,0.5,0.5,0.7,0.7c0.4,0.5,0.9,1,1.3,1.5c0.4,0.5,0.9,1,1.3,1.5c0.9,1,1.8,1.9,2.7,2.9c0.4,0.5,0.9,0.9,1.3,1.4
			c0.5,0.5,1,1,1.4,1.4c0.5,0.5,0.9,1,1.4,1.5s0.9,1,1.4,1.5c0.2,0.2,0.5,0.5,0.7,0.7s0.5,0.5,0.7,0.7s0.5,0.5,0.7,0.7
			s0.5,0.5,0.7,0.7c0.5,0.5,0.9,1,1.4,1.4s0.9,0.9,1.4,1.3c0.5,0.5,0.9,1,1.3,1.5c0.2,0.2,0.4,0.5,0.7,0.7c0.1,0.1,0.2,0.2,0.3,0.3
			c0.1,0.1,0.2,0.2,0.3,0.3c0.1,0.2,0.3,0.3,0.4,0.5c0,0,0,0.1,0.1,0.1c0,0.1,0.1,0.1,0.1,0.2c0,0.1,0,0.2-0.1,0.3s-0.2,0.1-0.3,0.1
			C67.2,39.2,67.1,39.1,67,39z"/>
		<path class="st4" d="M72.3,29.8C72.3,29.7,72.2,29.7,72.3,29.8c-0.1-0.1-0.2-0.2-0.2-0.2c-0.2-0.5-0.4-1-0.6-1.6s-0.4-1.1-0.6-1.7
			c-0.4-1.1-0.8-2.1-1.2-3.2V23c-0.2-0.5-0.4-1-0.7-1.5c-0.2-0.5-0.5-1-0.7-1.5c-0.5-1.1-1-2.1-1.3-3.3c0-0.1-0.1-0.3-0.1-0.4
			s0-0.1,0-0.2s0-0.2,0.1-0.2s0.1,0.1,0.1,0.1c0,0.1,0.1,0.1,0.1,0.2c0.1,0.1,0.1,0.3,0.2,0.4c0.1,0.3,0.2,0.6,0.4,0.9
			c0.2,0.5,0.5,1,0.7,1.5c0.3,0.5,0.5,1.1,0.8,1.6c0.3,0.5,0.5,1,0.7,1.5s0.5,1,0.7,1.5c0.5,1.1,0.9,2.2,1.4,3.3
			c0.1,0.4,0.3,0.7,0.4,1.1s0.3,0.7,0.4,1.1c0,0.1,0,0.2,0,0.3c-0.1,0.1-0.1,0.2-0.2,0.2h-0.1C72.4,29.8,72.3,29.8,72.3,29.8z"/>
		<path class="st4" d="M56.4,51.5C56.4,51.5,56.3,51.5,56.4,51.5C56.3,51.4,56.3,51.4,56.4,51.5L56.4,51.5c0.1-0.1,0.1-0.1,0.2-0.1
			c0.1,0,0.3,0,0.4-0.1c0.2,0,0.5-0.1,0.7-0.1c0.3-0.1,0.5-0.1,0.8-0.2c0.2,0,0.3-0.1,0.5-0.1c0.1,0,0.3-0.1,0.4-0.1
			c0.4-0.1,0.7-0.2,1.1-0.3c0.2-0.1,0.4-0.1,0.5-0.2c0.2-0.1,0.4-0.2,0.6-0.2c0.5-0.2,0.9-0.4,1.4-0.6c0.5-0.2,1-0.5,1.6-0.7
			c0.9-0.4,1.9-0.8,2.9-1.3c0.3-0.1,0.6-0.3,0.9-0.4c0.1,0,0.2-0.1,0.3-0.1s0.2-0.1,0.2-0.1c0.2-0.1,0.3-0.1,0.5-0.2
			c0.1,0,0.1,0,0.2,0c0.1,0,0.2,0.1,0.2,0.2c0.1,0.2,0,0.4-0.1,0.5c-0.2,0.1-0.5,0.3-0.7,0.4c-0.1,0.1-0.3,0.1-0.4,0.2
			c-0.1,0-0.2,0.1-0.3,0.1c-0.5,0.2-1,0.4-1.5,0.5c-0.5,0.2-1,0.4-1.5,0.6c-0.5,0.2-1,0.4-1.5,0.6c-0.5,0.2-1,0.4-1.5,0.6
			c-0.3,0.1-0.5,0.2-0.8,0.3c-0.1,0-0.2,0.1-0.4,0.1c-0.1,0-0.3,0.1-0.4,0.1c-0.1,0-0.2,0.1-0.3,0.1c-0.2,0-0.3,0.1-0.5,0.1
			c-0.1,0-0.2,0.1-0.3,0.1s-0.3,0.1-0.4,0.1c-0.2,0-0.3,0.1-0.5,0.1c-0.1,0-0.3,0-0.4,0.1c-0.3,0-0.5,0.1-0.8,0.1
			c-0.2,0-0.4,0-0.6,0.1c-0.1,0-0.2,0-0.3,0C56.5,51.5,56.5,51.5,56.4,51.5L56.4,51.5z"/>
		<path class="st4" d="M61.7,49.6c-0.1-0.1-0.3-0.1-0.4-0.2c-0.1-0.1-0.2-0.1-0.3-0.2c-0.2-0.1-0.4-0.3-0.6-0.4
			c-0.2-0.1-0.4-0.3-0.6-0.4c-0.1-0.1-0.2-0.1-0.3-0.2l-0.1-0.1c0,0-0.1,0-0.1-0.1l0,0v-0.1c0,0,0,0,0.1,0c0,0,0,0,0.1,0l0,0
			c0.1,0,0.1,0.1,0.2,0.1l0.1,0.1c0.1,0.1,0.2,0.1,0.3,0.2c0.2,0.1,0.4,0.3,0.6,0.4c0.2,0.1,0.4,0.3,0.6,0.4
			c0.1,0.1,0.2,0.1,0.3,0.2c0.1,0.1,0.2,0.1,0.3,0.2c0.1,0,0.1,0.1,0.1,0.2l-0.1,0.1C61.8,49.6,61.8,49.6,61.7,49.6
			C61.8,49.6,61.7,49.6,61.7,49.6z"/>
		<path class="st4" d="M61.7,52.3L61.7,52.3L61.7,52.3L61.7,52.3z M61.3,54L61.3,54C61.3,53.9,61.3,53.9,61.3,54c0-0.1,0-0.2,0-0.2
			c0-0.1,0-0.1,0-0.2c0-0.1,0-0.3,0-0.4c0-0.2,0-0.5,0.1-0.7c0-0.3,0.1-0.5,0.1-0.8c0-0.1,0-0.3,0-0.4c0-0.1,0-0.3,0.1-0.4l0,0
			c0,0,0,0,0-0.1h0.1h0.1v0.1c0,0.1,0,0.3,0,0.4c0,0.1,0,0.2,0,0.3c0,0.2-0.1,0.4-0.1,0.6l0,0l0,0l0,0l0,0c0,0.1,0,0.1,0,0.2l0,0
			c0,0.1,0,0.2,0,0.2c0,0.2-0.1,0.4-0.1,0.6c0,0.1,0,0.2,0,0.3s0,0.1,0,0.2c0,0,0,0,0,0.1c0,0,0,0,0,0.1C61.5,54,61.4,54,61.3,54
			C61.4,54,61.4,54,61.3,54z"/>
		<path class="st4" d="M66,52.8c0,0-0.1-0.1,0-0.2c0-0.1,0.1-0.3,0.1-0.4c0-0.1,0-0.1,0-0.2c0-0.1,0-0.2,0.1-0.2h0.1c0,0,0,0,0,0.1
			l0,0c0,0.1,0,0.1,0,0.2c0,0.1,0,0.1,0,0.2c0,0.1,0,0.3,0,0.4l0,0v0.1l-0.1,0.1C66,52.9,66,52.9,66,52.8z"/>
		<path class="st4" d="M63.5,47.1c-0.1-0.1-0.3-0.3-0.4-0.4c-0.1-0.1-0.1-0.1-0.2-0.2l-0.1-0.1l-0.1-0.1v-0.1l0.1-0.1h0.1
			c0,0,0,0,0.1,0c0,0,0.1,0,0.1,0.1c0.1,0,0.2,0.1,0.2,0.1c0.2,0.1,0.4,0.2,0.5,0.4c0,0,0.1,0.1,0.1,0.2c0,0.1,0,0.1-0.1,0.2
			c0,0-0.1,0.1-0.2,0.1C63.6,47.2,63.5,47.2,63.5,47.1z"/>
		<path class="st4" d="M51.5,22C51.4,22,51.4,22,51.5,22c-0.1-0.1-0.1-0.1-0.1-0.2c0-0.2,0-0.4,0-0.5c0-0.2,0-0.4,0-0.5
			c0-0.3,0-0.7,0-1c0-0.7,0-1.4-0.1-2.1c0-0.3,0-0.6,0-0.9c0-0.1,0-0.3,0-0.4s0-0.1,0-0.2v-0.1c0,0,0-0.1,0.1-0.1l0,0l0,0
			c0,0,0.1,0,0.1,0.1l0,0c0,0.1,0,0.1,0,0.2v0.1c0,0.1,0,0.2,0,0.3c0,0.2,0,0.4,0,0.6c0,0.3,0.1,0.7,0.1,1c0.1,0.7,0.1,1.4,0.2,2.1
			c0,0.3,0,0.5,0.1,0.8c0,0.1,0,0.3,0,0.4s0,0.3,0,0.4s-0.1,0.2-0.2,0.2C51.6,22.1,51.5,22.1,51.5,22z"/>
		<path class="st4" d="M58.1,19.7L58.1,19.7L58.1,19.7L58.1,19.7z M58.1,28.7c-0.1,0-0.1-0.1-0.1-0.2c-0.1-0.5-0.1-0.9-0.1-1.4
			c0-0.4,0-0.9,0-1.3c0-0.9,0-1.8-0.1-2.8c0-0.5,0-1,0-1.4c0-0.2,0-0.5,0-0.7s0-0.4,0-0.7c0-0.1,0-0.2,0-0.3c0-0.1,0-0.1,0-0.2v-0.1
			l0,0c0-0.1,0.1-0.1,0.1-0.1c0.1,0,0.1,0,0.1,0.1l0,0v0.1c0,0.1,0,0.1,0,0.2s0,0.2,0,0.3c0,0.2,0,0.5,0,0.7c0,0.5,0,1,0,1.5
			c0,0.9,0.1,1.8,0.2,2.8c0,0.4,0.1,0.9,0.1,1.3s0,0.9,0,1.3c0,0.2,0,0.4,0,0.6v0.1c0,0.1-0.1,0.1-0.2,0.1c0,0,0,0-0.1,0
			C58.2,28.8,58.1,28.8,58.1,28.7z"/>
		<path class="st4" d="M63,33.9c-0.1,0-0.1-0.1-0.1-0.2c0-0.1-0.1-0.3-0.1-0.4c0-0.1,0-0.2,0-0.3c0-0.2,0-0.4,0-0.6
			c0-0.4,0-0.8,0-1.2c0-0.4,0-0.8,0.1-1.2c0-0.4,0-0.9,0.1-1.3c0.1-0.8,0.1-1.7,0.2-2.5c0-0.4,0-0.9,0.1-1.3c0-0.4,0-0.8,0-1.3v-0.1
			c0-0.1,0-0.1,0-0.2c0,0,0.1-0.1,0.1,0c0.1,0,0.1,0.1,0.1,0.2s0,0.1,0,0.2s0,0.2,0,0.3c0,0.2,0,0.4,0,0.6c0,0.4,0,0.9,0,1.3
			c0,0.8,0,1.7,0,2.5s0,1.7,0,2.5c0,0.4,0,0.8,0,1.3c0,0.2,0,0.4,0,0.6c0,0.1,0,0.2,0,0.3s0,0.2,0,0.3s0,0.2,0,0.2
			c0,0.1,0,0.1,0,0.2c0,0.1-0.1,0.2-0.3,0.2C63.1,33.9,63,33.9,63,33.9z"/>
		<path class="st4" d="M53.1,37.2C53.1,37.2,53.1,37.1,53.1,37.2c-0.1-0.1,0-0.2,0-0.2c0.1,0,0.1,0,0.2-0.1c0.1,0,0.2-0.1,0.3-0.1
			c0.2-0.1,0.5-0.2,0.7-0.2c0.5-0.2,1-0.3,1.4-0.4c0.5-0.1,0.9-0.3,1.4-0.4c0.5-0.2,0.9-0.3,1.4-0.5c0.2-0.1,0.3-0.1,0.5-0.2
			c0.1,0,0.2-0.1,0.2-0.1l0,0c0.4-0.2,0.9-0.4,1.3-0.6c0.2-0.1,0.4-0.2,0.6-0.3c0.1,0,0.2-0.1,0.3-0.1c0.1-0.1,0.3-0.1,0.4-0.2
			c0,0,0,0,0.1,0s0.1,0,0.2,0c0.1,0,0.1,0,0.2,0c0.1,0,0.1,0,0.2,0l0.1,0.1c0,0,0,0.1,0,0.2c0,0.1,0,0.2-0.1,0.2l-0.1,0.1
			c0,0-0.1,0.1-0.2,0.1c-0.1,0-0.2,0.1-0.2,0.1c-0.1,0-0.2,0.1-0.3,0.1c-0.2,0.1-0.4,0.2-0.7,0.2c-0.5,0.2-0.9,0.3-1.4,0.5
			s-0.9,0.3-1.4,0.5c-0.5,0.1-0.9,0.3-1.4,0.4c-0.5,0.1-1,0.2-1.4,0.3c-0.5,0.1-1,0.2-1.5,0.4c-0.1,0-0.3,0.1-0.4,0.1
			c-0.1,0-0.1,0-0.2,0.1C53.3,37.1,53.3,37.1,53.1,37.2C53.2,37.1,53.2,37.2,53.1,37.2C53.2,37.2,53.2,37.2,53.1,37.2z"/>
		<path class="st4" d="M49.4,30.1L49.4,30.1L49.4,30.1L49.4,30.1z M50.5,30.3c-0.2,0-0.4,0-0.6,0c-0.1,0-0.2,0-0.3,0s-0.1,0-0.2-0.1
			h-0.1v-0.1l0,0c0,0,0,0,0.1,0h0.1h0.1c0.2,0,0.4,0,0.6,0c0.2,0,0.4,0,0.6,0c0.2,0,0.4,0,0.6,0c0.2,0,0.4,0,0.6-0.1
			c0.3,0,0.7-0.1,1-0.1c0.4-0.1,0.8-0.1,1.2-0.2s0.8-0.2,1.2-0.3c0.3-0.1,0.7-0.2,1-0.3c0.2,0,0.3-0.1,0.5-0.1c0.1,0,0.2,0,0.2-0.1
			h0.1c0.1,0,0.1,0,0.2,0c0.1,0,0.1,0,0.2,0c0.1,0,0.1,0.1,0.1,0.2s0,0.1,0,0.2v0.1l-0.1,0.1l-0.1,0.1h-0.1h-0.1c-0.1,0-0.2,0-0.2,0
			h0.1c-0.2,0-0.4,0.1-0.6,0.1c-0.2,0-0.4,0.1-0.6,0.1c-0.4,0.1-0.8,0.2-1.2,0.2c-0.3,0-0.7,0-1.2,0.1c-0.4,0.1-0.8,0.1-1.3,0.1
			c-0.2,0-0.4,0-0.6,0c-0.2,0-0.4,0-0.7,0c-0.1,0-0.2,0-0.3,0C50.7,30.3,50.6,30.3,50.5,30.3z"/>
		<path class="st4" d="M46.4,22.1L46.4,22.1L46.4,22.1z M50.8,21.5L50.8,21.5L50.8,21.5z M46.2,22.4L46.2,22.4c-0.1,0-0.2,0-0.2-0.1
			v-0.1l0,0l0,0h0.1h0.1c0.1,0,0.1,0,0.2,0l0,0c0.3,0,0.6-0.1,0.8-0.1c0.3,0,0.5-0.1,0.8-0.1c0.4-0.1,0.8-0.1,1.2-0.2
			s0.8-0.1,1.2-0.2c0.1,0,0.3,0,0.4,0c0.1,0,0.2,0,0.2,0h0.1h0.1c0,0,0.1,0,0.2,0c0,0,0.1,0,0.1,0.1c0,0,0,0.1,0.1,0.1
			c0.1,0.1,0.1,0.2,0,0.3c0,0.1-0.1,0.1-0.2,0.1h-0.1l0,0c0,0,0,0-0.1,0s-0.1,0-0.2,0c-0.1,0-0.2,0-0.3,0c-0.2,0-0.4,0-0.6,0
			c-0.2,0-0.4,0-0.6,0c-0.2,0-0.4,0-0.6,0.1c-0.4,0-0.8,0.1-1.2,0.1c-0.2,0-0.4,0-0.6,0c-0.2,0-0.4,0-0.6,0
			C46.4,22.4,46.3,22.4,46.2,22.4C46.3,22.4,46.3,22.4,46.2,22.4z"/>
		<path class="st4" d="M68.5,22.3c-0.2-0.1-0.4-0.2-0.6-0.2c-0.1,0-0.2-0.1-0.3-0.1c-0.1,0-0.2-0.1-0.3-0.1l0,0l0,0
			c-0.1,0-0.1-0.2,0-0.2c0,0,0,0,0.1,0h0.1h0.1c0.1,0,0.1,0,0.2,0c0.1,0,0.2,0.1,0.3,0.1c0.2,0.1,0.5,0.1,0.7,0.2
			c0.1,0,0.2,0.2,0.2,0.3c0,0.1-0.1,0.1-0.1,0.1C68.6,22.3,68.6,22.3,68.5,22.3L68.5,22.3z"/>
		<path class="st4" d="M70,21.5c-0.1,0-0.2-0.2-0.2-0.3c0.1-0.3,0.1-0.6,0.2-1c0-0.3,0.1-0.6,0.2-1c0-0.1,0-0.1,0-0.2v-0.1
			c0,0,0,0,0-0.1l0.1-0.1c0,0,0.1,0,0.1,0.1c0,0,0,0.1,0,0.2v0.1c0,0.1,0,0.2,0,0.2c0,0.2,0,0.3-0.1,0.5c0,0.3-0.1,0.6-0.1,0.9
			c0,0.2,0,0.3-0.1,0.5c0,0.1-0.1,0.1-0.1,0.1C70.2,21.5,70.1,21.5,70,21.5C70.1,21.5,70.1,21.5,70,21.5z"/>
		<path class="st5" d="M110.2,106.8C110.2,106.7,110.3,106.7,110.2,106.8C110.3,106.7,110.3,106.8,110.2,106.8
			C110.3,106.8,110.4,106.8,110.2,106.8C110.3,106.8,110.2,106.8,110.2,106.8z"/>
		<path class="st5" d="M120.6,74.8c-0.1,0-0.1-0.1-0.2-0.1c0.1,0,0.2,0.1,0.3,0.1C120.7,74.9,120.7,74.8,120.6,74.8z"/>
		<path class="st6" d="M114.2,92L114.2,92c-0.1,0-0.2,0-0.3,0c-0.2,0-0.4,0-0.6,0c0.1,0,0.2,0,0.3,0c0.1,0,0.2,0,0.3,0l0,0
			C114.1,92,114.2,92,114.2,92C114.3,92,114.3,92,114.2,92C114.3,92,114.3,92,114.2,92L114.2,92z"/>
		<path class="st6" d="M118.2,71.2L118.2,71.2c0-0.1,0-0.1,0.1-0.2C118.2,71.1,118.2,71.2,118.2,71.2z M114.1,86.7
			c-0.1-0.1-0.1-0.2-0.2-0.2c-0.1-0.2-0.2-0.4-0.2-0.6c0-0.3,0.1-0.7,0.1-1c0-0.4,0.1-0.7,0.1-1.1c0-0.3,0.1-0.6,0.1-0.9
			c0-0.2,0.1-0.3,0.1-0.5c0.1-0.3,0.1-0.6,0.2-0.9c0-0.3,0.1-0.6,0.1-0.9c0-0.4,0-0.7,0-1.1c0-0.2,0-0.3,0-0.5c0-0.3,0-0.5,0.1-0.8
			c0-0.2,0-0.3,0.1-0.5c0,0,0,0,0-0.1c-0.2-0.4-0.1-0.9,0-1.3c0-0.2,0.1-0.4,0.1-0.5c0.1-0.3,0.2-0.7,0.3-1c0.1-0.4,0.3-0.8,0.4-1.1
			c0.1-0.3,0.1-0.5,0.2-0.8c0.1-0.4,0.2-0.8,0.4-1.1c0.1-0.2,0.2-0.5,0.3-0.7c0-0.1,0.1-0.2,0.1-0.3c0-0.1,0.1-0.2,0.1-0.2
			c0.1-0.2,0.3-0.4,0.4-0.5c0.3-0.2,0.7-0.1,1,0.1l0,0c0.1,0.1,0.2,0.2,0.2,0.3c0,0.1,0,0.3,0,0.4c-0.1,0.2-0.2,0.4-0.3,0.6
			c-0.1,0.2-0.2,0.5-0.2,0.8c-0.1,0.3-0.2,0.7-0.3,1c-0.2,0.7-0.3,1.5-0.5,2.2c-0.1,0.6-0.2,1.2-0.3,1.9c0,0.3-0.1,0.6-0.1,0.9
			s0,0.7,0,1c0,0.7,0,1.5,0,2.2c0,0.3,0,0.6,0,0.9c0,0.4-0.1,0.8-0.2,1.2c-0.1,0.3-0.1,0.6-0.2,0.9c0,0.3-0.1,0.5-0.1,0.8
			c0,0.1,0,0.3-0.1,0.4c0,0.1,0,0.2,0,0.3c-0.1,0.2-0.2,0.4-0.3,0.5c-0.2,0.2-0.5,0.3-0.8,0.3C114.6,87.1,114.3,86.9,114.1,86.7z"/>
		<g>
			<g>
				<defs>
					<rect id="SVGID_1_" x="123.9" y="99.9" width="49.6" height="46.6"/>
				</defs>
				<clipPath id="SVGID_00000047027993763219184890000013861381677684396949_">
					<use xlink:href="#SVGID_1_"  style="overflow:visible;"/>
				</clipPath>
				<path style="clip-path:url(#SVGID_00000047027993763219184890000013861381677684396949_);fill:#303084;" d="M137.4,113.9
					L137.4,113.9L137.4,113.9z M137.4,113.9L137.4,113.9L137.4,113.9L137.4,113.9z"/>
			</g>
			<g>
				<defs>
					<rect id="SVGID_00000106115049598558810460000002409087876428183971_" x="123.9" y="99.9" width="49.6" height="46.6"/>
				</defs>
				<clipPath id="SVGID_00000040543189907095460420000010425008168984752002_">
					<use xlink:href="#SVGID_00000106115049598558810460000002409087876428183971_"  style="overflow:visible;"/>
				</clipPath>
				<path style="clip-path:url(#SVGID_00000040543189907095460420000010425008168984752002_);fill:#303084;" d="M126.9,111.9
					L126.9,111.9L126.9,111.9z M126.9,111.9L126.9,111.9L126.9,111.9L126.9,111.9L126.9,111.9z M126.2,115.6L126.2,115.6
					L126.2,115.6z"/>
			</g>
		</g>
		<path class="st9" d="M68.1,169.8c-0.1,0-0.1,0-0.2-0.1c0,0-0.1-0.1-0.1-0.2c0-0.1,0-0.3,0.1-0.4c0.1,0,0.1-0.1,0.2-0.1
			c0,0,0.1,0,0.1-0.1c0.1,0,0.1-0.1,0.2-0.1c0.2-0.1,0.4-0.2,0.6-0.2c0.3-0.1,0.7-0.2,1-0.4c0.7-0.2,1.3-0.5,2-0.7
			c0.6-0.2,1.2-0.4,1.7-0.5c0.1,0,0.1,0,0.2-0.1c0.2-0.1,0.5-0.2,0.7-0.3c0.2,0.1,0.5,0.1,0.7,0.2c0.2,0.1,0.5,0.1,0.7,0.2
			c0.1,0,0.1,0,0.2,0.1c-0.2,0-0.4,0.1-0.6,0.1c-0.3,0.1-0.7,0.2-1,0.3c-0.2,0.1-0.4,0.2-0.6,0.2c-0.6,0.2-1.3,0.5-1.9,0.7
			c-0.7,0.2-1.3,0.5-2,0.7c-0.3,0.1-0.6,0.2-1,0.3c-0.2,0.1-0.3,0.1-0.5,0.1c-0.1,0-0.2,0-0.2,0.1h-0.1c-0.1,0-0.1,0-0.2,0
			C68.2,169.9,68.1,169.9,68.1,169.8z"/>
		<g>
			<path class="st10" d="M69.7,159.3L69.7,159.3L69.7,159.3z"/>
			<path class="st10" d="M75.4,160c-0.2-0.5-1-0.7-1.4-0.9c-0.5-0.2-1-0.3-1.5-0.3c-0.9-0.1-2.2,0.3-3,0.6c0.1-0.1-1.2,0.5-1.6,0.8
				c0.3,0.9,1.3,0.9,2.2,1.3c0.3,0.1,1.2,0.2,1.5,0.2c0.2-0.1,0.5-0.3,0.3-0.5c-0.1-0.1-0.4-0.2-0.6-0.2c0.4-0.3,0.8-0.5,1.2-0.7
				c0.1-0.1,0.2-0.1,0.3-0.2c0.2-0.1,0.3-0.2,0.6-0.1c0.4,0.1,0.8,0.2,1.2,0.3C74.9,160.3,75.6,160.5,75.4,160z"/>
		</g>
		<path class="st10" d="M79.8,161.7L79.8,161.7L79.8,161.7L79.8,161.7z"/>
		<path class="st11" d="M62.4,161.3c-0.1,0-0.1-0.1-0.2-0.1l-0.1-0.1c-0.1-0.1-0.2-0.2-0.3-0.2c0,0,0,0,0.1,0
			c-0.2-0.1-0.3-0.3-0.5-0.4c-0.1-0.1-0.3-0.2-0.4-0.4c-0.1-0.1-0.3-0.2-0.4-0.4c-0.1-0.1-0.3-0.2-0.4-0.4c0,0,0,0-0.1-0.1l0,0v-0.1
			c0.1,0,0.2,0,0.2,0.1c0.1,0.1,0.2,0.1,0.3,0.2c0.2,0.1,0.3,0.2,0.5,0.3s0.3,0.2,0.5,0.3s0.3,0.2,0.5,0.3c0.1,0.1,0.3,0.2,0.4,0.2
			c0.1,0,0.1,0.1,0.2,0.1c0.1,0.1,0.2,0.1,0.3,0.2l0.1,0.1c0,0.1,0,0.2,0,0.2c0,0.1-0.1,0.1-0.2,0.1h-0.1
			C62.5,161.4,62.4,161.3,62.4,161.3z"/>
		<path class="st11" d="M53.7,171.8L53.7,171.8L53.7,171.8L53.7,171.8z M47.6,171.6L47.6,171.6L47.6,171.6z M53.4,171.9
			C53.4,171.9,53.5,171.9,53.4,171.9C53.5,171.9,53.4,171.9,53.4,171.9z M51.1,172.5c-0.2,0-0.3,0-0.5-0.1l0,0l0,0l0,0l0,0
			c0,0,0,0-0.1,0c0,0,0,0,0.1,0c-0.2,0-0.4-0.1-0.7-0.1c-0.2,0-0.4-0.1-0.6-0.1c-0.4-0.1-0.8-0.2-1.2-0.3c-0.1,0-0.2-0.1-0.3-0.1
			s-0.1-0.1-0.2-0.1h-0.1l0,0c0,0-0.1,0-0.1-0.1c0,0,0-0.1,0.1-0.1h0.1c0,0,0,0,0.1,0h0.1c0.2,0,0.4,0.1,0.6,0.1
			c0.4,0.1,0.8,0.2,1.2,0.2c0.2,0,0.3,0.1,0.5,0.1c0.4,0.1,0.8,0.1,1.2,0.1c0.2,0,0.4,0,0.7,0c0.2,0,0.4,0,0.6-0.1
			c0.1,0,0.2,0,0.3,0c0.2,0,0.3,0,0.5-0.1c0.1,0,0.1,0,0.2,0l0,0c0,0,0,0,0.1,0c0,0,0,0,0.1,0l0,0l0,0l0,0l0,0l0,0h0.1
			c0.1,0,0.2,0,0.3,0c0.4-0.1,0.8-0.1,1.2-0.2c0.4-0.1,0.8-0.3,1.3-0.4c0.2-0.1,0.3-0.1,0.5-0.2c0.2-0.1,0.3-0.1,0.5-0.2
			c0.1,0,0.1,0,0.2,0c0.1,0,0.1,0.1,0.2,0.1c0.1,0.2,0,0.3-0.1,0.4l-0.1,0.1c-0.1,0-0.1,0.1-0.2,0.1c-0.1,0-0.2,0.1-0.3,0.1
			c-0.2,0.1-0.4,0.1-0.6,0.2c-0.4,0.1-0.8,0.3-1.3,0.3c-0.4,0.1-0.9,0.2-1.4,0.2c-0.4,0-0.9,0.1-1.3,0.1c-0.4,0-0.7,0-1.1,0
			c-0.1,0-0.1,0-0.2,0C51.4,172.5,51.3,172.5,51.1,172.5z"/>
		<path class="st12" d="M30,83.5c0,0,0.1,0,0.1-0.1v0.1C30.2,83.5,30.1,83.5,30,83.5C30.1,83.5,30.1,83.5,30,83.5
			C30.1,83.5,30.1,83.5,30,83.5z"/>
		<path class="st13" d="M159,139.5L159,139.5C159,139.5,159,139.6,159,139.5C159,139.6,159,139.6,159,139.5
			C159,139.6,159,139.6,159,139.5c0,0.1-0.1,0.1-0.1,0.1S159,139.6,159,139.5z"/>
		<path class="st13" d="M156,139L156,139L156,139L156,139z"/>
		<path class="st14" d="M162.9,120.7L162.9,120.7L162.9,120.7L162.9,120.7z M162.9,120.7L162.9,120.7L162.9,120.7L162.9,120.7
			L162.9,120.7L162.9,120.7C162.9,120.6,162.9,120.6,162.9,120.7L162.9,120.7C162.9,120.7,162.9,120.7,162.9,120.7
			C162.9,120.8,162.9,120.8,162.9,120.7C162.9,120.8,162.9,120.7,162.9,120.7z"/>
		<path class="st14" d="M163,120.2c0-0.2,0.1-0.3,0.1-0.5s0.1-0.3,0.1-0.5s0.1-0.3,0.1-0.5c0.1-0.3,0.1-0.7,0.2-1
			c0.1-0.3,0.1-0.7,0.2-1c0-0.2,0.1-0.3,0.1-0.5s0.1-0.3,0.1-0.5s0.1-0.3,0.1-0.5c0.1-0.2,0.1-0.3,0.2-0.5c0.1-0.2,0.1-0.4,0.2-0.6
			c0-0.1,0.1-0.2,0.1-0.3c0-0.1,0.1-0.2,0.1-0.3c0-0.1,0-0.2,0-0.3c0-0.1,0-0.2,0-0.2c0-0.2,0-0.3,0-0.5c0,0,0,0,0-0.1
			c0,0,0-0.1,0.1-0.1h0.1c0,0,0.1,0,0.1,0.1c0,0.2,0,0.4,0.1,0.6c0,0.1,0,0.2,0,0.3v0.1c0,0.1,0,0.2,0,0.3c0,0.2-0.1,0.3-0.1,0.5
			s-0.1,0.3-0.1,0.5c-0.1,0.3-0.2,0.7-0.3,1c0,0.2-0.1,0.3-0.1,0.5s-0.1,0.3-0.1,0.5c0,0,0,0,0,0.1l0,0l0,0l0,0l0,0l0,0l0,0l0,0l0,0
			c0,0,0,0,0,0.1c0,0.3-0.1,0.5-0.1,0.8l0,0l0,0l0,0c0,0.4-0.1,0.7-0.2,1.1c0,0.2-0.1,0.3-0.1,0.5c0,0.1-0.1,0.3-0.1,0.4
			c0-0.1-0.1-0.1-0.1-0.2h-0.1h-0.1c-0.1,0-0.1,0.1-0.1,0.1c0,0.1,0,0.1,0,0.2l0,0v0.1c0,0.1,0,0.2-0.1,0.3
			C163.1,120.1,163.1,120.2,163,120.2C163,120.3,163,120.3,163,120.2L163,120.2C163,120.2,163,120.2,163,120.2z"/>
		<path class="st14" d="M162.6,120.8c0.1,0,0.1-0.1,0.2-0.1h0.1v0.1C162.8,120.8,162.7,120.8,162.6,120.8L162.6,120.8z"/>
		<rect x="42.3" y="42.6" class="st15" width="43.5" height="77.6"/>
		<g>
			<g>
				<g>
					<path class="st16" d="M49.4,59.2c-1.4,5.1,3.5,8.4,4.9,9.5s3.7,3.8,3.5,5.3c-0.3,3.7-1,6.2-1.4,9.9c-0.3,2.5,0,4.6,1.2,6.5
						s2.2,2.3,3.3,3.1c0.7,0.5,2.1,1.1,3.8,1.6c1.7,0.5,3.5,0.7,5.3,1.9c1.7,1.1,2.3,2.6,1.9,3.8c-0.4,1.3-1.1,2.5-1.6,3.3
						c-0.8,1.1-1.3,3.5-0.7,4.5c1.9,3.1,2.9,3.1,5.7,3.7c8.1,1.6,14.8-3.9,16.1-3.7l3.3-4.5c0,0,2.8-7.4,2.9-10.8
						c0.3-5.2-0.3-8.7-1.3-11s-5.3-3.9-8.2-4.7c-1.9-0.5-7.8-0.9-9.8-1.3c-1.3-0.3-3.9-1.5-4.1-3.6c-0.1-0.8,0.5-5-0.3-6.2
						c-0.8-1.3-1.6-3.3-4.4-3.6c-2-0.3-6.1,0.2-9.6,0.2c-1.2,0-2.1-0.7-2.9-1.8c-0.8-1.1-3.4-4.3-5.6-3.7
						C50.1,57.8,49.4,59.2,49.4,59.2z"/>
					<path class="st17" d="M91.3,106.1l-0.2,0.1c-2.6-4.5-13.2-20.2-22.6-30.6C58.7,64.8,50,58.5,49.9,58.4l0.1-0.2
						c0.1,0.1,8.8,6.4,18.6,17.2C78.1,85.9,88.7,101.6,91.3,106.1z"/>
					<path class="st17" d="M61.2,71.3c-1.5,0.9-2.9,1.1-3.7,1.2v-0.3c1.2-0.1,3.5-0.5,5.5-2.7c1.7-1.8,1.5-6.7,1.5-6.8h0.3
						c0,0.2,0.2,5.1-1.6,7C62.5,70.4,61.8,70.9,61.2,71.3z"/>
					<path class="st17" d="M62.7,73c-1.6,1-3.5,1.3-4.9,1v-0.2c1.8,0.3,4.6-0.4,6.2-2.3c2.2-2.6,1.8-8.8,1.8-8.8h0.3
						c0,0.3,0.4,6.3-1.9,9C63.8,72.2,63.3,72.7,62.7,73z"/>
					<path class="st17" d="M67.4,74.1L67.2,74c0-0.1,1.6-5.4,0.5-11.4h0.2C69,68.6,67.4,74,67.4,74.1z"/>
					<path class="st17" d="M73.7,81.3l-0.2-0.1c0,0,1.3-3.9,1.3-7.2h0.3C75,77.4,73.7,81.3,73.7,81.3z"/>
					<path class="st17" d="M74.2,85.7c-3.4,2.1-14.6,3.4-17.5,3.1v-0.3c3.5,0.4,15.9-1.3,17.9-3.5c2.1-2.2,2.4-9.1,2.4-9.2h0.3
						c0,0.3-0.4,7.1-2.5,9.3C74.7,85.3,74.5,85.5,74.2,85.7z"/>
					<path class="st17" d="M78.1,87.2c-10.2,5.6-20.2,3.7-20.3,3.7v-0.2c0.1,0,10,1.9,20.1-3.7L78.1,87.2z"/>
					<path class="st17" d="M86.1,98.2l-0.2-0.1c0-0.1,4.9-11.5,2.1-20.6l0.2-0.1C91.1,86.7,86.2,98.1,86.1,98.2z"/>
					<path class="st17" d="M83.9,102.7c-6.4,3.9-14.4,4.4-14.5,4.4v-0.3c0.1,0,9.2-0.6,15.6-5.2c6.2-4.4,6.2-15.4,5.6-23.3h0.3
						c0.6,7.9,0.6,19-5.7,23.5C84.8,102.1,84.3,102.4,83.9,102.7z"/>
				</g>
			</g>
			<g>
				<g>
					<path class="st18" d="M152.5,59.2c-2.1-1.7-5.6-1.4-7.7-0.3s-3.5,2.3-4,3c-0.9,1.4-1.4,2.2-2.3,2.7c-2,1.1-4.3-0.3-5.6-0.7
						c-1.3-0.4-2.4-0.5-3.7-0.2c-1.6,0.4-3.6,1.7-4.3,4.5c-0.9,3.3-0.4,4-1,5s-2,2.4-3.6,0.7c-1.7-1.8-3.4-2.7-5.2-2.5
						c-1.8,0.2-7.2,7.8-7.2,7.8l5.2,22l13.2-6l15.9-9.4c0,0-2.7-4-2-7.4c0.3-1.5,3.6-1.1,6.7-2.4c0.8-0.4,3.3-1.9,2.8-4.2
						c-0.5-2.3-1.7-6.1-0.6-7.8c1.1-1.7,3.9-1.9,4-2.9C153,60.1,152.5,59.2,152.5,59.2z"/>
					<path class="st17" d="M123.4,88.8c3.2-8.4,23.2-26.5,28.7-29.5c0.2-0.1,0.3-0.2,0.3-0.2l0.3,0.2c0,0-0.1,0.2-0.4,0.3
						c-5.5,3-25.4,21-28.6,29.4L123.4,88.8z"/>
					<path class="st17" d="M144.7,62.5c-0.3-1.4,0-3.5,0-3.6h0.3c0,0-0.5,3.5,0.5,4.4s3.5,0.6,3.6,0.5v0.3c-0.1,0-2.7,0.4-3.8-0.6
						C145,63.4,144.8,63,144.7,62.5z"/>
					<path class="st17" d="M140.7,64.5c-0.3-1.3,0-2.4,0-2.5l0.3,0.1c0,0-0.6,2.5,1,4.2c1.7,1.7,6.9,2.2,7,2.3v0.3
						c-0.2,0-5.4-0.5-7.2-2.3C141.1,65.8,140.8,65.1,140.7,64.5z"/>
					<path class="st17" d="M130.7,67.6c-0.5-2.2-0.6-3.9-0.6-3.9h0.3c0,0.1,0.5,6.7,3.4,10.1c2.9,3.4,13,2.2,13.1,2.2v0.3
						c0,0-2.6,0.3-5.5,0.2c-3.9-0.2-6.6-1-7.9-2.5C132,72.2,131.2,69.7,130.7,67.6z"/>
					<path class="st17" d="M124.5,87.1v-0.3c0.1,0,12.7,0,16.8-2.2l0.1,0.3C137.3,87.1,125,87.1,124.5,87.1z"/>
					<path class="st17" d="M127.2,83.1v-0.3c0.1,0,6.5,0.1,13-1.7l0.1,0.3C133.7,83.2,127.2,83.1,127.2,83.1z"/>
					<path class="st17" d="M114.3,78.4c-0.5-2-0.7-4.1-0.5-6.1h0.3c-0.9,10.3,8.4,21,8.5,21.1l-0.2,0.2
						C122.3,93.5,116.2,86.5,114.3,78.4z"/>
				</g>
				<g>
					<path class="st16" d="M153.7,79.1c-3.6-2.4-7.5,0.6-8.7,1.5s-3.9,1.9-5.1,1.4c-2.9-1.2-4.7-2.4-7.5-3.7
						c-1.9-0.9-3.7-1.1-5.4-0.7c-1.8,0.4-2.4,1.2-3.3,1.8c-0.6,0.4-1.4,1.4-2.3,2.6s-1.4,2.6-2.9,3.7c-1.3,1-2.6,1.1-3.5,0.6
						c-0.9-0.6-1.7-1.5-2.2-2.1c-0.7-0.9-2.4-1.9-3.4-1.7c-2.9,0.7-3,1.6-4.3,3.6c-1.1,1.6-1.3,2.6-1.7,3.5l3.3,13.8
						c0,0,5.2,4.1,7.8,5.1c4,1.5,7,2,9,1.8c2.1-0.2,4.5-3.2,5.8-5.3c0.9-1.4,2.7-5.9,3.5-7.4c0.6-1,2.2-2.7,3.9-2.4
						c0.6,0.1,3.8,1.7,5,1.4c1.2-0.3,3-0.4,4-2.5c0.7-1.5,1.4-4.9,2.3-7.7c0.3-1,1.1-1.5,2.2-1.8s4.3-1.6,4.3-3.5
						C154.6,80,153.7,79.1,153.7,79.1z"/>
					<path class="st17" d="M105.9,100.3v-0.2c4.2-0.9,19.3-5.3,29.9-10c11.1-5,18.3-10.2,18.3-10.3l0.1,0.2
						c-0.1,0.1-7.3,5.4-18.4,10.3C125.2,95,110.1,99.3,105.9,100.3z"/>
					<path class="st17" d="M141.1,85.3c-0.3-1.4-0.2-2.6,0-3.3l0.2,0.1c-0.2,1-0.5,2.9,0.7,5c1,1.8,4.9,2.9,5,2.9l-0.1,0.2
						c-0.2,0-4.1-1.2-5.1-3C141.5,86.6,141.2,85.9,141.1,85.3z"/>
					<path class="st17" d="M139.3,86.1c-0.4-1.5-0.1-3.1,0.4-4.1l0.2,0.1c-0.7,1.3-0.9,3.7,0.2,5.5c1.5,2.4,6.5,3.7,6.5,3.7
						l-0.1,0.2c-0.2-0.1-5.1-1.3-6.6-3.8C139.7,87.2,139.4,86.6,139.3,86.1z"/>
					<path class="st17" d="M137.3,89.5l0.1-0.2c0,0,3.9,2.7,8.9,3.3v0.2C141.2,92.2,137.3,89.5,137.3,89.5z"/>
					<path class="st17" d="M130,92.6l0.1-0.2c0,0,2.8,2,5.4,2.9l-0.1,0.2C132.8,94.7,130,92.6,130,92.6z"/>
					<path class="st17" d="M126.4,92c-0.8-3.2,1-12.4,2-14.6l0.2,0.1c-1.2,2.7-3,12.9-1.8,15.1s6.6,4.3,6.6,4.3l-0.1,0.2
						c-0.2-0.1-5.5-2.1-6.7-4.4C126.5,92.4,126.5,92.2,126.4,92z"/>
					<path class="st17" d="M124.2,94.7c-1.8-9.5,2.2-16.9,2.2-17l0.2,0.1c0,0.1-4,7.4-2.2,16.9H124.2z"/>
					<path class="st17" d="M113.4,98.1l0.1-0.2c0.1,0.1,7.8,6.8,15.8,6.9v0.2C121.3,105,113.5,98.2,113.4,98.1z"/>
					<path class="st17" d="M110.5,95.3c-1.4-6,0.2-12.5,0.2-12.6l0.2,0.1c0,0.1-1.9,7.4,0.1,13.7c1.9,6,10.6,8.8,16.9,10.4v0.2
						c-6.4-1.6-15.1-4.4-17.1-10.5C110.7,96.1,110.6,95.7,110.5,95.3z"/>
				</g>
			</g>
			<g class="st19">
				<g class="st20">
					<path class="st16" d="M52.7,61.8c-2.3,4.6,2.1,7.7,3.4,8.7c1.3,1,3.1,3.5,2.7,4.9c-0.9,3.4-2.1,5.7-3.1,9.1
						c-0.7,2.3-0.7,4.2,0.1,5.9c0.8,1.7,1.9,2.1,2.8,2.9c0.6,0.5,2,1,3.6,1.5s3.4,0.7,5.1,1.8c1.5,1.1,1.9,2.4,1.4,3.5
						c-0.6,1.2-1.6,2.3-2.2,3c-1,1-1.9,3.2-1.4,4.1c1.4,2.9,2.5,2.9,5.2,3.4c8.2,1.6,18.4-4.5,19.7-4.3l1.3-3c0,0,4-6.8,4.8-9.9
						c1.2-4.8,1.1-8,0.5-10.1s-4.7-3.7-7.6-4.4c-1.8-0.5-7.8-0.9-9.7-1.3c-1.3-0.3-3.7-1.4-3.6-3.3c0-0.7,1.4-4.5,0.8-5.7
						s-1.1-3-3.8-3.4c-2-0.3-6.3,0.2-9.8,0.1c-1.2,0-2-0.7-2.7-1.7c-0.7-1-2.7-4-5.1-3.4C53.7,60.5,52.7,61.8,52.7,61.8z"/>
					<path class="st17" d="M87.5,105.2l-0.2,0.1c-1.9-4.1-10.1-18.6-17.9-28.2c-8.1-10-16-15.9-16-15.9l0.2-0.2
						c0.1,0.1,7.9,5.9,16.1,16C77.5,86.5,85.6,101,87.5,105.2z"/>
					<path class="st17" d="M62.6,73c-1.6,0.8-3.1,1-4,1.1v-0.2c1.2-0.1,3.6-0.5,6-2.4c2-1.6,2.6-6.1,2.6-6.2h0.3
						c0,0.2-0.7,4.6-2.7,6.4C64.1,72.2,63.4,72.7,62.6,73z"/>
					<path class="st17" d="M63.9,74.6c-1.8,0.9-3.8,1.1-5.1,0.9l0.1-0.2c1.8,0.3,4.7-0.3,6.7-2c2.7-2.4,3.3-8,3.3-8.1h0.3
						c0,0.2-0.7,5.8-3.4,8.2C65.2,73.9,64.6,74.3,63.9,74.6z"/>
					<path class="st17" d="M68.5,75.7l-0.2-0.1c0,0,2.5-5,2.4-10.4H71C71.1,70.6,68.5,75.6,68.5,75.7z"/>
					<path class="st17" d="M73.7,82.4l-0.2-0.1c0,0,2-3.6,2.5-6.6h0.3C75.7,78.7,73.7,82.3,73.7,82.4z"/>
					<path class="st17" d="M73.5,86.3c-3.8,1.9-15.4,3-18.3,2.6l0.1-0.2c3.5,0.4,16.3-1.1,18.8-3c2.5-2,4-8.3,4-8.4h0.3
						c-0.1,0.3-1.5,6.5-4.1,8.5C74.1,86,73.8,86.2,73.5,86.3z"/>
					<path class="st17" d="M77.3,87.8C66,92.8,56.1,91,56,91l0.1-0.2c0.1,0,9.9,1.8,21.1-3.2L77.3,87.8z"/>
					<path class="st17" d="M83.5,97.9l-0.2-0.1c0.1-0.1,6.9-10.4,5.6-18.9l0.3-0.1C90.5,87.4,83.6,97.8,83.5,97.9z"/>
					<path class="st17" d="M80.5,102c-7.1,3.5-15.4,3.9-15.5,3.9v-0.2c0.1,0,9.4-0.5,16.8-4.6c7.1-4,8.9-14,9.6-21.2h0.3
						c-0.8,7.3-2.6,17.4-9.8,21.4C81.5,101.5,81,101.7,80.5,102z"/>
				</g>
			</g>
			<path class="st21" d="M135.1,43.5c0-19.2-15.6-34.8-34.8-34.8S65.5,24.3,65.5,43.5c0,11.7,9.1,19.1,14.7,28.4
				c2.1,3.6,2,16.5,2,16.5h36.2c0,0-0.1-12.9,2-16.5C126,62.6,135.1,55.3,135.1,43.5z"/>
			<path class="st22" d="M84.5,40.5L84.5,40.5C84.6,40.5,84.6,40.5,84.5,40.5z M98.6,31.6c-1,0.3-1.3,2.2-1.4,3
				c-0.2,1.4,0,2.7,0.3,4.1c0.5,2.5,1.5,5,3,7.1c1.5-2.4,1.9-5.3,1.6-8.1c-0.2-1.4-0.5-2.6-1.2-3.8C100.3,33.2,99.6,31.6,98.6,31.6z
				 M111.9,42.4c-2.6,0.5-3.9,4.4-4.4,6.6c1.8-0.2,3.8-1.1,4.7-2.7C112.7,45.3,114,42.3,111.9,42.4z M85.8,39.7
				c-2.9,0.6-1,5.2,0.1,6.7c1.6,2.2,4.5,4.1,7.3,3.9c-0.9-2.3-2.1-4.5-3.3-6.6C89,42.3,87.8,39.5,85.8,39.7z M96.1,87.6
				c-0.1-2.7,0-5.4-0.2-8.1s-0.3-5.4-0.4-8.1c-0.1-5.4,0.4-11-0.8-16.3c-0.1-0.5-0.2-1.3-0.4-1.7c-0.3-0.6,0.1-0.3-0.6-0.4
				c-0.2,0-0.6,0.1-0.8,0.1c-1.3,0-2.6-0.3-3.8-0.8c-1.8-0.9-3.5-2.3-4.8-3.9c-1.4-1.7-2.2-4-2.4-6.2c-0.1-2.4,1.3-4.8,3.9-4.9
				c2.8-0.2,4.7,2.3,6.1,4.4c1.7,2.5,2.9,5.3,3.9,8.1c0.7-0.3,2.2-0.8,2.5-1.5c0.2-0.4,0-0.5-0.3-0.9s-0.5-0.9-0.8-1.3
				c-1-1.9-1.6-4-2.1-6c-0.5-2.2-0.6-4.5,0-6.7c0.4-1.6,1.5-3.6,3.3-3.8c3.5-0.4,5.7,4.5,6.2,7.2c0.6,3.7-0.1,8-2.4,11.1
				c0.7,0.5,1.4,0.9,2.2,1.2c0.9-3.7,3.6-10.1,8.6-9.2c5.4,1,2.6,8.4-0.2,10.7c-0.9,0.7-1.8,1.2-2.9,1.6c-0.5,0.2-1,0.3-1.6,0.3
				c-0.3,0-0.6,0.1-0.9,0.1c-0.5,0-0.5-0.1-0.7,0.3c-0.4,0.9-0.1,2.5-0.2,3.5c0,1.3,0,2.6-0.2,3.9c-0.7,4.9-0.4,9.9-0.3,14.8
				c0.1,2.7,0,5.5,0.1,8.2c0.1,1.3,0.2,2.6,0.3,3.9c0,0.5,0.3,1-0.1,1.2c-0.2,0.1-1.5,0.2-1.7,0.1c-0.2-0.2-0.1-1.9-0.2-2.2
				c0-0.6-0.1-1.2-0.1-1.9c-0.1-1.3-0.2-2.7-0.3-4c-0.2-2.8-0.2-5.6-0.3-8.3c-0.2-5.6-0.4-11.2-0.2-16.8c0-0.6,0.1-1.2,0.1-1.8
				c0-0.3,0.2-0.8,0.1-1c-0.1-0.4,0-0.1-0.4-0.3c-0.9-0.6-1.9-0.9-2.8-1.6c-0.6-0.5-0.5-0.4-1.1,0.1c-0.4,0.3-0.9,0.7-1.4,1
				c-0.4,0.2-1.1,0.4-1.5,0.7c-0.5,0.4-0.2,0-0.2,0.5c0,0.4,0.2,0.8,0.3,1.2c1.3,6.1,0.8,12.4,0.9,18.6c0,3,0.1,6.1-0.1,9.1
				c-0.1,1.4-0.2,2.9-0.3,4.3c-0.1,0.6,0,1.4-0.2,1.9c-0.3,0.6,0,0.1-0.5,0.3c-0.2,0.1-0.4,0.1-0.6,0.3
				C96.1,88.1,96.1,87.9,96.1,87.6z"/>
			<g>
				<path class="st23" d="M36.9,46.6C36.9,46.6,37,46.6,36.9,46.6L36.9,46.6L36.9,46.6L36.9,46.6L36.9,46.6z"/>
				<path class="st23" d="M30.7,45.1c0.1,0,0.1,0,0.2-0.1s0.1-0.1,0.1-0.2c0-0.1,0-0.1-0.1-0.2l0,0l0.1-0.1c0-0.1,0.1-0.1,0.1-0.2
					c0.1,0.1,0.2,0.1,0.3,0.1c0.1,0,0.2-0.1,0.2-0.2c0,0,0,0,0-0.1c0,0,0-0.1,0.1-0.1c0,0.1,0,0.1,0.1,0.1c0,0.1,0.1,0.1,0.1,0.1
					c0.1,0,0.1,0,0.2,0.1c0.1,0,0.3-0.1,0.3-0.2V44l0,0c0.1,0.1,0.2,0.1,0.3,0l0,0c0,0,0,0.1,0.1,0.1c0,0,0.1,0.1,0.2,0.1h0.1
					c0.1,0,0.1,0,0.2,0c0,0.1,0.1,0.2,0.3,0.2h0.1c0,0,0,0,0,0.1c0.1,0.1,0.1,0.1,0.2,0.1l0,0l0,0l0,0c0,0.1,0,0.1,0,0.1l0.1,0.1
					c0,0,0.1,0,0.2,0c0.1,0,0.1,0,0.2,0h0.1c0.1,0,0.2,0,0.3,0l0,0c0,0,0,0,0.1,0.1c0,0,0.1,0,0.2,0l0,0c0.1,0,0.1,0,0.2,0
					c0.1,0,0.2-0.2,0.2-0.3s-0.1-0.1-0.1-0.2l0,0c0,0,0,0,0-0.1c0,0,0,0,0-0.1l0,0c0.1-0.1,0.1-0.1,0.1-0.2l-0.1-0.1h-0.1h-0.1v-0.1
					v-0.1c0-0.1,0-0.1,0-0.2c0-0.1-0.1-0.2-0.1-0.3C35,43.1,34.9,43,34.7,43h-0.1l0,0l0,0c0-0.1-0.1-0.1-0.1-0.2
					c0-0.1-0.1-0.1-0.1-0.2c0,0-0.1,0-0.1-0.1h-0.1c-0.1,0-0.1,0-0.2,0c-0.1,0-0.1,0-0.2,0.1c-0.1,0.1-0.2,0.2-0.2,0.3
					c0,0,0,0-0.1,0c0,0,0,0,0,0.1h-0.1l0,0l-0.1-0.1h-0.1h-0.1c-0.1-0.1-0.1-0.1-0.2-0.1s-0.2,0-0.3,0c0,0-0.1,0-0.1,0.1
					c0,0-0.1,0-0.1,0.1l-0.1,0.1l0,0c-0.1,0-0.1,0-0.2,0c-0.1,0-0.1,0-0.2,0.1c-0.1,0-0.1,0.1-0.2,0.2l-0.1,0.1l0,0
					c-0.1,0-0.2,0-0.3,0c-0.1,0-0.1,0.1-0.2,0.2c-0.1,0.1-0.2,0.2-0.2,0.3h-0.1c-0.1,0-0.1,0.1-0.1,0.1c0,0.1-0.1,0.1-0.1,0.2
					c0,0.1,0,0.3,0.1,0.4l0.1,0.1C30.5,45.1,30.6,45.1,30.7,45.1z M33.3,44L33.3,44L33.3,44L33.3,44z M31.8,43.9L31.8,43.9
					L31.8,43.9L31.8,43.9z"/>
				<path class="st23" d="M39,51.1L39,51.1C39,51.1,39,51,39,51.1c0-0.1,0-0.1,0-0.2l0,0C39,51,39,51,39,51.1z"/>
				<path class="st23" d="M38.8,50.4c0-0.1,0.1-0.1,0.1-0.2l0,0l0,0l0,0c0-0.1,0-0.1,0-0.2l0,0v-0.1l0,0l0,0l0,0l0,0
					c0,0,0-0.1-0.1-0.1c0,0,0,0,0-0.1s-0.1-0.1-0.1-0.2l0,0c0,0,0-0.1-0.1-0.1c0-0.1-0.1-0.1-0.1-0.2v-0.1l0,0l0,0V49l0,0l0,0
					c0,0,0-0.1-0.1-0.1l0,0l0,0l-0.1-0.1c0,0,0,0-0.1-0.1l-0.1-0.1c0,0-0.1-0.1-0.1-0.2l0,0l-0.1-0.1c-0.1-0.1-0.2-0.2-0.2-0.3
					s-0.1-0.1-0.1-0.2c0-0.1,0-0.1,0-0.2c0,0,0,0,0-0.1c0,0,0-0.1,0.1-0.1c0,0,0.1,0,0.1-0.1l0,0v-0.1c0-0.1-0.1-0.1-0.1-0.2
					c0-0.1-0.1-0.1-0.2-0.1c0,0-0.1,0-0.1-0.1l0,0l0,0h-0.1h-0.1h-0.1c0,0,0,0-0.1,0c0,0.1,0,0.1,0,0.2c0,0.1,0,0.1-0.1,0.2
					c0,0.1,0,0.1,0,0.2c0,0,0,0.1,0.1,0.1c0,0,0,0,0.1,0h0.1v0.1c-0.1,0-0.2,0.1-0.2,0.2c0,0.1,0,0.1,0,0.2c0,0.2,0.1,0.3,0.2,0.5
					s0.1,0.3,0.2,0.5l0,0c0,0.1,0,0.1,0.1,0.2c0,0.1,0,0.1,0,0.2v0.1c0,0.1,0,0.1,0.1,0.1c0,0.1,0.1,0.1,0.1,0.1l0,0
					c0,0.1,0,0.1,0,0.2c0,0.2,0.1,0.3,0.3,0.3h0.1c0,0,0,0,0,0.1v0.1c0,0,0,0,0,0.1l0,0c0,0-0.1,0-0.1,0.1c-0.1,0-0.1,0.1-0.1,0.2
					c0,0.1,0,0.2,0,0.2c0,0.1,0.1,0.1,0.2,0.1l0,0l0.1,0.1c0.1,0,0.1,0,0.2-0.1l0.1-0.1l0,0l0,0l0,0l0,0l0,0l0,0l0,0c0,0,0,0,0-0.1
					l0,0c0,0,0-0.1,0.1-0.1C38.7,50.6,38.8,50.5,38.8,50.4L38.8,50.4L38.8,50.4L38.8,50.4z M38.5,49.5L38.5,49.5
					C38.5,49.5,38.5,49.4,38.5,49.5C38.5,49.4,38.5,49.4,38.5,49.5z M38.2,48.7C38.2,48.6,38.2,48.6,38.2,48.7
					C38.2,48.6,38.2,48.6,38.2,48.7C38.2,48.6,38.2,48.6,38.2,48.7z"/>
				<path class="st23" d="M38.4,60c0,0,0-0.1-0.1-0.1l0,0c-0.1,0.1-0.1,0.1-0.2,0.2l0,0L38,60.2c-0.1,0.1-0.2,0.2-0.2,0.3
					c-0.1,0.2-0.3,0.4-0.5,0.5c-0.1,0.1-0.1,0.4,0,0.5c0.1,0.1,0.2,0.1,0.3,0.1s0.2,0,0.2-0.1c0.2-0.2,0.5-0.5,0.7-0.7l0.1-0.1
					c0,0,0-0.1-0.1-0.1C38.5,60.3,38.4,60.1,38.4,60z"/>
				<path class="st23" d="M39,60c-0.1,0-0.1,0-0.2,0c0,0.1,0.1,0.1,0.1,0.2C39,60.2,39,60.1,39,60L39,60L39,60z"/>
				<path class="st23" d="M38.9,59.4C38.9,59.5,38.9,59.5,38.9,59.4c0.1,0.1,0.1,0.2,0.1,0.2l0,0c0,0,0,0,0-0.1
					C39,59.5,38.9,59.5,38.9,59.4z"/>
				<path class="st23" d="M37.5,60.4c0.1,0,0.2-0.1,0.3-0.2c0.1-0.1,0.1-0.3,0-0.4c-0.1-0.1-0.2-0.1-0.3-0.1s-0.2,0-0.3,0.1l0,0
					c0-0.1,0-0.2,0-0.3c-0.1-0.1-0.2-0.1-0.3-0.1h-0.1c-0.1,0-0.1,0-0.2,0c-0.1,0-0.2,0-0.3,0.1c-0.2,0.1-0.5,0.1-0.7,0.2
					c-0.2,0.1-0.4,0.1-0.6,0.2c-0.2,0.1-0.4,0.1-0.6,0.2c-0.2,0.1-0.4,0.2-0.6,0.3c-0.1,0.1-0.2,0.1-0.3,0.2
					c-0.1,0.1-0.2,0.1-0.3,0.1c0,0-0.1,0-0.2,0l0,0c0-0.1,0-0.1,0-0.2c0,0,0,0-0.1-0.1h-0.1c0,0,0,0-0.1,0c0,0,0,0,0-0.1l0,0l0,0
					c0,0,0,0-0.1,0l0,0l0,0c0-0.4,0-0.8-0.1-1.2c0-0.2-0.1-0.4-0.1-0.7c0.1,0,0.1,0,0.2,0s0.1,0,0.2-0.1c0,0,0.1,0,0.1-0.1
					c0.1,0,0.1-0.1,0.1-0.1l0.1-0.1v-0.1c0-0.1,0-0.1,0-0.2v-0.1c0,0,0,0,0-0.1H33c0,0,0,0.1-0.1,0.1c0,0,0,0-0.1,0.1c0,0,0,0-0.1,0
					c-0.1,0-0.1,0-0.2,0h-0.1c-0.1,0-0.1,0-0.2,0l0,0v-0.1c-0.1-0.2-0.1-0.5-0.2-0.7l0,0c0-0.1-0.1-0.2-0.1-0.4c0-0.1,0-0.1-0.1-0.2
					c-0.1-0.2-0.2-0.4-0.3-0.6c-0.1-0.1-0.1-0.2-0.2-0.3c0,0,0,0-0.1-0.1h-0.1H31c0,0,0,0,0,0.1l0,0l0,0l0,0l0,0l0,0
					c0,0.1,0,0.1,0.1,0.2c0,0,0,0,0,0.1c0,0,0-0.1-0.1-0.1l-0.1-0.1c0,0-0.1-0.1-0.1,0l0,0l0,0l0,0l0,0l0,0c0,0.1,0,0.1,0,0.2l0,0
					c0.1,0,0.1,0,0.2,0.1h0.1h0.1c0.1,0,0.1,0,0.2,0.1s0.2,0.2,0.2,0.3s0,0.1,0,0.1s0,0,0,0.1l-0.1,0.1c0,0,0,0-0.1,0l0,0l0,0
					c0,0.1,0,0.2,0.1,0.2c0.1,0.4,0.2,0.7,0.2,1.1l0,0l-0.1,0.1c-0.1,0-0.1,0-0.2,0.1c0,0,0,0,0.1,0h0.1c0.1,0,0.1,0,0.1,0.1
					c0.1,0.1,0,0.2,0,0.3s-0.1,0.1-0.1,0.2c0.1,0,0.1,0,0.2-0.1c0,0,0,0,0.1,0c0,0.3,0,0.6,0,0.9c0,0.4,0,0.7,0,1.1
					c0,0.1,0,0.2,0,0.4s0,0.3,0,0.5c0,0.1,0,0.2,0,0.4c0,0.1,0,0.2,0,0.3s0,0.2,0.1,0.2c0.1,0.1,0.2,0.1,0.2,0.1
					c0.1,0,0.2,0,0.2-0.1c0,0,0.1-0.1,0.1-0.2c0-0.2,0.1-0.4,0.1-0.5s0-0.2,0-0.3l0,0l0.1-0.1c0.1,0,0.1-0.2,0.1-0.2l0,0
					c0.1,0,0.1,0,0.2,0c0.1,0,0.2-0.1,0.3-0.1s0.2-0.1,0.3-0.2c0.2-0.1,0.3-0.2,0.5-0.3l0,0c0.1,0,0.1,0,0.2-0.1
					c-0.1,0.1-0.3,0.2-0.4,0.2c-0.2,0.1-0.4,0.2-0.5,0.3c-0.1,0-0.2,0.1-0.3,0.1c0,0-0.1,0-0.1,0.1c0,0-0.1,0-0.1,0.1l-0.1,0.1
					c0,0,0,0,0,0.1s0,0.1,0,0.2c0,0.1,0.1,0.1,0.1,0.1s0,0,0.1,0c0,0,0,0,0.1,0h0.1c0,0,0,0,0.1,0c0,0,0.1,0,0.1-0.1
					c0.3-0.1,0.6-0.2,0.9-0.3c0,0.1,0,0.2,0,0.2c0.1,0.1,0.2,0.2,0.4,0.1c0,0,0.1,0,0.1-0.1c0.4-0.2,0.7-0.4,1.1-0.6
					c0.2-0.1,0.4-0.2,0.5-0.3c0.1,0,0.1-0.1,0.2-0.1c0.1,0,0.2,0,0.3-0.1c0.1,0,0.2,0,0.3-0.1C37.4,60.4,37.4,60.4,37.5,60.4z
					 M31.4,55.5L31.4,55.5L31.4,55.5L31.4,55.5L31.4,55.5z"/>
				<polygon class="st23" points="31.3,55.6 31.3,55.6 31.3,55.6 31.3,55.5 				"/>
				<path class="st23" d="M31.4,56.3L31.4,56.3L31.4,56.3L31.4,56.3L31.4,56.3L31.4,56.3c-0.1,0-0.1,0-0.1-0.1v0.1
					C31.4,56.4,31.4,56.4,31.4,56.3C31.4,56.4,31.4,56.4,31.4,56.3C31.4,56.4,31.4,56.4,31.4,56.3C31.4,56.4,31.4,56.4,31.4,56.3
					C31.4,56.4,31.4,56.4,31.4,56.3C31.4,56.4,31.4,56.4,31.4,56.3L31.4,56.3L31.4,56.3z"/>
				<path class="st23" d="M31.2,52.6c0,0,0,0.1,0.1,0.1v0.1c0,0,0,0.1,0.1,0.1c0,0,0.1,0,0.1,0.1v0.1v0.1l0,0l0,0l0,0l0,0l0,0l0,0
					c0.1,0,0.1-0.1,0.1-0.1V53c0,0,0.1,0,0.1-0.1l0.1-0.1c0,0,0,0,0-0.1s0-0.1,0-0.2v-0.1c0-0.1,0-0.1-0.1-0.2
					c0-0.1-0.1-0.3-0.2-0.4c0-0.1-0.1-0.1-0.1-0.2c0-0.1-0.1-0.2-0.1-0.4v-0.1c0-0.1,0-0.1,0-0.2v-0.1c0-0.1,0-0.2-0.1-0.3v-0.1
					c0-0.1,0-0.1,0-0.2c0-0.2,0-0.4,0-0.6c0-0.2,0-0.4,0-0.6c0-0.4,0-0.7,0-1.1c0-0.1-0.1-0.2-0.2-0.2s-0.1,0-0.2,0.1
					c0,0-0.1,0.1-0.1,0.2c0,0.3,0,0.6-0.1,0.9c0,0.2,0,0.4,0,0.6c0,0.2,0,0.3,0,0.5c0,0.1-0.1,0.2-0.1,0.3v0.1c0,0.1,0,0.2,0,0.3
					l0,0h-0.1c0,0-0.1,0-0.1,0.1c0,0-0.1,0.1-0.1,0.2v0.1c0,0,0,0.1,0.1,0.1c0,0,0,0.1,0.1,0.1c0.1,0.2,0.2,0.3,0.3,0.5
					c0,0,0,0.1,0.1,0.1c0,0.2,0.1,0.3,0.1,0.5C31.1,52.4,31.2,52.5,31.2,52.6z"/>
				<path class="st23" d="M33.3,47.8c0,0,0-0.1,0.1-0.1c0,0,0-0.1,0.1-0.2c0-0.1,0-0.2-0.1-0.2c-0.1,0-0.1,0-0.2,0l0,0
					c0,0-0.1,0-0.1,0.1L33,47.5v0.1c0,0,0,0,0,0.1l0,0v-0.1c0-0.1,0-0.1,0.1-0.2c0-0.1,0.1-0.1,0.1-0.2c0-0.1,0.1-0.1,0.1-0.2
					c0,0,0-0.1,0.1-0.1l0.1-0.1c0-0.1,0-0.1,0-0.2c0,0,0-0.1-0.1-0.1c0,0,0,0,0.1,0s0.1-0.1,0.1-0.1s0,0,0-0.1v-0.1l0,0l-0.1-0.1
					h-0.1h-0.1l0,0h-0.1c-0.1,0-0.1,0.1-0.2,0.1l-0.1,0.1l-0.1,0.1c0,0,0,0.1,0,0.2c0,0.1,0,0.1,0,0.2c-0.1,0.1-0.1,0.1-0.1,0.2
					c0,0.1-0.1,0.1-0.1,0.2c0,0.1-0.1,0.2-0.1,0.2c0,0.1,0,0.1,0,0.2c0,0.1,0,0.2,0.1,0.3c0,0,0,0.1,0.1,0.1c0,0,0.1,0,0.1,0.1h0.1
					c0,0.1,0,0.1,0,0.2c0,0.1,0.1,0.2,0.2,0.2s0.1,0.1,0.2,0.1s0.2,0,0.3-0.1l0.1-0.1l0,0l0,0l0.1-0.1l0,0c0,0,0,0,0-0.1v-0.1
					c0-0.1,0-0.1,0-0.2C33.3,47.9,33.3,47.9,33.3,47.8z M32.7,47.6L32.7,47.6L32.7,47.6L32.7,47.6z"/>
			</g>
			<g>
				<g>
					<g>
						<defs>
							<rect id="SVGID_00000150810511430267796260000007040349215620286339_" x="21.9" y="116.1" width="32.4" height="8.5"/>
						</defs>
						<clipPath id="SVGID_00000107550331225174199370000016276864167952530319_">
							<use xlink:href="#SVGID_00000150810511430267796260000007040349215620286339_"  style="overflow:visible;"/>
						</clipPath>
						<path style="clip-path:url(#SVGID_00000107550331225174199370000016276864167952530319_);fill:#3C60AB;" d="M38.9,123.6
							L38.9,123.6L38.9,123.6L38.9,123.6z M38.8,123.9L38.8,123.9C38.8,123.8,38.8,123.8,38.8,123.9c-0.1-0.1,0-0.2,0-0.2l0.1-0.1
							l0.1-0.1l0,0c0,0,0,0,0.1-0.1c0.1,0,0.2,0,0.2,0s0.1,0,0.1,0.1s0,0.1,0,0.2l0,0c0,0.1-0.1,0.1-0.2,0.2l0,0l0,0l0,0
							c0,0,0,0-0.1,0l0,0l0,0H39h-0.1l0,0C38.9,123.9,38.9,123.9,38.8,123.9C38.9,123.9,38.8,123.9,38.8,123.9z"/>
					</g>
					<g>
						<defs>
							<rect id="SVGID_00000168834250301535340480000014195867537456471701_" x="21.9" y="116.1" width="32.4" height="8.5"/>
						</defs>
						<clipPath id="SVGID_00000150804119544426705500000006945494254927174026_">
							<use xlink:href="#SVGID_00000168834250301535340480000014195867537456471701_"  style="overflow:visible;"/>
						</clipPath>
						<path style="clip-path:url(#SVGID_00000150804119544426705500000006945494254927174026_);fill:#3C60AB;" d="M52.9,119.6
							c0-0.1-0.1-0.1,0-0.2l0,0l0,0l0,0c0,0,0,0,0-0.1c0,0,0,0,0.1,0c0,0,0,0,0.1,0c0,0,0,0,0.1,0c0,0,0,0,0.1,0s0.2,0,0.2,0.1l0,0
							l0.1,0.1c0,0.1,0,0.2,0,0.2c0,0.1-0.1,0.1-0.2,0.1h-0.1C53.1,119.8,53,119.7,52.9,119.6z"/>
					</g>
					<g>
						<defs>
							<rect id="SVGID_00000178169420816467726720000013815975167047452312_" x="21.9" y="116.1" width="32.4" height="8.5"/>
						</defs>
						<clipPath id="SVGID_00000091737249757043938030000014945425418519314837_">
							<use xlink:href="#SVGID_00000178169420816467726720000013815975167047452312_"  style="overflow:visible;"/>
						</clipPath>
						<path style="clip-path:url(#SVGID_00000091737249757043938030000014945425418519314837_);fill:#9A5223;" d="M21.9,122.6
							C22,122.7,22,122.7,21.9,122.6C22,122.7,22,122.7,21.9,122.6c0,0.1,0,0.1-0.1,0.1C21.9,122.7,21.9,122.7,21.9,122.6z"/>
					</g>
					<g>
						<defs>
							<rect id="SVGID_00000166669236010091097760000008655567535760701631_" x="21.9" y="116.1" width="32.4" height="8.5"/>
						</defs>
						<clipPath id="SVGID_00000073699452833891229640000016255427335027217062_">
							<use xlink:href="#SVGID_00000166669236010091097760000008655567535760701631_"  style="overflow:visible;"/>
						</clipPath>
						<g style="clip-path:url(#SVGID_00000073699452833891229640000016255427335027217062_);">
							<path class="st28" d="M53.1,119.4L53.1,119.4C53.1,119.4,53.2,119.4,53.1,119.4C53.2,119.4,53.2,119.4,53.1,119.4L53.1,119.4
								z M46.4,121.7c-0.3,0-0.6,0-0.9-0.1c-0.1,0-0.3,0-0.4-0.1c-0.1,0-0.3-0.1-0.4-0.1c-0.1,0-0.2-0.1-0.3-0.1s-0.2-0.1-0.2-0.1
								c-0.1-0.1-0.2-0.2-0.2-0.3v-0.1v-0.1v-0.1c0-0.1,0-0.1,0.1-0.2c0-0.1,0.1-0.2,0.1-0.3c0-0.1,0.1-0.2,0.1-0.3l0,0
								c0-0.1,0-0.1,0.1-0.2l0,0v-0.1c0,0,0,0,0.1,0s0.2,0.1,0.2,0.2s0,0.2,0,0.3v0.1c0.1,0,0.2,0,0.3,0.1c0,0,0,0,0.1,0
								s0.1,0,0.2,0c0.1,0,0.1,0,0.2,0c0.1,0,0.3,0,0.4,0l0,0c0,0,0-0.1-0.1-0.1l0,0c0-0.1,0-0.1,0-0.2s0.1-0.2,0.2-0.3
								c0.1,0,0.1-0.1,0.2-0.1c0.1,0,0.2-0.1,0.3-0.1s0.2,0,0.3-0.1c0.3-0.1,0.6-0.1,0.8-0.1c0.5-0.1,1.1-0.2,1.6-0.2
								c0.6-0.1,1.2-0.1,1.7-0.1c0.6,0,1.1-0.1,1.7-0.1c0.3,0,0.5,0,0.8,0c0.2,0,0.4,0,0.6,0.1c0.1,0,0.2,0.1,0.2,0.2
								c0.1,0.1,0,0.1,0.1,0.2l0,0c0,0.1,0,0.1,0,0.2v0.1c0,0.1,0,0.1-0.1,0.2s-0.2,0.2-0.3,0.3c-0.2,0.2-0.5,0.3-0.7,0.4
								s-0.5,0.2-0.8,0.3c-0.3,0.1-0.5,0.2-0.8,0.3c-0.5,0.2-1.1,0.3-1.6,0.4c-0.3,0.1-0.6,0.1-0.9,0.2c-0.3,0-0.6,0.1-0.9,0.1
								c-0.5,0-1.1,0.1-1.6,0.1C46.4,121.7,46.4,121.7,46.4,121.7z"/>
							<path class="st28" d="M39.1,123.6L39.1,123.6C39.1,123.6,39.2,123.6,39.1,123.6C39.2,123.6,39.2,123.6,39.1,123.6
								C39.2,123.6,39.1,123.6,39.1,123.6z M32,123.7c-0.3-0.1-0.6-0.2-0.9-0.3c-0.1-0.1-0.3-0.1-0.4-0.2s-0.2-0.1-0.3-0.2
								c-0.1-0.1-0.1-0.1-0.2-0.2s-0.1-0.1-0.2-0.2s-0.1-0.2-0.1-0.4v-0.1c0,0,0-0.1,0.1-0.1l0.1-0.1c0-0.1,0.1-0.1,0.1-0.2
								c0.1-0.1,0.1-0.2,0.2-0.3c0.1-0.1,0.1-0.2,0.2-0.3l0.1-0.1c0,0,0-0.1,0.1-0.1l0,0h0.1c0.1,0,0.1,0.2,0.1,0.3
								c0,0.1-0.1,0.2-0.1,0.3v0.1c0.1,0,0.2,0.1,0.2,0.1s0,0,0,0.1c0.1,0,0.2,0,0.2,0c0.1,0,0.1,0,0.2,0.1s0.3,0.1,0.4,0.2l0,0V122
								l0,0c0-0.1,0-0.1,0-0.2s0.2-0.2,0.3-0.2s0.1,0,0.2,0s0.2,0,0.4,0c0.1,0,0.2,0,0.3,0c0.3,0,0.6,0.1,0.8,0.1
								c0.5,0.1,1.1,0.2,1.6,0.3c0.6,0.1,1.1,0.3,1.7,0.4s1.1,0.3,1.7,0.4c0.3,0.1,0.5,0.1,0.8,0.3c0.2,0.1,0.4,0.1,0.5,0.3
								c0.1,0.1,0.1,0.1,0.1,0.2s0,0.1,0,0.2l0,0c0,0.1,0,0.1-0.1,0.2v0.1c0,0.1-0.1,0.1-0.1,0.2c-0.1,0.1-0.3,0.2-0.4,0.2
								c-0.3,0.1-0.6,0.1-0.8,0.2c-0.3,0-0.5,0.1-0.8,0.1s-0.6,0-0.8,0c-0.6,0-1.1-0.1-1.7-0.1c-0.3,0-0.6-0.1-0.9-0.1
								c-0.3,0-0.6-0.1-0.8-0.2c-0.5-0.1-1-0.2-1.5-0.4C32.1,123.8,32,123.8,32,123.7z"/>
							<path class="st29" d="M50.8,119.1c-0.4-0.3-1-0.4-1.5-0.4c-0.5-0.1-1-0.1-1.5-0.2c0-0.5,0-0.6,0-0.9c0-0.4,0.1-0.8,0-1.1
								c0-0.2-0.2-0.4-0.4-0.3c0,0,0,0.1-0.1,0.1c0,0.1,0,0.1-0.1,0.1h-0.1c-0.1,0.1-0.1,0.1-0.2,0.2c-0.2-0.1-0.5-0.4-0.6,0
								c-0.1-0.2-0.3-0.2-0.5-0.1c-0.2,0.2-0.1,0.3-0.4,0.3c-0.3,0-0.2-0.3-0.4-0.4c-0.2-0.3-0.3-0.1-0.3,0.1c0,0.5-0.1,0.9-0.2,1.4
								c-0.1,0.3-0.2,0.6-0.3,0.9s-0.3,0.6-0.1,0.8c0.2,0.5,1,0.5,1.4,0.5c0.7,0,1.4,0.1,2.1,0c0.7-0.1,1.4-0.1,2.1-0.3
								C50.1,119.9,51.4,119.5,50.8,119.1z"/>
							<path class="st29" d="M36.9,122.5c-0.3-0.4-0.9-0.6-1.3-0.9c-0.5-0.2-0.9-0.4-1.4-0.6c-0.4-0.2-0.7-0.4-1-0.8
								c-0.1-0.1-0.2-0.3-0.3-0.4c-0.1-0.2,0.1-0.4,0.3-0.3v-0.2c0-0.1,0.2-0.1,0.2-0.3c0-0.1,0-0.3-0.2-0.4
								c-0.3-0.1-0.3,0.1-0.5,0.2c-0.1,0.1-0.2,0-0.4,0c-0.2-0.1,0,0-0.1-0.2c0-0.1,0-0.2-0.1-0.3c-0.1-0.1,0-0.1-0.2-0.1
								c-0.1,0-0.2,0.1-0.3,0.2c-0.1,0.2-0.2,0.4-0.2,0.6c-0.1,0.3-0.2,0.6-0.4,0.9c-0.2-0.4-0.4-0.2-0.5,0s-0.1,0.8-0.1,1
								c0,0.4,0,0.6,0.4,0.9c0.4,0.2,0.8,0.4,1.2,0.5c0.9,0.3,1.8,0.6,2.7,0.7C35.1,123.1,37.5,123.3,36.9,122.5z"/>
						</g>
					</g>
				</g>
				<path class="st23" d="M39,49.5C39,49.5,38.9,49.5,39,49.5c0-0.2,0-0.3,0-0.5c0-0.1,0-0.2-0.1-0.3l0,0c0-0.1,0-0.1,0-0.2v-0.1
					c0-0.1,0-0.2,0-0.3s0-0.2-0.1-0.2c0,0,0-0.1-0.1-0.1c0,0,0,0-0.1-0.1l-0.1-0.1c0,0,0,0,0-0.1v-0.1v-0.1v-0.1
					c0-0.1,0-0.2-0.1-0.3c0-0.1-0.1-0.1-0.2-0.1s-0.2-0.1-0.3,0c-0.1,0-0.1,0-0.1,0.1c0,0,0,0,0-0.1s0-0.1,0-0.2c0-0.1,0-0.2,0-0.2
					s0-0.1-0.1-0.1c0,0,0-0.1-0.1-0.1l-0.1-0.1h-0.1c-0.1,0-0.1,0-0.2,0c0-0.1,0-0.1,0-0.2v-0.1c0,0,0,0,0-0.1l0,0c0,0,0,0-0.1-0.1
					H37c0,0,0,0-0.1,0h-0.1c0,0-0.1,0-0.1,0.1l-0.1,0.1l0,0l0,0v-0.1v-0.1v-0.1v-0.1c0-0.1,0-0.1-0.1-0.2c0,0,0-0.1-0.1-0.1h-0.1
					c-0.1,0-0.1,0-0.2,0l0,0c0,0,0,0,0-0.1c0,0,0-0.1-0.1-0.1l-0.1-0.1l0,0c0-0.1,0-0.2-0.1-0.2c0-0.1-0.1-0.2-0.2-0.2
					c-0.1,0-0.1,0-0.2,0c0-0.1,0-0.2,0-0.3c0,0,0,0,0-0.1v-0.1c0,0,0-0.1-0.1-0.1s-0.1-0.1-0.2-0.1s-0.1,0-0.2,0s-0.1,0-0.2,0.1
					c-0.1,0-0.2,0.1-0.2,0.2c-0.1-0.1-0.2-0.2-0.3-0.3c-0.1-0.1-0.3-0.3-0.4-0.5v-0.1V43l0,0l0,0h-0.1c-0.1,0-0.1,0-0.2,0
					c0,0-0.1,0-0.1,0.1l-0.1,0.1l0,0c0,0,0-0.1-0.1-0.1L33.1,43L33,42.9l-0.1-0.1c-0.2-0.1-0.3-0.1-0.5-0.1c-0.1,0-0.2,0.1-0.2,0.1
					c-0.1,0-0.1,0.1-0.2,0.1l0,0l-0.1-0.1c-0.1-0.1-0.2-0.1-0.3-0.1c-0.1,0-0.2,0-0.3,0c-0.1,0-0.1,0.1-0.2,0.1L31,42.9
					c0,0,0,0.1-0.1,0.1c0,0.1-0.1,0.1-0.1,0.2c-0.1-0.1-0.2-0.1-0.2-0.1c-0.1,0-0.2,0-0.2,0.1c-0.1,0.1-0.2,0.2-0.2,0.3
					s-0.1,0.2-0.1,0.4c0,0.1,0,0.1,0,0.2c0,0,0,0,0,0.1v0.1h0.1c0,0,0.1-0.1,0-0.1l0,0v-0.1c0-0.1,0-0.3,0.1-0.4c0,0,0-0.1,0.1-0.1
					l0,0l0,0l0,0l0,0l0,0l0,0c0,0,0,0,0.1,0.1c0,0.1,0.1,0.1,0.1,0.2c0,0,0,0,0,0.1l0,0v0.1l0,0c0,0.1,0.1,0.2,0.2,0.2s0.1,0,0.2,0
					l0.1-0.1c0-0.1,0-0.1,0-0.2v-0.1c0-0.1,0-0.1,0-0.2c0-0.1,0-0.1,0.1-0.2c0,0,0,0,0-0.1l0,0l0,0l0,0l0,0c0,0,0,0.1,0.1,0.1v0.1
					c0,0.1,0.1,0.2,0.2,0.2c0,0,0,0,0.1,0l0,0l0,0c-0.1,0-0.2,0-0.3,0.1c-0.1,0-0.2,0.1-0.3,0.2c0,0,0,0.1-0.1,0.1h-0.1
					c-0.1,0-0.2,0-0.2,0.1c-0.1,0-0.1,0.1-0.2,0.2l0,0c0,0,0,0-0.1,0.1c0,0-0.1,0-0.1,0.1l0,0c0,0,0,0-0.1-0.1l0,0L30,44.5
					c0,0-0.1,0-0.1-0.1h-0.1c-0.1,0-0.1,0-0.1,0l0,0c-0.1,0-0.2,0-0.3,0.1c0,0,0,0-0.1,0l-0.1,0.1l0,0l0,0h-0.1l0,0
					c0,0-0.1,0-0.1,0.1l0,0l-0.1,0.1c-0.1,0.1-0.1,0.3,0,0.5l0,0v0.1c0,0.1,0,0.2,0,0.3c0,0.2,0,0.3,0.1,0.4c0,0.1,0.1,0.2,0.1,0.2
					c0,0.1,0.1,0.1,0.1,0.2c0.1,0.1,0.2,0.2,0.3,0.3c0.1,0.1,0.2,0.2,0.3,0.3c0.1,0.1,0.2,0.1,0.3,0.2l0,0c0.1,0.1,0.3,0.1,0.4,0.2
					c0.2,0.1,0.3,0.1,0.4,0.1c0.2,0,0.3,0.1,0.5,0.1c0.4,0,0.9,0.1,1.3,0.1l0,0c0.1,0,0.3,0,0.4,0c0.3,0,0.6,0,0.8,0s0.3,0,0.5,0.1
					c0.1,0,0.3,0,0.4,0c0.3,0,0.6,0.1,0.9,0.1c0.1,0,0.2,0,0.2,0l0,0c0.1,0,0.2,0,0.3,0h0.1l0,0l0,0c-0.1,0.1-0.1,0.2-0.1,0.3
					s0,0.2,0.1,0.3c0.1,0.1,0.2,0.1,0.3,0.1s0.2,0,0.3-0.1l0,0c0.1-0.1,0.1-0.1,0.1-0.2c0,0,0,0,0.1-0.1c0.1,0,0.1,0.1,0.2,0.1l0,0
					l0,0c0,0,0,0,0,0.1v0.1c0,0.1,0.1,0.1,0.1,0.2h0.1h0.1h0.1l0,0c0,0,0,0.1-0.1,0.1c0,0.1,0,0.2,0,0.3c0.1,0.1,0.2,0.2,0.3,0.2
					l0,0l0,0H38l0,0c0,0,0,0,0,0.1l0,0l0,0c-0.1,0.1-0.1,0.2,0,0.3c0,0.1,0.1,0.1,0.2,0.1c0,0.1-0.1,0.1-0.1,0.2
					c-0.1,0.1-0.1,0.2-0.2,0.2v0.1v0.1c-0.1,0.1-0.1,0.2-0.2,0.3s-0.1,0.2-0.2,0.3c-0.1,0.2-0.2,0.3-0.3,0.5c0,0.1,0,0.1,0,0.2
					c0,0.1,0.1,0.1,0.1,0.2h0.1c0,0,0,0,0.1,0c0.1,0,0.1-0.1,0.2-0.1c0.1-0.2,0.3-0.4,0.4-0.5s0.1-0.2,0.2-0.3s0.1-0.1,0.2-0.2
					c0-0.1,0.1-0.1,0.1-0.2l0,0l0,0c0-0.1,0.1-0.1,0.1-0.2c0-0.1,0-0.2,0.1-0.3c0-0.1,0-0.2,0-0.3C39.1,49.8,39.1,49.6,39,49.5z
					 M30.7,43.5L30.7,43.5L30.7,43.5L30.7,43.5z M30.7,43.5L30.7,43.5L30.7,43.5L30.7,43.5L30.7,43.5z M31.6,43.3L31.6,43.3
					L31.6,43.3L31.6,43.3L31.6,43.3L31.6,43.3L31.6,43.3z M38.1,47.3C38.1,47.2,38.1,47.2,38.1,47.3C38.2,47.2,38.2,47.2,38.1,47.3
					c0.1,0,0.1,0,0.1,0l0,0l0,0l0,0l0,0c0,0.1,0,0.1-0.1,0.2v0.1c0,0,0,0,0-0.1L38,47.4l0,0l0,0C38,47.3,38.1,47.3,38.1,47.3z
					 M37.4,46.8L37.4,46.8L37.4,46.8L37.4,46.8z M36.7,46.5L36.7,46.5L36.7,46.5L36.7,46.5L36.7,46.5L36.7,46.5z M36.5,46.2
					L36.5,46.2L36.5,46.2L36.5,46.2z M37.4,46.5C37.5,46.5,37.5,46.5,37.4,46.5C37.5,46.5,37.5,46.5,37.4,46.5L37.4,46.5L37.4,46.5
					L37.4,46.5L37.4,46.5L37.4,46.5C37.5,46.5,37.5,46.5,37.4,46.5L37.4,46.5L37.4,46.5L37.4,46.5L37.4,46.5L37.4,46.5z M37.1,46
					L37.1,46L37.1,46v0.2C37.1,46.2,37.1,46.1,37.1,46C36.9,46.1,37,46.1,37.1,46C37,46,37,46,37.1,46z M36,45.3
					C36.1,45.3,36.1,45.3,36,45.3C36.1,45.3,36.1,45.3,36,45.3L36,45.3z M35.9,45.6L35.9,45.6C35.8,45.5,35.9,45.5,35.9,45.6
					C35.9,45.6,35.9,45.6,35.9,45.6z M35.6,44.8L35.6,44.8L35.6,44.8L35.6,44.8z M35.6,45L35.6,45C35.6,45.1,35.5,45.1,35.6,45
					c-0.1,0.2-0.1,0.2-0.1,0.2l0,0C35.5,45.2,35.5,45.1,35.6,45C35.5,45.1,35.6,45.1,35.6,45z M35.1,44.2
					C35.2,44.2,35.2,44.2,35.1,44.2c0.1,0,0.1,0,0.1,0l0,0l0,0c0,0,0,0,0,0.1s0,0.1-0.1,0.2c0,0.1-0.1,0.2-0.2,0.3l-0.1-0.1l0,0l0,0
					l0,0l0,0l0,0l0,0l0,0c-0.1,0-0.1-0.1-0.2-0.1c0.1-0.1,0.2-0.2,0.3-0.3C35,44.3,35,44.3,35.1,44.2z M34.4,44.5
					C34.3,44.5,34.3,44.5,34.4,44.5C34.3,44.5,34.3,44.5,34.4,44.5C34.3,44.5,34.3,44.5,34.4,44.5C34.3,44.5,34.3,44.5,34.4,44.5z
					 M33.8,44.3h-0.1c0,0,0,0-0.1-0.1h-0.1h-0.1h-0.1c0,0,0,0-0.1,0l0,0l0,0c0-0.1-0.1-0.1-0.1-0.1C33,44,32.9,44,32.8,44
					s-0.2,0-0.3,0l0,0l0,0l0,0l0,0c0,0,0,0-0.1-0.1c0,0,0,0-0.1,0l0,0h-0.1c0,0,0,0,0.1,0s0.2-0.1,0.2-0.2c0,0,0-0.1,0.1-0.1
					c0,0,0,0,0-0.1c0,0,0-0.1,0.1-0.1c0,0,0,0,0.1-0.1l0,0l0,0c0,0,0,0,0.1,0l0,0c0,0,0,0,0.1,0.1c0,0,0,0.1,0.1,0.1
					c0,0.1,0,0.1,0.1,0.2v0.1c0,0.1,0.1,0.2,0.2,0.2c0.1,0.1,0.2,0.1,0.3,0c0.1,0,0.2-0.1,0.2-0.1l0.1-0.1c0,0,0-0.1,0.1-0.1l0,0
					l0,0c0,0.1,0,0.1,0.1,0.2V44c0,0.1,0,0.1,0,0.2c0,0.1,0,0.1,0.1,0.2C34,44.3,33.9,44.3,33.8,44.3L33.8,44.3z"/>
				<path class="st30" d="M39.7,52c0.3-0.5,0.7-1.6-0.2-1.6c-0.3,0-0.6,0-0.9-0.1c-0.1,0-0.5-0.1-0.5-0.2C38,50,38,49.7,38,49.5
					c-0.4-1.8-2-3-3.8-3.1c-0.1,0-0.1,0-0.2,0c-0.2,0-0.1,0-0.1,0.1c-0.1,0-0.1,0.1-0.2,0.2c-0.3,0.2-0.5,0.3-0.8,0.5
					c-0.7,0.6-1.2,1.2-1.6,2.1c-0.4,0.9-0.4,1.8,0,2.7c0.2,0.7,0.6,1.9-0.5,2c-0.4,0-0.9,0-0.9,0.5c0.1,0.4,0.4,0.8,0.7,1.1
					c0.3,0.3,0.7,0.3,1,0.5c0.4,0.3,0.4,0.7,0.4,1.2c-0.1-0.2-0.1-0.4-0.2-0.6c0,0.1-0.1,0.1-0.2,0.2c-0.1,0-0.1-0.1-0.1,0.1
					s0.1,0.4,0.1,0.5c0,0.2,0.1,0.4,0.1,0.5s0,0.2,0.1,0.2c0,0,0.1,0,0.1,0.1c0.1,0.1-0.3,0.2-0.2,0.3c0.1,0.5,0.2,1,0.2,1.4
					s-0.1,0.7-0.1,1.2c0,0.3,1.7-0.2,1.8-0.2c0,0,2.1-0.7,2.3-0.8c0.2-0.1,2.2-0.6,2.3-0.6c-0.2-0.4-0.2-0.8-0.3-1.2
					c-0.1-0.3-0.1-0.6,0-0.9c0.4-0.6,1.2-0.9,1.7-1.4c0.6-0.5,0.3-1.5,0.1-2.2c-0.1-0.4-0.2-0.8-0.2-1.2
					C39.6,52.5,39.6,52.1,39.7,52z M33,60.8c-0.1,0.2-0.2,0.3-0.4,0.4c0,0,0-0.4,0.1-0.4C32.7,60.7,32.9,60.8,33,60.8z"/>
				<path class="st23" d="M31.8,47.1L31.8,47.1L31.8,47.1L31.8,47.1L31.8,47.1z M32.4,46.8L32.4,46.8C32.4,46.8,32.4,46.7,32.4,46.8
					C32.4,46.7,32.4,46.8,32.4,46.8z M32.4,46.8L32.4,46.8L32.4,46.8L32.4,46.8z M32.5,46.8L32.5,46.8
					C32.4,46.8,32.4,46.8,32.5,46.8L32.5,46.8z M31.9,47.1L31.9,47.1L31.9,47.1z M32.7,47.7L32.7,47.7L32.7,47.7z M32.7,47.7
					L32.7,47.7L32.7,47.7L32.7,47.7z M33.2,48.5L33.2,48.5L33.2,48.5z M33.3,51.3L33.3,51.3L33.3,51.3L33.3,51.3z M33.4,51.3
					L33.4,51.3L33.4,51.3z M33.3,52L33.3,52L33.3,52z M33.3,52.1L33.3,52.1L33.3,52.1L33.3,52.1z M33.4,52.1L33.4,52.1L33.4,52.1z
					 M33.2,52.8L33.2,52.8L33.2,52.8z M33.3,53.5L33.3,53.5L33.3,53.5L33.3,53.5z M33.4,54.3L33.4,54.3L33.4,54.3z M33.5,54.9
					L33.5,54.9L33.5,54.9z M33.6,55.6L33.6,55.6C33.6,55.5,33.6,55.5,33.6,55.6C33.6,55.5,33.6,55.5,33.6,55.6z M33.7,55.6
					L33.7,55.6L33.7,55.6L33.7,55.6z M33.2,57.8c0,0-0.1-0.1-0.1-0.2c0-0.1,0-0.1,0.1-0.2c0,0,0-0.1,0.1-0.1c0,0,0.1,0,0.1-0.1l0,0
					c0-0.1-0.1-0.1,0-0.2c0-0.1,0.1-0.1,0.1-0.2c0,0,0,0,0.1,0l0,0l0.1-0.1c0,0-0.1-0.1-0.1-0.2c0-0.1,0-0.1,0.1-0.2
					c0,0,0,0,0.1-0.1l0,0l0,0c0,0-0.1,0-0.1-0.1c-0.2,0.1-0.2,0-0.2-0.1s0-0.1,0-0.2l0,0c0,0,0-0.1,0.1-0.1v-0.1l0,0c0,0,0,0-0.1,0
					c-0.1-0.1-0.2-0.2-0.2-0.3v-0.1h-0.1l-0.1-0.1V55v-0.1c0,0,0-0.1,0.1-0.1l0,0l0,0c0,0,0.1-0.1,0.1-0.2c0,0,0,0,0-0.1l0,0
					c-0.1,0-0.1,0-0.2-0.1c0,0-0.1,0-0.1-0.1c0,0,0,0,0-0.1v-0.1c0-0.1,0-0.2,0-0.3c0,0,0-0.1,0.1-0.1c0,0-0.1,0-0.1-0.1
					c0,0-0.1-0.1-0.1-0.2c0,0,0-0.1,0-0.2c0-0.1,0-0.1,0.1-0.2l0.1-0.1H33c-0.1,0-0.1-0.1-0.1-0.2c0-0.1,0-0.2,0-0.3l0.1-0.1
					c0,0,0,0,0.1-0.1l0.1-0.1c0,0,0-0.1,0.1-0.1l0,0c-0.1,0-0.2-0.1-0.2-0.2l0,0v-0.1c0-0.1,0-0.1,0.1-0.2c0,0,0,0,0-0.1
					s0.1-0.1,0.1-0.2c-0.1,0-0.1,0-0.2-0.1L33,51c0-0.1,0-0.1,0-0.2c0-0.1,0.1-0.2,0.1-0.3v-0.1c-0.1,0-0.2-0.1-0.2-0.2
					c0-0.1,0-0.2,0.1-0.3c0,0,0,0,0-0.1v-0.1l0,0c-0.1,0-0.1-0.1-0.2-0.2c0-0.1,0-0.2,0-0.3v-0.1c-0.1,0-0.2-0.1-0.2-0.2
					c0-0.1,0-0.2,0.1-0.3l0,0c0,0-0.1,0-0.1-0.1c0,0,0-0.1-0.1-0.1c0-0.1-0.1-0.1-0.1-0.2c0-0.1,0-0.1,0.1-0.2c0,0,0-0.1,0.1-0.1
					c0,0,0-0.1,0.1-0.1c0-0.1,0-0.1,0.1-0.2h-0.1c-0.1,0-0.1,0-0.2,0s-0.2-0.1-0.2-0.2v-0.1c0-0.1,0-0.1,0-0.2V47v-0.1
					c0-0.1,0.1-0.2,0.1-0.3l0,0h-0.1c-0.1,0.1-0.2,0.1-0.4,0.2l-0.1,0.1l0,0l0,0c0,0-0.1,0.1-0.1,0c0,0-0.1,0,0-0.1
					c0,0,0-0.1,0.1-0.1c0-0.1,0.1-0.1,0.1-0.2c0.1-0.1,0.2-0.2,0.3-0.3s0.3-0.1,0.5,0c0.1,0.1,0.1,0.3,0.1,0.4c0,0.1,0,0.1,0,0.2
					h0.1c0,0,0,0,0.1,0h0.1c0.1,0,0.1,0.1,0.2,0.2c0.1,0.1,0.1,0.3,0.1,0.4c0,0.1,0,0.1,0,0.2c0.1,0.1,0.1,0.1,0.1,0.2
					c0,0.1,0,0.3,0,0.4c0,0.1-0.1,0.1-0.1,0.2l0,0l0,0c0,0,0,0.1,0.1,0.1l0,0v0.1c0,0.1,0,0.1,0,0.2c0,0.1,0,0.1,0,0.2l0,0
					c0,0,0,0.1,0.1,0.1v0.1c0,0.1,0,0.3,0,0.4c0,0,0,0,0,0.1l0.1,0.1c0,0.1,0.1,0.1,0.1,0.2v0.1v0.1c0,0,0,0,0,0.1
					c0,0,0.1,0,0.1,0.1l0,0c0,0,0,0,0.1,0.1c0,0.1,0.1,0.1,0.1,0.2c0,0.1,0,0.2,0,0.3s-0.1,0.2-0.2,0.3l0,0l0.1,0.1v0.1
					c0,0.1,0,0.1,0,0.2c0,0.1,0,0.2-0.1,0.3c0,0,0,0.1-0.1,0.1l0,0c0,0,0,0.1,0.1,0.1c0,0.1,0,0.1,0,0.2c0,0.1,0,0.2,0,0.2
					c0,0.1,0,0.1,0,0.2l0,0l0.1,0.1c0.1,0.1,0.1,0.3,0,0.4v0.1l0,0l0,0l0.1,0.1v0.1v0.1c0,0.1,0,0.2,0,0.3v0.1l0,0l0,0v0.1
					c0,0.1,0,0.2,0,0.3v0.1c0,0.1,0.1,0.1,0.1,0.2c0,0.1,0,0.1,0,0.2c0,0.1,0,0.1,0,0.2v0.1l0,0c0.1,0.1,0.1,0.3,0,0.4
					c0,0.1,0,0.1,0,0.2c0,0,0,0.1-0.1,0.1l0,0c0,0.1,0,0.2-0.1,0.3v0.1c0,0,0,0.1-0.1,0.1l0,0v0.1l0,0l0,0c0,0.1-0.1,0.1-0.1,0.2
					l-0.1,0.1L33.6,57h-0.1C33.3,57.9,33.2,57.9,33.2,57.8z"/>
				<g>
					<path class="st23" d="M22.5,52.3L22.5,52.3L22.5,52.3z"/>
					<path class="st23" d="M35.7,45.5c0-0.1,0-0.1-0.1-0.2c-0.1-0.2-0.4-0.3-0.6-0.2c-0.1,0-0.2,0.1-0.3,0.2c0,0.1-0.1,0.2-0.1,0.3
						v0.1v0.1c0,0,0,0,0,0.1V46c0,0,0,0.1-0.1,0.1l-0.1,0.1c0,0-0.1,0-0.1,0.1l0,0c0-0.1,0-0.1,0-0.2V46l-0.1-0.1c0,0-0.1,0-0.2,0
						c-0.1,0-0.3,0.1-0.4,0.2l-0.1,0.1l0,0c-0.1,0-0.1,0-0.2,0l0,0l0,0c-0.1,0-0.1,0-0.2-0.1c-0.2,0-0.3,0-0.5,0c0,0,0,0-0.1,0
						s-0.3,0-0.4,0c-0.1,0-0.2,0-0.3,0l0,0l0,0l0,0l0,0l0,0l0,0L31.7,46l0,0c-0.1-0.1-0.1-0.1-0.2-0.2c0,0-0.1-0.1-0.2-0.2
						c-0.1-0.1-0.1-0.1-0.2-0.2c-0.1-0.1-0.3-0.1-0.5-0.2c-0.1,0-0.1,0-0.2,0l0,0c-0.1,0-0.2,0-0.2,0c-0.1,0-0.2,0-0.3,0l0,0
						c0-0.1,0.1-0.1,0.1-0.2c0-0.1,0.1-0.2,0.1-0.3s0.4-0.4,0.4-0.4c0.1,0,0.2,0,0.3,0c0.1,0,0.6-0.2,0.7-0.1l0,0l0,0
						c0,0,0,0.1,0.1,0.1s0.1,0,0.1-0.1l0,0c0.1-0.1,0-0.3,0-0.4c0-0.1-0.1-0.2-0.1-0.3s-0.1-0.2-0.1-0.3c-0.1-0.1-0.2-0.3-0.3-0.3
						c-0.1,0-0.1-0.1-0.2-0.1c-0.2,0-0.3,0-0.4,0.1s-0.1,0.1-0.2,0.2c0,0,0-0.1-0.1-0.1l-0.1-0.1c0,0-0.1,0-0.1-0.1H30
						c-0.1,0-0.3,0-0.4,0h-0.1c-0.1,0-0.1,0-0.2,0s-0.2,0.1-0.2,0.1L29,43l0,0c0,0,0,0-0.1,0c-0.4,0-0.5,0-0.5,0c-0.1,0-0.2,0-0.4,0
						c-0.1,0-0.2,0.1-0.3,0.1l-0.1,0.1c-0.1,0.1-0.2,0.1-0.3,0.2c-0.1,0.1-0.2,0.2-0.2,0.3c0,0,0,0,0,0.1H27h-0.1h-0.1
						c0,0,0,0-0.1,0s-0.1,0.1-0.2,0.1S26.4,44,26.3,44c-0.1,0.1-0.2,0.2-0.2,0.3C26,44.4,26,44.6,26,44.7l0,0
						c-0.1,0-0.1-0.1-0.2-0.1s-0.1,0-0.2,0s-0.1,0-0.2,0s-0.1,0-0.2,0.1c0,0-0.1,0-0.1,0.1c0,0,0,0-0.1,0l-0.1,0.1
						c0,0.1-0.1,0.1-0.1,0.2c-0.1,0.2-0.1,0.4-0.1,0.6l0,0c-0.1,0-0.1,0-0.2,0c-0.1,0-0.1,0-0.2,0.1c-0.1,0.1-0.2,0.1-0.2,0.2
						c0,0.1-0.1,0.1-0.1,0.2v0.1c-0.1,0-0.1-0.1-0.2-0.1c-0.1,0-0.3-0.1-0.4,0c-0.2,0-0.3,0.1-0.4,0.2c-0.1,0.1-0.2,0.2-0.3,0.4
						c-0.1,0.2-0.1,0.4-0.1,0.6c0,0.2,0,0.3,0,0.5V48v0.1c0,0.1,0,0.1,0,0.2v0.1c0,0.1,0,0.2,0,0.2v0.1l0,0c0,0-0.1,0-0.1,0.1l0,0
						l0,0l0,0l0,0l0,0c0,0,0,0-0.1,0.1L22.3,49c0,0,0,0.1-0.1,0.1c0,0.1-0.1,0.2-0.1,0.3s0,0.2,0,0.3s0,0.1,0,0.2H22
						c-0.1,0-0.2,0.1-0.2,0.1c-0.1,0-0.1,0.1-0.1,0.1l-0.1,0.1c0,0,0,0.1-0.1,0.1c0,0,0,0,0,0.1v0.1c0,0.1,0,0.2,0,0.2l0,0
						c-0.1,0-0.2,0-0.2,0c-0.1,0-0.2,0.1-0.3,0.1c-0.1,0.1-0.1,0.2-0.1,0.2c0,0.1,0,0.2,0,0.3s0,0.1,0,0.2v0.1
						c0,0.1,0.1,0.2,0.1,0.3l0.1,0.1c0,0,0,0,0,0.1c0,0.2,0,0.4,0.2,0.6c0.1,0.1,0.1,0.1,0.2,0.2c0.1,0,0.1,0.1,0.2,0.1
						c0,0-0.1,0.1-0.1,0.2c0,0.1,0,0.1,0,0.2c0,0.1,0,0.1,0.1,0.2c0,0.1,0.1,0.2,0.2,0.2l0.1,0.1c0.1,0,0.1,0.1,0.2,0.1h0.1
						c0.1,0,0.1,0,0.2,0c0.1,0,0.1,0,0.2,0l0,0l0,0c0,0,0,0-0.1,0c0,0-0.1,0-0.1,0.1l-0.1,0.1v0.1v0.1c0,0.1,0,0.2,0,0.3
						c0,0,0,0.1,0.1,0.1c0,0,0,0.1,0.1,0.1c0.1,0.1,0.2,0.1,0.3,0.1c0,0,0,0,0.1,0s0.2,0,0.2,0c0.1,0,0.1,0,0.2-0.1
						c0.1,0,0.1-0.1,0.1-0.2c0.1,0.1,0.1,0.1,0.2,0.2c0,0,0,0-0.1,0.1c0,0.1-0.1,0.1-0.1,0.2c0,0.1-0.1,0.2-0.1,0.2
						c-0.1,0.1-0.1,0.3,0,0.4c0,0.1,0,0.1,0.1,0.2l0.1,0.1l0.1,0.1h0.1c0.1,0,0.1,0,0.2,0l0,0h0.1c0.1,0,0.2,0,0.2,0
						c0.1,0,0.2-0.1,0.3-0.1c0,0.1,0,0.2,0.1,0.3s0.2,0.2,0.3,0.2c0.1,0,0.1,0,0.2,0c0,0,0,0,0.1,0c0,0,0,0,0.1,0c0,0.1,0,0.1,0,0.2
						l0,0v0.1c0,0.1,0,0.1,0,0.2c0,0.2,0.2,0.4,0.4,0.5c0.1,0.1,0.2,0.1,0.3,0.1c0.1,0,0.2,0,0.2,0l0,0v0.1c0,0.1,0.1,0.1,0.1,0.2
						c0.1,0.1,0.1,0.2,0.2,0.3s0.2,0.1,0.3,0.1H27c0.1,0,0.1,0,0.2,0s0.2-0.1,0.3-0.1l0.1-0.1c0,0,0,0,0.1-0.1c0,0,0-0.1,0.1-0.1
						c0,0,0,0,0-0.1l0,0c0.1,0,0.1,0,0.2,0h0.1h0.1c0,0,0,0,0.1,0c0,0.1,0,0.1,0,0.2c0,0.1,0,0.1,0.1,0.2c0,0.1,0.1,0.1,0.1,0.2
						c0.1,0.1,0.1,0.1,0.2,0.1s0.1,0,0.2,0c0,0,0,0,0.1,0h0.1c0.1,0,0.1-0.1,0.1-0.1l0,0c0,0,0,0.1,0.1,0.1l0.1,0.1l0.1,0.1
						c0,0,0.1,0,0.1,0.1h0.1h0.1h0.1H30c0.1,0,0.1-0.1,0.2-0.1c0,0,0.1,0,0.1-0.1c0.1,0,0.1,0.1,0.2,0.1c0.1,0.1,0.3,0.2,0.5,0.2
						c0.1,0,0.1,0,0.2,0s0.2-0.1,0.4-0.2c0.1-0.1,0.2-0.1,0.2-0.2c0,0,0-0.1,0.1-0.1c0,0,0,0,0.1,0c0.1,0.1,0.2,0.1,0.3,0.1h0.1h0.1
						l0,0h0.1c0.2,0.1,0.3,0,0.5-0.1c0.1,0,0.1-0.1,0.2-0.1c0,0,0-0.1,0.1-0.1h0.1c0.1,0,0.3-0.1,0.3-0.2c0.1-0.1,0.1-0.2,0.2-0.2
						l0,0l0,0h0.1c0.1,0,0.1,0,0.2,0s0.2-0.1,0.2-0.1c0.1,0,0.1-0.1,0.2-0.1c0.1-0.1,0.2-0.1,0.2-0.2l0.1-0.1c0,0,0-0.1,0.1-0.1
						c0.1-0.1,0.1-0.3,0-0.4c0-0.1-0.1-0.1-0.1-0.2c0,0,0,0,0.1-0.1s0.1-0.1,0.2-0.2c0-0.1,0.1-0.1,0.1-0.2c0-0.1,0.1-0.1,0.1-0.2
						c0-0.1,0-0.1,0-0.2c0-0.1,0-0.1,0-0.2v-0.1c0-0.1-0.1-0.1-0.1-0.2l-0.1-0.1l-0.1-0.1l0,0c0-0.1,0.1-0.1,0.1-0.2v-0.1
						c0-0.1,0-0.2,0-0.2c0-0.1,0-0.2,0-0.2s0-0.1-0.1-0.1c0,0,0,0,0-0.1l-0.1-0.1L35,54c0,0-0.1,0-0.1-0.1v-0.1c0-0.1,0-0.1,0-0.2
						c0-0.1,0-0.1,0-0.2c0-0.1-0.1-0.1-0.1-0.2c0,0,0,0-0.1-0.1c0,0,0,0-0.1,0h-0.1V53c0-0.1,0-0.2,0-0.3s-0.1-0.1-0.1-0.2l-0.1-0.1
						c0,0,0,0-0.1,0h-0.1c0,0,0,0-0.1,0l0,0v-0.1c0-0.2,0-0.3,0-0.5c0-0.1,0-0.1,0-0.2l0.1-0.1c0.1-0.1,0.1-0.3,0.1-0.4
						c0-0.1,0-0.1,0-0.2c0-0.1,0-0.3,0-0.4c0-0.3,0-0.6-0.1-0.8c0-0.3,0-0.5-0.1-0.8l0,0l0,0c0.2-0.1,0.4-0.3,0.5-0.5
						c0.1-0.2,0.2-0.4,0.3-0.7v-0.1l0,0c0.1,0,0.1-0.1,0.2-0.1c0.1,0,0.1-0.1,0.2-0.2c0-0.1,0.1-0.1,0.1-0.2c0-0.1,0.1-0.1,0.1-0.2
						v-0.1l0,0h0.1c0.1,0,0.1-0.1,0.2-0.1c0.1-0.1,0.2-0.2,0.3-0.3s0.1-0.2,0.2-0.3c0-0.1,0.1-0.1,0.1-0.2v-0.1c0-0.1,0-0.1,0-0.2
						l0,0C35.7,45.6,35.7,45.6,35.7,45.5z M21.5,51.6L21.5,51.6L21.5,51.6L21.5,51.6C21.5,51.6,21.4,51.6,21.5,51.6
						c-0.1,0-0.1,0-0.1,0C21.5,51.5,21.5,51.5,21.5,51.6z M22.8,55c-0.1,0-0.2,0-0.3,0c0,0,0,0-0.1,0l0,0l0,0l0,0l0,0l0,0v-0.1v-0.1
						c0,0,0-0.1,0.1-0.1l0.1-0.1l0,0c0.1,0.1,0.1,0.2,0.2,0.2l0,0l0,0l0,0l0,0l0,0l0,0c0.1,0.1,0.1,0.2,0.2,0.2
						C22.9,55,22.8,55,22.8,55z M22.5,52.1L22.5,52.1L22.5,52.1L22.5,52.1L22.5,52.1z M24,56.2h-0.1c-0.1,0-0.3,0-0.4,0h-0.1l0,0
						c0,0,0,0-0.1-0.1l0,0V56v-0.1c0-0.1,0.1-0.3,0.1-0.4l0,0v0.1c0,0.1,0,0.2,0.1,0.2c0.1,0.1,0.2,0.2,0.4,0.3
						C23.9,56.1,23.9,56.2,24,56.2L24,56.2z M24.1,56.2L24.1,56.2L24.1,56.2L24.1,56.2L24.1,56.2z M24.1,56.2L24.1,56.2L24.1,56.2
						L24.1,56.2L24.1,56.2z M25.7,57.2L25.7,57.2L25.7,57.2L25.7,57.2z M27,58c-0.1,0.1-0.1,0.2-0.2,0.2l-0.1,0.1h-0.1h-0.1
						c0,0,0,0-0.1,0l0,0l0,0l-0.1-0.1v-0.1c0.1,0,0.1,0,0.2-0.1c0.1,0,0.2-0.1,0.2-0.2v-0.1l0,0c0,0,0,0,0-0.1c0,0,0,0.1,0.1,0.1
						C26.8,57.9,26.9,57.9,27,58L27,58L27,58z M27.9,57.9L27.9,57.9L27.9,57.9L27.9,57.9z M28.5,58.4L28.5,58.4
						c-0.1,0.1-0.1,0.1-0.1,0.1s-0.1,0-0.1,0.1l0,0l0,0l0,0c0,0,0-0.1-0.1-0.1c0-0.1,0-0.1-0.1-0.2l0,0l0,0h0.1h0.1
						C28.4,58.4,28.5,58.4,28.5,58.4L28.5,58.4L28.5,58.4z M29.3,58.8L29.3,58.8C29.2,58.8,29.2,58.8,29.3,58.8
						C29.2,58.8,29.2,58.8,29.3,58.8c-0.1,0-0.1,0-0.1,0l-0.1-0.1C29.1,58.7,29.2,58.7,29.3,58.8c0-0.1,0.1-0.1,0.1-0.1
						S29.3,58.7,29.3,58.8z M31,58.4L31,58.4L31,58.4L31,58.4z M31,58.4L31,58.4L31,58.4L31,58.4L31,58.4z M31.5,53.5L31.5,53.5
						L31.5,53.5L31.5,53.5L31.5,53.5z M31.6,58.3L31.6,58.3L31.6,58.3L31.6,58.3C31.5,58.3,31.5,58.3,31.6,58.3L31.6,58.3L31.6,58.3
						L31.6,58.3z M31.8,58.7L31.8,58.7L31.8,58.7L31.8,58.7z M32,58.7L32,58.7L32,58.7L32,58.7z M34,55.8L34,55.8
						C34.1,55.8,34.1,55.8,34,55.8L34,55.8L34,55.8L34,55.8L34,55.8L34,55.8L34,55.8L34,55.8L33.9,56l-0.1,0.1c0,0,0,0.1-0.1,0.1
						v-0.1l0,0V56c0-0.1,0-0.2,0-0.3h0.1C33.9,55.8,33.9,55.8,34,55.8z M33.7,54.6c0.1,0,0.1,0,0.1,0l0,0l0,0l0,0l0,0c0,0,0,0,0,0.1
						l0,0v0.1c-0.1,0.1-0.1,0.2-0.2,0.3l0,0V55l0,0c0-0.1,0-0.1,0-0.2c0-0.1,0-0.1,0-0.2C33.6,54.6,33.6,54.6,33.7,54.6z M33.5,53.8
						L33.5,53.8L33.5,53.8c0,0.1,0,0.2-0.1,0.2l0,0C33.4,53.9,33.4,53.9,33.5,53.8L33.5,53.8z M33.3,52.8
						C33.3,52.8,33.4,52.8,33.3,52.8C33.4,52.8,33.4,52.9,33.3,52.8C33.4,52.9,33.4,52.9,33.3,52.8c0.1,0.1,0.1,0.2,0,0.2v0.1l0,0
						C33.4,53,33.4,52.9,33.3,52.8C33.3,52.9,33.3,52.8,33.3,52.8L33.3,52.8z M33.3,57.3L33.3,57.3l0.1-0.1l0.1-0.1
						c0-0.1,0.1-0.2,0.1-0.2l0,0l0,0c0,0.1,0.1,0.1,0.1,0.1l0,0c0,0,0,0,0.1,0c0,0,0,0,0.1,0.1l0,0l0,0l0,0c0,0,0,0,0,0.1
						c0,0,0,0-0.1,0.1c-0.1,0-0.1,0.1-0.2,0.1c-0.1,0-0.1,0-0.2,0.1c0,0,0,0-0.1,0l0,0C33.3,57.4,33.3,57.4,33.3,57.3
						C33.3,57.4,33.3,57.3,33.3,57.3z"/>
					<path class="st23" d="M28.5,43C28.5,43,28.6,43,28.5,43C28.6,43,28.6,43,28.5,43C28.6,43,28.6,43,28.5,43z"/>
				</g>
				<g>
					<path class="st9" d="M48.5,95.7c-0.1-3.4-0.4-6.8-0.6-10.3c-0.1-1.8-0.2-3.5-0.5-5.3c-0.1-0.7-0.2-1.3-1-1.5
						c-1.3-0.2-3.1,0.4-4.3,0.9c-1.4,0.5-2.7,1.3-4,2.1c-1.2,0.7-2.4,1.5-3.6,2.3c-1.1,0.7-1.3,1.3-1.5,2.6
						c-1,6.4-1.1,12.8-1.7,19.2c-0.3,3.2-0.8,6.2-0.8,9.4c0,1.4-0.2,2.8,0,4.2c0,0.3,0.1,0.6,0.1,0.6l0.8,0.2c0.1,0,0.3,0,0.3,0
						c0.1,0,0.4,0,0.6,0c0.1,0,0.1,0,0.2,0c0.1,0,0.7,0,0.8,0s0.3,0,0.3,0l0,0c0.3-0.1,0.5-0.2,0.5-0.3c0-0.1,0.1-0.4,0.1-0.5
						c0.4-1.2,0.6-2.4,0.8-3.6c0.5-2.5,1-4.8,1.5-7.4c0.7-3.6,1.7-7.2,2.5-10.7c0.8-3.2,1.4-6.5,2.2-9.7c0.3,3.8,0.5,7.6,1,11.4
						c0.5,3.6,1.1,7.1,1.6,10.7c0.2,1.5,0.4,3.1,0.5,4.7c0,0.4,0.3,3.1,0.3,3.1v0.1c0,0.1,0.1,0.1,0.2,0.1c0.1,0,0.8,0,0.9,0
						c0.5,0,1.3-0.1,1.7-0.3c0.8-0.2,1-0.6,1.1-0.6c0,0,0-0.2,0-0.3c0-0.3,0.1-8.1,0.2-11C48.6,102.5,48.5,99.1,48.5,95.7z"/>
					<path class="st9" d="M33.3,120.2L33.3,120.2L33.3,120.2z"/>
				</g>
				<path class="st22" d="M60.8,71.9c-0.2-0.6-0.1-1.3-0.1-1.9c-2.1,0.8-4.3,1.6-6.6,1.8c-1,0.1-2-0.1-2.9-0.6s-1.7-1.4-2.5-2.1
					s-1.5-1.5-2.2-2.4s-3.1-4.6-3.7-5.4c-0.7-0.8-1.4-1.5-2.3-2c-0.4-0.2-0.8-0.3-1.3-0.2s-1.1,0.3-1.6,0.4
					c-1.2,0.3-2.4,0.6-3.5,0.9C33,60.7,32,61,31,61.5c-1,0.4-1.4,1.3-1.9,2.2c-1.1,1.9-1.3,4.3-1.4,6.5c-0.1,2.3,0,4.7,0.4,7
					c0.2,1.2,0.4,2.3,1,3.4c0.3,0.5,0.7,0.7,1.2,0.9c0.6,0.2,1.1,0.4,1.7,0.6c0.3,0.1,0.6,0.2,0.9,0.3c0.2,0.1,0.4,0,0.5,0.2
					s-0.4,3.1-0.5,3.8c0,0.2-0.1,0.5-0.1,0.7c0.1,0.2,2.5-0.6,2.8-0.8c1.2-0.5,2.4-1.1,3.5-1.7c0.6-0.3,1.1-0.6,1.7-0.9
					c0.4-0.2,0.8-0.6,1.4-0.6c1.3,0,2.5,0,3.8-0.2c0.5-0.1,1-0.2,1.6-0.2c0.3,0,0.9-0.1,0.9-0.5c0.2,0.4,0.6,0.2,0.9,0
					c0.4-0.2,0.1-0.4,0-0.8s0.1-0.5-0.4-0.6c-0.4-0.1-0.9-0.2-1.4-0.2c0.2-1.3-0.1-2.6-0.4-3.9c-0.3-1.3-0.6-2.7-1.1-4
					c0.1,0.4,2,1.6,2.5,1.9c1.1,0.5,2.4,0.7,3.6,0.6c1.3-0.1,2.5-0.5,3.7-0.9s2.2-0.8,3.2-1.4C59.2,72.8,60.8,72,60.8,71.9z
					 M32.9,85.8L32.9,85.8C32.9,85.8,32.9,85.7,32.9,85.8z M32.4,75.2c0.1-1,0.2-2,0.5-3c0.2,0.9,0.3,1.9,0.4,2.9
					c0,0.4,0.1,2.2,0,2.7c-0.4-0.2-0.7-0.2-0.7-0.7C32.5,76.4,32.4,75.8,32.4,75.2z M46.6,80.5C46.7,80.5,46.8,80.6,46.6,80.5
					L46.6,80.5z"/>
				<circle class="st23" cx="36.1" cy="51.3" r="0.4"/>
				<path class="st17" d="M85.1,56.6l-4.4,0.3l0,0L24.3,94.7c-1,0.7-1.3,2.1-0.6,3.1l0,0c0.7,1,2.1,1.3,3.1,0.6l56.4-37.8l0,0
					L85.1,56.6z"/>
				<g>
					<path class="st29" d="M59.4,71.7L59.4,71.7L59.4,71.7L59.4,71.7z"/>
					<path class="st29" d="M63.3,68.6c-0.2-0.1-0.7-0.1-1-0.1c-0.4-0.1-0.9,0-1,0c-0.1,0.1-0.4,0.6-0.5,0.8
						c-0.1,0.2-0.2,0.4-0.3,0.6c0,0-0.2,0.1-0.2,0.2c-0.1,0-0.2,0.1-0.3,0.1l-0.4,0.2l-0.1,0.2c0,0,0,0.5,0,0.6s1.1-0.6,1.8-1.1
						c0.2-0.1,0.3-0.3,0.5-0.4c0.3-0.2,0.6-0.3,0.6-0.3c0.2,0,0.8,0.1,0.9,0.1c0.2,0,0.8,0,0.9-0.3C64.2,68.9,63.4,68.7,63.3,68.6z
						 M60.7,71.1C60.7,71.1,60.7,71,60.7,71.1L60.7,71.1L60.7,71.1z M62.8,68.7L62.8,68.7L62.8,68.7L62.8,68.7z"/>
				</g>
				<g>
					<path class="st29" d="M43.4,82C43.4,82,43.5,82,43.4,82C43.5,82,43.5,82,43.4,82C43.5,82,43.5,82,43.4,82z"/>
					<path class="st29" d="M43.7,85.1C43.6,85.1,43.6,85.1,43.7,85.1C43.6,85.1,43.6,85.1,43.7,85.1C43.6,85.1,43.6,85.1,43.7,85.1z
						"/>
					<path class="st29" d="M43.4,85L43.4,85L43.4,85L43.4,85z"/>
					<polygon class="st29" points="43.4,85 43.5,85 43.5,85 					"/>
					<path class="st29" d="M43.5,85L43.5,85L43.5,85L43.5,85z"/>
					<path class="st29" d="M43.5,85L43.5,85L43.5,85L43.5,85L43.5,85z"/>
					<path class="st29" d="M43.5,85L43.5,85L43.5,85L43.5,85z"/>
					<path class="st29" d="M49.1,83.4c-2.7-0.8-2.9-0.6-2.9-1.2c0-0.3,1.9,0.4,2,0.2c0.2-0.2-0.6-0.6-0.8-0.7
						c-0.4-0.2-1.1-0.4-1.6-0.4c-0.7,0-1.3,0.5-1.9,0.7c-0.4,0.1-0.6-0.2-1-0.1c-0.8,0.3-1.9,2.3-1.1,2.6c0.4,0.2,1.4,0.3,1.8,0.4
						h0.1l0,0c0,0,0.1,0,0,0h0.1c0.4,0.1,2.2,0.8,2.9,0.4c0.4-0.2,1.4-1,1.7-1.3c0.1-0.1,0.2,0,0.4-0.1C48.9,84,49.2,83.8,49.1,83.4
						z"/>
				</g>
				<path class="st22" d="M34.4,78.8l8.7,3c0.8,0.2-0.4,0.4-0.7,0.8c-0.2,0.3-0.4,0.7-0.4,1.2s0.6,1.2,0,1.1l-8.7-3
					c-0.4-0.1-0.7-0.6-0.5-1.1l0.5-1.5C33.5,78.9,34,78.6,34.4,78.8z"/>
			</g>
		</g>
		<g>
			<g>
				<path class="st31" d="M24.1,97.8c0,0-0.5,0.2-1.1,0.9"/>
				<path class="st32" d="M21.5,100.9c-0.8,1.6-1.5,3.9-1.5,7.1c0,8.1,0,20.9,0,25.5c0,3.4,1.6,4.2,4.2,4.2s50.3,0,55.3,0
					s5-1.7,5-5.8c0-4,0-15,0-15s-0.3-2.8,2.8-2.8s7.5,0,7.5,0s2-0.3,2-2s0-4.4,0-6.4"/>
				<path class="st31" d="M96.8,104.4c0-0.8,0-1.4,0-1.4"/>
			</g>
		</g>
		<g>
			<g>
				<path class="st31" d="M170.2,106.6c0.5,0,0.9,0,1.4,0"/>
				<path class="st33" d="M174.3,106.6c5.3-0.1,6.4,0,6.4,4.3c0,8.1,0,18,0,22.7c0,3.4-1.6,4.2-4.2,4.2c-2.6,0-50.3,0-55.3,0
					s-5-1.7-5-5.8c0-4,0-15,0-15s0.3-2.8-2.8-2.8s-7.5,0-7.5,0s-2-0.3-2-2s0-4.4,0-6.5"/>
				<path class="st31" d="M103.9,104.4c0-0.8,0-1.4,0-1.4"/>
			</g>
		</g>
		<path class="st34" d="M110,145.7"/>
		<path class="st35" d="M100.3,107.6V161c0,1.7-1.5,3-3.3,3h-6.8"/>
		<path class="st4" d="M90.1,157.8c-0.4,0-0.7,0.3-0.7,0.7l-5.6,3.7c0-0.4-0.3-0.7-0.7-0.7s-0.7,0.3-0.7,0.7c0,0-15.8,2.4-15.5-0.7
			v-0.1c0-0.4-0.2-0.7-0.6-0.7s-0.7,0.2-0.7,0.6v0.1c-0.5,5.2-0.1,5.6,0.1,5.9c0.1,0.1,0.3,0.2,0.5,0.3l16.9,2.9h0.1
			c0.1,0,0.2,0,0.3-0.1c1.5-0.5,6.9-3.6,7-3.7c0.1,0,0.1-0.1,0.2-0.1c0.2-0.1,0.3-0.3,0.3-0.6v-7.6
			C90.8,158.1,90.5,157.8,90.1,157.8z"/>
		<path class="st36" d="M90.1,157.8c-0.4,0-0.7,0.3-0.7,0.7v7.2c-0.8,0.5-4.1,2.3-5.6,3.1v-6.5c0-0.4-0.3-0.7-0.7-0.7
			s-0.7,0.3-0.7,0.7v6.7l-15.7-2.7c0-0.4-0.1-1.6,0.2-4.7v-0.1c0-0.4-0.2-0.7-0.6-0.7s-0.7,0.2-0.7,0.6v0.1
			c-0.5,5.2-0.1,5.6,0.1,5.9c0.1,0.1,0.3,0.2,0.5,0.3l16.9,2.9h0.1c0.1,0,0.2,0,0.3-0.1c1.5-0.5,6.9-3.6,7-3.7
			c0.1,0,0.1-0.1,0.2-0.1c0.2-0.1,0.3-0.3,0.3-0.6v-7.6C90.8,158.1,90.5,157.8,90.1,157.8z"/>
		<g>
			<path class="st37" d="M70.6,157.1l19.2,3.4c0.5,0,1-0.4,1.1-1l1.2-14c0-0.5-0.4-1-0.9-1L72,141.1c-0.5,0-1,0.4-1.1,1l-1.2,14
				C69.7,156.6,70,156.9,70.6,157.1z"/>
			<path class="st38" d="M89.8,160.9L89.8,160.9l-19.3-3.4c-0.9-0.2-1.3-0.7-1.2-1.4l1.2-14c0.1-0.7,0.7-1.4,1.5-1.4h0.1l19.2,3.4
				c0.4,0,0.7,0.2,0.9,0.4c0.2,0.3,0.4,0.6,0.3,1l-1.2,14C91.2,160.2,90.6,160.9,89.8,160.9z M70.7,156.7l19.1,3.4
				c0.3,0,0.6-0.3,0.6-0.6l1.2-14c0-0.1,0-0.3-0.1-0.4c-0.1-0.1-0.2-0.2-0.4-0.2H91l-19.2-3.4c-0.3,0-0.6,0.3-0.6,0.6l-1.2,14
				C70.1,156.3,70.1,156.5,70.7,156.7z"/>
		</g>
		<path class="st38" d="M63.9,161.7l19.2,3.4c0.5,0,6.2-3.3,7.7-4.1c0.4-0.2-0.2-0.4-1.4-0.6L69.6,157c-0.5,0-3.9,1.8-7,3.5l0.3,0.2
			C62.9,161.2,63.3,161.7,63.9,161.7z"/>
		<path class="st39" d="M70.1,161.7"/>
		<path class="st39" d="M89.3,165.1"/>
		<g>
			<path class="st9" d="M127.1,142.4h-0.7c-0.1,0-0.2-0.1-0.2-0.2v-32.7c0-0.1,0.1-0.2,0.2-0.2h0.7c0.1,0,0.2,0.1,0.2,0.2v32.7
				C127.3,142.3,127.2,142.4,127.1,142.4z"/>
			<path class="st9" d="M139.3,146h-0.7c-0.1,0-0.2-0.1-0.2-0.2v-32.7c0-0.1,0.1-0.2,0.2-0.2h0.7c0.1,0,0.2,0.1,0.2,0.2v32.7
				C139.5,146,139.4,146,139.3,146z"/>
			<path class="st9" d="M173.2,137.5h-0.7c-0.1,0-0.2-0.1-0.2-0.2v-32.7c0-0.1,0.1-0.2,0.2-0.2h0.7c0.1,0,0.2,0.1,0.2,0.2v32.7
				C173.4,137.4,173.3,137.5,173.2,137.5z"/>
			<path class="st9" d="M165.4,101.3l-42.2,7.9c-0.6,0.1-0.6,0.9,0,1.1l15.4,3.6c0.1,0,0.2,0,0.3,0l39.5-8.2c0.6-0.1,0.6-0.9,0-1.1
				l-12.8-3.4C165.6,101.3,165.5,101.3,165.4,101.3z"/>
			<path class="st40" d="M152.3,106l-12.8,2.4c-0.2,0-0.2,0.3,0,0.3l4.7,1.1h0.1l12-2.5c0.2,0,0.2-0.3,0-0.3L152.3,106
				C152.4,106,152.4,106,152.3,106z"/>
		</g>
		<path class="st41" d="M150.5,105.4l-6.5,1.1c-0.2,0-0.3-0.1-0.3-0.3v-4.7c0-0.2,0.1-0.3,0.3-0.3l6.5-1.1c0.2,0,0.3,0.1,0.3,0.3
			l-0.9,3.3v1.3l0.9,0.3C150.9,105.3,150.7,105.3,150.5,105.4z"/>
		<path class="st42" d="M156.8,102.1l-19.5,3.4c-0.5,0-1-0.4-1-1v-14c0-0.5,0.4-1,1-1l19.5-3.4c0.5,0,1,0.4,1,1v14
			C157.8,101.7,157.4,102.1,156.8,102.1z"/>
		<g>
			<path class="st9" d="M163.3,143.6l-6.6,0.6c-0.1,0-0.1,0.1-0.1,0.1v0.3c0,0.1,0.1,0.1,0.1,0.1l6.6-0.6c0.1,0,0.1,0,0.1-0.1v-0.3
				C163.4,143.6,163.4,143.6,163.3,143.6z"/>
			<g>
				<g>
					<defs>
						<rect id="SVGID_00000038385980969236490190000012422965084757334171_" x="156.9" y="139.1" width="7.1" height="4.7"/>
					</defs>
					<clipPath id="SVGID_00000147929970888601291780000008260683807989694091_">
						<use xlink:href="#SVGID_00000038385980969236490190000012422965084757334171_"  style="overflow:visible;"/>
					</clipPath>
					<path style="clip-path:url(#SVGID_00000147929970888601291780000008260683807989694091_);fill:#3C60AB;" d="M157.4,142.3
						C157.4,142.3,157.4,142.2,157.4,142.3C157.4,142.2,157.4,142.2,157.4,142.3C157.4,142.2,157.4,142.2,157.4,142.3
						C157.4,142.2,157.4,142.3,157.4,142.3z M161,143.8c-0.2,0-0.4,0-0.6-0.1c-0.2,0-0.4-0.1-0.7-0.1c-0.4-0.1-0.8-0.2-1.2-0.3
						c-0.2-0.1-0.4-0.1-0.6-0.2c-0.2-0.1-0.3-0.1-0.5-0.2l0,0c0-0.1,0.1-0.2,0-0.2c0-0.1-0.1-0.1-0.1-0.2c0,0-0.1,0-0.2,0l0,0
						c0,0,0,0-0.1,0c0,0,0-0.1-0.1-0.1l0,0c0-0.1,0-0.1,0-0.2v-0.1c0-0.1-0.1-0.2-0.1-0.3c0.1,0,0.2,0,0.3,0c0.2,0,0.4,0,0.6,0
						c0.3,0,0.6,0,0.9,0l0,0c-0.1,0-0.1,0.1-0.1,0.2c0,0.1,0.1,0.1,0.2,0.1l0,0c0.1,0,0.2,0,0.2-0.1l0,0c0.1,0,0.1,0,0.2-0.1
						c0,0-0.1,0-0.1,0.1c-0.1,0.1-0.1,0.1-0.1,0.2c0,0.1,0.2,0.2,0.3,0.3c0.1,0,0.2,0.1,0.3,0.1c0.2,0.1,0.5,0.1,0.7,0.2
						c0.2,0,0.5,0.1,0.6,0.1h0.1c0.2,0,0.4,0,0.6,0l0,0c0.1,0,0.3,0,0.4,0c0.1,0,0.1,0,0.2,0c0.1,0,0.2,0,0.2,0c0.1,0,0.3,0,0.4,0
						h0.1c0,0,0,0,0.1,0l0,0h0.1l0,0l0,0c0.1,0,0.1,0,0.1,0c0.1-0.1,0.2-0.2,0.2-0.3c0,0,0,0,0-0.1c0,0.1,0,0.1,0,0.2
						c0,0.1,0,0.1,0.1,0.2c0,0.1,0.1,0.3,0.1,0.4l0,0v0.1c0,0.1-0.1,0.2-0.2,0.2c-0.1,0-0.1,0.1-0.2,0.1c-0.1,0-0.1,0-0.2,0.1
						c-0.1,0-0.2,0.1-0.3,0.1s-0.2,0-0.3,0c-0.2,0-0.4,0-0.7,0h-0.1C161.8,143.9,161.4,143.8,161,143.8z"/>
				</g>
				<g>
					<defs>
						<rect id="SVGID_00000153681608755089982930000004639505190323807627_" x="156.9" y="139.1" width="7.1" height="4.7"/>
					</defs>
					<clipPath id="SVGID_00000176011127236448615940000011373026248764807050_">
						<use xlink:href="#SVGID_00000153681608755089982930000004639505190323807627_"  style="overflow:visible;"/>
					</clipPath>
					<path style="clip-path:url(#SVGID_00000176011127236448615940000011373026248764807050_);fill:#3C60AB;" d="M157.6,142.4
						c0,0,0-0.1,0-0.2l0,0l0,0l0,0l0,0l0,0l0,0l0,0c0,0,0,0-0.1,0s-0.1,0-0.1,0.1l0,0l-0.1,0.1c0,0.1,0,0.1,0,0.2l0.1,0.1
						c0,0,0,0,0.1,0C157.5,142.5,157.5,142.5,157.6,142.4z"/>
				</g>
				<g>
					<defs>
						<rect id="SVGID_00000025406569426539980190000006012423758736918443_" x="156.9" y="139.1" width="7.1" height="4.7"/>
					</defs>
					<clipPath id="SVGID_00000173135993077169813110000009750125168538141094_">
						<use xlink:href="#SVGID_00000025406569426539980190000006012423758736918443_"  style="overflow:visible;"/>
					</clipPath>
					<path style="clip-path:url(#SVGID_00000173135993077169813110000009750125168538141094_);fill:#FCE1D8;" d="M163.3,140.2
						C163.3,140.2,163.2,140.2,163.3,140.2C163.2,140.1,163.2,140.1,163.3,140.2C163.2,140.1,163.2,140.1,163.3,140.2
						C163.3,140.1,163.3,140.1,163.3,140.2L163.3,140.2L163.3,140.2L163.3,140.2L163.3,140.2L163.3,140.2z"/>
				</g>
				<g>
					<defs>
						<rect id="SVGID_00000183210663178341678100000003022060137100632505_" x="156.9" y="139.1" width="7.1" height="4.7"/>
					</defs>
					<clipPath id="SVGID_00000001648829707542419280000018301859494661069229_">
						<use xlink:href="#SVGID_00000183210663178341678100000003022060137100632505_"  style="overflow:visible;"/>
					</clipPath>
					<path style="clip-path:url(#SVGID_00000001648829707542419280000018301859494661069229_);fill:#FCE1D8;" d="M163.7,142.4
						c0,0,0-0.1-0.1-0.1c0,0,0-0.1-0.1-0.1v-0.1l0,0l0,0c0,0,0,0,0-0.1v-0.1c0-0.1,0-0.1,0-0.2c0-0.1-0.1-0.1-0.1-0.2
						c0-0.1,0-0.1-0.1-0.2c0,0,0-0.1-0.1-0.1c0,0,0,0,0-0.1V141c0,0,0-0.1-0.1-0.1v-0.1v-0.1c0-0.1-0.1-0.2-0.1-0.2l0,0l0,0
						c0,0,0-0.1-0.1-0.1c0-0.1-0.1-0.1-0.1-0.2c0-0.1-0.1-0.2-0.1-0.2l0,0l0,0l0,0c0,0,0,0,0-0.1l0,0c0-0.1-0.1-0.1-0.2-0.1
						c0,0,0,0-0.1,0h-0.1l-0.1-0.1h-0.1l-0.1-0.1c-0.1-0.1-0.2-0.1-0.3,0c0,0-0.1,0.1-0.1,0.2v0.1l0,0l0,0l0,0h-0.1h-0.1l0,0
						c-0.1,0-0.1,0-0.2,0l0,0h-0.1l0,0c0,0,0,0-0.1,0.1h-0.1c0-0.1-0.1-0.2-0.1-0.2l-0.1-0.1c0,0,0,0,0-0.1c0,0,0-0.1-0.1-0.1
						c0,0-0.1,0-0.1-0.1h-0.1l0,0c-0.1-0.1-0.1-0.1-0.2-0.1h-0.1l-0.1,0.1c0,0.1,0,0.1,0,0.2c0,0.1,0.1,0.2,0.2,0.3
						c0,0.1,0.1,0.1,0.1,0.2c0.1,0.2,0.2,0.3,0.3,0.5s0.2,0.3,0.3,0.5c0.1,0.1,0.1,0.2,0.2,0.3c0.1,0.1,0.1,0.2,0.2,0.3h-0.1h-0.1
						c-0.1,0-0.1,0-0.2,0h-0.1c-0.2,0-0.4,0-0.5,0.1c-0.1,0-0.2,0-0.2,0H160c0,0,0,0-0.1,0l0,0c-0.1,0-0.2,0.1-0.4,0.1h-0.1
						c0,0-0.1,0-0.1,0.1c-0.1,0.1-0.1,0.1-0.1,0.2c0,0.1,0.2,0.2,0.3,0.3c0.1,0,0.2,0.1,0.3,0.1c0.2,0.1,0.5,0.1,0.7,0.2
						c0.2,0,0.5,0.1,0.6,0.1h0.1c0.2,0,0.4,0,0.6,0l0,0c0.1,0,0.3,0,0.4,0c0.1,0,0.1,0,0.2,0c0.1,0,0.2,0,0.2,0c0.1,0,0.3,0,0.4,0
						h0.1c0,0,0,0,0.1,0l0,0h0.1l0,0l0,0c0.1,0,0.1,0,0.1,0C163.6,142.7,163.7,142.6,163.7,142.4
						C163.7,142.5,163.7,142.4,163.7,142.4L163.7,142.4L163.7,142.4z"/>
				</g>
			</g>
			<g>
				<g>
					<defs>
						<rect id="SVGID_00000102522976960995797100000006440390927305087134_" x="152.1" y="139.7" width="8" height="5.2"/>
					</defs>
					<clipPath id="SVGID_00000155834318723023353980000014878510608278972838_">
						<use xlink:href="#SVGID_00000102522976960995797100000006440390927305087134_"  style="overflow:visible;"/>
					</clipPath>
					<path style="clip-path:url(#SVGID_00000155834318723023353980000014878510608278972838_);fill:#3C60AB;" d="M153,143.1
						L153,143.1C153,143.1,152.9,143.1,153,143.1C152.9,143.1,152.9,143.1,153,143.1C152.9,143.1,152.9,143.1,153,143.1z
						 M156.9,144.8c-0.2,0-0.4,0-0.7-0.1c-0.2,0-0.5-0.1-0.7-0.1c-0.4-0.1-0.9-0.2-1.3-0.3c-0.2-0.1-0.4-0.1-0.6-0.2
						c-0.2-0.1-0.4-0.2-0.6-0.2c-0.2-0.1-0.4-0.2-0.6-0.3c-0.1-0.1-0.2-0.2-0.2-0.3c0,0,0-0.1-0.1-0.1c0,0,0,0,0-0.1V143l0,0
						c0-0.1,0-0.1,0.1-0.2c0-0.1,0.1-0.1,0.1-0.1c0.1-0.1,0.3-0.1,0.4-0.1c0.2,0,0.4,0,0.6,0c0.4,0,0.9,0,1.3,0.1c0.2,0,0.5,0,0.7,0
						c-0.1,0-0.2,0-0.3,0.1c-0.1,0-0.2,0.1-0.3,0.1c0,0-0.1,0-0.1,0.1c-0.1,0.1-0.1,0.1-0.1,0.2c0,0.2,0.2,0.2,0.4,0.3
						c0.1,0,0.2,0.1,0.3,0.1c0.2,0.1,0.5,0.1,0.8,0.2c0.3,0,0.5,0.1,0.7,0.1h0.1c0.2,0,0.4,0,0.6,0l0,0c0.2,0,0.3,0,0.5,0
						c0.1,0,0.1,0,0.2,0c0.1,0,0.2,0,0.2,0c0.2,0,0.3,0,0.5,0h0.1c0,0,0,0,0.1,0l0,0h0.1l0,0l0,0c0.1,0,0.1,0,0.2-0.1
						c0.1-0.1,0.2-0.2,0.2-0.3c0,0,0,0,0-0.1c0,0.1,0,0.1,0,0.2c0,0.1,0,0.2,0.1,0.2c0,0.1,0.1,0.3,0.1,0.4l0,0v0.1
						c0,0.1-0.1,0.2-0.2,0.2c-0.1,0-0.1,0.1-0.2,0.1c-0.1,0-0.1,0.1-0.2,0.1c-0.1,0-0.2,0.1-0.3,0.1s-0.2,0-0.3,0
						c-0.2,0-0.5,0-0.7,0h-0.1C157.7,144.8,157.3,144.8,156.9,144.8z"/>
				</g>
				<g>
					<defs>
						<rect id="SVGID_00000120560918599856218900000011893697394483587465_" x="152.1" y="139.7" width="8" height="5.2"/>
					</defs>
					<clipPath id="SVGID_00000105420323435090155760000005949410722501840820_">
						<use xlink:href="#SVGID_00000120560918599856218900000011893697394483587465_"  style="overflow:visible;"/>
					</clipPath>
					<path style="clip-path:url(#SVGID_00000105420323435090155760000005949410722501840820_);fill:#3C60AB;" d="M153.1,143.3
						c0,0,0-0.1,0-0.2l0,0l0,0l0,0l0,0l0,0l0,0c0,0,0,0-0.1,0c0,0,0,0-0.1,0s-0.1,0-0.1,0.1l0,0l-0.1,0.1c0,0.1,0,0.1,0,0.2
						c0,0.1,0.1,0.1,0.1,0.1h0.1C153,143.4,153,143.3,153.1,143.3z"/>
				</g>
				<g>
					<defs>
						<rect id="SVGID_00000045619096178728948040000002395915406005653931_" x="152.1" y="139.7" width="8" height="5.2"/>
					</defs>
					<clipPath id="SVGID_00000123429413067360901150000004148352003847560329_">
						<use xlink:href="#SVGID_00000045619096178728948040000002395915406005653931_"  style="overflow:visible;"/>
					</clipPath>
					<path style="clip-path:url(#SVGID_00000123429413067360901150000004148352003847560329_);fill:#FCE1D8;" d="M159.3,140.8
						L159.3,140.8L159.3,140.8L159.3,140.8L159.3,140.8L159.3,140.8L159.3,140.8L159.3,140.8C159.3,140.9,159.3,140.9,159.3,140.8
						C159.3,140.9,159.3,140.8,159.3,140.8z"/>
				</g>
			</g>
			<path class="st13" d="M159.8,143.2L159.8,143.2c0,0,0-0.1-0.1-0.1c0-0.1,0-0.1-0.1-0.2v-0.1l0,0l0,0c0,0,0,0,0-0.1v-0.1
				c0-0.1,0-0.1,0-0.2c0-0.1-0.1-0.1-0.1-0.2c0-0.1,0-0.1-0.1-0.2c0-0.1,0-0.1-0.1-0.2v-0.1v-0.1c0-0.1-0.1-0.2-0.1-0.2l0,0l0,0
				v-0.1c0-0.1-0.1-0.2-0.1-0.2l0,0l0,0c0,0,0-0.1-0.1-0.1c0-0.1-0.1-0.1-0.1-0.2c0-0.1-0.1-0.2-0.1-0.3l0,0l0,0l0,0c0,0,0,0,0-0.1
				l0,0c0-0.1-0.1-0.1-0.2-0.1c0,0,0,0-0.1,0c0,0-0.1-0.1-0.2,0c0,0,0,0-0.1,0l0,0c-0.1-0.1-0.1-0.2-0.2-0.3c-0.1-0.1-0.3-0.1-0.3,0
				c0,0-0.1,0.1-0.1,0.2v0.1c0.1,0.2,0.2,0.3,0.2,0.5c0,0,0,0.1,0.1,0.1l0,0c0,0,0,0,0,0.1c0,0,0,0-0.1,0l0,0l0,0
				c0-0.1-0.1-0.1-0.1-0.2h-0.1l0,0v-0.1c0,0,0-0.1-0.1-0.1h-0.1l0,0c-0.1,0-0.1,0.1-0.2,0.2l0,0l0,0c0,0.1,0,0.1,0,0.2v0.1
				c-0.1-0.2-0.2-0.4-0.3-0.5s-0.1-0.2-0.2-0.3l-0.1-0.1c0,0,0,0,0-0.1c0,0,0-0.1-0.1-0.1c0,0-0.1,0-0.1-0.1h-0.1c0,0,0,0,0-0.1
				c-0.1-0.1-0.2-0.1-0.2-0.1c-0.1,0-0.1,0-0.1,0l-0.1,0.1c0,0.1-0.1,0.2,0,0.2c0,0.1,0.1,0.2,0.2,0.3c0,0.1,0.1,0.2,0.1,0.2
				c0.1,0.2,0.2,0.4,0.3,0.6c0.1,0.2,0.2,0.3,0.3,0.5c0.1,0.1,0.2,0.2,0.2,0.4c0.1,0.1,0.1,0.2,0.2,0.3h-0.1H157c-0.1,0-0.2,0-0.2,0
				h-0.1c-0.2,0-0.4,0-0.6,0.1c-0.1,0-0.2,0-0.2,0h-0.1c-0.1,0-0.2,0-0.3,0.1c-0.1,0-0.2,0.1-0.3,0.1c0,0-0.1,0-0.1,0.1
				c-0.1,0.1-0.1,0.1-0.1,0.2c0,0.2,0.2,0.2,0.4,0.3c0.1,0,0.2,0.1,0.3,0.1c0.2,0.1,0.5,0.1,0.8,0.2c0.3,0,0.5,0.1,0.7,0.1h0.1
				c0.2,0,0.4,0,0.6,0l0,0c0.2,0,0.3,0,0.5,0c0.1,0,0.1,0,0.2,0c0.1,0,0.2,0,0.2,0c0.2,0,0.3,0,0.5,0h0.1c0,0,0,0,0.1,0l0,0h0.1l0,0
				l0,0c0.1,0,0.1,0,0.2-0.1C159.7,143.6,159.8,143.5,159.8,143.2C159.8,143.3,159.8,143.3,159.8,143.2L159.8,143.2z"/>
			<path class="st50" d="M176.3,88.8c-0.1-0.3-0.2-0.4-0.2-0.6c0-0.5,0.2-1-0.1-1.5c-0.4-0.8-1.2-1.1-2-0.8
				c-0.4,0.1-0.3,0.2-0.8,0.2c-0.3,0-0.5-0.2-0.8-0.2c-0.6,0.1-0.5,0.7-0.8,0.9c0,0-1.3-1-0.6-0.7c1.2,0.5,0.4-1.1,0.9-1.2
				s0.3,0.8,0.9,0.2c0.5-0.5,0-1.2-0.4-0.2c-0.6-0.6-0.8,0-1,0.5c0,0,0,0.4-0.1,0.5c0,0-0.7-0.1-0.6-0.1c-0.1,0-0.2,0.2-0.3,0.2
				c-0.2,0-1.2-0.3-1.1-0.1c0.2,0.5,1,0.2,1.1,0.7c-1.1-0.3-2.2-0.1-3.3,0.5c-0.3,0.2-0.6,0.5-0.9,0.7c-0.2,0.1-0.2,0.2-0.3,0.3
				c-0.2,0.1-0.7,0.1-0.9,0.2c-0.5,0.1-1.8,0.7-1.8,1.3c0,0.3,0.1,0.3,0.3,0.5c0.3,0.3,1.5,1.3,2,1.3c-0.1,0.4-0.4,0.8-0.4,1.2
				c0,0.4,0.4,1.9,0.7,2.1c0.5,0.3,0.9-0.6,1.1,0.1c0.1,0.5-0.4,0.8-0.4,1.2c0.1,1.1,1.8,1.2,2.6,1.1c1.2-0.2,2.1-0.9,3-1.8
				c0.5-0.5,0.9-1,1.2-1.6c0.3-0.7,0.1-1.1,1-1.3c-0.1,0.4-1,1.2-0.5,1.6c0.3,0.3,0.8-0.2,1.1-0.3c-0.3,0.9,0.5,1,0.3,0.1
				c-0.1-0.8-0.4-0.3-1.1-0.1c0.1-0.5,0.9-1,0.7-1.5s-0.7-0.3-1.1-0.1c0-0.4,1.4-1,1.8-1.2C176,90.3,176.5,89.5,176.3,88.8z
				 M174.7,86.6c0.5,0.2,0.6,0.8,0.5,1.3c-0.2-0.5-0.6-1-1.1-1.3C174.3,86.5,174.5,86.5,174.7,86.6z M174.3,86
				c1.2-0.3,1.8,1.1,1.4,2.1c-0.1,0-0.1-1.2-0.5-1.5c-0.5-0.4-1-0.1-1.5-0.2c0,0,0.7-0.1,0.4-0.3C174.1,86.1,174.2,86.1,174.3,86z
				 M171.8,86.6c0.4-1,1-0.5,1.7-0.4C173.4,86.5,172,86.3,171.8,86.6z M175.7,89.6c-0.1,0.4-0.2,0.7-0.5,1c0.3-0.5,0.2-1.1,0.5-1.5
				C175.7,89.3,175.7,89.5,175.7,89.6z"/>
			<path class="st13" d="M148.6,106.3c-0.1-0.6-1.6-0.7-2-0.8c-1.1-0.2-1.5,0-2.4,0.8c-0.2,0.1-2.1,1.8-1.5,2
				c0.2,0.1,0.6-0.3,0.7-0.4c0.5-0.4,0.6-0.3,1.3-0.2c0.7,0.1,1.5,0.1,2.2,0.1c0,0,0.5,0.1,0.6,0.1c0.4-0.1,0.1-0.3,0.3-0.5
				C147.9,107.3,148.7,106.8,148.6,106.3z M147.5,107c-0.1,0.1-0.1,0.1-0.2,0C147.4,106.9,147.6,106.9,147.5,107z"/>
			<path class="st51" d="M156.9,141c-1.4,0-1.6-0.7-2.3-1.9c-0.3-0.5-0.7-1-1-1.6c-1.3-2.1-2.6-4.3-3.8-6.5c-1-1.8-2-3.7-2.8-5.6
				c-0.4-1-0.6-2.6,0-3.6c0.7-1,1.7-0.7,2.8-0.7c1.9,0.1,3.8,0.2,5.8,0.2c0.7,0,1.3-0.1,2-0.1c0.8,0,1,0.4,1.7,0.7
				c0.8,0.5,1.9,0.9,2.8,1.2c0.8,0.2,1.7,0.4,2.6,0.5c0.6,0.1,2.4,0.2,3-0.2c0.3-0.2,0.3-1.5,0.7-1.5c0.8,0-0.1,2.8-0.2,3.1
				c-0.4,0.8-1.2,1.4-2,1.6c-1.2,0.3-2.5,0.7-3.7,1c-1.5,0.3-3,0.5-4.5,0.5c0.8,1.2,1.2,2.7,1.8,4.1c0.4,0.9,0.8,1.9,1.2,2.8
				c0.3,0.7,0.6,1.4,0.9,2.1c0.2,0.5,1.2,2.2,1,2.7s-2.2,0.8-2.6,0.4c-0.5-0.5-0.9-1.7-1.2-2.3c-1.2-2-2.3-4.2-3.2-6.3
				c-0.4-1-0.9-2-1.4-3c-0.4-0.7-0.6-0.7-1.2-0.8c1.2,2.3,2.1,4.6,2.9,6.9c0.8,2,1.8,4,2.7,5.9C158.1,140.9,157.5,141,156.9,141z"/>
			<path class="st52" d="M170.9,107.6c-0.2-2.8-0.5-5.8-1.3-8.4c-0.4-1.3-1-1.5-2.1-1.1c-0.5,0.2-1.2,0.6-1.8,0.6
				c-1.2-0.3-2.6,1.5-3.4,2.3c-1.3,1.3-2.6,2.6-3.9,3.9c-0.7,0.8-1.5,1.7-2.4,2.4c-0.8,0.6-1.3,0.1-2.3-0.2c-1.4-0.4-2.8-0.7-4.2-1
				c-0.6-0.1-1.3-0.5-1.9-0.4c-0.5,0-0.4,0-0.6,0.4c-0.3,0.5-0.6,1.3-0.3,1.8s1.2,0.7,1.6,1c1.1,0.5,2.2,1.1,3.3,1.6
				c1.2,0.5,2.4,0.9,3.5,1.4c0.6,0.2,0.9,0.4,1.5,0.2c0.5-0.2,2.4-1.3,2.5-1.8c0.4-0.4,0.6-0.7,0.9,0.1c0.3,0.8,0.7,1.5,1,2.3
				c0.5,1.1,0.1,2-0.3,3.1c-0.4,1.2-0.9,2.5-1.6,3.6c-0.2,0.3-0.4,0.8-0.7,1.1c-0.2,0.2-0.4,0.2-0.5,0.5c-0.2,0.6,0.6,0.8,1,1.2
				c1.7,1.3,3.3,1.9,5.3,2.2h0.1c1.3,0.2,3.3,0,4.2-0.6c1-0.8,0.2-2.7,0.3-3.8c0.2-1.5,0.9-3.1,1.2-4.6
				C170.6,112.7,171,110.1,170.9,107.6z"/>
			<path class="st53" d="M168.9,97c-0.8,0.1-1.7-0.1-2.1-0.8c-0.2-0.4-0.1-0.3,0-0.7c0.1-0.2,0.5-0.9,0.2-1.1
				c-0.2-0.1-0.3,0.1-0.5,0.1c-0.8,0.1-0.7-0.3-0.9-1.2c-0.2-0.8-0.1-1.2,0.1-2c-0.6,0-1.6-0.9-2-1.2c-0.6,0.9-1,1.8-1.8,2.5
				c-0.2,0.2-0.6,0.3-0.7,0.6c-0.3,0.5,0.2,0.9,0.4,1.3c0.4,0.8,0.4,1.7,0.9,2.4c0.4,0.6,1.1,0.9,1.8,1.1c0.2,0.1,0.4,0.1,0.6,0.2
				c0.2,0.2,0.2,0.6,0.5,0.7c0.4,0.2,1.2,0.3,1.6,0.2c0.6,0,1.3-0.2,1.7-0.8C168.6,98.1,168.5,97,168.9,97z"/>
			<path class="st3" d="M163.1,93.1c0-0.1,0.1-0.2,0.2-0.2c0.1,0,0.2,0.1,0.2,0.2s-0.1,0.2-0.2,0.2
				C163.2,93.3,163.1,93.2,163.1,93.1z"/>
			<path class="st9" d="M168.7,127.9h-11c-0.1,0-0.3-0.1-0.3-0.3v-0.9c0-0.1,0.1-0.3,0.3-0.3h11c0.1,0,0.3,0.1,0.3,0.3v0.9
				C169,127.8,168.9,127.9,168.7,127.9z"/>
			<path class="st9" d="M167.4,127.5l-0.4,0.1c-0.1,0-0.1,0.1-0.1,0.1l4.1,23c0,0.1,0.1,0.1,0.1,0.1l0.4-0.1c0.1,0,0.1-0.1,0.1-0.1
				l-4.1-23C167.5,127.6,167.4,127.5,167.4,127.5z"/>
			<path class="st9" d="M163.5,127.2h-0.4c-0.1,0-0.1,0-0.1,0.1v23.4c0,0.1,0,0.1,0.1,0.1h0.4c0.1,0,0.1,0,0.1-0.1v-23.4
				C163.6,127.3,163.5,127.2,163.5,127.2z"/>
			<path class="st9" d="M159.2,127.5l0.4,0.1c0.1,0,0.1,0.1,0.1,0.1l-4.1,23c0,0.1-0.1,0.1-0.1,0.1l-0.4-0.1c-0.1,0-0.1-0.1-0.1-0.1
				l4.1-23C159.1,127.6,159.2,127.5,159.2,127.5z"/>
			<path class="st9" d="M170,144.2l-6.6-0.6c-0.1,0-0.1,0-0.1,0.1v0.3c0,0.1,0,0.1,0.1,0.1l6.6,0.6c0.1,0,0.1,0,0.1-0.1v-0.3
				C170.1,144.2,170,144.2,170,144.2z"/>
			<path class="st9" d="M170.2,144.6h-13.9c-0.1,0-0.1,0-0.1,0.1v0.3c0,0.1,0,0.1,0.1,0.1h13.9c0.1,0,0.1,0,0.1-0.1L170.2,144.6
				C170.3,144.6,170.3,144.6,170.2,144.6z"/>
		</g>
		<path class="st9" d="M77.8,168c-1-0.8-2.5-1.1-3.7-1.3c0,0-0.4,0-0.5,0c-0.9-0.1-1.9,0.1-2.8,0.3c-0.2,0-3.8,0.8-4.6,1
			c-1.3,0.3-4.1,0.9-5.3,1.1c0,0-0.4,0-0.5-0.2c0,0.1,0.1,0.2,0.1,0.3s0,0.3,0,0.4l0,0c-0.1,0.1-0.1,0.3-0.2,0.4l0,0
			c-0.3,0.1-0.5-0.1-0.7,0c-0.5,0.1-1,0.4-1.5,0.5c-1.3,0.4-2.6,0.9-3.9,1.1l0,0l0,0l0,0l0,0l0,0l0,0c-1.4,0.2-2.8,0.1-4.2,0.1
			c-0.3,0-0.6,0-0.9,0c-0.3,0-0.7-0.1-1,0c-0.2,0.1-0.4,0.4-0.7,0.1c-0.2-0.2-0.2-0.5-0.2-0.8c-0.2,1.2-0.6,2.8,0,3.9
			c0.6,1.2,2,1.7,3.2,2c1.3,0.3,2.6,0.4,4,0.5c1.5,0.1,2.9,0.1,4.4,0.1c1.7,0,3.3-0.1,4.9-0.3h-0.1c1.5-0.2,10.7-2.8,11.9-3.5
			c1.1-0.7,2.3-1.3,3-2.5C78.8,170.1,78.8,168.8,77.8,168z"/>
		<path class="st54" d="M90.2,161.2c0,0,1.1,0,1.1-1.9s-0.9,0.9-0.9,0.9l-0.8,0.9L90.2,161.2z"/>
		<g>
			<ellipse class="st55" cx="29.9" cy="157.5" rx="2.6" ry="4.7"/>
			<circle class="st56" cx="37.5" cy="135.7" r="0.9"/>
			<path class="st57" d="M33.6,137.2L33.6,137.2l-0.1,7.2c0,0,0,0.1,0.1,0.1c0,0,0.1,0,0.1-0.1v-2.9v-4.3h0.7c0,0,0.1,0,0.1-0.1
				s0-0.1-0.1-0.1h-0.8V137.2z"/>
			<path class="st38" d="M41.5,136.2H34h-0.4c-0.6,0-1.1,0.5-1.1,1.1v7.3c0,0.6,0.5,1.1,1.1,1.1H34h7.5c0.6,0,1.1-0.5,1.1-1.1v-7.3
				C42.6,136.7,42.1,136.2,41.5,136.2z"/>
			<path class="st58" d="M42.6,142.1v-4.9c0-0.6-0.5-1.1-1.1-1.1h-2"/>
			<g>
				<path class="st38" d="M22.2,147.5c-0.9,1.5-1.8,3.1-2.7,4.7c-0.1,0.1,0,0.2,0.1,0.3s0.2,0,0.3-0.1c0.8-1.6,1.7-3.1,2.7-4.7
					c0.1-0.1,0-0.2-0.1-0.3h-0.1C22.3,147.4,22.2,147.4,22.2,147.5"/>
				<path class="st38" d="M23.1,147.6c-0.1,0-0.1,0.1-0.1,0.1s0,0,0,0.1c-0.8,1.9-2,3.5-3,5.4c-0.1,0.1,0,0.2,0.1,0.3s0.2,0,0.3-0.1
					c0.5-0.9,1-1.8,1.6-2.7c0.3-0.4,0.5-0.9,0.8-1.4s0.5-1,0.7-1.5c0,0,0-0.1,0-0.2l-0.1-0.1c0,0,0,0-0.1,0
					C23.2,147.6,23.2,147.6,23.1,147.6 M23,147.8L23,147.8L23,147.8"/>
				<path class="st38" d="M28.7,145.9c-1.4,0.3-2.8,0.5-4.2,0.7c0,0,0,0,0.1,0c-0.4,0-0.7,0.1-1.1,0.1c-0.1,0-0.1,0-0.2,0.1
					c0,0-0.1,0.1-0.1,0.2c0,0.1,0,0.1,0.1,0.2c0,0,0.1,0.1,0.2,0.1c1.8-0.2,3.6-0.5,5.3-0.9c0.1,0,0.2-0.2,0.1-0.3
					C28.9,146,28.8,145.9,28.7,145.9L28.7,145.9"/>
				<path class="st38" d="M28.8,146.7c-1.7,0.3-3.3,0.8-4.9,1c-0.1,0-0.1,0.1-0.1,0.1s0,0.1,0,0.2c0,0.1,0.1,0.1,0.1,0.1
					c0.1,0,0.1,0,0.2,0c1.7-0.2,3.3-0.7,4.9-1c0.1,0,0.1-0.1,0.1-0.1s0-0.1,0-0.2c0-0.1-0.1-0.1-0.1-0.1S28.9,146.7,28.8,146.7
					C28.9,146.7,28.9,146.7,28.8,146.7"/>
				<line class="st59" x1="19.4" y1="152.8" x2="17.6" y2="154.4"/>
				<line class="st59" x1="18.9" y1="155.3" x2="19.8" y2="153.1"/>
				<line class="st59" x1="20.2" y1="155.3" x2="20.3" y2="153.1"/>
				<line class="st59" x1="21.6" y1="155.1" x2="20.5" y2="152.8"/>
				<line class="st59" x1="23" y1="152.8" x2="20.6" y2="152.5"/>
				<circle class="st60" cx="23.3" cy="147.4" r="1.1"/>
				<circle class="st60" cx="29" cy="146.4" r="1.1"/>
				<circle class="st38" cx="20" cy="152.5" r="1.1"/>
			</g>
			<g>
				<path class="st57" d="M52.1,147.5c0.9,1.5,1.8,3.1,2.7,4.7c0.1,0.1,0,0.2-0.1,0.3s-0.2,0-0.3-0.1c-0.8-1.6-1.7-3.1-2.7-4.7
					c-0.1-0.1,0-0.2,0.1-0.3h0.1C52,147.4,52.1,147.4,52.1,147.5"/>
				<path class="st57" d="M51.1,147.6L51.1,147.6c-0.1,0-0.1,0-0.2,0s-0.1,0-0.1,0.1c0,0,0,0.1,0,0.2c0.2,0.5,0.4,1,0.7,1.5
					c0.2,0.5,0.5,0.9,0.8,1.4c0.5,0.9,1.1,1.8,1.6,2.7c0.1,0.1,0.2,0.1,0.3,0.1c0.1-0.1,0.1-0.2,0.1-0.3c-0.9-1.8-2.1-3.5-3-5.4
					c0,0,0,0,0-0.1C51.2,147.7,51.2,147.7,51.1,147.6 M51.3,147.8L51.3,147.8L51.3,147.8"/>
				<path class="st38" d="M45.6,145.9c1.4,0.3,2.8,0.5,4.2,0.7c0,0,0,0-0.1,0c0.4,0,0.7,0.1,1.1,0.1c0.1,0,0.1,0,0.2,0.1
					c0,0,0.1,0.1,0.1,0.2c0,0.1,0,0.1-0.1,0.2c0,0-0.1,0.1-0.2,0.1c-1.8-0.2-3.6-0.5-5.3-0.9c-0.1,0-0.2-0.2-0.1-0.3
					C45.4,146,45.4,145.9,45.6,145.9C45.5,145.9,45.6,145.9,45.6,145.9"/>
				<path class="st38" d="M45.4,146.7c1.7,0.3,3.3,0.8,4.9,1c0.1,0,0.1,0.1,0.1,0.1s0,0.1,0,0.2c0,0.1-0.1,0.1-0.1,0.1
					c-0.1,0-0.1,0-0.2,0c-1.7-0.2-3.3-0.7-4.9-1c-0.1,0-0.1-0.1-0.1-0.1s0-0.1,0-0.2c0-0.1,0.1-0.1,0.1-0.1
					C45.3,146.7,45.3,146.7,45.4,146.7L45.4,146.7"/>
				<line class="st59" x1="54.8" y1="152.8" x2="56.7" y2="154.4"/>
				<line class="st59" x1="55.3" y1="155.3" x2="54.4" y2="153.1"/>
				<line class="st59" x1="54.1" y1="155.3" x2="54" y2="153.1"/>
				<line class="st59" x1="52.7" y1="155.1" x2="53.8" y2="152.8"/>
				<line class="st59" x1="51.3" y1="152.8" x2="53.6" y2="152.5"/>
				<circle class="st60" cx="51" cy="147.4" r="1.1"/>
				<circle class="st60" cx="45.3" cy="146.4" r="1.1"/>
				<circle class="st60" cx="54.3" cy="152.5" r="1.1"/>
			</g>
			<path class="st38" d="M43.9,143.1H30.4c-0.6,0-1.1,0.5-1.1,1.1v13.5c0,0.6,0.5,1.1,1.1,1.1h13.5c0.6,0,1.1-0.5,1.1-1.1v-13.5
				C45,143.6,44.5,143.1,43.9,143.1z"/>
			<path class="st58" d="M45,155.7v-11.5c0-0.6-0.5-1.1-1.1-1.1H33.3"/>
			<circle class="st61" cx="39.5" cy="139" r="1"/>
			<circle class="st61" cx="35.4" cy="139" r="1"/>
			<g>
				<g>
					<g>
						<path class="st60" d="M39.2,166c-0.1,0.1-0.5,0.1-0.9,0.1l0.1,0.5l0.1,0.2l0.1,0.5c0.4-0.2,0.7-0.5,0.8-0.4s0.5,0.3,0.5,0.3
							l3.2-1c0,0,0.2-0.3,0.2-0.5c0-0.1-0.1-0.2-0.1-0.3s-0.1-0.2-0.1-0.2c0-0.1-0.1-0.2-0.1-0.3c-0.1-0.2-0.4-0.3-0.4-0.3l-3.2,1
							C39.4,165.5,39.2,165.9,39.2,166z"/>
						<line class="st62" x1="42.7" y1="165.7" x2="40" y2="166.6"/>
						<line class="st62" x1="42.6" y1="165.3" x2="39.9" y2="166.2"/>
						<line class="st62" x1="42.5" y1="164.9" x2="39.8" y2="165.8"/>
					</g>
					
						<ellipse transform="matrix(0.9529 -0.3032 0.3032 0.9529 -48.71 19.4807)" class="st63" cx="38.4" cy="166.6" rx="0.3" ry="0.6"/>
				</g>
				<line class="st64" x1="34.3" y1="168" x2="38.4" y2="166.6"/>
			</g>
			<ellipse class="st55" cx="45" cy="157.5" rx="2.6" ry="4.7"/>
			<path class="st65" d="M39.7,140.9c-0.2,0.5-1,1-2.2,1s-1.9-0.5-2.2-1"/>
			<g>
				<path class="st58" d="M42.9,152.4H31.4c-0.1,0-0.2-0.1-0.2-0.2V146c0-0.1,0.1-0.2,0.2-0.2H43c0.1,0,0.2,0.1,0.2,0.2v6.2
					C43.1,152.3,43,152.4,42.9,152.4z"/>
				<circle class="st58" cx="41.5" cy="147.1" r="0.6"/>
				<circle class="st58" cx="41.5" cy="149.1" r="0.6"/>
				<circle class="st58" cx="41.5" cy="151.2" r="0.6"/>
				<line class="st58" x1="32.5" y1="147.1" x2="39.1" y2="147.1"/>
				<line class="st58" x1="32.5" y1="148.4" x2="39.1" y2="148.4"/>
				<line class="st58" x1="32.5" y1="149.7" x2="39.1" y2="149.7"/>
				<line class="st58" x1="32.5" y1="150.9" x2="39.1" y2="150.9"/>
			</g>
		</g>
		<g>
			<path class="st10" d="M59.2,145.9C59.2,145.9,59.1,145.8,59.2,145.9c-0.1-0.1,0-0.1,0-0.1C59.1,145.8,59.2,145.8,59.2,145.9
				L59.2,145.9L59.2,145.9z"/>
			<path class="st10" d="M53.3,145.1c0-0.1-0.1-0.1-0.2-0.1c-0.1,0-0.1,0-0.2,0.1l-0.1,0.1c0.2-0.3,0.5-0.6,0.6-0.9
				c0,0.1,0,0.3,0,0.4C53.4,144.8,53.4,145,53.3,145.1L53.3,145.1z"/>
			<path class="st10" d="M58.8,145c-0.2,0-0.4-0.1-0.6-0.1c-0.1,0-0.2-0.1-0.2-0.2c0-0.1-0.1-0.2,0-0.3c0-0.1,0.1-0.2,0.2-0.2
				c0.1,0,0.2-0.1,0.3,0c0.3,0.1,0.5,0.1,0.8,0.1l0,0v-0.1c0,0,0-0.1,0.1-0.1c0,0,0.1,0,0.1,0.1l0,0l0,0c0,0,0,0.1,0.1,0.1l0.1,0.1
				c0,0,0,0,0.1,0s0.1,0,0.2,0l0,0c-0.1,0-0.1,0.1-0.2,0.2c-0.1,0.1-0.1,0.2-0.2,0.3c0,0.1-0.1,0.1-0.1,0.2
				C59.1,145,58.9,145,58.8,145z"/>
			<path class="st10" d="M61,143.9c0.2-0.2,0.3-0.5,0.5-0.8c0-0.1,0-0.1,0.1-0.2c0.1-0.2,0.1-0.4,0.2-0.6c0-0.1,0.1-0.2,0.1-0.3
				c0,0,0-0.1,0.1-0.1c0,0,0,0,0-0.1l0,0l0,0c0,0,0,0,0.1,0h0.1h0.1c0.1,0.1,0.1,0.2,0.1,0.3c0,0,0,0,0,0.1c0,0,0,0,0,0.1v0.1l0,0
				l0,0l0,0l0,0c0,0,0-0.1,0.1-0.1l0.1-0.1c0.1,0,0.1,0,0.2,0l0,0c0.1,0,0.1,0.1,0.1,0.2l0,0c-0.1,0-0.1,0.1-0.1,0.1
				c-0.1,0.1-0.1,0.1-0.1,0.2c-0.1,0.2-0.2,0.4-0.4,0.6c-0.1,0.1-0.2,0.2-0.3,0.3s-0.3,0.2-0.4,0.2C61.4,143.8,61.2,143.9,61,143.9
				L61,143.9z"/>
			<g>
				<path class="st10" d="M76,164.2L76,164.2L76,164.2z"/>
				<path class="st10" d="M82.1,162.9L82.1,162.9L82.1,162.9z"/>
				<path class="st10" d="M82.7,162.6c-0.5-0.6-1.2-1-1.9-1.4c-0.6-0.4-1.6-0.5-2.3-0.4c-0.8,0.2-1.6,0.6-2.4,1
					c-0.4,0.2-0.8,0.4-1.2,0.5c-0.1,0.1-0.8,0.3-1,0.2c-1,0.2,0.2,0.8,0.5,1.2c0.1,0.2,0.3,0.2,0.4,0.4c0,0.1,0.5,0.1,0.5,0.2
					c0.4,0,0.7-0.1,1.1-0.2c0.4-0.1,0.9-0.1,1.3-0.3c0.2-0.1,0.5-0.2,0.7-0.4c0.1-0.1,0.2-0.1,0.3-0.2c0,0,0.3-0.2,0.2-0.1
					c0.4-0.3,0.6-0.5,1-0.6s0.8-0.1,1.2,0c0.3,0,0.7,0.2,1,0.3c0.2,0.1,0.3,0.2,0.5,0.1C82.8,162.9,82.8,162.7,82.7,162.6z"/>
			</g>
			<g>
				<path class="st10" d="M60.6,144.9L60.6,144.9L60.6,144.9L60.6,144.9z"/>
				<path class="st10" d="M64.9,137.3c0-0.1,0-0.1,0-0.2c-0.1,0-0.2-1-0.2-1l-0.5,0.5c-0.1,0.1-0.4,0.4-0.4,0.5
					c-0.3,0.5-0.6,0.4-1,0.8c-0.4,0.3-0.2,1.3-0.4,0.8c-0.1-0.2-0.4-1-0.7-1c-0.5,0-1.2,1-1.4,1.3c-0.3,0.5-0.4,1.5-0.8,2
					c-0.1,0.1-0.2,0.2-0.3,0.3c0,0.1,0,0.1-0.1,0.2c-0.1,0.3-0.3,0.5-0.5,0.7c-0.3,0.4-0.3,0.4-0.7,0.3c-0.6,0-1.1-0.2-1.7-0.3
					c-0.4-0.1-1-0.2-1.3-0.6c-0.2,0.7-0.6,1.2-1,1.7c-0.2,0.2-0.3,0.5-0.5,0.8s-0.5,0.6-0.6,0.9c1,1.3,5.2,1,5.3,1
					c0.2,0,0.6,0,0.7-0.1c0.1-0.2,0.3-1.1,0.6-1.3c0.1-0.1,0.2-0.2,0.3-0.1c0.1,0,0.3,0.2,0.4,0.3c0.5,0.3,1.1,0.5,1.7,0.3
					c1.3-0.4,1.8-2.1,2.2-3.2c0.2-0.7,0.4-1.4,0.7-2.1C65.1,139,65.1,138.1,64.9,137.3z"/>
			</g>
			<g>
				<path class="st60" d="M62.2,161.5"/>
				<path class="st60" d="M75.4,164.3c0.1-0.7-0.8-1.5-1.2-1.8c-0.1-0.1-0.9-0.4-1.6-0.6c-1.4-0.5-2.8-1.1-4.2-1.6
					c-0.6-0.3-1.9-0.8-2.3-1.4c-0.9-1.2-1.1-2.1-1.2-2.4c-0.3-0.7-0.5-1.4-0.8-2.2c-0.5-1.4-0.7-2-1.3-3.3c-0.3-0.7-1-2-1.4-2.6
					s-0.9-1.1-1.3-1.7c-0.3-0.4-0.6-1.2-1-1.4c-0.3-0.1-0.6,0-0.8,0c-0.4,0.1-0.8,0.1-1.2,0.1c-0.7,0.1-1.5,0-2.2-0.2
					c-0.4-0.1-0.7-0.2-1-0.3s-0.6-0.2-0.8,0s-0.4,0.4-0.6,0.6c-0.2,0.3-0.5,0.5-0.7,0.8c-0.4,0.6-0.8,1.2-1.2,1.8
					c-0.7,1.2-1.5,2.6-1.9,3.8c-1.1,2.8-1.5,5.8-1.7,8.8c-0.2,3.1-0.3,6,0.1,9.1c0.1,0.6-0.3,1.2,0,1.7s1.4,1,1.9,1.2
					c0.7,0.3,1.4,0.3,2.1,0.4c0.8,0.1,1.6,0.1,2.4,0.1c1.5,0,3-0.3,4.4-0.8c0.6-0.2,1.1-0.5,1.6-0.9c0.2-0.2,1-1.1,1.1-1.4
					c0.1-0.3,0.3-0.8,0.3-1.1c-0.1-0.3-0.4-0.3-0.5-0.7c-0.2-0.6-0.2-1.2-0.2-1.9c0-1.5-0.1-3,0.1-4.5c0.1-0.7,0.2-1.6,0.3-2.2
					c0.5,0.4,0.8,0.8,1.3,1.2s0.9,0.8,1.4,1.1c1.3,0.8,2.7,1.2,3.2,1.4c1.3,0.4,2.6,0.7,3.9,0.8c1.2,0.2,1.6,0.3,2.9,0.3
					C73.7,164.7,75.3,164.5,75.4,164.3z M52.7,168.1L52.7,168.1L52.7,168.1z M53.3,145.3C53.3,145.2,53.3,145.2,53.3,145.3
					C53.4,145.2,53.3,145.2,53.3,145.3z M55.7,145.6C55.7,145.6,55.6,145.6,55.7,145.6L55.7,145.6z"/>
			</g>
			<path class="st66" d="M65.4,136.2c-0.2-1.3-0.7-2.5-1.7-3.5c-0.9-0.9-2.2-1.8-3.5-1.7c-1.4,0-3.1,0.5-4.1,1.5
				c-1.1,0.9-1.5,2.6-1.5,3.9c0,1.2,0,2.3,0.1,3.4c0,0.5,0,1.3,0.3,1.7s0.8,0.5,1.3,0.6s1,0.2,1.4,0.4c0.2,0,0.3,0.1,0.5,0.1
				c0.4,0,0.7-0.3,0.9-0.6c0.8-1,1.1-2.4,2-3.4c0.1-0.2,0.5-0.4,0.7-0.4c0.2,0.1,0.3,0.4,0.3,0.6c0.3,0.7,0.8,0.2,1.2-0.2
				c0.3-0.3,0.6-0.7,0.8-1c0.1-0.2,0.2-0.6,0.4-0.7h0.3c0.1,0,0.2,0,0.3-0.1C65.3,136.9,65.4,136.6,65.4,136.2z"/>
			<rect x="46.7" y="131" class="st15" width="36.1" height="46.5"/>
		</g>
		<g>
			<path class="st67" d="M118.7,93H81.9c-0.6,0-1.1-0.5-1.1-1.1v-4c0-0.6,0.5-1.1,1.1-1.1h36.7c0.6,0,1.1,0.5,1.1,1.1v4
				C119.8,92.5,119.3,93,118.7,93z"/>
			<path class="st67" d="M118.7,98.6H81.9c-0.6,0-1.1-0.5-1.1-1.1v-4c0-0.6,0.5-1.1,1.1-1.1h36.7c0.6,0,1.1,0.5,1.1,1.1v4
				C119.8,98.1,119.3,98.6,118.7,98.6z"/>
			<path class="st67" d="M118.7,104.1H81.9c-0.6,0-1.1-0.5-1.1-1.1v-4c0-0.6,0.5-1.1,1.1-1.1h36.7c0.6,0,1.1,0.5,1.1,1.1v4
				C119.8,103.6,119.3,104.1,118.7,104.1z"/>
			<path class="st67" d="M109.1,108.6H91.4c-0.8,0-1.4-0.6-1.4-1.4l-0.8-3.5c0-0.8,0.6-1.4,1.4-1.4H110c0.8,0,1.4,0.6,1.4,1.4
				l-0.8,3.5C110.5,107.9,109.9,108.6,109.1,108.6z"/>
		</g>
	</g>
</g>
</svg>
