<?xml version="1.0" encoding="utf-8"?>
<!-- Generator: Adobe Illustrator 26.0.1, SVG Export Plug-In . SVG Version: 6.00 Build 0)  -->
<svg version="1.1" id="Layer_1" xmlns="http://www.w3.org/2000/svg" xmlns:xlink="http://www.w3.org/1999/xlink" x="0px" y="0px"
	 viewBox="0 0 198 180" style="enable-background:new 0 0 198 180;" xml:space="preserve">
<style type="text/css">
	.st0{fill:#CCF3FD;}
	.st1{fill:none;stroke:#1B3562;stroke-width:0.5416;stroke-linecap:round;stroke-miterlimit:10;}
	.st2{fill:#5096D1;}
	.st3{fill:#F37C48;}
	.st4{fill:none;stroke:#3E3E3D;stroke-width:1.354;stroke-linecap:round;stroke-miterlimit:10;}
	.st5{fill:#EF426F;}
	.st6{fill:#FFFFFF;}
	.st7{clip-path:url(#SVGID_00000086678805444332631130000011043122028547117714_);}
	.st8{fill:none;stroke:#CDCDCD;stroke-width:0.5267;stroke-miterlimit:10;}
	.st9{fill:#980539;}
	.st10{fill:none;}
	.st11{clip-path:url(#SVGID_00000109001233769157827020000005680164135793686704_);}
	.st12{fill:none;stroke:#CDCDCD;stroke-width:0.6194;stroke-miterlimit:10;}
	.st13{clip-path:url(#SVGID_00000158723928474839453280000005412411614479704999_);fill:#FDD9BE;}
	.st14{fill:#31B45D;}
	.st15{fill:#83CA5E;}
	.st16{fill:#BF0D3E;}
	.st17{clip-path:url(#SVGID_00000049923605852464202070000005900417754476944535_);}
	.st18{fill:none;stroke:#CDCDCD;stroke-width:0.6709;stroke-miterlimit:10;}
	.st19{fill:#9B2743;}
	.st20{clip-path:url(#SVGID_00000108281323698381576610000005580145391459042188_);}
	.st21{fill:none;stroke:#CDCDCD;stroke-width:0.7774;stroke-miterlimit:10;}
	.st22{fill:#1B3562;}
	.st23{fill:#E9BD80;}
	.st24{fill:#31B45E;}
	.st25{fill:#2D130D;}
</style>
<g>
	<circle class="st0" cx="95.5" cy="90" r="90"/>
	<line class="st1" x1="146" y1="57.4" x2="151" y2="57.4"/>
	<line class="st1" x1="152.1" y1="61.4" x2="152.1" y2="64.8"/>
	<g>
		<g>
			<path class="st2" d="M135.5,54.2c3.7-1.7,21.7-12.4,21.9-22.1c0,0,7.9,8.8,2.2,19.5c-4.2,7.8-23.4,20.2-26.3,17.6
				C130.4,66.7,135.5,54.2,135.5,54.2"/>
			<path class="st2" d="M147.7,55l21.5-5c0,0,1.9,12.4-6.5,26.9c-8.4,14.5-25-5-25-5L147.7,55L147.7,55"/>
		</g>
		<line class="st1" x1="164" y1="56" x2="149.5" y2="69.3"/>
		<polyline class="st1" points="156.8,57.4 156.8,62.5 162,62.2 		"/>
		<path class="st1" d="M156.8,43.9c-0.8,1.6-3.8,8.5-14,16.1"/>
		<polyline class="st1" points="151,48.5 151,52.6 155.5,50.5 		"/>
	</g>
	<g>
		<path class="st2" d="M20.3,66.8c0,0,6.7,28.5,37.5,28.5c6.6,0,11.6-8.9,6-14.4C56.3,73.4,54.6,66.8,20.3,66.8z"/>
		<line class="st1" x1="28.1" y1="72.5" x2="51.1" y2="86.8"/>
		<polyline class="st1" points="34.9,71.4 34.9,76.7 29.3,79 		"/>
		<polyline class="st1" points="33.9,83.2 39.3,80.8 39.3,74.7 		"/>
		<g>
			<path class="st2" d="M33.6,39.6c0,0,28.9,4.5,31.3,35.2c0.5,6.6-7.9,12.2-13.9,7.1C43,74.9,36.3,73.8,33.6,39.6z"/>
			<line class="st1" x1="41.8" y1="48.8" x2="55.1" y2="68"/>
			<polyline class="st1" points="48.7,50.8 48,57.1 40.3,56.6 			"/>
			<polyline class="st1" points="54.2,57.9 52.8,64.5 43.9,64.3 			"/>
		</g>
	</g>
	<g>
		<path class="st3" d="M99.1,16v5.3c0,0.4,0.3,0.8,0.7,0.9l6.3,0.9c0.7,0.1,1.3-0.6,0.9-1.4l-0.5-1c-0.2-0.3-0.1-0.7,0.1-0.9
			l0.9-1.3c0.4-0.5,0.1-1.3-0.5-1.5l-6.9-1.9C99.6,14.9,99.1,15.3,99.1,16z"/>
		<line class="st4" x1="99" y1="35.9" x2="99" y2="15.5"/>
	</g>
	<g>
		<path class="st5" d="M148.6,38.1V36H62.9c-1.9,0-3.4,6.5-3.4,14.3c0,7.9,1.6,14.3,3.4,14.3h85.7v-2.1h-1.5V38.1H148.6z"/>
		<path class="st6" d="M115.2,38.1c-1.6,0-2.9,5.4-2.9,12.2s1.3,12.2,2.9,12.2h32.4V38.1H115.2z"/>
		<g>
			<g>
				<g>
					<g>
						<defs>
							<path id="SVGID_1_" d="M115.2,38.1c-1.6,0-2.9,5.4-2.9,12.2s1.3,12.2,2.9,12.2h32.4V38.1H115.2z"/>
						</defs>
						<clipPath id="SVGID_00000173161824754657715880000003036526748856148406_">
							<use xlink:href="#SVGID_1_"  style="overflow:visible;"/>
						</clipPath>
						<g style="clip-path:url(#SVGID_00000173161824754657715880000003036526748856148406_);">
							<line class="st8" x1="147.8" y1="39.7" x2="110.6" y2="39.7"/>
							<line class="st8" x1="147.8" y1="41.7" x2="110.6" y2="41.7"/>
							<line class="st8" x1="147.8" y1="43.6" x2="110.6" y2="43.6"/>
							<line class="st8" x1="147.8" y1="45.6" x2="110.6" y2="45.6"/>
							<line class="st8" x1="147.8" y1="47.5" x2="110.6" y2="47.5"/>
							<line class="st8" x1="147.8" y1="49.5" x2="110.6" y2="49.5"/>
							<line class="st8" x1="147.8" y1="51.5" x2="110.6" y2="51.5"/>
							<line class="st8" x1="147.8" y1="53.5" x2="110.6" y2="53.5"/>
							<line class="st8" x1="147.8" y1="55.4" x2="110.6" y2="55.4"/>
							<line class="st8" x1="147.8" y1="57.4" x2="110.6" y2="57.4"/>
							<line class="st8" x1="147.8" y1="59.4" x2="110.6" y2="59.4"/>
							<line class="st8" x1="147.8" y1="61.4" x2="110.6" y2="61.4"/>
						</g>
					</g>
				</g>
			</g>
		</g>
	</g>
	<g>
		<path class="st9" d="M167.6,66.4v-1.8H44.5c-1.9,0-3.4,5.2-3.4,11.8c0,6.6,1.6,11.8,3.4,11.8h123.1v-1.8h-22.3v-20H167.6z"/>
		<path class="st6" d="M107.4,66.4c-1.6,0-2.9,4.5-2.9,10c0,5.4,1.3,10,2.9,10H166v-20H107.4z"/>
		<path class="st10" d="M107.4,66.4c-1.6,0-2.9,4.5-2.9,10.1s1.3,10.1,2.9,10.1"/>
		<g>
			<g>
				<g>
					<g>
						<defs>
							<path id="SVGID_00000134235245145645081120000015910803403297148309_" d="M107.4,66.4c-1.6,0-2.9,4.5-2.9,10
								c0,5.4,1.3,10,2.9,10H166v-20H107.4z"/>
						</defs>
						<clipPath id="SVGID_00000156565778164138426960000006700804670402284209_">
							<use xlink:href="#SVGID_00000134235245145645081120000015910803403297148309_"  style="overflow:visible;"/>
						</clipPath>
						<g style="clip-path:url(#SVGID_00000156565778164138426960000006700804670402284209_);">
							<line class="st12" x1="166.1" y1="67.7" x2="102.8" y2="67.7"/>
							<line class="st12" x1="166.1" y1="69.3" x2="102.8" y2="69.3"/>
							<line class="st12" x1="166.1" y1="70.9" x2="102.8" y2="70.9"/>
							<line class="st12" x1="166.1" y1="72.5" x2="102.8" y2="72.5"/>
							<line class="st12" x1="166.1" y1="74.1" x2="102.8" y2="74.1"/>
							<line class="st12" x1="166.1" y1="75.8" x2="102.8" y2="75.8"/>
							<line class="st12" x1="166.1" y1="77.4" x2="102.8" y2="77.4"/>
							<line class="st12" x1="166.1" y1="79" x2="102.8" y2="79"/>
							<line class="st12" x1="166.1" y1="80.6" x2="102.8" y2="80.6"/>
							<line class="st12" x1="166.1" y1="82.2" x2="102.8" y2="82.2"/>
							<line class="st12" x1="166.1" y1="83.7" x2="102.8" y2="83.7"/>
							<line class="st12" x1="166.1" y1="85.4" x2="102.8" y2="85.4"/>
						</g>
					</g>
				</g>
			</g>
		</g>
	</g>
	<g>
		<g>
			<g>
				<g>
					<defs>
						<circle id="SVGID_00000154405580253771826900000005876408135516539028_" cx="95.5" cy="90" r="90"/>
					</defs>
					<clipPath id="SVGID_00000127019470271936023100000006090745421844404870_">
						<use xlink:href="#SVGID_00000154405580253771826900000005876408135516539028_"  style="overflow:visible;"/>
					</clipPath>
					<path style="clip-path:url(#SVGID_00000127019470271936023100000006090745421844404870_);fill:#FDD9BE;" d="M173.6,132.2
						c-0.4,7.8-6.3,34.5-10.8,46.3c-5.1,13.2-25.4,7.2-37,6.2c-11.6-1.1-39.3-2.9-54.7,0.4c-8.7,1.9-32.5-2-42.4-6.6
						c-19.4-9-15.9-36.4-16.8-46.6L173.6,132.2z"/>
				</g>
			</g>
		</g>
	</g>
	<g>
		<g>
			<path class="st14" d="M0.6,118.2c-0.8,2,0.2,4.6,1.6,6s2.6,2.2,3.2,2.4c1.3,0.4,2,0.5,2.6,1.1c1.4,1.3,0.7,3.3,0.7,4.5
				c0,1,0.2,2,0.7,2.9c0.6,1.1,2.1,2.4,4.5,2.3c2.7-0.1,3.2-0.6,4.1-0.4c0.9,0.2,2.3,0.9,1.4,2.6c-0.9,1.7-1.4,3.2-0.7,4.6
				c0.6,1.4,4,2,4,2l26.9,0.2l-9.2-23l-16.8-3.3c0,0-2.4,3-5.3,3.2c-1.3,0.1-1.7-2.5-3.4-4.6c-0.5-0.5-2.3-2.1-3.9-1.1
				c-1.7,0.9-4.3,2.7-5.8,2.3s-2.3-2.6-3.1-2.4C1.1,117.7,0.6,118.2,0.6,118.2z"/>
			<path class="st6" d="M30.2,133.9c-7.2-0.5-25.8-11.8-29.3-15.3c-0.1-0.1-0.2-0.1-0.2-0.1l0.1-0.2c0,0,0.1,0,0.3,0.2
				c3.5,3.5,22,14.7,29.2,15.2L30.2,133.9z"/>
			<path class="st6" d="M4.9,123.5c-1,0.6-2.6,0.8-2.7,0.8v-0.2c0,0,2.8-0.4,3.3-1.4c0.5-1-0.4-2.8-0.4-2.8l0.2-0.1
				c0,0.1,0.9,2,0.4,3C5.5,123.1,5.3,123.3,4.9,123.5z"/>
			<path class="st6" d="M7.4,126.1c-0.9,0.5-1.9,0.5-1.9,0.5v-0.2c0,0,2.1-0.1,3-1.8s0.1-5.8,0.1-5.8h0.2c0,0.2,0.8,4.3-0.2,6.1
				C8.4,125.5,7.8,125.9,7.4,126.1z"/>
			<path class="st6" d="M12.1,133.1c-1.6,0.9-2.8,1.4-2.9,1.4l-0.1-0.2c0,0,5-1.9,7-5c1.9-3-1.3-10.5-1.4-10.6l0.2-0.1
				c0,0,0.8,2,1.4,4.2c0.7,3.1,0.7,5.3-0.1,6.7C15.3,131,13.6,132.3,12.1,133.1z"/>
			<path class="st6" d="M28.5,133.4l-0.2,0.1c0-0.1-2.9-9.7-5.6-12.4l0.2-0.2C25.6,123.6,28.4,133,28.5,133.4z"/>
			<path class="st6" d="M24.8,132.3l-0.2,0.1c0,0-1.5-5-4.3-9.7l0.2-0.1C23.4,127.2,24.8,132.2,24.8,132.3z"/>
			<path class="st6" d="M24.2,143.2c-1.5,0.8-2.9,1.5-4.6,1.8v-0.2c8.1-1.7,14.2-11.3,14.3-11.4l0.2,0.1
				C33.9,133.6,30,139.9,24.2,143.2z"/>
		</g>
		<g>
			<path class="st15" d="M5.4,90.6C4,95.5,8.6,98.9,10,99.9c1.4,1,3.4,3.8,3.3,5.2c-0.4,3.7-1.1,6.1-1.6,9.6c-0.3,2.4,0,4.5,1,6.4
				c1,1.9,2.1,2.3,3.1,3.1c0.6,0.5,2,1.1,3.7,1.7s3.3,0.7,5.1,2c1.6,1.1,2.2,2.6,1.8,3.7c-0.4,1.3-1.1,2.4-1.7,3.1
				c-0.7,1-1.4,3.3-0.7,4.4c1.8,3,2.8,2.8,5.4,3.7c2.2,0.6,3.3,0.5,4.6,0.7l14.4-8.4c0,0,2.8-7.2,3.1-10.4c0.4-5-0.1-8.5-1-10.8
				c-0.9-2.3-5-4-7.9-4.8c-1.9-0.5-7.5-1-9.5-1.5c-1.3-0.3-3.8-1.6-4-3.5c-0.1-0.7,0.6-4.8-0.1-6.1c-0.7-1.3-1.5-3.2-4.2-3.7
				c-2-0.3-6,0.1-9.4,0c-1.1,0-2-0.7-2.8-1.8S9.5,88.3,7.4,89C6.2,89.3,5.4,90.6,5.4,90.6z"/>
			<path class="st6" d="M45.1,137.2l-0.2,0.1c-2.5-4.4-12.4-19.9-21.3-30.2C14.3,96.3,6.1,90,6,89.9l0.1-0.2
				c0.1,0.1,8.5,6.4,17.7,17.1C32.7,117.3,42.7,132.7,45.1,137.2z"/>
			<path class="st6" d="M16.5,102.6c-1.5,0.8-2.8,1-3.7,1v-0.2c1.1,0,3.4-0.4,5.4-2.5c1.7-1.7,1.6-6.5,1.6-6.6H20
				c0,0.2,0.1,4.9-1.7,6.7C17.9,101.8,17.1,102.3,16.5,102.6z"/>
			<path class="st6" d="M18,104.4c-1.6,0.9-3.4,1.1-4.8,0.9v-0.2c1.8,0.3,4.5-0.2,6.1-2.1c2.2-2.5,2-8.5,2-8.6h0.2
				c0,0.2,0.2,6.2-2,8.8C19.1,103.7,18.6,104.1,18,104.4z"/>
			<path class="st6" d="M22.6,105.6l-0.2-0.1c0,0,1.7-5.2,0.7-11.1h0.2C24.2,100.2,22.6,105.5,22.6,105.6z"/>
			<path class="st6" d="M28.5,112.8l-0.2-0.1c0,0,1.4-3.9,1.4-7h0.2C29.9,108.9,28.5,112.7,28.5,112.8z"/>
			<path class="st6" d="M28.9,116.9c-3.3,2-14.2,3-17,2.6v-0.2c3.4,0.5,15.5-0.9,17.5-3c2.1-2.1,2.6-8.8,2.6-8.9h0.2
				c0,0.3-0.5,6.9-2.6,9.1C29.4,116.6,29.2,116.8,28.9,116.9z"/>
			<path class="st6" d="M32.7,118.5c-10,5.2-19.7,3.2-19.8,3.2v-0.2c0.1,0,9.7,2,19.6-3.1L32.7,118.5z"/>
			<path class="st6" d="M40.2,129.5l-0.2-0.1c0-0.1,5-11.1,2.5-20l0.2-0.1C45.3,118.3,40.3,129.3,40.2,129.5z"/>
			<path class="st6" d="M38,133.6c-6.3,3.7-14.1,4-14.2,4v-0.2c0.1,0,8.9-0.4,15.3-4.7c6.2-4.2,6.4-14.8,6-22.4h0.2
				c0.4,7.7,0.1,18.5-6.1,22.7C38.8,133.1,38.4,133.4,38,133.6z"/>
		</g>
	</g>
	<g>
		<g>
			<path class="st15" d="M189.3,79.8c1.7,1,2.2,3.5,1.9,5.3s-0.8,2.9-1.3,3.4c-0.7,0.9-1.3,1.5-1.4,2.2c-0.3,1.7,1.1,2.9,1.8,3.8
				c0.6,0.8,0.8,1.6,0.9,2.5c0.1,1.1-0.4,2.8-2.2,4c-2.1,1.4-2.7,1.1-3.2,1.8c-0.5,0.6-1.3,1.9,0.3,2.6c1.6,0.7,2.6,1.7,2.9,3
				c0.2,1.4-3.8,6.8-3.8,6.8l-17.7,0.8l-5.2-12l10.8-11.1c0,0,3.3,1,5.6-0.3c0.9-0.6-0.1-2.7,0.2-5.1c0.1-0.6,0.6-2.7,2.3-2.8
				c1.7-0.1,4.6-0.2,5.5-1.4c0.9-1.1,0.4-3.1,1.1-3.3C188.6,79.7,189.3,79.8,189.3,79.8z"/>
			<path class="st6" d="M175.3,106.6c5.1-4.1,13.2-21.9,14-26.5c0-0.1,0.1-0.2,0.1-0.2l-0.2-0.1c0,0-0.1,0.1-0.1,0.3
				c-0.8,4.5-8.9,22.2-14,26.3L175.3,106.6z"/>
			<path class="st6" d="M188.8,85.9c1-0.1,2.4-0.7,2.5-0.7l-0.1-0.2c0,0-2.3,1.1-3.1,0.6s-1.1-2.3-1.1-2.3h-0.2c0,0.1,0.3,2,1.3,2.5
				C188.1,85.9,188.5,86,188.8,85.9z"/>
			<path class="st6" d="M188.4,89.2c0.9-0.1,1.7-0.5,1.8-0.5l-0.1-0.2c0,0-1.6,1-3.1,0.2c-1.6-0.7-3.1-4.3-3.1-4.3l-0.2,0.1
				c0.1,0.1,1.6,3.7,3.2,4.4C187.3,89.2,187.8,89.3,188.4,89.2z"/>
			<path class="st6" d="M188.4,96.8c1.6-0.1,2.8-0.4,2.8-0.4l-0.1-0.2c0,0-4.8,1.1-7.7-0.1c-3-1.3-4.5-8.6-4.5-8.6h-0.2
				c0,0,0.4,1.9,1.1,3.9c1,2.7,2.2,4.4,3.4,4.9C184.9,96.9,186.8,97,188.4,96.8z"/>
			<path class="st6" d="M176.2,105.5l0.2-0.1c0-0.1-2.8-8.8-2.2-12.1H174C173.4,96.6,176.1,105,176.2,105.5z"/>
			<path class="st6" d="M178.4,102.7l0.2-0.1c0,0-1.5-4.5-1.8-9.4h-0.2C176.9,98.2,178.3,102.6,178.4,102.7z"/>
			<path class="st6" d="M184.6,110.6c1.5-0.1,2.9-0.4,4.4-1l-0.1-0.2c-6.9,2.9-16.4-1.1-16.5-1.1l-0.1,0.2
				C172.4,108.4,178.5,111.1,184.6,110.6z"/>
		</g>
		<g>
			<path class="st14" d="M197.6,105.2c0.4,4.6-4.3,6.7-5.7,7.4c-1.5,0.7-3.8,2.7-3.9,4.1c-0.3,3.3-0.1,5.5-0.3,8.8
				c-0.1,2.2-0.7,4-2,5.4s-2.3,1.7-3.3,2.2c-0.6,0.3-2,0.6-3.5,0.8c-1.6,0.2-3.1,0.1-4.9,0.8c-1.7,0.7-2.4,1.9-2.3,2.9
				c0.1,1.1,0.6,2.3,0.9,3.1c0.5,1.1,0.6,3.2-0.1,4.1c-2.1,2.4-3,2-5.5,2.3c-2,0.2-3-0.1-4.2-0.1l-11.3-9.9c0,0-1.3-6.9-0.8-9.8
				c0.5-4.6,1.7-7.5,2.8-9.3c1.1-1.9,5.1-2.6,7.8-2.8c1.7-0.1,6.9,0.4,8.7,0.3c1.3-0.1,3.5-0.7,4.2-2.5c0.2-0.6,0.3-4.4,1.1-5.3
				c0.8-1,1.9-2.6,4.4-2.5c1.8,0.1,5.2,1.1,8.4,1.7c1,0.2,1.9-0.3,2.8-1.1c0.9-0.8,3.7-3.2,5.4-2.3
				C197.2,103.9,197.6,105.2,197.6,105.2z"/>
			<path class="st6" d="M154.1,139.4l0.2,0.1c2.9-3.4,14.5-15.5,24.2-23c10.1-7.9,18.7-12,18.8-12l-0.1-0.2
				c-0.1,0-8.7,4.2-18.8,12.1C168.6,123.9,157,135.8,154.1,139.4z"/>
			<path class="st6" d="M185.5,113.9c1.1,1,2.3,1.5,3,1.6l0.1-0.2c-1-0.2-2.9-1-4.3-3.1c-1.1-1.8-0.2-6.1-0.2-6.1H184
				c0,0.2-0.9,4.4,0.3,6.3C184.6,112.9,185.1,113.5,185.5,113.9z"/>
			<path class="st6" d="M184,115.2c1.3,1,2.8,1.7,4.1,1.7v-0.2c-1.6,0-4-1-5-2.9c-1.5-2.6-0.2-7.9-0.2-7.9l-0.2-0.1
				c-0.1,0.2-1.4,5.4,0.2,8.1C183.1,114.3,183.6,114.7,184,115.2z"/>
			<path class="st6" d="M179.8,115.4h0.2c0,0-0.5-5,1.4-9.9l-0.2-0.1C179.2,110.4,179.7,115.4,179.8,115.4z"/>
			<path class="st6" d="M173.2,120.7h0.2c0,0-0.5-3.7,0-6.5h-0.2C172.7,117,173.2,120.6,173.2,120.7z"/>
			<path class="st6" d="M172.1,124.4c2.6,2.3,12.1,5.2,14.6,5.3v-0.2c-3.1-0.2-13.6-3.5-14.9-5.8c-1.5-2.3-0.7-8.2-0.7-8.4h-0.2
				c0,0.2-0.7,6.2,0.7,8.5C171.6,123.9,171.9,124.1,172.1,124.4z"/>
			<path class="st6" d="M168.4,125.1c8,6.5,16.9,6.4,17,6.4v-0.2c-0.1,0-9,0.1-16.9-6.3L168.4,125.1z"/>
			<path class="st6" d="M159.8,133.4h0.2c0-0.1-2.5-10.6,1.4-18.2l-0.2-0.1C157.2,122.6,159.7,133.3,159.8,133.4z"/>
			<path class="st6" d="M161.1,137.5c4.9,4.4,11.8,6.1,11.9,6.1v-0.2c-0.1,0-7.8-1.9-12.7-6.9c-4.7-4.8-3-14.3-1.4-21l-0.2-0.1
				c-1.7,6.8-3.4,16.4,1.4,21.2C160.4,137,160.7,137.3,161.1,137.5z"/>
		</g>
	</g>
	<g>
		<path class="st16" d="M172.3,90v-1.9H39.4c-2,0-3.7,5.7-3.7,12.7c0,7,1.7,12.7,3.7,12.7h132.8v-1.9h-1.7V90H172.3z"/>
		<path class="st6" d="M115.4,90c-1.8,0-3.1,4.8-3.1,10.9c0,6.1,1.4,10.9,3.1,10.9h55.2V90H115.4z"/>
		<line class="st10" x1="170.6" y1="111.7" x2="170.6" y2="90"/>
		<path class="st10" d="M115.4,90c-1.8,0-3.1,4.8-3.1,10.9c0,6.1,1.4,10.9,3.1,10.9"/>
		<g>
			<g>
				<g>
					<g>
						<defs>
							<path id="SVGID_00000114051984108970236310000009768946508144475571_" d="M115.4,90c-1.8,0-3.1,4.8-3.1,10.9
								c0,6.1,1.4,10.9,3.1,10.9h55.2V90H115.4z"/>
						</defs>
						<clipPath id="SVGID_00000029725074671189186890000002943846560703592578_">
							<use xlink:href="#SVGID_00000114051984108970236310000009768946508144475571_"  style="overflow:visible;"/>
						</clipPath>
						<g style="clip-path:url(#SVGID_00000029725074671189186890000002943846560703592578_);">
							<line class="st18" x1="170.6" y1="91.4" x2="102.4" y2="91.4"/>
							<line class="st18" x1="170.6" y1="93.1" x2="102.4" y2="93.1"/>
							<line class="st18" x1="170.6" y1="94.9" x2="102.4" y2="94.9"/>
							<line class="st18" x1="170.6" y1="96.7" x2="102.4" y2="96.7"/>
							<line class="st18" x1="170.6" y1="98.4" x2="102.4" y2="98.4"/>
							<line class="st18" x1="170.6" y1="100.1" x2="102.4" y2="100.1"/>
							<line class="st18" x1="170.6" y1="101.9" x2="102.4" y2="101.9"/>
							<line class="st18" x1="170.6" y1="103.7" x2="102.4" y2="103.7"/>
							<line class="st18" x1="170.6" y1="105.5" x2="102.4" y2="105.5"/>
							<line class="st18" x1="170.6" y1="107.1" x2="102.4" y2="107.1"/>
							<line class="st18" x1="170.6" y1="108.9" x2="102.4" y2="108.9"/>
							<line class="st18" x1="170.6" y1="110.7" x2="102.4" y2="110.7"/>
						</g>
					</g>
				</g>
			</g>
		</g>
	</g>
	<g>
		<path class="st19" d="M167.6,116v-2.5h-134c-2.1,0-3.8,7.6-3.8,16.9c0,9.4,1.7,16.9,3.8,16.9h134v-2.5h-1.7V116H167.6z"/>
		<path class="st6" d="M102.2,116c-1.8,0-3.1,6.5-3.1,14.4s1.5,14.4,3.1,14.4H166V116H102.2z"/>
		<line class="st10" x1="165.9" y1="144.9" x2="165.9" y2="116"/>
		<path class="st10" d="M102.2,116c-1.8,0-3.1,6.5-3.1,14.4s1.5,14.4,3.1,14.4"/>
		<g>
			<g>
				<g>
					<g>
						<defs>
							<path id="SVGID_00000178924186458948614090000008655732279216741255_" d="M102.2,116c-1.8,0-3.1,6.5-3.1,14.4
								s1.5,14.4,3.1,14.4H166V116H102.2z"/>
						</defs>
						<clipPath id="SVGID_00000079457661805126008840000006913588181828978595_">
							<use xlink:href="#SVGID_00000178924186458948614090000008655732279216741255_"  style="overflow:visible;"/>
						</clipPath>
						<g style="clip-path:url(#SVGID_00000079457661805126008840000006913588181828978595_);">
							<line class="st21" x1="165.9" y1="117.9" x2="97.1" y2="117.9"/>
							<line class="st21" x1="165.9" y1="120.2" x2="97.1" y2="120.2"/>
							<line class="st21" x1="165.9" y1="122.6" x2="97.1" y2="122.6"/>
							<line class="st21" x1="165.9" y1="124.9" x2="97.1" y2="124.9"/>
							<line class="st21" x1="165.9" y1="127.3" x2="97.1" y2="127.3"/>
							<line class="st21" x1="165.9" y1="129.6" x2="97.1" y2="129.6"/>
							<line class="st21" x1="165.9" y1="131.9" x2="97.1" y2="131.9"/>
							<line class="st21" x1="165.9" y1="134.3" x2="97.1" y2="134.3"/>
							<line class="st21" x1="165.9" y1="136.6" x2="97.1" y2="136.6"/>
							<line class="st21" x1="165.9" y1="138.9" x2="97.1" y2="138.9"/>
							<line class="st21" x1="165.9" y1="141.3" x2="97.1" y2="141.3"/>
							<line class="st21" x1="165.9" y1="143.6" x2="97.1" y2="143.6"/>
						</g>
					</g>
				</g>
			</g>
		</g>
	</g>
	<path d="M62.7,120.2c-4.5,0-8,2.8-8,6.4v20.9h16.2v-20.9C70.8,123.1,67.2,120.2,62.7,120.2z"/>
	<g>
		<path class="st22" d="M38.4,151.9c-0.1,1.6,0.6,12.2,0.6,13.4s0.1,1.4,0.6,1.6c0.7,0.2,2.1-0.8,2.4-1.4c0.4-0.6,0.6-1.4,0-1.4
			c-0.6,0-1.7,0.9-1.7,0.9l0.4-13.2L38.4,151.9L38.4,151.9z"/>
		<path class="st22" d="M42.8,151.9c-0.1,1.6,0.6,12.2,0.6,13.4s0.1,1.4,0.6,1.6c0.7,0.2,2.1-0.8,2.4-1.4c0.4-0.6,0.6-1.4,0-1.4
			c-0.6,0-1.7,0.9-1.7,0.9l0.4-13.2L42.8,151.9L42.8,151.9z"/>
		<path class="st23" d="M42.4,129c0.7,0.1,1,0.9,1.3,1.4c0.2,0.4,0.6,1.4,0.7,1.6s0.1,0.3,0.1,0.4c-0.1,0.1-0.5,0.3-0.5,0.3
			s0,1.6-0.1,1.8c-0.2,0.3-0.9,0.8-1.3,0.8c-0.3,0-2.4-1.5-2.4-1.5l0.7-2.8L42.4,129z"/>
		<circle class="st22" cx="43" cy="131.6" r="0.2"/>
		<path class="st23" d="M33.4,150.5c0,0-1.1,1.7-0.8,1.6c0.3-0.1,0.4-0.3,0.4-0.3s-0.1,1,0,1.3c0.1,0.2,0.9,0.5,0.9,0.2
			s0.5-2.2,0.5-2.2L33.4,150.5z"/>
		<path class="st24" d="M36,138l-2.5,12.7l0.7,0.4l2.2-4.9c0,0,0.1,7.6,0.4,8.4c0.3,0.7,4,0.8,4.7,0.8c0.7,0,3.9-0.3,4.4-0.8
			c0.5-0.5-0.5-9.5-0.5-9.5l2.2,5.8l1-0.5c0,0-3.1-10.1-3.3-11.5c-0.6-3.3-2.8-3.3-2.8-3.3L36,138z"/>
		<path class="st23" d="M48.7,150.5c0,0,1.1,1.7,0.8,1.6s-0.4-0.3-0.4-0.3s0.1,1,0,1.3c-0.1,0.2-0.9,0.5-0.9,0.2s-0.5-2.2-0.5-2.2
			L48.7,150.5z"/>
		<path class="st25" d="M43.4,129.7c0.3-0.3,0.4-0.4,0.3-0.8c-0.1-0.4-0.3-0.6-0.9-0.8c-0.6-0.2-2.4-0.3-3.2,0s-2.2,0.6-2.7,1.4
			c-0.4,0.5-0.4,1.5-0.1,1.7c0.3,0.3,0.4,0.4,0.4,0.7c0,0.3-0.4,0.6-0.8,0.8c-0.4,0.2-1.8,1.3-1.5,1.9c0.3,0.7,0.9,1,0.9,1
			s-1.5,0.7-1.8,1.6c-0.3,0.8-0.2,1.4-0.2,1.7s0.8,1.5,2.1,1.7c1.3,0.3,3.3,0.4,4.3-0.3c1-0.9,2.1-1.6,3-1.9
			c1.3-0.4,0.4-2.4,0.1-2.7c-0.4-0.4-0.9-0.9-1.9-1.3c-0.5-0.2-0.7-0.9-0.7-1.4c0-0.4,0.7-1.1,1.1-1.7
			C42.3,130.7,43.4,129.7,43.4,129.7z"/>
	</g>
</g>
</svg>
