<?xml version="1.0" encoding="utf-8"?>
<!-- Generator: Adobe Illustrator 26.0.2, SVG Export Plug-In . SVG Version: 6.00 Build 0)  -->
<svg version="1.1" id="Layer_1" xmlns="http://www.w3.org/2000/svg" xmlns:xlink="http://www.w3.org/1999/xlink" x="0px" y="0px"
	 viewBox="0 0 198 180" style="enable-background:new 0 0 198 180;" xml:space="preserve">
<style type="text/css">
	.st0{fill:#CCF3FD;}
	.st1{fill:#E35205;}
	.st2{fill:#FFAE62;}
	.st3{fill:#5198D2;}
	.st4{clip-path:url(#SVGID_00000020366263846149153970000017690242813688818579_);}
	.st5{fill:#9B9B9B;}
	.st6{clip-path:url(#SVGID_00000011723231873313793030000014097795223091465625_);}
	.st7{clip-path:url(#SVGID_00000163044926908454661130000005166463510639039388_);}
	.st8{fill:#D7B071;}
	.st9{clip-path:url(#SVGID_00000116935963242878315860000013661044151398109351_);}
	.st10{clip-path:url(#SVGID_00000052096796297900295900000004458278074592890046_);}
	.st11{clip-path:url(#SVGID_00000068646910030536870630000018065806948603334307_);}
	.st12{clip-path:url(#SVGID_00000047044224489796067260000004482517183755661224_);}
	.st13{clip-path:url(#SVGID_00000105390171022741230650000017228118417108429973_);}
	.st14{clip-path:url(#SVGID_00000039108545852649101600000012611532669748508545_);}
	.st15{clip-path:url(#SVGID_00000054239307048743693570000008261043223796106890_);}
	.st16{clip-path:url(#SVGID_00000163063399017111052520000014492164052049523114_);}
	.st17{clip-path:url(#SVGID_00000153698701189616034750000004956455106252079787_);}
	.st18{clip-path:url(#SVGID_00000109017013036502843240000010544940184590149530_);}
	.st19{clip-path:url(#SVGID_00000092435586068333488850000014694455184730807427_);}
	.st20{clip-path:url(#SVGID_00000136386140544799257920000001097892626862995102_);}
	.st21{clip-path:url(#SVGID_00000034796733519329172000000001728527800289311150_);}
	.st22{clip-path:url(#SVGID_00000073682470627013047850000004151584667439387783_);}
	.st23{clip-path:url(#SVGID_00000143603927906413754540000000604171674712946098_);}
	.st24{fill:#1B3562;}
	.st25{clip-path:url(#SVGID_00000182514778265695499810000009405844272949931196_);}
	.st26{clip-path:url(#SVGID_00000168806708471104830600000016558686515430538661_);}
	.st27{fill:#EA484A;}
	.st28{clip-path:url(#SVGID_00000179628193840606704880000014617739890059571861_);}
	.st29{clip-path:url(#SVGID_00000049903145010980932430000005660810638028273540_);}
	.st30{clip-path:url(#SVGID_00000005989592909191350500000002343745943594781111_);}
	.st31{clip-path:url(#SVGID_00000022561174260971514120000000687671702470234025_);}
	.st32{clip-path:url(#SVGID_00000138574677836906691220000016920047296904360374_);}
	.st33{clip-path:url(#SVGID_00000147212559680074646750000012106998309799503516_);}
	.st34{clip-path:url(#SVGID_00000138541724560203278260000009615728707931536017_);}
	.st35{fill:#F38788;}
	.st36{clip-path:url(#SVGID_00000051373407625433731550000013521074020636672411_);}
	.st37{clip-path:url(#SVGID_00000011012110802611932380000003963249947351157685_);}
	.st38{clip-path:url(#SVGID_00000141433923466623865720000014672618705044796830_);}
	.st39{clip-path:url(#SVGID_00000013913045100385164050000006260940254749220745_);}
	.st40{clip-path:url(#SVGID_00000160900432166617959520000005688731205869274511_);}
	.st41{clip-path:url(#SVGID_00000140015665768545852930000018186914105424259985_);}
	.st42{clip-path:url(#SVGID_00000155854529147344488570000018057805937259968916_);}
	.st43{clip-path:url(#SVGID_00000137839545779314628490000009025510058942047902_);}
	.st44{fill:#FFFFFF;}
	.st45{clip-path:url(#SVGID_00000103972743010301188750000005111568632016197786_);}
	.st46{clip-path:url(#SVGID_00000123399717635119385470000007667508020498098560_);}
	.st47{clip-path:url(#SVGID_00000053509960104772180390000015101139679705897912_);}
	.st48{fill:#2D130D;}
	.st49{fill:#FDE5D9;}
	.st50{fill:#630D1D;}
	.st51{fill:#542713;}
	.st52{fill:none;}
	.st53{fill:#FF6900;}
	.st54{fill:#31B45D;}
	.st55{fill:#1D8141;}
	.st56{fill:#F5D5A4;}
	.st57{fill:#D4ECEC;}
	.st58{fill:#F37C48;}
	.st59{fill:#3E3E3D;}
</style>
<g>
	<g>
		<circle class="st0" cx="99" cy="90" r="90"/>
	</g>
	<g>
		<g>
			<polyline class="st1" points="18.6,98 99,105.9 179.4,98 99,120.7 18.6,98 			"/>
		</g>
		<g>
			<polygon class="st2" points="71.4,115.8 96.8,71.7 123.3,115.8 			"/>
		</g>
		<g>
			<polyline class="st1" points="66.7,143.4 94.3,116.1 99,115.8 102.4,116 131.3,143.4 66.7,143.4 			"/>
		</g>
		<g>
			<path class="st3" d="M87.6,164H46c-0.9,0-1.7-0.7-1.7-1.7s0.7-1.7,1.7-1.7h41.6c0.9,0,1.7,0.7,1.7,1.7S88.5,164,87.6,164z"/>
		</g>
		<g>
			<g>
				<g>
					<g>
						<defs>
							<rect id="SVGID_1_" x="148.3" y="59.4" width="28.6" height="47.8"/>
						</defs>
						<clipPath id="SVGID_00000162316957754673824620000014146200135792622468_">
							<use xlink:href="#SVGID_1_"  style="overflow:visible;"/>
						</clipPath>
						<g style="clip-path:url(#SVGID_00000162316957754673824620000014146200135792622468_);">
							<path class="st5" d="M163.2,63.5L163.2,63.5L163.2,63.5C163.2,63.5,163.2,63.4,163.2,63.5c0-0.1,0-0.1,0-0.2l0,0l0,0l0,0l0,0
								v0.1l0,0C163.2,63.4,163.2,63.4,163.2,63.5L163.2,63.5L163.2,63.5L163.2,63.5z"/>
						</g>
					</g>
				</g>
			</g>
			<g>
				<g>
					<g>
						<defs>
							<rect id="SVGID_00000023959399280783231280000002214806826360740516_" x="148.3" y="59.4" width="28.6" height="47.8"/>
						</defs>
						<clipPath id="SVGID_00000025404268146511671570000018188648157000324285_">
							<use xlink:href="#SVGID_00000023959399280783231280000002214806826360740516_"  style="overflow:visible;"/>
						</clipPath>
						<g style="clip-path:url(#SVGID_00000025404268146511671570000018188648157000324285_);">
							<path class="st5" d="M163.4,63.6L163.4,63.6C163.4,63.5,163.4,63.5,163.4,63.6C163.4,63.5,163.4,63.5,163.4,63.6L163.4,63.6
								c0-0.2,0-0.2,0-0.3l0,0l0,0c0.1,0,0.1,0,0.2-0.1l0,0h0.1c0,0,0,0,0.1,0c0,0,0,0,0,0.1c0,0,0,0,0,0.1c0,0,0,0-0.1,0l0,0h-0.1
								h-0.1h-0.1C163.5,63.4,163.5,63.4,163.4,63.6C163.5,63.5,163.4,63.6,163.4,63.6L163.4,63.6z"/>
						</g>
					</g>
				</g>
			</g>
			<g>
				<g>
					<g>
						<defs>
							<rect id="SVGID_00000106149051156280458920000004287978435535328641_" x="148.3" y="59.4" width="28.6" height="47.8"/>
						</defs>
						<clipPath id="SVGID_00000106126673534951804230000011084334311463781510_">
							<use xlink:href="#SVGID_00000106149051156280458920000004287978435535328641_"  style="overflow:visible;"/>
						</clipPath>
						<g style="clip-path:url(#SVGID_00000106126673534951804230000011084334311463781510_);">
							<path class="st8" d="M169.8,64.1L169.8,64.1L169.8,64.1L169.8,64.1z M169.7,64.2L169.7,64.2l0.1-0.1h0.1c0.1,0,0.1,0,0.2,0
								l0,0l0,0c0.1,0,0.1,0,0.2,0l0,0c0,0,0,0,0,0.1c0,0,0,0,0,0.1l-0.1,0.1l0,0h-0.1c-0.1,0-0.1,0-0.2,0h-0.1
								C169.8,64.3,169.8,64.3,169.7,64.2C169.7,64.3,169.7,64.3,169.7,64.2z"/>
						</g>
					</g>
				</g>
			</g>
			<g>
				<g>
					<g>
						<defs>
							<rect id="SVGID_00000160890213170684641670000014581308965614805653_" x="148.3" y="59.4" width="28.6" height="47.8"/>
						</defs>
						<clipPath id="SVGID_00000137133939547521860790000010704363627192731520_">
							<use xlink:href="#SVGID_00000160890213170684641670000014581308965614805653_"  style="overflow:visible;"/>
						</clipPath>
						<g style="clip-path:url(#SVGID_00000137133939547521860790000010704363627192731520_);">
							<path class="st8" d="M169.6,64.1c-0.1,0-0.1,0-0.2,0h-0.1l0,0l0,0l0,0c0,0-0.1,0-0.1-0.1c0,0,0-0.1,0.1-0.1l0,0l0,0
								c0.1,0,0.1,0,0.2,0c0,0,0,0,0.1,0l0,0c0,0,0,0,0.1,0h0.1c0.1,0,0.2,0,0.3,0l0,0c0,0,0,0.1-0.1,0.1h-0.1
								C169.8,64.1,169.7,64.1,169.6,64.1z"/>
						</g>
					</g>
				</g>
			</g>
			<g>
				<g>
					<g>
						<defs>
							<rect id="SVGID_00000000203171353403095190000008404860890066175890_" x="148.3" y="59.4" width="28.6" height="47.8"/>
						</defs>
						<clipPath id="SVGID_00000164504220292269126030000008376435063412594095_">
							<use xlink:href="#SVGID_00000000203171353403095190000008404860890066175890_"  style="overflow:visible;"/>
						</clipPath>
						<g style="clip-path:url(#SVGID_00000164504220292269126030000008376435063412594095_);">
							<path class="st8" d="M165.2,67.5c-0.1-0.1-0.1-0.2-0.1-0.4V67c0-0.1,0.1-0.2,0.1-0.3c0.1-0.2,0.1-0.4,0.2-0.6
								c0.1-0.4,0.2-0.8,0.4-1.1c0.1-0.3,0.2-0.7,0.3-1c0.1-0.1,0.1-0.3,0.2-0.4c0.1-0.1,0.2-0.3,0.2-0.4c0.1-0.1,0.2-0.1,0.3-0.1
								s0.1,0.2,0.1,0.3c-0.1,0.1-0.1,0.2-0.2,0.3c-0.1,0.1-0.1,0.2-0.2,0.3c-0.1,0.2-0.1,0.3-0.2,0.5v0.1l0,0l0,0l0.1-0.1h0.1
								c0.2-0.3,0.4-0.6,0.6-1c0.2-0.3,0.3-0.6,0.4-0.9c0-0.1,0.1-0.2,0.1-0.3c0,0,0,0-0.1,0h-0.1c0.1,0,0.2,0,0.4,0l0,0l0,0l0,0
								c0,0,0,0,0.1,0c0,0,0,0,0,0.1s0,0.2,0,0.3s-0.1,0.2-0.1,0.4l0,0l0,0c0,0-0.1,0-0.1,0.1v0.1c0,0,0,0,0,0.1s-0.1,0.2-0.1,0.3
								l0,0c0,0.1,0,0.1-0.1,0.2c-0.2,0.4-0.4,0.7-0.6,1.1c-0.1,0.2-0.2,0.3-0.3,0.5c-0.1,0.1-0.1,0.2-0.2,0.3l-0.1,0.1
								c-0.1,0.1-0.1,0.2-0.3,0.2c0,0,0,0-0.1,0c-0.1,0.2-0.2,0.4-0.2,0.6c-0.1,0.1-0.1,0.3-0.2,0.4c0,0.1-0.1,0.2-0.1,0.3
								c0,0.1-0.1,0.2-0.2,0.3h-0.1C165.3,67.6,165.2,67.6,165.2,67.5z"/>
						</g>
					</g>
				</g>
			</g>
			<g>
				<g>
					<g>
						<defs>
							<rect id="SVGID_00000178899030453705268380000005775953875043142832_" x="148.3" y="59.4" width="28.6" height="47.8"/>
						</defs>
						<clipPath id="SVGID_00000183220426395370450590000002298364434996127932_">
							<use xlink:href="#SVGID_00000178899030453705268380000005775953875043142832_"  style="overflow:visible;"/>
						</clipPath>
						<g style="clip-path:url(#SVGID_00000183220426395370450590000002298364434996127932_);">
							<path class="st8" d="M168.1,64.9L168.1,64.9L168.1,64.9L168.1,64.9L168.1,64.9z M168.1,64.9L168.1,64.9L168.1,64.9
								L168.1,64.9z M168.1,64.9L168.1,64.9L168.1,64.9L168.1,64.9z"/>
						</g>
					</g>
				</g>
			</g>
			<g>
				<g>
					<g>
						<defs>
							<rect id="SVGID_00000101071051194638979480000012878686739335284668_" x="148.3" y="59.4" width="28.6" height="47.8"/>
						</defs>
						<clipPath id="SVGID_00000101812703936031307420000001751744429933302175_">
							<use xlink:href="#SVGID_00000101071051194638979480000012878686739335284668_"  style="overflow:visible;"/>
						</clipPath>
						<g style="clip-path:url(#SVGID_00000101812703936031307420000001751744429933302175_);">
							<path class="st8" d="M169,63l-0.3,0.8c0,0-0.1,0.2-0.1,0.3s0,0.2-0.1,0.4c-0.1,0.3-0.2,0.6-0.3,0.9s-0.2,0.6-0.4,0.9l0,0
								c-0.1,0.2-0.2,0.4-0.3,0.6c-0.1,0.1-0.2,0.3-0.2,0.4s-0.1,0.1-0.1,0.2s-0.1,0.1-0.1,0.2s-0.1,0.1-0.1,0.2s-0.1,0.1-0.1,0.2
								s0,0.1,0,0.2s0,0.1,0.1,0.2c0,0,0,0.1,0.1,0.1l0.1,0.1h0.1h0.1c0.1,0,0.1,0,0.2,0c0,0,0.1,0,0.1-0.1c0.1-0.1,0.2-0.1,0.2-0.2
								c0,0,0,0,0,0.1v0.1c0,0.1,0,0.1,0,0.2c0,0,0,0.1,0.1,0.1h0.1c0.1,0,0.1,0,0.2-0.1l0.1-0.1l0.1-0.1c0-0.1,0.1-0.2,0.1-0.3
								c0,0,0,0,0.1,0l0,0c0,0,0.1,0,0.1-0.1l0,0c0,0,0-0.1,0.1-0.1c0-0.1,0.1-0.1,0.1-0.2c0.1-0.1,0.2-0.3,0.3-0.4
								c0.1-0.2,0.3-0.5,0.4-0.7c0.1-0.1,0.2-0.3,0.2-0.4c0.1-0.2,0.2-0.3,0.2-0.5l0,0c0.1-0.2,0.2-0.4,0.3-0.6l0,0l0,0
								c0.1-0.1,0.2-0.2,0.3-0.3c0.1-0.1,0.2-0.2,0.3-0.3c0.1-0.1,0.2-0.2,0.3-0.3c0-0.1,0.1-0.1,0.1-0.2s0.1-0.1,0.1-0.2
								c0-0.1,0.1-0.3,0.1-0.3C171.3,63.6,169,63,169,63z M168.9,63.7L168.9,63.7L168.9,63.7L168.9,63.7z M170.9,63.7
								C170.9,63.7,170.9,63.6,170.9,63.7C170.9,63.6,170.9,63.6,170.9,63.7C170.9,63.6,170.9,63.6,170.9,63.7L170.9,63.7
								C170.9,63.6,170.9,63.6,170.9,63.7C170.9,63.6,170.9,63.6,170.9,63.7C170.9,63.6,170.9,63.6,170.9,63.7
								C170.9,63.6,170.9,63.6,170.9,63.7C170.9,63.6,170.9,63.6,170.9,63.7z"/>
						</g>
					</g>
				</g>
			</g>
			<g>
				<g>
					<g>
						<defs>
							<rect id="SVGID_00000153689797299238855820000008442740071175259015_" x="148.3" y="59.4" width="28.6" height="47.8"/>
						</defs>
						<clipPath id="SVGID_00000088118866441817738250000014823160434856122545_">
							<use xlink:href="#SVGID_00000153689797299238855820000008442740071175259015_"  style="overflow:visible;"/>
						</clipPath>
						<g style="clip-path:url(#SVGID_00000088118866441817738250000014823160434856122545_);">
							<path class="st8" d="M163.2,63.5h-0.1l0,0l0,0l0,0c0,0,0,0-0.1,0l0,0l0,0l0,0l0.1-0.1L163.2,63.5L163.2,63.5L163.2,63.5
								L163.2,63.5C163.2,63.4,163.2,63.4,163.2,63.5L163.2,63.5L163.2,63.5L163.2,63.5z"/>
						</g>
					</g>
				</g>
			</g>
			<g>
				<g>
					<g>
						<defs>
							<rect id="SVGID_00000183955766576192097050000005444486392860417925_" x="148.3" y="59.4" width="28.6" height="47.8"/>
						</defs>
						<clipPath id="SVGID_00000026862839234737347810000012741290687054793882_">
							<use xlink:href="#SVGID_00000183955766576192097050000005444486392860417925_"  style="overflow:visible;"/>
						</clipPath>
						<g style="clip-path:url(#SVGID_00000026862839234737347810000012741290687054793882_);">
							<path class="st8" d="M161,67.5L161,67.5c-0.1,0-0.1-0.1-0.1-0.2v-0.1l0,0l0,0c0,0,0,0,0-0.1c-0.1,0-0.2,0-0.3-0.1
								c0,0,0-0.1-0.1-0.1h-0.1h-0.1c-0.1,0-0.1-0.1-0.2-0.1l0,0c-0.1,0-0.1-0.1-0.2-0.1c0,0,0,0,0-0.1c-0.1,0-0.1,0-0.2,0
								c-0.1,0-0.2-0.1-0.2-0.2l0,0c0,0,0,0-0.1-0.1c0-0.1-0.1-0.1-0.1-0.2s-0.1-0.1-0.1-0.2s0-0.3,0.1-0.4s0.1-0.1,0.2-0.1l0,0
								c0.1-0.1,0.1-0.1,0.2-0.1c0.1,0,0.1,0.1,0.2,0.1l0,0h0.1l0.1,0.1c0,0,0.1,0.1,0.1,0.2c0,0,0,0.1,0.1,0.1c0,0,0,0,0.1,0
								c0,0,0.1,0,0.1,0.1l0,0l0,0c0,0,0,0,0.1,0h0.1c0.1,0,0.2,0,0.2,0.1c0,0,0.1,0,0.1-0.1c0.1,0,0.2-0.1,0.2,0c0,0,0.1,0,0.1,0.1
								l0,0c0-0.1,0.1-0.1,0.2-0.1c0.1,0,0.3,0,0.3,0.2v0.1l0,0l0,0l0,0c0,0,0,0.1-0.1,0.1c0,0.1-0.1,0.1-0.1,0.2
								c-0.1,0.1-0.1,0.2-0.2,0.3c0,0.1,0,0.1-0.1,0.2c0,0.1,0,0.2-0.1,0.3C161.2,67.4,161.1,67.5,161,67.5
								C161.1,67.6,161,67.6,161,67.5z"/>
						</g>
					</g>
				</g>
			</g>
			<g>
				<g>
					<g>
						<defs>
							<rect id="SVGID_00000007409250635450206620000011516472589984988842_" x="148.3" y="59.4" width="28.6" height="47.8"/>
						</defs>
						<clipPath id="SVGID_00000062164896705728309810000001183663180886062210_">
							<use xlink:href="#SVGID_00000007409250635450206620000011516472589984988842_"  style="overflow:visible;"/>
						</clipPath>
						<g style="clip-path:url(#SVGID_00000062164896705728309810000001183663180886062210_);">
							<path class="st8" d="M161.3,67.3C161.3,67.3,161.3,67.2,161.3,67.3C161.3,67.2,161.3,67.3,161.3,67.3z M161.7,67.8
								L161.7,67.8L161.7,67.8L161.7,67.8z M161.3,67.8L161.3,67.8L161.3,67.8c0-0.2,0-0.2,0-0.3s0-0.2,0-0.3c0-0.1,0-0.2,0-0.2
								c0-0.1,0.1-0.2,0.1-0.2c0-0.1,0.1-0.2,0.2-0.2l0.1-0.1c0,0,0.1,0,0.1-0.1c0.1,0,0.1,0,0.2,0c0.1,0,0.2,0,0.3,0.2l0,0l0,0v0.1
								l0,0l0,0c0,0,0,0-0.1,0c0,0-0.1,0-0.1,0.1c0,0,0,0-0.1,0.1l0,0c-0.1,0-0.1,0.1-0.1,0.2s-0.1,0.2-0.1,0.3c0,0,0,0,0,0.1
								c0,0,0,0,0,0.1v0.1l0,0v0.1c0,0,0,0.1-0.1,0.1c0,0.1-0.1,0.1-0.2,0.1C161.4,67.9,161.4,67.9,161.3,67.8z"/>
						</g>
					</g>
				</g>
			</g>
			<g>
				<g>
					<g>
						<defs>
							<rect id="SVGID_00000177485110203427391090000009251027872504793022_" x="148.3" y="59.4" width="28.6" height="47.8"/>
						</defs>
						<clipPath id="SVGID_00000104697473136591901800000013119380588816450195_">
							<use xlink:href="#SVGID_00000177485110203427391090000009251027872504793022_"  style="overflow:visible;"/>
						</clipPath>
						<g style="clip-path:url(#SVGID_00000104697473136591901800000013119380588816450195_);">
							<path class="st8" d="M158.8,65.6L158.8,65.6L158.8,65.6L158.8,65.6L158.8,65.6z M158.9,65.6L158.9,65.6L158.9,65.6
								L158.9,65.6L158.9,65.6z M158.7,65.9L158.7,65.9L158.7,65.9z M161.9,68.1L161.9,68.1L161.9,68.1z M159.6,68.4
								C159.6,68.4,159.5,68.4,159.6,68.4c-0.2-0.1-0.3-0.1-0.3-0.2l0,0c-0.1,0-0.1,0-0.2-0.1c0,0,0,0-0.1-0.1c0,0,0-0.1,0-0.2v-0.1
								h-0.1c-0.1,0-0.1,0-0.2-0.1l-0.1-0.1v-0.1c0,0,0,0,0-0.1s0-0.2,0-0.3c0,0,0,0,0-0.1l0,0c0-0.1,0-0.1,0-0.2s0-0.2,0-0.2
								c0-0.1,0-0.3,0-0.4s0-0.1,0-0.2s0-0.2,0.1-0.3l0,0v-0.1l0,0l0,0l0,0c0-0.1,0.1-0.1,0.1,0l0,0l0,0l0,0l0,0l0,0c0,0,0,0,0,0.1
								h0.1c0.1,0.1,0.1,0.2,0.1,0.3l0,0l0,0c0,0.1,0,0.1,0,0.2s0,0.2,0,0.4c0.1,0,0.2,0,0.2,0.1c0.1,0.1,0.1,0.1,0.1,0.2
								c0.1,0,0.1,0.1,0.2,0.2c0.1,0,0.1,0,0.2,0c0.1,0,0.1,0.1,0.1,0.2c0,0,0,0,0.1,0s0.1,0.1,0.2,0.1c0,0,0,0,0.1,0
								c0,0,0.1,0,0.1,0.1c0.1,0,0.2,0,0.2,0l0,0c0.1,0,0.1,0,0.2,0l0,0h0.1c0,0,0.1,0,0.1,0.1l0,0l0,0h0.1c0,0,0,0,0.1,0
								c0,0,0.1,0,0.1-0.1l0,0c0,0,0,0,0-0.1l0,0l0,0l0,0c0-0.1,0.1-0.2,0.2-0.3c0.1,0,0.2,0,0.3,0.1c0.1,0,0.1,0.1,0.2,0.1
								c0.1,0,0.1,0.1,0.2,0.2c0,0,0,0,0,0.1c0,0,0,0,0,0.1c0,0,0.1,0,0.1,0.1l0.1,0.1c0.1,0.1,0.1,0.1,0.1,0.2s0,0.1,0,0.2
								s0,0.1-0.1,0.1c-0.1,0.1-0.3,0.1-0.4,0.1c0,0-0.1,0-0.1-0.1l-0.1-0.1c0,0,0,0,0-0.1l0,0c0,0-0.1,0-0.1-0.1l0,0l-0.1,0.1l0,0
								l-0.1,0.1h-0.1h-0.1h-0.1l0,0H161c-0.1,0-0.1,0-0.2,0h-0.1l0,0c-0.1,0.1-0.2,0.2-0.3,0.2h-0.1c0,0-0.1,0-0.1,0.1h-0.1
								c-0.1,0-0.1,0-0.2,0l0,0l0,0C159.8,68.5,159.8,68.5,159.6,68.4C159.7,68.5,159.6,68.5,159.6,68.4z"/>
						</g>
					</g>
				</g>
			</g>
			<g>
				<g>
					<g>
						<defs>
							<rect id="SVGID_00000029765430035438284580000007002829341736949392_" x="148.3" y="59.4" width="28.6" height="47.8"/>
						</defs>
						<clipPath id="SVGID_00000148631723687738012870000010639162756748576191_">
							<use xlink:href="#SVGID_00000029765430035438284580000007002829341736949392_"  style="overflow:visible;"/>
						</clipPath>
						<g style="clip-path:url(#SVGID_00000148631723687738012870000010639162756748576191_);">
							<path class="st8" d="M164.8,64.1C164.8,64.1,164.8,64,164.8,64.1C164.8,64,164.8,64,164.8,64.1C164.8,64,164.7,64,164.8,64.1
								c-0.1-0.1-0.1-0.2-0.1-0.2l0,0l-0.1-0.1c0,0,0-0.1-0.1-0.1l0,0c0,0,0-0.1-0.1-0.1v-0.1v-0.1l0,0c0,0,0,0,0-0.1v-0.1
								c0-0.1,0-0.2,0.1-0.2c0-0.1,0-0.1,0.1-0.2c0,0,0,0,0-0.1s0.1-0.2,0.1-0.3v-0.1l0,0c0,0,0,0,0-0.1l0,0l0,0l0,0l0,0l0,0l0,0
								c0,0,0,0,0-0.1l0,0h-0.1l0,0V62h0.1l0,0c0,0,0,0,0,0.1c0,0,0,0,0,0.1c0,0,0,0,0-0.1s0-0.3,0-0.4c0-0.2-0.1-0.4-0.2-0.6
								c0-0.1-0.1-0.2-0.1-0.2c0-0.1-0.1-0.2-0.2-0.2c-0.1,0-0.2,0-0.3-0.1c-0.1,0-0.2,0-0.3,0h-0.1h-0.1c-0.1,0-0.2,0-0.3,0H163
								l0,0c-0.2,0-0.5,0-0.7,0h-0.1c-0.1,0-0.3,0-0.4,0c-0.1,0-0.1,0-0.2,0l0,0l0,0h-0.1h-0.1l0,0c0,0,0,0-0.1,0c0,0,0,0,0,0.1
								c0,0,0,0,0,0.1c-0.1,0-0.2,0-0.4,0c-0.1,0-0.1,0-0.2,0c-0.1,0-0.2,0.1-0.3,0.1l0,0c-0.2,0.1-0.3,0.2-0.5,0.3
								s-0.3,0.2-0.5,0.4c-0.3,0.3-0.5,0.6-0.7,1c-0.1,0.2-0.1,0.3-0.2,0.5c0,0.2-0.1,0.4-0.1,0.6c0,0.2,0,0.4,0.1,0.6
								c0,0.1,0,0.1,0,0.2v0.1v0.1c0,0.1,0,0.2,0,0.3l0,0c0,0.1,0,0.1,0,0.2v0.1c0,0.1,0,0.1,0,0.2l0,0c0,0.2,0,0.4,0,0.6
								s0,0.3,0.1,0.4c0,0.1,0,0.2,0.1,0.2c0,0.1,0.1,0.1,0.1,0.1l0,0c0.1,0,0.1,0.1,0.2,0.1c0,0,0.1,0,0.1,0.1
								c0.1,0.1,0.2,0.2,0.4,0.2c0.3,0.2,0.5,0.3,0.8,0.5c0.1,0.1,0.3,0.1,0.4,0.2c0.1,0,0.2,0.1,0.3,0.1l0,0l0,0h0.1l0,0h0.1
								c0.1,0,0.1-0.1,0.2-0.1c0.1,0,0.1-0.1,0.1-0.2s0-0.2,0-0.2l0,0l0,0c0,0,0,0,0-0.1c0,0,0,0,0-0.1c0,0,0,0,0-0.1v-0.1
								c0-0.2,0.1-0.3,0.1-0.4c0,0,0,0,0-0.1l0,0c0.1,0.1,0.3,0.1,0.4,0.1c0.1,0,0.2,0,0.3,0l0,0c0.1,0,0.1,0,0.2,0
								c0.1,0,0.1,0,0.2-0.1c0.2-0.1,0.4-0.3,0.5-0.5c0.1-0.1,0.1-0.3,0.2-0.4c0-0.1,0.1-0.2,0.1-0.3c0-0.1,0-0.1,0-0.2
								s0.1-0.3,0.1-0.4v-0.1l0,0c0.1,0,0.2,0,0.3-0.1c0.1,0,0.2-0.1,0.3-0.1c0,0,0.1,0,0.1-0.1c0,0,0.1-0.1,0.1-0.2
								C164.9,64.3,164.9,64.2,164.8,64.1z M164.6,64.4L164.6,64.4L164.6,64.4L164.6,64.4z M164.1,64.6L164.1,64.6L164.1,64.6
								L164.1,64.6L164.1,64.6z M164.7,64.2L164.7,64.2L164.7,64.2L164.7,64.2z M161.4,66.7c-0.1,0.2-0.1,0.3-0.1,0.5v0.1
								c-0.1,0-0.1-0.1-0.2-0.1c-0.3-0.1-0.6-0.3-1-0.6c-0.1-0.1-0.2-0.2-0.3-0.3l0,0l0,0l0,0l0,0l0,0l0,0c0-0.1-0.1-0.2-0.1-0.4
								c0-0.1,0-0.1,0-0.2c0,0,0,0,0.1,0.1l0,0l0,0l0,0l0,0c0.2,0.2,0.5,0.3,0.8,0.4c0.1,0.1,0.3,0.1,0.4,0.1c0.1,0,0.3,0.1,0.4,0.1
								c0.1,0,0.2,0,0.3,0l0,0C161.5,66.5,161.4,66.6,161.4,66.7z"/>
						</g>
					</g>
				</g>
			</g>
			<g>
				<g>
					<g>
						<defs>
							<rect id="SVGID_00000070104284363054474770000000840549422847051145_" x="148.3" y="59.4" width="28.6" height="47.8"/>
						</defs>
						<clipPath id="SVGID_00000155140489407837999200000014009962797956450990_">
							<use xlink:href="#SVGID_00000070104284363054474770000000840549422847051145_"  style="overflow:visible;"/>
						</clipPath>
						<g style="clip-path:url(#SVGID_00000155140489407837999200000014009962797956450990_);">
							<path class="st8" d="M167.8,63.4L167.8,63.4L167.8,63.4z M167.3,64.3C167.3,64.3,167.2,64.2,167.3,64.3
								c0-0.2,0.1-0.2,0.1-0.3c0,0,0-0.1,0.1-0.1c0.1-0.1,0.1-0.2,0.2-0.3c0,0,0,0,0-0.1l0,0c0-0.1,0.1-0.2,0.1-0.3l0,0v-0.1
								c0-0.1,0-0.1,0-0.2l0,0c0,0,0-0.1,0.1-0.1l0,0v-0.1h0.1c0,0,0,0,0,0.1l0,0l0,0l0,0l0,0c0,0,0,0,0,0.1s0,0.1,0,0.2
								c0,0.1,0,0.1-0.1,0.2c0,0,0,0.1-0.1,0.1l0,0v0.1c0,0.1,0,0.1-0.1,0.2c0,0.1-0.1,0.1-0.1,0.2s-0.1,0.2-0.1,0.2
								C167.5,64.2,167.4,64.2,167.3,64.3C167.4,64.3,167.3,64.3,167.3,64.3L167.3,64.3z"/>
						</g>
					</g>
				</g>
			</g>
			<g>
				<g>
					<g>
						<defs>
							<rect id="SVGID_00000158727656002764776870000016058341129977016234_" x="148.3" y="59.4" width="28.6" height="47.8"/>
						</defs>
						<clipPath id="SVGID_00000109738508447190138280000000967050536132689069_">
							<use xlink:href="#SVGID_00000158727656002764776870000016058341129977016234_"  style="overflow:visible;"/>
						</clipPath>
						<g style="clip-path:url(#SVGID_00000109738508447190138280000000967050536132689069_);">
							<path class="st8" d="M168.2,62.7L168.2,62.7L168.2,62.7L168.2,62.7L168.2,62.7z M168.4,62.6L168.4,62.6L168.4,62.6
								L168.4,62.6z M168.2,62.5C168.2,62.5,168.1,62.5,168.2,62.5C168.1,62.5,168.2,62.5,168.2,62.5z M168.3,62.4L168.3,62.4
								L168.3,62.4z M168.5,62.5L168.5,62.5L168.5,62.5L168.5,62.5L168.5,62.5z M168.5,62.5L168.5,62.5L168.5,62.5L168.5,62.5z
								 M168.6,62.6L168.6,62.6L168.6,62.6z M168.6,62.6L168.6,62.6L168.6,62.6z M168.6,62.6L168.6,62.6L168.6,62.6L168.6,62.6z
								 M167.9,62.6C167.9,62.6,167.9,62.5,167.9,62.6C168,62.5,168,62.5,167.9,62.6C168,62.5,168,62.5,167.9,62.6
								C168,62.5,168,62.5,167.9,62.6c0.1-0.1,0.1-0.1,0.1-0.1h0.1l0,0h0.1h0.1c0,0,0,0,0.1,0l0,0h-0.1c0,0,0,0-0.1,0
								c0,0-0.1,0-0.1-0.1c0,0,0-0.1,0.1-0.1s0.1,0,0.1,0c0.1,0,0.1,0,0.2,0.1l0.1,0.1c0,0,0,0,0,0.1l0,0l0,0l0,0h-0.1l0,0l0,0l0,0
								c0,0,0,0-0.1,0l0,0l0,0l0,0l0,0h-0.1h-0.1l0,0l0,0l0,0l0,0l0,0l0,0l0,0l0,0h-0.1l0,0C168,62.7,168,62.7,167.9,62.6
								C167.9,62.7,167.9,62.7,167.9,62.6z"/>
						</g>
					</g>
				</g>
			</g>
			<g>
				<g>
					<g>
						<defs>
							<rect id="SVGID_00000147197801464223977940000009906326822775133881_" x="148.3" y="59.4" width="28.6" height="47.8"/>
						</defs>
						<clipPath id="SVGID_00000110461556212369295360000009344099583322539188_">
							<use xlink:href="#SVGID_00000147197801464223977940000009906326822775133881_"  style="overflow:visible;"/>
						</clipPath>
						<g style="clip-path:url(#SVGID_00000110461556212369295360000009344099583322539188_);">
							<path class="st8" d="M167.9,63.7L167.9,63.7c-0.1-0.1-0.1-0.1-0.2-0.1h-0.1l0,0l0,0c0,0,0,0-0.1,0v0.1l0,0l0,0l0,0l0,0l0,0
								l-0.1,0.1c0,0,0,0,0,0.1l0,0l0,0V64l0,0l0,0c0,0.1-0.1,0.2-0.1,0.2c0,0.1-0.1,0.2-0.1,0.2c-0.1,0.1-0.1,0.2-0.2,0.3
								c0,0,0,0,0,0.1l0,0l0,0l0,0l0,0c0.1-0.1,0.1-0.2,0.2-0.2c0-0.1,0.1-0.1,0.1-0.2c0.1-0.1,0.1-0.2,0.2-0.3
								c0.1-0.1,0.1-0.2,0.1-0.2c0-0.1,0.1-0.1,0.1-0.2C167.9,63.9,167.9,63.8,167.9,63.7C167.9,63.8,167.9,63.8,167.9,63.7z
								 M167.8,63.8L167.8,63.8L167.8,63.8L167.8,63.8z M167.8,63.8L167.8,63.8L167.8,63.8L167.8,63.8z"/>
						</g>
					</g>
				</g>
			</g>
			<g>
				<g>
					<g>
						<defs>
							<rect id="SVGID_00000062161287293980818730000016449831436642372770_" x="148.3" y="59.4" width="28.6" height="47.8"/>
						</defs>
						<clipPath id="SVGID_00000039115973311917267700000014034919500484657339_">
							<use xlink:href="#SVGID_00000062161287293980818730000016449831436642372770_"  style="overflow:visible;"/>
						</clipPath>
						<g style="clip-path:url(#SVGID_00000039115973311917267700000014034919500484657339_);">
							<path class="st8" d="M169.7,63.1L169.7,63.1L169.7,63.1L169.7,63.1L169.7,63.1L169.7,63.1z M170,63L170,63L170,63z
								 M169.7,63.1L169.7,63.1L169.7,63.1z M170.5,63.2h-0.1c-0.1,0-0.2,0-0.3,0s-0.2,0-0.3-0.1c0,0,0,0-0.1,0l0,0l0,0l0,0l0,0l0,0
								c0,0,0,0,0-0.1c0,0,0,0,0-0.1c0,0,0,0,0.1,0l0,0l0,0c0.1,0,0.2,0,0.3,0.1c0.1,0,0.2,0,0.3,0h0.1c0,0,0,0,0.1,0l0,0l0,0l0,0
								l0,0c0,0,0.1-0.1,0.1-0.2c0,0,0.1-0.1,0.1,0v0.1c0,0.1-0.1,0.2-0.2,0.2C170.6,63.2,170.6,63.2,170.5,63.2L170.5,63.2
								L170.5,63.2z"/>
						</g>
					</g>
				</g>
			</g>
			<g>
				<g>
					<g>
						<defs>
							<rect id="SVGID_00000088829343475750288200000006562738221929442185_" x="148.3" y="59.4" width="28.6" height="47.8"/>
						</defs>
						<clipPath id="SVGID_00000138545890654694601270000017596772342582928792_">
							<use xlink:href="#SVGID_00000088829343475750288200000006562738221929442185_"  style="overflow:visible;"/>
						</clipPath>
						<g style="clip-path:url(#SVGID_00000138545890654694601270000017596772342582928792_);">
							<path class="st5" d="M164.4,63C164.4,63,164.3,63,164.4,63c-0.2,0-0.3,0.2-0.3,0.5s0.1,0.5,0.2,0.5l0,0l5.1,0.2v-1.3
								L164.4,63z"/>
						</g>
					</g>
				</g>
			</g>
			<g>
				<g>
					<g>
						<defs>
							<rect id="SVGID_00000105407532184604082220000002250219339000883370_" x="148.3" y="59.4" width="28.6" height="47.8"/>
						</defs>
						<clipPath id="SVGID_00000152224842022968112730000009822883293437250990_">
							<use xlink:href="#SVGID_00000105407532184604082220000002250219339000883370_"  style="overflow:visible;"/>
						</clipPath>
						<g style="clip-path:url(#SVGID_00000152224842022968112730000009822883293437250990_);">
							<path class="st24" d="M163.8,89.9L163.8,89.9L163.8,89.9"/>
						</g>
					</g>
				</g>
			</g>
			<g>
				<g>
					<g>
						<defs>
							<rect id="SVGID_00000155125626090740096740000003578139143788404925_" x="148.3" y="59.4" width="28.6" height="47.8"/>
						</defs>
						<clipPath id="SVGID_00000176042991475004354380000010204041019517898422_">
							<use xlink:href="#SVGID_00000155125626090740096740000003578139143788404925_"  style="overflow:visible;"/>
						</clipPath>
						<g style="clip-path:url(#SVGID_00000176042991475004354380000010204041019517898422_);">
							<path class="st24" d="M162.7,90.3c-0.1,0-0.8,0.1-0.9,0.1c-0.1,0-0.2,0.1-0.3,0.1c-0.4,0.1-0.5,0-0.8,0l-0.4,0.1h-0.1
								c-0.1,0-0.4,0-0.5,0.1h-0.2l-0.1,0.1l-0.1-0.2c-0.1,0-0.2,0.1-0.3,0.1s-0.1,0-0.2,0c-0.2,0-0.3,0.2-0.4,0.1
								c-0.1-0.1,0.1-0.1,0.1-0.2l0.1-0.2l0.1-0.1c0-0.1,0.3-0.3,0.3-0.3l0.1-0.2c0-0.2-0.1-0.8-0.1-1c0-0.4,0.1-1,0.1-1.5
								c0-0.3-0.6-0.4-0.6-0.7c0-0.1-0.5,0-0.5,0v0.1c0,0-0.2,1.5-0.3,1.9c0,0.2-0.1,0.5-0.2,0.7c-0.1,0.3-0.1,0.4-0.2,0.6
								c0,0.1-0.1,0.2-0.1,0.4c0,0-0.1,0.2-0.1,0.3c-0.1,0.2-0.1,0.1-0.2,0.2V91v-0.1l-0.1,0.1h-0.1l-0.1,0.1c0,0.4,0,0.7-0.1,1
								c0,0.5-0.1,0.9-0.2,1.5c-0.1,0.5-0.2,1-0.3,1.6c0,0.1-0.1,0.3-0.1,0.4v0.1c0,0.1,0,0.1,0,0.2V96c0,0.2-0.1,0.4-0.1,0.7
								c-0.1,0.3-0.1,0.6-0.2,0.8c0,0.2-0.1,0.4-0.2,0.6c-0.1,0.5-0.3,0.9-0.4,1.4c0,0.1-0.1,0.3-0.1,0.4v0.1
								c-0.1,0.3-0.2,0.6-0.3,0.9c-0.1,0.2-0.1,0.4-0.2,0.7c-0.1,0.3-0.2,0.5-0.3,0.8c-0.1,0.1-0.2,0.3-0.2,0.4
								c-0.1,0.1-0.1,0.2-0.2,0.3c-0.1,0.2-0.3,0.5-0.4,0.7l-0.1,0.2l-0.1,0.2c0,0,0,0-0.1,0.1s-0.1,0.1-0.2,0.1v0.1
								c0,0.1-0.1,0.2-0.1,0.3c-0.1,0.2-0.2,0.5-0.3,0.7v0.1l0,0c0,0.1-0.1,0.2-0.1,0.3v0.1v0.1c0,0.1,0,0.1-0.1,0.2l0,0
								c0,0.1,0,0.2,0,0.2c0,0.1,0.1,0.1,0.2,0.2h0.1c0.1,0,0.2-0.1,0.3-0.2l0,0l0,0v0.1c0,0.2,0.1,0.3,0.3,0.3c0.1,0,0.2,0,0.2,0
								s0,0,0.1,0s0.1,0,0.2,0h0.1c0.2,0,0.4,0,0.6-0.1l0,0c0.3,0,0.6,0,0.8-0.1c0.2,0,0.4-0.1,0.6-0.1c0.1,0,0.2,0,0.3-0.1
								c0.1,0,0.3-0.1,0.4-0.2c0.1-0.1,0.1-0.2,0.2-0.2V106c0-0.1,0.1-0.1,0.1-0.2c0.1-0.2,0.2-0.4,0.2-0.6l0,0l0.1-0.1
								c0.2-0.4,0.3-0.9,0.5-1.3l0,0v-0.1c0.2-0.5,0.4-1,0.5-1.6c0.3-0.9,0.6-1.9,0.9-3.1c0.2-0.8,0.4-1.5,0.6-2.4
								c0.1-0.3,0.1-0.6,0.2-0.9c0.1-0.3,0.1-0.6,0.2-0.8l0,0c0.2-0.7,0.4-1.5,0.6-2.3c0.1-0.6,0.2-1.1,0.3-1.6l0,0
								c0,0.3,0,0.6-0.1,0.9c0,0.5-0.1,1-0.2,1.6l0,0v0.1l0,0c0,0.2-0.1,0.4-0.1,0.6c-0.2,1.1-0.4,2.2-0.6,3.2
								c-0.2,1-0.4,2.1-0.7,3.3c-0.1,0.6-0.3,1.1-0.4,1.6l-0.1,0.2v0.1v0.1v0.1c-0.1,0.3-0.2,0.7-0.3,1v0.2c0,0.2-0.1,0.3-0.1,0.5
								v0.1c0,0.1-0.1,0.2-0.1,0.3c0,0.1,0,0.2,0,0.2l0,0c0,0.1,0,0.2,0,0.3c0.1,0.2,0.2,0.3,0.3,0.3s0.2,0,0.3,0s0.2,0,0.3,0
								c0.3,0,0.5-0.1,0.8-0.2s0.5-0.2,0.7-0.3c0.1-0.1,0.2-0.1,0.3-0.2v-0.1c0-0.1,0-0.1,0.1-0.2c0-0.1,0-0.1,0.1-0.2
								c0-0.1,0.1-0.2,0.1-0.2c0.1-0.1,0.1-0.2,0.2-0.3l0.1-0.2c0.1-0.2,0.2-0.3,0.2-0.5c0.2-0.4,0.3-0.9,0.5-1.3l0,0l0.1-0.3l0,0
								c0.1-0.4,0.2-0.7,0.3-1.1s0.2-0.7,0.3-1.1v-0.1c0-0.1,0-0.2,0.1-0.3c0.1-0.5,0.2-1,0.3-1.5s0.2-1,0.3-1.5
								c0.1-0.4,0.1-0.9,0.2-1.5c0-0.3,0.1-0.7,0.1-1l0,0l0,0l0,0l0,0l0,0l0,0l0,0l0,0c0,0,0,0,0-0.1l0,0l0,0l0,0c0-0.1,0-0.2,0-0.4
								v-0.2v-0.1l0,0l0,0l0,0l0,0l0,0l0,0v-0.1l0,0l0,0c0-0.3,0.1-0.5,0.1-0.8l0,0c0-0.2,0.1-0.4,0.1-0.6l0,0
								c0-0.4,0.1-0.7,0.2-1.1c0-0.3,0.1-0.6,0.1-1c0-0.1,0-0.2,0-0.3l0,0c0,0,0,0,0,0.1l0,0v0.1c0,0-0.2,0-0.2,0.1l-0.2,0.1
								l-0.3,0.5C163.4,90,162.9,90.3,162.7,90.3z"/>
						</g>
					</g>
				</g>
			</g>
			<g>
				<g>
					<g>
						<defs>
							<rect id="SVGID_00000000217828444808030440000016785335067435318173_" x="148.3" y="59.4" width="28.6" height="47.8"/>
						</defs>
						<clipPath id="SVGID_00000021106058982423046130000007087513565172614799_">
							<use xlink:href="#SVGID_00000000217828444808030440000016785335067435318173_"  style="overflow:visible;"/>
						</clipPath>
						<g style="clip-path:url(#SVGID_00000021106058982423046130000007087513565172614799_);">
							<path class="st27" d="M160.5,67L160.5,67c-0.2-0.1-0.3-0.1-0.5-0.2c-0.1-0.1-0.2-0.2-0.3-0.3c0.1,0,0.1,0,0.2,0
								c0.1,0,0.1,0,0.2,0c0.1,0,0.2,0.1,0.3,0.2l0,0c0.2,0.1,0.4,0.2,0.6,0.4c-0.1,0-0.2,0-0.3,0C160.7,67,160.6,67,160.5,67z"/>
						</g>
					</g>
				</g>
			</g>
			<g>
				<g>
					<g>
						<defs>
							<rect id="SVGID_00000160882962287608260680000012886162028798765711_" x="148.3" y="59.4" width="28.6" height="47.8"/>
						</defs>
						<clipPath id="SVGID_00000021806652890485874080000003649659893920846475_">
							<use xlink:href="#SVGID_00000160882962287608260680000012886162028798765711_"  style="overflow:visible;"/>
						</clipPath>
						<g style="clip-path:url(#SVGID_00000021806652890485874080000003649659893920846475_);">
							<g>
								<path class="st8" d="M164.4,67.7L164.4,67.7L164.4,67.7z"/>
							</g>
							<g>
								<path class="st8" d="M166.5,62.3L166.5,62.3L166.5,62.3L166.5,62.3z"/>
							</g>
							<g>
								<path class="st8" d="M168.7,62.5c0-0.1-0.2-0.2-0.3-0.3c-0.2-0.1-0.3-0.1-0.5-0.1c-0.3,0-0.7,0-1,0c-0.1,0-0.3,0-0.4,0.1
									c-0.2,0.1-0.2,0.2-0.3,0.4c-0.2,0.3-0.3,0.6-0.4,0.9c-0.3,0.7-0.5,1.4-0.8,2c-0.3,0.7-0.5,1.3-0.7,2c0,0.1-0.1,0.1-0.1,0.2
									s0,0.1,0.1,0.1c0,0,0.1-0.1,0.1-0.2l0,0c0.2-0.3,0.4-0.6,0.6-0.9c0,0,0,0,0,0.1v0.1c0,0.1-0.1,0.2-0.1,0.3
									c-0.1,0.2-0.2,0.4-0.2,0.5c-0.1,0.2-0.1,0.4-0.2,0.5c0,0.2-0.1,0.3,0,0.5c0,0.1,0.2,0.3,0.4,0.2h0.1c0.1,0,0,0,0.1,0
									s0.2,0.1,0.2,0c0.2,0,0.2-0.2,0.3-0.3c0.1-0.2,0.2-0.3,0.2-0.5c0.2-0.4,0.3-0.7,0.4-1.1c0.2-0.4,0.3-0.7,0.5-1.1
									s0.3-0.7,0.5-1.1c0.1-0.1,0.2-0.3,0.2-0.4c0.1-0.2,0.1-0.4,0.2-0.6c0.1-0.2,0.1-0.4,0.2-0.6c0-0.1,0-0.1,0-0.2
									c0-0.1,0.1-0.1,0.1-0.2c0-0.2,0.1-0.3,0.3-0.4c0.1,0,0.2,0,0.3,0C168.6,62.7,168.7,62.7,168.7,62.5z M164.3,67.8L164.3,67.8
									L164.3,67.8z"/>
							</g>
						</g>
					</g>
				</g>
			</g>
			<g>
				<g>
					<g>
						<defs>
							<rect id="SVGID_00000038397631828335113190000012920116181717064377_" x="148.3" y="59.4" width="28.6" height="47.8"/>
						</defs>
						<clipPath id="SVGID_00000158743807076877909230000000742329045827079313_">
							<use xlink:href="#SVGID_00000038397631828335113190000012920116181717064377_"  style="overflow:visible;"/>
						</clipPath>
						<g style="clip-path:url(#SVGID_00000158743807076877909230000000742329045827079313_);">
							<path class="st27" d="M168.8,68.1c-0.1-0.1-1.4-1-1.5-1.1c-0.1,0-0.1-0.1-0.2,0c0,0-0.9,1.2-1,1.4c-0.1,0.1-0.3,0.3-0.4,0.4
								c0.1-0.2,0.1-0.4,0.2-0.6c0-0.1,0.1-0.2,0.1-0.3c0-0.1,0.1-0.2,0.1-0.3c0-0.2-0.1-0.2-0.2-0.3c-0.2-0.1-0.4-0.2-0.5-0.3
								c-0.2-0.1-0.3-0.2-0.5-0.3c-0.1,0-0.2-0.1-0.3-0.1s-0.4,0.9-0.6,1.3c0,0.1-0.1,0.2-0.1,0.3c0,0.1,0,0.1-0.1,0.2
								s-0.3-0.1-0.4-0.1c-0.2-0.1-0.4-0.2-0.6-0.3c-0.1,0-0.2-0.1-0.2-0.1c-0.1,0-0.1,0.1-0.2,0.1c-0.1,0-0.1,0.1-0.2,0.1
								c-0.1,0-0.2,0-0.3,0.1c-0.2,0.1-0.4,0.1-0.6,0.2c-0.4,0.1-0.9,0.1-1.3,0.1c-0.2,0-0.5-0.1-0.7-0.1s-0.5-0.1-0.7-0.1
								c-0.3-0.1-0.7-0.3-0.8-0.7c-0.3,0.2-0.5,0.4-0.8,0.6c-0.1,0.1-0.1,0.1-0.2,0.2l-0.1,0.1c-0.1,0.1-0.1,0.3-0.2,0.4
								c-0.2,0.7-0.3,1.4-0.3,2.1c-0.2,1.4-0.3,2.9-0.6,4.3c-0.2,1.4-0.5,2.8-0.7,4.2c-0.2,1.4-0.5,2.8-1,4.1
								c-0.4,1.3-0.9,2.5-1.4,3.7c-0.3,0.6-0.5,1.2-0.9,1.8c-0.2,0.4-0.4,0.7-0.6,1.1c-0.2,0.4-0.5,0.8-0.8,1
								c-0.1,0.1-0.4,0.2-0.4,0.4c0,0.1,0.1,0.2,0.2,0.2c0.4,0.1,0.8,0.2,1.1,0.3c0.6,0.1,1.1,0.1,1.7,0.1c0.7,0,1.4-0.1,2.1-0.2
								c0.3-0.1,0.7-0.1,1-0.2s0.6-0.2,0.9-0.4c0.2-0.1,0.3-0.3,0.4-0.5c0.1-0.3,0.2-0.6,0.3-0.8c0.2-0.7,0.3-1.3,0.4-2
								c0.1-0.3,0.1-0.7,0.1-1c0.1,0.4,0.2,0.8,0.3,1.2c0.1,0.4,0.1,0.8,0.1,1.2c0,0.4,0,0.8-0.1,1.1c-0.1,0.2-0.3,0.4-0.4,0.7
								c0,0.1-0.1,0.1,0,0.2c0.1,0,0.2,0,0.4,0c0.3,0,0.5-0.1,0.8-0.1c0.5,0,1-0.1,1.5-0.1s1-0.1,1.5-0.2c0.3-0.1,0.5-0.2,0.8-0.2
								c0.2-0.1,0.5-0.2,0.7-0.3c0.2-0.1,0.4-0.3,0.5-0.4s0.2-0.4,0.2-0.5c0.1-0.3,0.1-0.6,0.1-0.9s0.1-0.6,0.1-0.9
								c0.1-0.6,0.2-1.2,0.3-1.8c0.2-1.2,0.3-2.4,0.3-3.7c0-0.6,0-1.2,0-1.8c0-0.6-0.1-1.2-0.1-1.8c0-0.6,0-1.2,0-1.8
								c0-0.6,0-1.2,0-1.8c0-0.3,0-0.7-0.1-1c0-0.1,0-0.3,0-0.5c0-0.1,1.5-1.7,1.8-2c0.9-1.1,1.9-2.5,2-2.7
								C168.7,68.3,168.8,68.1,168.8,68.1z"/>
						</g>
					</g>
				</g>
			</g>
			<g>
				<g>
					<g>
						<defs>
							<rect id="SVGID_00000023276215444053084710000018211218863171202451_" x="148.3" y="59.4" width="28.6" height="47.8"/>
						</defs>
						<clipPath id="SVGID_00000078006750428177949470000013651962273123638149_">
							<use xlink:href="#SVGID_00000023276215444053084710000018211218863171202451_"  style="overflow:visible;"/>
						</clipPath>
						<g style="clip-path:url(#SVGID_00000078006750428177949470000013651962273123638149_);">
							<path class="st27" d="M162.7,67.8L162.7,67.8L162.7,67.8z M163.5,68.9c-0.1-0.1-0.3-0.2-0.4-0.3c-0.2-0.1-0.3-0.2-0.4-0.3
								c-0.1-0.1-0.2-0.2-0.3-0.3l-0.1-0.1c0.1-0.1,0.2-0.1,0.3-0.2c0.1,0.1,0.1,0.1,0.2,0.2c0.2,0.1,0.3,0.2,0.5,0.3
								c0.2,0.1,0.4,0.2,0.6,0.3c0.1,0.1,0.2,0.2,0.1,0.4c-0.1,0.1-0.1,0.1-0.2,0.1C163.5,69,163.5,68.9,163.5,68.9z"/>
						</g>
					</g>
				</g>
			</g>
			<g>
				<g>
					<g>
						<defs>
							<rect id="SVGID_00000157309415108474006040000012765126220100229293_" x="148.3" y="59.4" width="28.6" height="47.8"/>
						</defs>
						<clipPath id="SVGID_00000162313632134056067530000008859828344182794167_">
							<use xlink:href="#SVGID_00000157309415108474006040000012765126220100229293_"  style="overflow:visible;"/>
						</clipPath>
						<g style="clip-path:url(#SVGID_00000162313632134056067530000008859828344182794167_);">
							<path class="st8" d="M160.5,67L160.5,67c-0.2-0.1-0.3-0.1-0.5-0.2c-0.2-0.2-0.4-0.3-0.5-0.5l-0.1-0.1c0.1,0,0.2,0,0.3,0
								c0.2,0,0.4,0,0.6,0.1c0.2,0,0.3,0,0.5,0.1c0.1,0,0.3,0.1,0.4,0.1c0,0,0,0,0.1,0s0.1,0,0.1,0.1c0.1,0,0.1,0.1,0.1,0.2v0.1
								c0.1,0,0.2,0,0.4,0h-0.1c-0.2,0-0.3,0.1-0.5,0.1c-0.1,0-0.3,0-0.4,0C160.7,67,160.6,67,160.5,67z"/>
						</g>
					</g>
				</g>
			</g>
			<g>
				<g>
					<g>
						<defs>
							<rect id="SVGID_00000038377237159191550240000015684702369881864345_" x="148.3" y="59.4" width="28.6" height="47.8"/>
						</defs>
						<clipPath id="SVGID_00000144323915718827410620000010789947819586347964_">
							<use xlink:href="#SVGID_00000038377237159191550240000015684702369881864345_"  style="overflow:visible;"/>
						</clipPath>
						<g style="clip-path:url(#SVGID_00000144323915718827410620000010789947819586347964_);">
							<path class="st27" d="M161.9,67.8L161.9,67.8L161.9,67.8z M162.7,68.5L162.7,68.5c-0.1,0-0.1-0.1-0.1-0.1s0,0-0.1-0.1
								l-0.1-0.1l0,0l-0.1-0.1c-0.1-0.1-0.2-0.2-0.2-0.2c-0.1,0-0.1-0.1-0.2-0.1h-0.1h-0.1c0,0,0,0,0.1,0l0.1-0.1c0,0,0.1,0,0.1-0.1
								c0,0,0.1,0,0.1-0.1c0,0,0.1,0,0.1,0.1c0.1,0,0.2,0.1,0.2,0.1c0.1,0,0.2,0.1,0.2,0.1c0.1,0,0.1,0.1,0.2,0.1h0.1
								c0.1,0,0.1,0.1,0.2,0.1c0.1,0.1,0.1,0.3,0,0.4c0,0.1-0.1,0.1-0.2,0.1L162.7,68.5C162.8,68.6,162.8,68.5,162.7,68.5z"/>
						</g>
					</g>
				</g>
			</g>
			<g>
				<g>
					<g>
						<defs>
							<rect id="SVGID_00000027582262958604425310000001461427353453827743_" x="148.3" y="59.4" width="28.6" height="47.8"/>
						</defs>
						<clipPath id="SVGID_00000113316299093295168070000012304866093169519034_">
							<use xlink:href="#SVGID_00000027582262958604425310000001461427353453827743_"  style="overflow:visible;"/>
						</clipPath>
						<g style="clip-path:url(#SVGID_00000113316299093295168070000012304866093169519034_);">
							<path class="st27" d="M162,67.6L162,67.6L162,67.6L162,67.6z M162.1,68.1L162.1,68.1L162.1,68.1L162.1,68.1z M157.6,68.2
								L157.6,68.2L157.6,68.2L157.6,68.2z M156.6,68.5L156.6,68.5L156.6,68.5z M160.4,68.8c-0.2,0-0.4,0-0.6-0.1
								c-0.2,0-0.4-0.1-0.6-0.1c-0.1,0-0.3-0.1-0.4-0.1c0,0,0,0-0.1,0c0,0-0.1,0-0.2,0l-0.1-0.1l0,0c-0.2,0-0.4,0-0.6,0h-0.1h-0.1
								l0,0l0,0l0,0l0,0l0,0l0,0l0,0c-0.1,0-0.1-0.1-0.1-0.2v-0.1c-0.1,0.1-0.3,0.2-0.4,0.3l0,0l0,0l0,0c-0.1,0.1-0.1,0.1-0.2,0.2
								l-0.1,0.1l0,0l0,0l0,0l0,0l0,0l0,0c0,0.1-0.2,0.1-0.2,0v-0.1v-0.1v-0.1c0-0.1,0.1-0.2,0.2-0.3c0.1-0.1,0.2-0.2,0.4-0.3
								c0.3-0.2,0.7-0.4,1-0.5c0.1-0.1,0.2-0.1,0.4-0.1l0,0c0.1,0.1,0.3,0.2,0.4,0.3c0.2,0.1,0.3,0.2,0.5,0.3
								c0.2,0.1,0.4,0.2,0.7,0.3c0.1,0,0.2,0.1,0.3,0.1s0.2,0,0.4,0c0.1,0,0.1,0,0.2,0c0.1,0,0.2,0,0.3,0s0.2-0.1,0.3-0.1
								c0,0,0.1,0,0.1-0.1l0.1-0.1h0.1h0.1h0.1c0.1,0,0.1,0.1,0.2,0.1c0.1,0.1,0.1,0.2,0.1,0.3c0,0.1-0.2,0.2-0.3,0.3
								c-0.1,0.1-0.2,0.1-0.3,0.1s-0.3,0-0.4,0.1c-0.1,0-0.3,0-0.4,0H161c0,0.1-0.1,0.1-0.1,0.1s-0.1,0-0.1,0.1h-0.1
								C160.5,68.8,160.5,68.8,160.4,68.8L160.4,68.8z"/>
						</g>
					</g>
				</g>
			</g>
			<g>
				<g>
					<g>
						<defs>
							<rect id="SVGID_00000152984592367880548310000015796584081563559057_" x="148.3" y="59.4" width="28.6" height="47.8"/>
						</defs>
						<clipPath id="SVGID_00000014632715091899587920000014575763657278826651_">
							<use xlink:href="#SVGID_00000152984592367880548310000015796584081563559057_"  style="overflow:visible;"/>
						</clipPath>
						<g style="clip-path:url(#SVGID_00000014632715091899587920000014575763657278826651_);">
							<path class="st35" d="M156.4,68.8L156.4,68.8L156.4,68.8z M156.3,68.8L156.3,68.8L156.3,68.8z M156.2,68.9L156.2,68.9
								L156.2,68.9L156.2,68.9z M156.2,69L156.2,69L156.2,69L156.2,69c0-0.1,0-0.1,0-0.2v-0.1l0,0c0,0,0-0.1,0.1-0.1
								c0,0,0.1,0,0.1,0.1l0,0v0.1l0,0l0,0l0,0l0,0l0,0l0,0l0,0l0,0l0,0l0,0l0,0l0,0l0,0l0,0l0,0l0,0l0,0c0.1-0.1,0.1-0.1,0.2-0.2
								c0.1-0.1,0.2-0.2,0.3-0.3c0.1-0.1,0.2-0.2,0.4-0.3c0.1-0.1,0.3-0.2,0.5-0.2c0.1,0,0.2,0,0.3,0s0.2,0,0.3,0s0.2,0.1,0.2,0.2
								s-0.1,0.2-0.2,0.2c-0.1,0-0.3,0-0.4,0c-0.1,0-0.1,0-0.2,0c-0.2,0-0.3,0.1-0.5,0.1c-0.1,0-0.3,0.1-0.4,0.2
								c-0.1,0.1-0.2,0.2-0.3,0.2c-0.1,0.1-0.1,0.2-0.2,0.2c0,0,0,0-0.1,0l0,0C156.3,69.1,156.3,69.1,156.2,69z"/>
						</g>
					</g>
				</g>
			</g>
			<g>
				<g>
					<g>
						<defs>
							<rect id="SVGID_00000001660320145870373800000003061023468069814707_" x="148.3" y="59.4" width="28.6" height="47.8"/>
						</defs>
						<clipPath id="SVGID_00000105409485685352836540000017561717122749044108_">
							<use xlink:href="#SVGID_00000001660320145870373800000003061023468069814707_"  style="overflow:visible;"/>
						</clipPath>
						<g style="clip-path:url(#SVGID_00000105409485685352836540000017561717122749044108_);">
							<path class="st35" d="M162.5,62.4L162.5,62.4L162.5,62.4L162.5,62.4z M164.1,62L164.1,62L164.1,62z M162.4,62.5
								C162.4,62.5,162.3,62.4,162.4,62.5c-0.1-0.1-0.1-0.2,0-0.2s0.2-0.1,0.3-0.1l0,0c0,0,0,0,0-0.1l0,0h0.1c0.1,0,0.1,0,0.2-0.1
								h0.1c0.1,0,0.1-0.1,0.2-0.1c0.1-0.1,0.3-0.1,0.5-0.2c0.1,0,0.1-0.1,0.2-0.1h0.1h0.1h0.1c0,0,0.1,0,0.1,0.1c0,0,0,0.1,0.1,0.1
								v0.1c0,0.1-0.1,0.2-0.2,0.2h-0.1c-0.1,0-0.2,0-0.3,0.1c-0.1,0-0.2,0.1-0.3,0.1c0,0,0,0-0.1,0h-0.1l0,0
								c-0.1,0-0.3,0.1-0.4,0.1c-0.1,0-0.2,0.1-0.4,0.1l0,0l0,0l0,0l0,0C162.5,62.4,162.5,62.5,162.4,62.5
								C162.5,62.5,162.5,62.5,162.4,62.5L162.4,62.5z"/>
						</g>
					</g>
				</g>
			</g>
			<g>
				<g>
					<g>
						<defs>
							<rect id="SVGID_00000005984203282036037130000009142263981291174306_" x="148.3" y="59.4" width="28.6" height="47.8"/>
						</defs>
						<clipPath id="SVGID_00000177448235692763742160000011505269146134827162_">
							<use xlink:href="#SVGID_00000005984203282036037130000009142263981291174306_"  style="overflow:visible;"/>
						</clipPath>
						<g style="clip-path:url(#SVGID_00000177448235692763742160000011505269146134827162_);">
							<g>
								<path class="st35" d="M161.9,59.5L161.9,59.5L161.9,59.5L161.9,59.5z"/>
							</g>
							<g>
								<path class="st35" d="M164.3,60.4L164.3,60.4L164.3,60.4z"/>
							</g>
							<g>
								<path class="st35" d="M163.5,68.3L163.5,68.3L163.5,68.3z"/>
							</g>
							<g>
								<path class="st35" d="M164.8,61.4c0-0.1-0.1-0.2-0.1-0.3s-0.1-0.2-0.2-0.3c0-0.1-0.2-0.3-0.3-0.4c-0.3-0.4-0.7-0.6-1.1-0.7
									c-0.4-0.1-0.7-0.2-1.1-0.2c-0.2,0-0.4,0-0.6,0c-0.2,0-0.5,0-0.7,0.1c-0.2,0-0.4,0.1-0.7,0.2c-0.2,0.1-0.9,0.5-1,0.6
									c-0.2,0.1-0.3,0.3-0.4,0.5c-0.5,0.7-0.7,1.6-0.8,2.5c0,0.4,0,0.9,0,1.3c0,0.1,0,0.6,0,0.7s0,0.3-0.1,0.4
									c-0.1,0.4-0.1,0.8-0.3,1.2c-0.1,0.3-0.4,0.6-0.6,0.8c-0.1,0.1-0.1,0.2-0.2,0.2c-0.1,0.1-0.1,0.2-0.2,0.3
									c-0.1,0.2-0.2,0.3-0.3,0.5s-0.1,0.4,0,0.6l0.1,0.1l0.1-0.1c0.1-0.1,0.1-0.2,0.2-0.3c0.1-0.1,0.3-0.3,0.4-0.4
									c0.2-0.1,0.4-0.2,0.6-0.3c0.4-0.1,0.9,0,1.3,0.2c0.3,0.2,0.6,0.4,0.9,0.6c0.4,0.2,0.8,0.4,1.2,0.5s0.9,0.2,1.3,0.2
									c0.2,0,0.4,0,0.6-0.1c0.2-0.1,0.3-0.3,0.4-0.5c0.1-0.1,0.1-0.2,0.1-0.3c0-0.1,0-0.1,0.1-0.2c0,0,0.1-0.2,0-0.1
									c0.1-0.1,0.1-0.3,0.1-0.4v-0.1c0,0-0.1,0-0.1-0.1c-0.1,0-0.5-0.4-0.7-0.5c-0.1-0.1-0.2-0.2-0.3-0.4c0-0.1,0-0.1,0-0.2
									s0-0.1,0-0.2s-0.1-0.2-0.2-0.3c-0.2-0.1-0.3-0.2-0.3-0.3c-0.2-0.3-0.3-0.6-0.3-0.9c-0.1-0.4-0.1-0.7,0-1.1
									c0-0.2,0-0.3,0.1-0.5c0-0.2,0.1-0.3,0.2-0.5c0-0.1,0.1-0.2,0.1-0.4c0-0.1,0-0.2,0.1-0.2c0-0.1,0.9-0.2,1.3-0.3
									c0.2-0.1,0.9-0.3,1.1-0.3c0.2,0,0.3,0,0.3-0.2C164.9,61.8,164.9,61.6,164.8,61.4z M156.3,69C156.3,69.1,156.2,69.1,156.3,69
									L156.3,69z M163.5,68.3L163.5,68.3L163.5,68.3z M163.5,68.3L163.5,68.3L163.5,68.3L163.5,68.3L163.5,68.3z"/>
							</g>
						</g>
					</g>
				</g>
			</g>
			<g>
				<g>
					<g>
						<defs>
							<rect id="SVGID_00000147196694617511625690000012681234216203652523_" x="148.3" y="59.4" width="28.6" height="47.8"/>
						</defs>
						<clipPath id="SVGID_00000123408288666399368870000003146506942473777812_">
							<use xlink:href="#SVGID_00000147196694617511625690000012681234216203652523_"  style="overflow:visible;"/>
						</clipPath>
						<g style="clip-path:url(#SVGID_00000123408288666399368870000003146506942473777812_);">
							<path class="st35" d="M162.5,73.5L162.5,73.5L162.5,73.5L162.5,73.5z M164.5,71.4L164.5,71.4L164.5,71.4L164.5,71.4z
								 M165.2,70.2L165.2,70.2L165.2,70.2z M165,70.1L165,70.1L165,70.1C165,70.1,165,70.2,165,70.1C165,70.2,165,70.1,165,70.1z
								 M165.9,67.4L165.9,67.4L165.9,67.4L165.9,67.4z M157.6,71.6L157.6,71.6L157.6,71.6L157.6,71.6L157.6,71.6z M157.5,71.6
								L157.5,71.6L157.5,71.6L157.5,71.6z M157.5,71.6L157.5,71.6L157.5,71.6z M163,73.2L163,73.2L163,73.2z M161.8,73.6
								c-0.2,0-0.5,0-0.7-0.1c-0.2,0-0.4-0.1-0.7-0.2c-0.2-0.1-0.4-0.1-0.7-0.2c-0.4-0.2-0.8-0.4-1.2-0.6c-0.2-0.1-0.4-0.2-0.6-0.4
								c-0.2-0.1-0.4-0.3-0.5-0.4c0,0,0,0-0.1,0v-0.1c0-0.1,0.1-0.1,0.2-0.1l0,0l0.1,0.1c0.1,0.1,0.2,0.1,0.3,0.2l0,0
								c0.2,0.1,0.4,0.3,0.5,0.4c0.2,0.1,0.4,0.2,0.6,0.3c0.3,0.2,0.6,0.3,0.9,0.4c0.2,0.1,0.4,0.2,0.6,0.2c0.2,0.1,0.4,0.1,0.7,0.2
								c0.1,0,0.1,0,0.2,0c0.2,0,0.3,0,0.5,0.1c0.2,0,0.4,0,0.5,0l0,0l0,0l0,0c0.2,0,0.4-0.1,0.6-0.2c0.1,0,0.2-0.1,0.2-0.1
								c0.1,0,0.1-0.1,0.2-0.1l0,0l0,0c0.1-0.1,0.1-0.1,0.2-0.2c0.1-0.1,0.1-0.1,0.2-0.2c0.1-0.2,0.2-0.3,0.3-0.5s0.2-0.4,0.3-0.6
								l0,0l0,0l0,0l0,0l0,0l0,0l0,0c0.1-0.2,0.1-0.4,0.2-0.5c0.1-0.2,0.1-0.4,0.2-0.5c0-0.1,0.1-0.1,0.1-0.2l0,0l0,0l0,0
								c0.1-0.2,0.2-0.4,0.2-0.6c0.1-0.2,0.1-0.4,0.2-0.6c0.1-0.2,0.1-0.4,0.2-0.6c0.1-0.2,0.1-0.3,0.2-0.5c0-0.1,0.1-0.2,0.1-0.3
								c0-0.1,0-0.1,0-0.2l0,0l0,0c0,0-0.1,0-0.1-0.1c0,0-0.1,0-0.1-0.1c-0.1-0.1-0.2-0.2-0.4-0.2c-0.1-0.1-0.2-0.1-0.3-0.1
								s-0.2-0.1-0.2-0.1c-0.1,0-0.1-0.1,0-0.2c0-0.1,0.1-0.1,0.2,0c0.1,0.1,0.2,0.1,0.3,0.2s0.3,0.1,0.4,0.2
								c0.1,0.1,0.2,0.1,0.3,0.2c0,0,0.1,0,0.1,0.1c0,0,0,0,0.1,0.1l0,0c0,0,0,0,0,0.1v0.1c0,0,0,0,0,0.1v0.1c0,0.1-0.1,0.3-0.1,0.4
								c-0.1,0.2-0.1,0.4-0.2,0.5c-0.1,0.2-0.1,0.4-0.2,0.6c-0.1,0.2-0.1,0.3-0.2,0.5c-0.1,0.2-0.2,0.4-0.2,0.6l0,0
								c-0.1,0.2-0.1,0.3-0.2,0.5l0,0c-0.1,0.3-0.2,0.5-0.3,0.8l0,0c-0.1,0.2-0.2,0.4-0.3,0.6s-0.2,0.4-0.3,0.5s-0.1,0.2-0.2,0.2
								c-0.1,0.1-0.2,0.2-0.3,0.2l0,0c-0.1,0.1-0.2,0.1-0.3,0.2s-0.2,0.1-0.3,0.1c-0.2,0.1-0.4,0.1-0.6,0.2l0,0l0,0
								c-0.1,0-0.2,0-0.4,0C162,73.6,161.9,73.6,161.8,73.6z"/>
						</g>
					</g>
				</g>
			</g>
			<g>
				<g>
					<g>
						<defs>
							<rect id="SVGID_00000101068355550785389910000017381002728763507585_" x="148.3" y="59.4" width="28.6" height="47.8"/>
						</defs>
						<clipPath id="SVGID_00000060004944388852292270000014062596098179595397_">
							<use xlink:href="#SVGID_00000101068355550785389910000017381002728763507585_"  style="overflow:visible;"/>
						</clipPath>
						<g style="clip-path:url(#SVGID_00000060004944388852292270000014062596098179595397_);">
							<path class="st27" d="M161.6,65.4L161.6,65.4C161.6,65.5,161.6,65.5,161.6,65.4C161.6,65.5,161.6,65.4,161.6,65.4z
								 M162.8,60.8L162.8,60.8L162.8,60.8L162.8,60.8z M162.8,60.8L162.8,60.8L162.8,60.8L162.8,60.8L162.8,60.8L162.8,60.8
								L162.8,60.8L162.8,60.8z M162,66.1L162,66.1L162,66.1z M162.6,67.1c0-0.1,0-0.1,0-0.2l0,0h-0.1c-0.1,0-0.1-0.1-0.1-0.1
								c-0.1-0.1-0.3-0.2-0.3-0.4c-0.1-0.2-0.2-0.3-0.2-0.5c-0.1-0.2-0.1-0.3-0.1-0.5s0-0.4,0-0.6s0-0.4,0-0.7
								c0-0.2,0.1-0.4,0.1-0.7c0-0.2,0.1-0.4,0.2-0.6c0.1-0.2,0.1-0.4,0.2-0.6c0-0.1,0.1-0.2,0.1-0.3s0.1-0.2,0.1-0.3
								c0.2-0.3,0.3-0.7,0.5-1l0,0l0,0l0,0l0,0l0.1-0.1c0.1,0,0.1,0.1,0.1,0.1v0.1c0,0,0,0,0,0.1s-0.1,0.2-0.1,0.2
								c-0.1,0.2-0.2,0.4-0.3,0.5s-0.1,0.3-0.2,0.4c-0.1,0.2-0.2,0.4-0.2,0.6c-0.1,0.2-0.1,0.4-0.2,0.6c-0.1,0.2-0.1,0.4-0.1,0.6
								c0,0.2,0,0.4-0.1,0.7c0,0.2,0,0.4,0,0.6c0,0.1,0,0.1,0,0.2l0,0l0,0c0,0.2,0.1,0.5,0.2,0.7c0.1,0.1,0.1,0.2,0.2,0.3
								c0,0.1,0.1,0.1,0.2,0.2c0.1,0.1,0.2,0.1,0.3,0.2c0,0,0,0,0.1,0c0,0,0,0.1,0.1,0.1v0.1v0.1c0,0.1-0.1,0.1-0.1,0.1
								C162.6,67.3,162.6,67.2,162.6,67.1z"/>
						</g>
					</g>
				</g>
			</g>
			<g>
				<g>
					<g>
						<defs>
							<rect id="SVGID_00000014615248621606337050000012435694920337140107_" x="148.3" y="59.4" width="28.6" height="47.8"/>
						</defs>
						<clipPath id="SVGID_00000023974636842233336750000017075597900162371215_">
							<use xlink:href="#SVGID_00000014615248621606337050000012435694920337140107_"  style="overflow:visible;"/>
						</clipPath>
						<g style="clip-path:url(#SVGID_00000023974636842233336750000017075597900162371215_);">
							<path class="st24" d="M158,90.3"/>
						</g>
					</g>
				</g>
			</g>
			<g>
				<g>
					<g>
						<defs>
							<rect id="SVGID_00000057133926667473746920000010689274920810017710_" x="148.3" y="59.4" width="28.6" height="47.8"/>
						</defs>
						<clipPath id="SVGID_00000174575924674490998480000000832738025112250781_">
							<use xlink:href="#SVGID_00000057133926667473746920000010689274920810017710_"  style="overflow:visible;"/>
						</clipPath>
						<g style="clip-path:url(#SVGID_00000174575924674490998480000000832738025112250781_);">
							<path class="st24" d="M158,90.4"/>
						</g>
					</g>
				</g>
			</g>
			<g>
				<g>
					<g>
						<defs>
							<rect id="SVGID_00000159450422969122354270000015119673179914641587_" x="148.3" y="59.4" width="28.6" height="47.8"/>
						</defs>
						<clipPath id="SVGID_00000001658717446348627790000007563687562561458367_">
							<use xlink:href="#SVGID_00000159450422969122354270000015119673179914641587_"  style="overflow:visible;"/>
						</clipPath>
						<g style="clip-path:url(#SVGID_00000001658717446348627790000007563687562561458367_);">
							<path class="st24" d="M162.7,90.4"/>
						</g>
					</g>
				</g>
			</g>
			<g>
				<g>
					<g>
						<defs>
							<rect id="SVGID_00000110470258548102475930000009138857857654927797_" x="148.3" y="59.4" width="28.6" height="47.8"/>
						</defs>
						<clipPath id="SVGID_00000085964890617167644480000009940074579531102105_">
							<use xlink:href="#SVGID_00000110470258548102475930000009138857857654927797_"  style="overflow:visible;"/>
						</clipPath>
						<g style="clip-path:url(#SVGID_00000085964890617167644480000009940074579531102105_);">
							<g>
								<path class="st5" d="M169.4,62.6c-0.2,0-0.4,0.4-0.4,0.9s0.2,0.9,0.4,0.9l7,0.2v-2H169.4z"/>
							</g>
							<g>
								<g>
									<ellipse class="st44" cx="176.4" cy="63.5" rx="0.5" ry="1"/>
								</g>
								<g>
									<path class="st5" d="M176.4,62.6c0.1,0,0.3,0.3,0.3,0.8s-0.2,0.8-0.3,0.8s-0.3-0.3-0.3-0.8
										C176.1,62.9,176.3,62.6,176.4,62.6 M176.4,62.5c-0.3,0-0.5,0.4-0.5,1s0.2,1,0.5,1s0.5-0.4,0.5-1S176.7,62.5,176.4,62.5
										L176.4,62.5z"/>
								</g>
							</g>
						</g>
					</g>
				</g>
			</g>
			<g>
				<g>
					<g>
						<defs>
							<rect id="SVGID_00000049199193327987045970000000818260645541369267_" x="148.3" y="59.4" width="28.6" height="47.8"/>
						</defs>
						<clipPath id="SVGID_00000137112316246385854120000009937788323174357378_">
							<use xlink:href="#SVGID_00000049199193327987045970000000818260645541369267_"  style="overflow:visible;"/>
						</clipPath>
						<g style="clip-path:url(#SVGID_00000137112316246385854120000009937788323174357378_);">
							<path class="st5" d="M163.7,63.2L163.7,63.2c-0.1,0-0.1,0.1-0.1,0.3s0.1,0.3,0.1,0.3h0.5v-0.6H163.7z"/>
						</g>
					</g>
				</g>
			</g>
			<g>
				<g>
					<g>
						<defs>
							<rect id="SVGID_00000088124913150058690420000007469118832085510810_" x="148.3" y="59.4" width="28.6" height="47.8"/>
						</defs>
						<clipPath id="SVGID_00000169531795725033915590000009156239844121142940_">
							<use xlink:href="#SVGID_00000088124913150058690420000007469118832085510810_"  style="overflow:visible;"/>
						</clipPath>
						<g style="clip-path:url(#SVGID_00000169531795725033915590000009156239844121142940_);">
							<g>
								<path class="st8" d="M169.7,62.3L169.7,62.3L169.7,62.3L169.7,62.3z"/>
							</g>
							<g>
								<path class="st8" d="M170.7,62.2L170.7,62.2L170.7,62.2z"/>
							</g>
							<g>
								<path class="st8" d="M171.6,62.6c0-0.1-0.3-0.1-0.4-0.2c-0.2,0-0.3,0-0.5,0s-0.3,0-0.5,0s-0.3,0-0.5,0.1
									c-0.1,0-0.4,0.6-0.3,0.7c0.1,0.1,0.3,0.1,0.4,0.1c0.2,0,0.4,0,0.6,0c0.4,0,0.6,0,0.7-0.1c0.1-0.1,0.1-0.2,0.2-0.3
									c0,0,0.1-0.1,0.1-0.2C171.5,62.7,171.6,62.6,171.6,62.6z"/>
							</g>
						</g>
					</g>
				</g>
			</g>
			<g>
				<g>
					<g>
						<defs>
							<rect id="SVGID_00000063618971407485049220000009686057029287980725_" x="148.3" y="59.4" width="28.6" height="47.8"/>
						</defs>
						<clipPath id="SVGID_00000163067616112105975350000009967212399484770482_">
							<use xlink:href="#SVGID_00000063618971407485049220000009686057029287980725_"  style="overflow:visible;"/>
						</clipPath>
						<g style="clip-path:url(#SVGID_00000163067616112105975350000009967212399484770482_);">
							<circle class="st48" cx="163.2" cy="63.4" r="0.2"/>
						</g>
					</g>
				</g>
			</g>
		</g>
		<g>
			<g>
				<path class="st24" d="M51.5,115.7L51.5,115.7L51.5,115.7L51.5,115.7C51.5,115.7,51.6,115.7,51.5,115.7
					C51.6,115.7,51.6,115.7,51.5,115.7c0-0.1,0-0.1,0-0.2s0-0.1,0-0.2s0-0.2,0.1-0.3c0-0.2,0.1-0.4,0.1-0.7c0.1-0.5,0.2-0.9,0.3-1.3
					s0.2-0.9,0.4-1.3c0.1-0.4,0.2-0.9,0.4-1.3c0.1-0.4,0.3-0.9,0.4-1.3c0.2-0.4,0.3-0.8,0.5-1.3c0-0.1,0.1-0.2,0.1-0.3
					c0-0.1,0.1-0.1,0.2-0.1c0,0,0.1,0,0.1,0.1v0.1v0.1v0.1c0,0.1,0,0.1-0.1,0.2c0,0.1-0.1,0.2-0.1,0.3c-0.1,0.2-0.2,0.4-0.3,0.6
					s-0.2,0.4-0.2,0.6c-0.1,0.2-0.2,0.4-0.2,0.6c-0.1,0.4-0.3,0.9-0.4,1.3c-0.1,0.4-0.3,0.9-0.4,1.3c-0.1,0.4-0.2,0.9-0.4,1.3
					c-0.1,0.2-0.1,0.4-0.2,0.7c-0.1,0.2-0.1,0.4-0.2,0.6C51.7,115.5,51.7,115.6,51.5,115.7C51.6,115.7,51.6,115.7,51.5,115.7
					C51.6,115.7,51.6,115.7,51.5,115.7C51.6,115.7,51.5,115.7,51.5,115.7z"/>
			</g>
			<g>
				<path class="st24" d="M51.4,115.5L51.4,115.5L51.4,115.5L51.4,115.5z M51.8,114.8L51.8,114.8L51.8,114.8z M56.6,102.6
					L56.6,102.6L56.6,102.6z M56.6,102.6L56.6,102.6L56.6,102.6z M51.4,115.5L51.4,115.5L51.4,115.5L51.4,115.5z M51.4,115.5
					L51.4,115.5L51.4,115.5L51.4,115.5z M51.4,115.5L51.4,115.5L51.4,115.5L51.4,115.5L51.4,115.5L51.4,115.5L51.4,115.5L51.4,115.5
					L51.4,115.5L51.4,115.5L51.4,115.5z M51.4,115.6L51.4,115.6C51.4,115.6,51.4,115.5,51.4,115.6c0-0.1,0-0.1,0.1-0.2
					c0.1-0.3,0.2-0.6,0.3-0.9s0.2-0.6,0.3-0.9c0.2-0.6,0.4-1.2,0.6-1.9c0.2-0.6,0.4-1.2,0.6-1.8c0.1-0.3,0.2-0.6,0.3-0.9
					s0.2-0.6,0.3-0.8c0.1-0.3,0.2-0.5,0.3-0.8s0.2-0.6,0.4-0.9c0.1-0.3,0.2-0.5,0.4-0.8c0.1-0.3,0.3-0.5,0.4-0.8
					c0-0.1,0.1-0.1,0.1-0.2c0.1-0.3,0.2-0.6,0.3-0.8c0.1-0.3,0.2-0.6,0.4-0.9c0.1-0.2,0.2-0.4,0.2-0.6l0,0l0,0l0,0c0,0,0,0,0-0.1
					c0.1-0.3,0.2-0.5,0.4-0.8c0.1-0.3,0.3-0.5,0.4-0.8c0.1-0.1,0.1-0.2,0.2-0.4c0-0.1,0.1-0.1,0.1-0.2s0.1-0.1,0.1-0.2
					s0.1-0.1,0.2-0.1c0,0,0.1,0,0.1,0.1v0.1c0,0.1-0.1,0.2-0.1,0.3c0,0.1-0.1,0.1-0.1,0.2c-0.1,0.1-0.1,0.3-0.2,0.4
					c-0.1,0.3-0.3,0.5-0.4,0.8c-0.1,0.2-0.2,0.5-0.3,0.7c0,0,0,0,0,0.1l0,0c-0.2,0.6-0.5,1.1-0.7,1.7c-0.1,0.3-0.2,0.6-0.4,0.9
					c-0.1,0.3-0.3,0.5-0.4,0.8c-0.1,0.2-0.2,0.4-0.3,0.6s-0.2,0.4-0.3,0.6c-0.2,0.5-0.4,1.1-0.6,1.6c-0.1,0.3-0.2,0.6-0.3,0.9
					s-0.2,0.6-0.3,0.9c-0.2,0.6-0.4,1.2-0.6,1.8c-0.1,0.3-0.2,0.6-0.3,0.9s-0.2,0.6-0.4,0.9c-0.1,0.2-0.1,0.3-0.2,0.5l0,0
					c-0.1,0.2-0.1,0.3-0.2,0.5c0,0,0,0.1-0.1,0.1C51.5,115.5,51.5,115.5,51.4,115.6C51.5,115.5,51.5,115.6,51.4,115.6L51.4,115.6
					L51.4,115.6z"/>
			</g>
			<g>
				<path class="st24" d="M63.8,115.8C63.8,115.8,63.8,115.7,63.8,115.8c-0.1-0.1-0.2-0.1-0.2-0.1s0,0,0-0.1s0-0.2,0-0.2
					c0-0.4,0-0.7,0-1.1c0-0.7,0-1.4,0-2.1c0-1.4,0-2.8,0.1-4.2c0.1-1.4,0.1-2.7,0-4c-0.1-1.2-0.2-2.3-0.4-3.4
					c-0.1-0.8-0.2-1.5-0.3-2.3c-0.1-0.3-0.1-0.7-0.2-1c0-0.2-0.1-0.4-0.1-0.6c0,0-0.1-0.4-0.2-0.2c-0.1-0.3-0.3-0.7-0.6-1
					c-0.3-0.2-0.7-0.3-1.1-0.4l0,0c-1.4-0.2-2.9-0.1-4.2,0.4l0,0c-0.2,0.1-0.4,0.2-0.6,0.3c0-0.2,0.1-0.4-0.1-0.5
					c-0.2-0.1-0.3,0.1-0.4,0.3c-0.1,0.4-0.2,0.8-0.4,1.1c-0.3,0.7-0.5,1.4-0.8,2.1c-0.2,0.5-0.4,1-0.6,1.5l0,0
					c-0.1,0.1-0.1,0.2-0.2,0.4c-0.1,0.1-0.1,0.3-0.2,0.4c0,0,0,0.1-0.1,0.1c-0.4,0.9-0.7,1.8-1,2.7c-0.3,0.9-0.6,1.8-0.9,2.7
					c-0.7,1.9-1.5,3.7-2.2,5.6c-0.2,0.6-0.4,1.2-0.6,1.8c-0.1,0.3-0.2,0.6-0.3,0.9c0,0.1-0.1,0.2-0.1,0.3c0,0,0,0.1-0.1,0.1
					c0,0.1-0.1,0.1,0,0.2c-0.1,0.1,0,0.1,0.1,0.1s0.1,0,0.2,0c0.2,0,0.4,0,0.6,0.1c0.3,0,0.7,0.1,1,0.1c0.2,0,0.4,0,0.6,0
					c0.1,0,0.3,0,0.4,0.1H51c0.1,0,0.1,0.1,0.2,0.1c0.1,0,0.1-0.1,0.1-0.1c0-0.1,0-0.1,0-0.2s0-0.1,0.1-0.2c0-0.1,0.1-0.3,0.1-0.4
					c0.1-0.2,0.1-0.5,0.2-0.7c0.2-0.7,0.4-1.3,0.6-2c0.2-0.7,0.4-1.4,0.7-2.2c0.1-0.4,0.2-0.7,0.4-1.1c0.1-0.3,0.2-0.7,0.4-1
					c0.4-0.8,0.7-1.5,1.1-2.3c0.4-0.8,0.7-1.6,1.2-2.4c0.2-0.4,0.4-0.8,0.6-1.2c0.1-0.2,0.2-0.4,0.3-0.6s0.2-0.3,0.3-0.5
					c0.5-0.6,0.9-1.2,1.4-1.8c0.1-0.1,0.2-0.2,0.3-0.3c0.4,1.2,0.6,2.4,0.7,3.6c0.1,1.2,0.2,2.5,0.3,3.7c0.1,1,0.2,1.9,0.2,2.9
					c0.1,1.3,0.1,2.6,0.1,4c0,0.5,0,1-0.1,1.4c0,0.4,0,0.8,0,1.2c0,0.2,0,0.4,0,0.6c0,0.1,0,0.2,0,0.3c0,0.1,0.1,0.1,0.2,0.1
					c-0.1,0.1,0.2,0.1,0.3,0.1c0.2,0,0.3,0,0.5-0.1c0.3-0.1,0.7-0.1,1-0.2s0.6-0.2,0.9-0.3C63.5,116.2,64,116.1,63.8,115.8z"/>
			</g>
			<g>
				<path class="st49" d="M57.5,91c-0.2,0-0.5,0-0.7-0.1s-0.2-0.3-0.1-0.5c0.1-0.4,0.4-0.9,0.7-1.2c0.1-0.2,0.3-0.3,0.5-0.4
					s0.4-0.1,0.5-0.2c0.1,0,0.1,0,0.2,0l0,0c0,0,0,0,0.1,0s0.1,0,0.2,0c0.2,0,0.3,0,0.5,0c0.5,0,0.9-0.3,1.4-0.3
					c0.5-0.1,0.9,0,1.4-0.2c0.9-0.3,1.5-0.3,2.4-0.8c0.2-0.1,0.7-0.6,0.8-0.7c0.2-0.2,0.4-0.3,0.6-0.5c0.2-0.1,0.3-0.2,0.5-0.2
					c0.1,0,0.2,0,0.3,0.1s0,0.3-0.1,0.4c0.3,0,1,0.1,0.8,0.5c-0.1,0.4-0.3,0.8-0.6,1.1c-0.1,0.2-0.2,0.2-0.4,0.2
					c-0.2,0-0.3,0.1-0.5,0.1c-0.1,0-0.2,0-0.3,0s-0.1,0.1-0.2,0.1c-0.2,0.1-0.3,0.2-0.5,0.3c-0.7,0.5-1.6,1-2.4,1.3
					c-0.8,0.3-1.6,0.6-2.5,0.7C59.3,90.8,58.4,91,57.5,91z"/>
			</g>
			<g>
				<path class="st49" d="M64.3,91.1L64.3,91.1L64.3,91.1z M63.8,90.5L63.8,90.5L63.8,90.5z M65.7,89.9L65.7,89.9L65.7,89.9z
					 M64.8,89.2L64.8,89.2L64.8,89.2z M65.7,89.9L65.7,89.9L65.7,89.9z M64.6,91.2c-0.1,0-0.3-0.1-0.4-0.1S64.1,91,64,91
					c-0.1,0-0.1,0-0.2-0.1c-0.1-0.1-0.1-0.1-0.1-0.2s0.1-0.1,0.1-0.2l0,0c0.1-0.2,0.2-0.3,0.4-0.5c-0.1,0.1,0,0,0,0
					c0-0.1,0.1-0.1,0.1-0.2c0,0,0,0,0.1-0.1c0,0,0.1-0.1,0,0c0,0,0,0,0.1-0.1l0,0c0,0,0.1-0.1,0,0c0.2-0.3,0.5-0.6,0.7-1
					c0.1-0.1,0.1-0.3,0.3-0.4c0.1,0,0.1,0,0.2,0c0,0,0.1-0.1,0.1-0.2s0.1-0.1,0.2-0.1l0,0l0.1-0.1c0.1-0.1,0.1-0.3,0.2-0.3
					c0.3,0,0,0.8-0.1,0.9c-0.2,0.5-0.3,0.9-0.5,1.4l0,0l0,0l0,0c-0.1,0.3-0.2,0.6-0.4,0.8C65.1,91,64.9,91.2,64.6,91.2z"/>
			</g>
			<g>
				<g>
					<g>
						<path class="st49" d="M66.9,85.7L66.9,85.7L66.9,85.7z"/>
					</g>
					<g>
						<path class="st49" d="M67,85.6C67,85.6,66.9,85.6,67,85.6C66.9,85.6,66.9,85.6,67,85.6C66.9,85.6,67,85.6,67,85.6z"/>
					</g>
					<g>
						<path class="st49" d="M66.9,85.7L66.9,85.7L66.9,85.7L66.9,85.7z"/>
					</g>
					<g>
						<path class="st49" d="M66.9,85.6L66.9,85.6L66.9,85.6z"/>
					</g>
					<g>
						<path class="st49" d="M69.2,83.9c-0.1-0.2-0.5-0.1-0.6-0.1c-0.3,0.1-0.5,0.2-0.8,0.3c0.1-0.2,0.2-0.5,0.3-0.6
							c0.2-0.1,0.1-0.1,0.3-0.1c0.5-0.2,0-0.4-0.4-0.4s-0.6,0.4-0.7,0.7c-0.1,0.2,0,0-0.1,0.2c-0.2,0.2-0.3,0.6-0.4,0.8
							c-0.1,0.1-0.1,0.3-0.2,0.4c0,0.1-0.1,0.1-0.1,0.2c-0.1,0.1-0.1,0.2-0.2,0.3l-0.1,0.1l0,0c0,0,0,0,0,0.1v0.1V86
							c-0.1,0.2-0.2,0.4-0.2,0.6c-0.1,0.2-0.2,0.5-0.2,0.7c0.1,0.4,0.4,0,0.4-0.2c0.1-0.3,0.2-0.5,0.3-0.8l0,0h0.1l0.1-0.1l0,0v-0.1
							c0-0.1,0.1-0.1,0.1-0.2l0,0c0-0.1,0.1-0.1,0.1-0.2l0,0l0,0l0,0l0,0l0,0l0,0l0,0c0,0,0,0,0-0.1c0.2,0.1,0.5,0.1,0.7,0.1
							c0.3,0,0.6-0.1,0.9-0.2c0.2-0.1,0.3-0.4,0.4-0.7C69.1,84.6,69.3,84.1,69.2,83.9z M66.8,85.9L66.8,85.9L66.8,85.9L66.8,85.9z"
							/>
					</g>
				</g>
				<g>
					<path class="st49" d="M66.7,86"/>
				</g>
				<g>
					<path class="st49" d="M66.7,86L66.7,86C66.6,86,66.6,86,66.7,86z"/>
				</g>
			</g>
			<g>
				<path class="st49" d="M60.3,84.6c-0.3,0-0.1-0.3-0.2-0.4H60c-0.1,0-0.1-0.1-0.2,0c-0.1,0-0.2,0.1-0.3,0.1s-0.1-0.2-0.3-0.2
					c-0.1,0-0.2-0.1-0.3-0.2s0-0.2-0.1-0.2c-0.2,0-0.2-0.1-0.2-0.3c0-0.3,0.1-0.5,0.1-0.8c0-0.1,0-0.3,0-0.4s-0.2-0.2-0.2-0.3
					c-0.3-0.6-0.5-1.4-0.5-2.1s-0.1-1.3,0.1-2c0.2-0.7,0.8-1.1,1.5-1.3c0.6-0.2,1.3,0,1.9,0.2c0.5,0.2,1.2,0.6,1.3,1.2
					c0,0.4-0.1,0.9-0.1,1.3c-0.1,0.4-0.2,0.9-0.3,1.3c-0.2,0.7-0.5,1.6-1.1,2.1c0,0.5,0,0.5,0,0.7s0.1,0.2,0,0.3
					c-0.1,0.2-0.2,0.2-0.4,0.3c-0.1,0.1-0.3,0.3-0.4,0.3C60.5,84.3,60.6,84.6,60.3,84.6z"/>
			</g>
			<g>
				<path class="st44" d="M58.6,85.1c-0.5-0.1-0.9-0.2-1.3-0.4c-0.5-0.2-1-0.3-1.5-0.3c0.5-0.5,1.3-0.5,2-0.6c0.1,0,0.1,0,0.2,0h0.1
					c0,0,0-0.1,0.1-0.1c0-0.1,0.1-0.3,0.1-0.4c0.1-0.1,0.2-0.3,0.3-0.2c0.2,0.1,0.3,0.3,0.4,0.4c0.1,0.1,0.3,0.3,0.4,0.4
					c0.1,0.1,0.3,0.3,0.5,0.4c-0.1,0.1-0.1,0.2-0.2,0.3c-0.1,0.1,0.1,0.3,0.1,0.3c0,0.1-0.4,0.1-0.6,0.1
					C59,85.1,58.8,85.1,58.6,85.1z"/>
			</g>
			<g>
				<path class="st44" d="M63.4,89.9C63.5,89.9,63.5,89.9,63.4,89.9C63.5,89.9,63.5,89.9,63.4,89.9z M62.7,90.2
					C62.8,90.2,62.8,90.2,62.7,90.2C62.8,90.2,62.8,90.2,62.7,90.2z M62.5,90.3L62.5,90.3C62.5,90.2,62.5,90.2,62.5,90.3
					C62.6,90.2,62.6,90.2,62.5,90.3C62.6,90.2,62.6,90.2,62.5,90.3L62.5,90.3c0.1-0.1,0.1-0.1,0.1-0.2l0,0l0,0l0,0h0.1h0.1
					c0.1,0,0.2-0.1,0.3-0.1c0,0,0,0,0.1,0c0,0,0,0,0.1,0h0.1l0,0h0.1c0,0,0,0,0.1,0c0,0,0,0,0,0.1l0,0c0,0,0,0-0.1,0c0,0,0,0-0.1,0
					s-0.2,0.1-0.3,0.1s-0.2,0.1-0.3,0.1l0,0C62.7,90.2,62.7,90.3,62.5,90.3C62.6,90.3,62.6,90.3,62.5,90.3
					C62.6,90.3,62.6,90.3,62.5,90.3z"/>
			</g>
			<g>
				<g>
					<path class="st44" d="M65,89.1L65,89.1L65,89.1z"/>
				</g>
				<g>
					<path class="st44" d="M64.9,89.1L64.9,89.1L64.9,89.1L64.9,89.1L64.9,89.1L64.9,89.1C64.9,89.1,65,89.1,64.9,89.1
						C65,89.1,64.9,89.1,64.9,89.1L64.9,89.1z"/>
				</g>
				<g>
					<path class="st44" d="M64.9,89.2L64.9,89.2L64.9,89.2L64.9,89.2L64.9,89.2L64.9,89.2L64.9,89.2L64.9,89.2L64.9,89.2
						C64.9,89.2,64.9,89.1,64.9,89.2C64.9,89.1,64.9,89.1,64.9,89.2C64.9,89.1,64.9,89.1,64.9,89.2C64.9,89.1,64.9,89.1,64.9,89.2
						C64.9,89.1,64.9,89.1,64.9,89.2C64.9,89.1,64.9,89.2,64.9,89.2L64.9,89.2L64.9,89.2z"/>
				</g>
				<g>
					<path class="st44" d="M62.9,90L62.9,90L62.9,90L62.9,90z"/>
				</g>
				<g>
					<path class="st44" d="M65,88.7L65,88.7L65,88.7z"/>
				</g>
				<g>
					<path class="st44" d="M65.2,88.7c-0.1-0.1-0.3,0-0.3,0.1c-0.1,0.1-0.3,0.1-0.4,0.2c-0.3,0.1-0.7,0.3-1,0.4s-0.6,0.3-1,0.4
						c-0.1,0.1-0.3,0.1-0.5,0.1c-0.1,0-0.3,0.1-0.2,0.2c-0.1,0-0.2,0.2-0.1,0.3c0.1,0.1,0.3,0,0.4-0.1c-0.1,0,0,0,0,0s0.1,0,0.1-0.1
						c0.1,0,0.2-0.1,0.2-0.1c0.2-0.1,0.3-0.2,0.5-0.2L62.8,90l0,0l0,0c0,0,0,0,0,0.1s0.1,0.2,0.2,0.3c0.2,0.1,0.6,0.5,0.7,0.4
						c0,0,0.1-0.2,0.1-0.3c0-0.1,0.1-0.1,0.1-0.2c0.1-0.1,0.2-0.3,0.3-0.4c0.2-0.3,0.4-0.5,0.6-0.8C65,89.1,65.3,88.8,65.2,88.7z"/>
				</g>
			</g>
			<g>
				<path class="st44" d="M61.8,88.1L61.8,88.1L61.8,88.1L61.8,88.1z M62.2,88.1C62.1,88.1,62.1,88.1,62.2,88.1
					C62.1,88.1,62.1,88.1,62.2,88.1z M62.2,87.9L62.2,87.9L62.2,87.9z M62.3,87.9C62.3,87.9,62.2,87.9,62.3,87.9
					C62.2,87.9,62.3,87.9,62.3,87.9z M63.7,87.5L63.7,87.5L63.7,87.5L63.7,87.5L63.7,87.5z M63.8,87.4
					C63.8,87.4,63.7,87.4,63.8,87.4C63.7,87.4,63.8,87.4,63.8,87.4z M64.2,87.4L64.2,87.4L64.2,87.4L64.2,87.4z M64.5,87.1
					L64.5,87.1L64.5,87.1z M64.7,87.2L64.7,87.2L64.7,87.2z M62.4,87.8L62.4,87.8L62.4,87.8z M62.3,87.9L62.3,87.9L62.3,87.9z
					 M62.2,88.1L62.2,88.1L62.2,88.1L62.2,88.1L62.2,88.1z M60.4,88.2c-0.1,0-0.2,0-0.3,0s-0.2,0-0.3,0h-0.1c0,0,0,0,0-0.1
					s0-0.1,0.1-0.1s0.2,0,0.4,0c0.1,0,0.2,0,0.3,0s0.2,0,0.3,0s0.2,0,0.3,0c0.2,0,0.3,0,0.5,0s0.3,0,0.5-0.1l0,0h0.1l0,0l0,0
					c0.2,0,0.5-0.1,0.7-0.1c0.1,0,0.2-0.1,0.3-0.1s0.2-0.1,0.3-0.1l0,0l0,0l0,0l0,0l0,0l0,0c0.2-0.1,0.3-0.2,0.5-0.2
					c0.1,0,0.1-0.1,0.2-0.1c0,0,0.1,0,0.1-0.1h0.1l0,0c0,0,0,0,0,0.1l0,0l0,0l0,0l0,0l0,0l0,0l0,0h-0.1c-0.1,0-0.1,0.1-0.2,0.1H64
					c-0.1,0.1-0.2,0.1-0.3,0.2l0,0c-0.2,0.1-0.4,0.2-0.7,0.3c-0.1,0-0.2,0.1-0.3,0.1s-0.2,0-0.3,0.1c-0.1,0-0.1,0-0.2,0l0,0l0,0l0,0
					l0,0l0,0l0,0l0,0c0,0,0,0-0.1,0l0,0c-0.1,0-0.2,0-0.3,0l0,0l0,0l0,0l0,0c-0.2,0-0.4,0.1-0.7,0.1c-0.2,0-0.4,0-0.5,0
					C60.5,88.2,60.5,88.2,60.4,88.2z"/>
			</g>
			<g>
				<path class="st44" d="M57.5,89.7L57.5,89.7L57.5,89.7L57.5,89.7z M58.2,88.6L58.2,88.6L58.2,88.6z M57.4,89.5L57.4,89.5
					L57.4,89.5z M57.4,89.5L57.4,89.5L57.4,89.5z M57.1,89.9L57.1,89.9L57.1,89.9z M56.8,90.5C56.8,90.5,56.8,90.4,56.8,90.5
					L56.8,90.5C56.8,90.4,56.8,90.4,56.8,90.5c0-0.1,0-0.1,0-0.2c0,0,0,0,0-0.1c0,0,0-0.1,0.1-0.1c0-0.1,0.1-0.2,0.1-0.3
					c0-0.1,0.1-0.2,0.2-0.3c0.1-0.1,0.1-0.2,0.2-0.3l0.1-0.1l0,0c0,0,0,0,0,0.1c0,0,0,0,0,0.1s-0.1,0.1-0.1,0.2
					c-0.1,0.1-0.1,0.2-0.1,0.3l0.1-0.1l0,0l0,0l0,0l0,0l0,0l0,0l0,0l0,0c0.1-0.2,0.3-0.3,0.4-0.5C57.9,89.1,58,89,58,89l0,0l0,0l0,0
					c0.1,0,0.1-0.1,0.2-0.1l0,0c0.1,0,0.1-0.1,0.2-0.1c0,0,0.1,0,0.1-0.1l0,0l0,0c0,0,0,0,0.1,0l0,0l0.1-0.1l0.1-0.1h0.1
					c0,0,0,0,0.1,0c0,0,0.1,0,0.1,0.1v0.1c0,0,0,0-0.1,0.1l0,0c0,0-0.1,0-0.1,0.1c0,0-0.1,0-0.1,0.1c-0.1,0-0.2,0.1-0.3,0.1
					s-0.2,0.1-0.3,0.1c0,0,0,0-0.1,0c-0.1,0.1-0.3,0.3-0.4,0.4c-0.1,0.1-0.1,0.2-0.2,0.2c-0.1,0.1-0.1,0.2-0.2,0.3l0,0l0,0l0,0l0,0
					l0,0c-0.1,0.1-0.2,0.3-0.3,0.4c0,0.1-0.1,0.1-0.1,0.2c0,0,0,0.1-0.1,0.1c0,0,0,0,0,0.1l0,0l0,0C56.9,90.5,56.9,90.5,56.8,90.5
					L56.8,90.5z"/>
			</g>
			<g>
				<path class="st44" d="M55.8,96.4L55.8,96.4L55.8,96.4z M55.5,96.5L55.5,96.5L55.5,96.5L55.5,96.5z M57.4,96.8
					c-0.1,0-0.2,0-0.3,0s-0.2,0-0.3,0c-0.2,0-0.3,0-0.5-0.1c-0.1,0-0.1,0-0.2,0c-0.1,0-0.1,0-0.2,0c-0.1,0-0.2,0-0.3-0.1
					c0,0-0.1,0-0.1-0.1c0,0,0,0-0.1,0c0,0,0,0-0.1-0.1c0,0,0,0,0-0.1l0,0l0,0l0,0l0,0l0,0c0,0,0,0,0.1,0l0,0l0,0c0,0,0,0,0.1,0h0.1
					l0,0c0,0,0,0,0.1,0s0.1,0,0.2,0.1l0,0l0,0H56c0.1,0,0.1,0,0.2,0c0.2,0,0.4,0,0.5,0.1c0.2,0,0.4,0,0.6,0.1c0,0,0,0,0.1,0
					L57.4,96.8C57.5,96.8,57.5,96.8,57.4,96.8L57.4,96.8z"/>
			</g>
			<g>
				<g>
					<path class="st44" d="M57.3,97L57.3,97L57.3,97L57.3,97z"/>
				</g>
				<g>
					<path class="st44" d="M57.3,97L57.3,97L57.3,97L57.3,97z"/>
				</g>
			</g>
			<g>
				<path class="st44" d="M64.7,87C64.7,87,64.7,86.9,64.7,87L64.7,87L64.7,87c-0.1-0.3-0.2-0.5-0.2-0.6c-0.1-0.2-0.2-0.4-0.4-0.7
					c-0.2-0.3-0.3-0.5-0.5-0.7c-0.1-0.1-0.2-0.2-0.3-0.3c-0.1-0.1-0.2-0.2-0.3-0.2c0,0-0.1,0-0.2-0.1c-0.1,0-0.1,0-0.2,0
					c-0.1,0-0.3,0-0.4-0.1l0,0l0,0c-0.2,0-0.3,0-0.5-0.1l0,0l0,0c0-0.1,0-0.1,0-0.2v-0.1c0-0.1,0-0.2,0-0.2c0-0.1-0.1-0.3-0.1-0.5
					c0,0,0-0.1-0.1-0.1h-0.1l0,0c0,0,0,0-0.1,0c0,0,0,0-0.1,0.1l0,0l0,0c0,0,0,0.1-0.1,0.1L61,83.4l0,0c-0.1,0.2-0.3,0.3-0.4,0.4
					c-0.1,0.1-0.2,0.1-0.3,0.2l0,0l0,0c0.1,0.1,0.1,0.1,0.2,0.2l0,0c0,0,0,0,0,0.1c0,0,0,0,0,0.1v0.1v0.1c0,0,0,0.1-0.1,0.1
					c0,0,0,0-0.1,0.1l0,0l0,0l0,0c0,0,0,0,0,0.1c0,0,0,0.1-0.1,0.1c0,0.1-0.1,0.2-0.1,0.2L60,85.3l-0.1,0.1
					c-0.1,0.1-0.1,0.1-0.2,0.2c-0.2,0.2-0.4,0.3-0.6,0.4c-0.1,0-0.2,0.1-0.3,0.1s-0.2,0.1-0.3,0.1s-0.1,0-0.2,0h-0.1l0,0l0,0
					c-0.1,0-0.2,0-0.3,0l0,0c-0.1,0-0.2,0-0.3,0s-0.2,0-0.3-0.1c-0.2,0-0.3-0.1-0.5-0.1c-0.2-0.1-0.5-0.1-0.7-0.2l0,0H56l0,0l0,0
					c0,0,0,0-0.1,0l0,0l0,0l0,0l0,0l0,0h-0.1l0,0l0,0c-0.1,0-0.1,0-0.1,0l0,0h-0.1l0,0c-0.1,0.5-0.1,1-0.1,1.6c0,0.3,0,0.6,0,0.9
					c0,0.2,0,0.5,0,0.7l0,0v0.1c0,0.5,0,1.1,0.1,1.8c0,0.6,0,1.2,0,1.6v0.2c0,0.6,0,1.2,0,1.8v0.3v0.3v0.3v0.2v0.2v0.1V96v0.1v0.1
					c0,0.1,0,0.1,0.1,0.2c0,0,0.1,0.1,0.2,0.1l0,0c0,0,0,0,0.1,0.1c0.1,0,0.2,0.1,0.3,0.1s0.2,0.1,0.3,0.1s0.1,0,0.2,0.1
					c0.1,0,0.2,0.1,0.3,0.1s0.2,0.1,0.3,0.1s0.2,0,0.4,0.1l0,0c0.3,0,0.6,0.1,0.9,0.1c0.1,0,0.2,0,0.4,0c0.1,0,0.2,0,0.4,0
					s0.5,0,0.7,0.1c0.2,0,0.4,0,0.5,0c0.3,0,0.7,0,1-0.1l0,0l0,0l0,0l0,0c0.2,0,0.4-0.1,0.5-0.1c0.2,0,0.3-0.1,0.5-0.2
					c0.1-0.1,0.2-0.2,0.4-0.2l0.1-0.1l0.1-0.1c0-0.1,0-0.1,0-0.2c0,0,0,0,0-0.1s0-0.1,0-0.2l0,0l0,0c0-0.1,0-0.2-0.1-0.3l0,0l0,0
					l0,0c0-0.2-0.1-0.4-0.1-0.5s0-0.3,0-0.4c0-0.5,0-1,0-1.5l0,0v-0.1c0-0.1,0-0.2,0-0.3v-0.1c0-0.1,0-0.2,0-0.4c0-0.3,0-0.5,0-0.8
					c0-0.1,0-0.2,0-0.3l0,0c0-0.1,0-0.2,0-0.3V91c0-0.2,0.1-0.4,0-0.7c0-0.1,0-0.1,0-0.2V90c0,0,0,0,0-0.1v-0.1c0,0,0,0-0.1,0
					c0,0,0,0-0.1,0c0,0,0,0-0.1,0l0,0l0,0l0,0l0,0h-0.1l0,0l0,0l0,0l0,0h-0.1l0,0h-0.1c-0.2,0-0.3,0.1-0.5,0.1
					c-0.2,0.1-0.4,0.1-0.6,0.2c-0.3,0.1-0.5,0.1-0.7,0.1s-0.4,0.1-0.6,0.1l0,0l0,0H60h-0.1l0,0l0,0l0,0l0,0l0,0
					c-0.4,0.1-0.7,0.1-1,0.1c-0.1,0-0.1,0-0.2,0c-0.2,0-0.4,0-0.5,0s-0.2,0-0.3,0l0,0l0,0l0,0l0,0v-0.1l0,0c0-0.1,0.1-0.2,0.1-0.3
					c0-0.1,0.1-0.1,0.1-0.2c0.1-0.2,0.2-0.4,0.3-0.6c0.2-0.2,0.3-0.4,0.5-0.5l0.1-0.1c0,0,0.1,0,0.1-0.1l0,0c0,0,0,0,0.1-0.1l0,0
					l0,0l0,0l0,0l0,0l0,0l0,0l0,0l0,0l0,0l0,0c0.1,0,0.2,0,0.2,0h0.1c0.1,0,0.2,0,0.3,0c0.3,0,0.6-0.1,0.9-0.1
					c0.3-0.1,0.6-0.1,0.9-0.2c0.7-0.1,1.2-0.3,1.7-0.4c0.3-0.1,0.5-0.2,0.8-0.3c0.1-0.1,0.3-0.1,0.4-0.2
					C64.5,87.2,64.6,87.2,64.7,87C64.6,87.1,64.6,87.1,64.7,87C64.7,87.1,64.8,87.1,64.7,87L64.7,87c0.1-0.1,0.2-0.1,0.2,0l0,0H65
					C64.7,87.2,64.7,87.2,64.7,87C64.7,87.1,64.7,87,64.7,87z"/>
			</g>
			<g>
				<path class="st50" d="M37.5,136.3c-0.1,0-0.1,0-0.2-0.1c-0.2-0.1-0.3-0.4-0.2-0.6l37.5-64.1c0.1-0.2,0.4-0.3,0.6-0.2
					c0.2,0.1,0.3,0.4,0.2,0.6L37.9,136C37.8,136.2,37.6,136.3,37.5,136.3z"/>
			</g>
			<g>
				<path class="st51" d="M62.5,80.1c0,0,0-0.2,0-0.3c0-0.2,0-0.4,0-0.7c0-0.2-0.1-0.4-0.3-0.6c-0.1-0.2-0.3-0.2-0.5-0.3
					c-0.5-0.1-1-0.1-1.5-0.2c-0.4-0.1-0.9-0.1-1.3-0.4c-0.1,0.1-0.2,0.3-0.2,0.4c-0.1,0.2-0.2,0.4-0.3,0.6c-0.1,0.3-0.2,0.5-0.2,0.8
					c0,0.2-0.1,0.5-0.1,0.4l-0.2-0.3c-0.2-0.3-0.4-0.7-0.5-1c-0.1-0.5-0.1-0.9,0.1-1.3c0.1-0.4,0.4-0.7,0.7-1
					c0.1-0.1,0.2-0.1,0.3-0.2c0.2-0.1,0.4-0.3,0.6-0.5c0.8-0.5,1.7-0.5,2.5-0.2s1.6,0.8,1.9,1.6c0.2,0.5,0.1,0.9-0.1,1.4
					c0,0.1-0.2,0.7-0.2,0.7l0,0l0,0c-0.1,0.2-0.2,0.5-0.3,0.7C62.7,79.9,62.6,80.1,62.5,80.1z"/>
			</g>
			<g>
				<path class="st5" d="M59.8,87.1C59.8,87,59.9,87,59.8,87.1c0.2-0.1,0.2,0,0.2,0C60,87.2,59.9,87.2,59.8,87.1
					C59.8,87.3,59.8,87.2,59.8,87.1z"/>
			</g>
			<g>
				<path class="st5" d="M59.4,92.9C59.4,92.8,59.5,92.8,59.4,92.9c0.2-0.1,0.2,0,0.2,0C59.6,93,59.5,93,59.4,92.9
					C59.4,93.1,59.4,93,59.4,92.9z"/>
			</g>
			<g>
				<path class="st5" d="M59.2,96C59.2,95.9,59.3,95.9,59.2,96c0.2-0.1,0.2,0,0.2,0H59.2L59.2,96z"/>
			</g>
			<g>
				<path class="st5" d="M56.3,90.1L56.3,90.1L56.3,90.1L56.3,90.1L56.3,90.1z M56.3,90.1L56.3,90.1L56.3,90.1L56.3,90.1z
					 M56.3,90.2C56.2,90.2,56.2,90.2,56.3,90.2C56.2,90.1,56.2,90.1,56.3,90.2c-0.1-0.2-0.1-0.3,0-0.4c0.1-0.2,0.1-0.4,0.2-0.6
					c0-0.1,0.1-0.2,0.2-0.3c0.1-0.1,0.1-0.2,0.2-0.3c0.1-0.1,0.1-0.2,0.2-0.2l0.1-0.1l0.1-0.1c0.1-0.1,0.3-0.2,0.4-0.3
					c0.1-0.1,0.2-0.1,0.3-0.2c0,0,0,0,0.1,0l0,0c0,0,0,0,0,0.1l0,0c-0.1,0-0.2,0.1-0.3,0.2s-0.3,0.2-0.4,0.3
					c-0.1,0.1-0.2,0.2-0.3,0.3c-0.1,0.1-0.2,0.2-0.3,0.3c-0.1,0.1-0.1,0.2-0.2,0.3c-0.1,0.1-0.1,0.2-0.1,0.3
					c-0.1,0.2-0.1,0.3-0.2,0.5l0,0C56.3,90,56.3,90,56.3,90.2C56.4,90.2,56.3,90.2,56.3,90.2L56.3,90.2z"/>
			</g>
			<g>
				<path class="st5" d="M57.7,87.3L57.7,87.3L57.7,87.3L57.7,87.3z M57.9,88c0-0.1-0.1-0.1-0.1-0.2c-0.1-0.1-0.2-0.2-0.3-0.4l0,0
					c-0.1-0.1-0.1-0.2-0.2-0.2l-0.1-0.1l0,0c0,0-0.1,0-0.1-0.1l0,0v-0.1h0.1l0,0c0,0,0,0,0.1,0.1l0.1,0.1c0,0.1,0.1,0.1,0.1,0.2
					c0.1,0.1,0.2,0.3,0.3,0.4C57.8,87.8,57.9,87.8,57.9,88L57.9,88C58,88,58,88,57.9,88C58,88,58,88,57.9,88z"/>
			</g>
			<g>
				<path class="st5" d="M58.3,87.9L58.3,87.9L58.3,87.9L58.3,87.9z M58.1,88L58.1,88L58.1,88z M58.1,88L58.1,88L58.1,88L58.1,88z
					 M58.2,88L58.2,88L58.2,88L58.2,88z M58.5,88.5c0-0.1-0.1-0.2-0.1-0.2c-0.1-0.1-0.1-0.2-0.2-0.3l0,0l0,0c0,0,0,0,0-0.1l0,0
					c0,0,0,0,0.1,0c0,0,0,0,0.1,0l0,0c0,0,0,0,0,0.1s0.1,0.1,0.1,0.2c0.1,0.1,0.1,0.2,0.2,0.3c0,0,0,0.1,0.1,0.1v0.1
					C58.6,88.6,58.6,88.6,58.5,88.5C58.5,88.6,58.5,88.6,58.5,88.5z"/>
			</g>
			<g>
				<path class="st5" d="M56.5,90.2L56.5,90.2L56.5,90.2z M56.3,90.3L56.3,90.3L56.3,90.3L56.3,90.3z M57.2,90.6L57.2,90.6
					c-0.1,0-0.2,0-0.2-0.1c-0.2-0.1-0.3-0.1-0.5-0.2l0,0c-0.1,0-0.1-0.1-0.2-0.1l0,0l0,0v-0.1c0,0,0-0.1,0.1-0.1c0,0,0,0,0.1,0l0,0
					c0,0,0.1,0,0.1,0.1l0,0l0,0l0,0c0.1,0.1,0.3,0.1,0.4,0.2c0,0,0.1,0,0.1,0.1h0.1l0,0C57.2,90.4,57.2,90.4,57.2,90.6
					C57.3,90.6,57.3,90.6,57.2,90.6L57.2,90.6L57.2,90.6z"/>
			</g>
			<g>
				<path class="st5" d="M62.7,87.5L62.7,87.5L62.7,87.5L62.7,87.5z M62.7,87.4C62.7,87.4,62.7,87.5,62.7,87.4
					C62.7,87.5,62.7,87.5,62.7,87.4C62.7,87.5,62.7,87.5,62.7,87.4z M62.9,87.5L62.9,87.5L62.9,87.5L62.9,87.5z M62.9,87.5
					L62.9,87.5L62.9,87.5L62.9,87.5z M62.7,87.5L62.7,87.5L62.7,87.5L62.7,87.5z M62.7,87.4L62.7,87.4L62.7,87.4L62.7,87.4z
					 M62.9,87.4L62.9,87.4L62.9,87.4L62.9,87.4z M62.8,87.4L62.8,87.4L62.8,87.4C62.9,87.4,62.8,87.4,62.8,87.4z M62.8,87.4
					L62.8,87.4L62.8,87.4L62.8,87.4z M62.8,87.4L62.8,87.4L62.8,87.4L62.8,87.4z M62.7,87.5L62.7,87.5L62.7,87.5L62.7,87.5z
					 M62.7,87.9c0-0.1,0-0.3,0-0.4l0,0l0,0l0,0l0,0l0,0l0,0l0,0l0,0l0,0l0,0l0,0l0,0l0,0l0,0l0,0l0,0l0,0c0-0.1,0-0.2-0.1-0.3
					c0-0.1,0-0.1,0-0.2c0,0,0,0,0-0.1l0,0l0,0c0,0,0-0.1,0.1-0.1c0,0,0,0,0.1,0l0,0c0,0,0,0,0,0.1s0,0.1,0,0.2s0,0.2,0.1,0.4l0,0
					l0,0l0,0l0,0l0,0l0,0l0,0l0,0l0,0l0,0l0,0l0,0c0,0.1,0,0.3,0,0.4C62.9,87.9,62.9,88,62.7,87.9C62.8,88,62.7,87.9,62.7,87.9z"/>
			</g>
			<g>
				<path class="st5" d="M62.8,89.7L62.8,89.7L62.8,89.7L62.8,89.7z M62.8,89.7L62.8,89.7L62.8,89.7z M62.8,90c0-0.1,0-0.2,0-0.3
					l0,0l0,0l0,0l0,0c0,0,0-0.1,0.1-0.1c0,0,0.1,0,0.1,0.1v0.1v0.1c0,0.1,0,0.1,0,0.2C63,90.1,62.9,90.1,62.8,90
					C62.8,90.1,62.8,90.1,62.8,90z"/>
			</g>
			<g>
				<path class="st5" d="M62.9,90L62.9,90L62.9,90L62.9,90z M62.9,90L62.9,90L62.9,90L62.9,90z M62.9,90L62.9,90L62.9,90L62.9,90z
					 M62.8,90.1C62.8,90.1,62.9,90.1,62.8,90.1C62.9,90,62.9,90,62.8,90.1c0.1-0.1,0.1-0.2,0.2-0.2c0.1-0.1,0.1-0.1,0.2-0.2
					c0.1-0.1,0.2-0.3,0.3-0.4c0,0,0,0,0-0.1h0.1v0.1c-0.1,0.1-0.2,0.2-0.3,0.3c-0.1,0.1-0.2,0.3-0.3,0.4C63,90.2,63,90.2,62.8,90.1
					C62.9,90.2,62.8,90.2,62.8,90.1z"/>
			</g>
			<g>
				<path class="st5" d="M63,90.2L63,90.2L63,90.2z M63,90.3L63,90.3L63,90.3z M62.9,90.3L62.9,90.3L62.9,90.3L62.9,90.3z
					 M63.5,90.7c-0.1-0.1-0.2-0.1-0.2-0.2c-0.1,0-0.1-0.1-0.2-0.1L63,90.3c0,0-0.1,0-0.1-0.1c0,0,0-0.1,0.1-0.1h0.1
					c0.1,0,0.2,0.1,0.2,0.1c0.1,0.1,0.2,0.1,0.3,0.2l0,0c0,0,0,0,0,0.1C63.6,90.7,63.5,90.7,63.5,90.7L63.5,90.7z"/>
			</g>
			<g>
				<path class="st5" d="M60.9,84.9L60.9,84.9L60.9,84.9L60.9,84.9z M60.8,85.1C60.8,85.1,60.8,85,60.8,85.1
					C60.7,85,60.7,85,60.8,85.1c-0.1-0.2-0.2-0.3-0.2-0.4l0,0l0,0c0,0,0,0,0-0.1c0,0,0-0.1,0.1-0.1s0.1,0,0.1,0.1l0.1,0.1
					c0,0,0,0.1,0.1,0.1v0.1c0.1-0.1,0.3-0.3,0.4-0.4c0.1-0.1,0.2-0.2,0.2-0.3l0,0h0.1v0.1l-0.1,0.1l-0.1,0.1
					c-0.1,0.1-0.3,0.3-0.4,0.4L61,85C60.9,85.1,60.9,85.1,60.8,85.1C60.9,85.1,60.9,85.1,60.8,85.1L60.8,85.1z"/>
			</g>
			<g>
				<path class="st5" d="M59.4,84.9L59.4,84.9L59.4,84.9z M59.4,84.9L59.4,84.9L59.4,84.9z M59.4,85L59.4,85L59.4,85
					C59.4,85,59.3,85,59.4,85c-0.1-0.1-0.2-0.1-0.2-0.2c-0.1-0.1-0.2-0.1-0.3-0.2s-0.2-0.2-0.4-0.2c-0.1-0.1-0.2-0.2-0.3-0.3
					L58.1,84L58,83.9c0-0.1,0-0.1,0-0.2c0,0,0,0,0-0.1l0,0l0,0l0,0c0,0,0,0,0.1,0l0,0l0,0l0,0l0,0l0,0l0,0l0,0v0.1l0,0l0,0
					c0,0,0,0,0,0.1s0.1,0.1,0.1,0.1c0.1,0.1,0.1,0.1,0.2,0.2c0.1,0.1,0.2,0.2,0.3,0.2c0.1,0.1,0.2,0.1,0.3,0.2
					c0.1,0,0.1,0.1,0.2,0.1c0,0,0,0,0.1,0c0,0,0.1,0.1,0,0.1C59.5,85,59.5,85,59.4,85C59.4,85.1,59.4,85.1,59.4,85
					C59.4,85.1,59.4,85.1,59.4,85z"/>
			</g>
			<g>
				<polygon class="st52" points="48.3,71 76,71 76,116.9 36.1,137 				"/>
			</g>
			<g>
				<path class="st24" d="M53.6,86.4L53.6,86.4C53.6,86.4,53.5,86.4,53.6,86.4C53.5,86.4,53.5,86.4,53.6,86.4
					C53.5,86.4,53.5,86.3,53.6,86.4L53.6,86.4L53.6,86.4L53.6,86.4L53.6,86.4L53.6,86.4L53.6,86.4L53.6,86.4L53.6,86.4
					c-0.1-0.1-0.1-0.2-0.2-0.2l0,0l0,0l-0.1-0.1l0,0l0,0l0,0l0,0l0,0l0,0V86c0-0.1,0.1-0.1,0.1-0.2c0.1-0.1,0.1-0.2,0.2-0.3
					c0.1-0.1,0.1-0.1,0.2-0.2c0-0.1,0.1-0.1,0.1-0.1s0,0,0.1,0l0,0l0,0l0,0l0,0l0,0c0,0,0,0,0.1,0l0,0l0,0c0.1,0,0.1-0.1,0.2-0.1
					c0.1,0,0.2,0,0.3-0.1c0.2,0,0.3-0.1,0.5-0.1l0,0c0.2,0,0.5,0,0.7-0.1h0.1c0.2,0,0.3,0,0.5,0s0.5,0.1,0.7,0.1s0.3,0.1,0.5,0.2
					h0.1c0.2,0.1,0.4,0.1,0.6,0.2c0.1,0,0.2,0.1,0.3,0.1s0.2,0,0.3,0.1c0.1,0,0.2,0,0.3,0s0.1,0,0.2,0c0.1,0,0.3,0,0.3-0.1
					c0.3-0.1,0.3-0.2,0.3-0.2l0,0c0,0,0-0.1-0.1-0.1c0-0.1,0-0.1,0-0.2v-0.1c0,0,0,0,0-0.1l0,0l0,0l0.1-0.1c0,0,0,0,0.1-0.1
					c0,0,0,0,0.1,0h0.1c0,0,0,0,0.1,0h0.1c0.1,0.1,0.1,0.1,0.2,0.2l0,0c0,0,0,0,0,0.1c0,0,0,0,0,0.1V85v0.1c0,0,0,0.1-0.1,0.1
					c0,0,0,0-0.1,0.1l0,0l0,0l0,0c0,0,0,0,0,0.1c0,0,0,0.1-0.1,0.1c0,0.1-0.1,0.2-0.1,0.2l-0.1,0.1l-0.1,0.1C60,86,60,86,59.9,86.1
					c-0.2,0.2-0.4,0.3-0.6,0.4c-0.1,0-0.2,0.1-0.3,0.1s-0.2,0.1-0.3,0.1s-0.1,0-0.2,0h-0.1l0,0l0,0c-0.1,0-0.2,0-0.3,0l0,0
					c-0.1,0-0.2,0-0.3,0s-0.2,0-0.3-0.1c-0.2,0-0.3-0.1-0.5-0.1c-0.3-0.1-0.6-0.2-0.9-0.2l0,0c-0.2,0-0.3,0-0.4,0l0,0
					c-0.1,0-0.2,0-0.2,0c-0.1,0-0.2,0-0.2,0c-0.2,0-0.3,0-0.4,0.1c-0.1,0-0.3,0.1-0.4,0.1h-0.1l0,0l0,0c-0.1,0-0.1,0.1-0.2,0.1
					C53.7,86.4,53.7,86.4,53.6,86.4L53.6,86.4z"/>
			</g>
			<g>
				<path class="st49" d="M67.2,86.2l-0.7,1.9c0,0-0.9,0.1-1.1,0.3c-0.2,0.2-1,0.6-1,0.6l0.7-1.8l0.9-1H67.2z"/>
			</g>
			<g>
				<circle class="st51" cx="59.2" cy="79.8" r="0.3"/>
			</g>
			<g>
				<circle class="st51" cx="61.4" cy="79.8" r="0.3"/>
			</g>
		</g>
		<g>
			<polygon class="st53" points="18.6,98 99,115.8 71.4,143.4 			"/>
		</g>
		<g>
			<polygon class="st53" points="179.4,98 99,115.8 126.6,143.4 			"/>
		</g>
		<g>
			<path class="st3" d="M178.7,146.2H17.5c-1.5,0-2.8-1.2-2.8-2.8s1.2-2.8,2.8-2.8h161.2c1.5,0,2.8,1.2,2.8,2.8
				S180.2,146.2,178.7,146.2z"/>
		</g>
		<g>
			<path class="st44" d="M107.3,28.3h-0.5c0.3-1,0.5-2,0.5-3c0-5.7-4.7-10.4-10.4-10.4c-4.4,0-8.1,2.7-9.7,6.6
				c-1-0.4-2.1-0.6-3.2-0.6c-4.5,0-8.2,3.2-9,7.4h-1.1v0.1c-3.1,0.5-5.5,3.1-5.5,6.4c0,3.2,2.4,5.9,5.5,6.4v0.1h33.3
				c3.6,0,6.4-2.9,6.4-6.4S110.8,28.3,107.3,28.3z"/>
		</g>
		<g>
			<path class="st44" d="M133.3,57.4h0.3c-0.2-0.5-0.3-1.1-0.3-1.7c0-3.2,2.6-5.8,5.8-5.8c2.4,0,4.5,1.5,5.4,3.6
				c0.5-0.2,1.1-0.3,1.8-0.3c2.5,0,4.5,1.8,5,4.1h0.6l0,0c1.7,0.3,3,1.7,3,3.5s-1.3,3.3-3,3.5l0,0h-18.5c-2,0-3.6-1.6-3.6-3.6
				S131.3,57.4,133.3,57.4z"/>
		</g>
		<g>
			<path class="st44" d="M18,67.4h0.3c-0.2-0.6-0.3-1.2-0.3-1.8c0-3.4,2.8-6.2,6.2-6.2c2.6,0,4.9,1.6,5.8,3.9
				c0.6-0.2,1.2-0.3,1.9-0.3c2.7,0,4.9,1.9,5.4,4.4H38l0,0c1.8,0.3,3.3,1.9,3.3,3.8S39.9,74.7,38,75l0,0H18c-2.1,0-3.8-1.7-3.8-3.8
				S15.9,67.4,18,67.4z"/>
		</g>
		<g>
			<g>
				<path class="st54" d="M115.3,96.4C115.3,96.3,115.3,96.3,115.3,96.4L115.3,96.4L115.3,96.4C115.3,96.3,115.3,96.3,115.3,96.4
					C115.3,96.3,115.4,96.3,115.3,96.4C115.4,96.3,115.4,96.3,115.3,96.4C115.4,96.4,115.4,96.4,115.3,96.4L115.3,96.4L115.3,96.4
					L115.3,96.4L115.3,96.4L115.3,96.4C115.4,96.4,115.4,96.4,115.3,96.4C115.4,96.4,115.3,96.4,115.3,96.4z"/>
			</g>
			<g>
				<path class="st55" d="M115.3,96.4C115.3,96.3,115.3,96.3,115.3,96.4L115.3,96.4L115.3,96.4C115.3,96.3,115.3,96.3,115.3,96.4
					C115.3,96.3,115.4,96.3,115.3,96.4C115.4,96.3,115.4,96.3,115.3,96.4C115.4,96.4,115.4,96.4,115.3,96.4L115.3,96.4L115.3,96.4
					L115.3,96.4L115.3,96.4L115.3,96.4C115.4,96.4,115.4,96.4,115.3,96.4C115.4,96.4,115.3,96.4,115.3,96.4z"/>
			</g>
			<g>
				<path class="st54" d="M116.5,100.1c-0.1,0-0.2-0.1-0.3-0.1c-0.2-0.1-0.3-0.2-0.5-0.3c-0.2-0.1-0.3-0.2-0.5-0.3
					c-0.2-0.1-0.3-0.2-0.5-0.3c-0.1,0-0.1-0.1-0.2-0.1l-0.1-0.1l0,0c-0.1-0.1-0.1-0.1-0.2-0.2l0,0l0,0c-0.1,0-0.1-0.1-0.2-0.2l0,0
					l0,0c0,0,0-0.1-0.1-0.1c0,0,0,0-0.1,0c0,0-0.1,0-0.1-0.1c0,0,0,0,0-0.1s0-0.2,0.1-0.3c0.1-0.2,0.1-0.4,0.2-0.5
					c0-0.1,0.1-0.2,0.1-0.2c0-0.1,0.1-0.1,0.2-0.2c0.1-0.2,0.2-0.3,0.3-0.4c0.1-0.1,0.2-0.1,0.3-0.2c0,0,0.1,0,0.1-0.1l0,0l0,0l0,0
					l0,0l-0.1-0.1c-0.1-0.2-0.2-0.3-0.3-0.5c-0.1-0.1-0.1-0.2-0.1-0.3c-0.1-0.1-0.1-0.2-0.1-0.3c-0.1-0.2-0.2-0.4-0.3-0.6
					c-0.1-0.2-0.1-0.4-0.2-0.7c-0.1-0.2-0.1-0.5-0.1-0.7V93c0-0.1,0-0.2,0-0.2c0-0.1,0-0.1,0-0.2l0,0l0,0l0,0c0,0,0-0.1,0.1-0.1l0,0
					c0,0,0.1,0,0.1,0.1l0,0l0,0v0.1v0.2v0.2v0.1c0,0.2,0.1,0.4,0.1,0.6c0.1,0.3,0.1,0.5,0.2,0.8c0.1,0.2,0.2,0.4,0.3,0.6
					c0,0.1,0.1,0.2,0.1,0.3c0,0.1,0.1,0.2,0.1,0.3c0.1,0.2,0.2,0.3,0.2,0.4c0.1,0.1,0.1,0.2,0.2,0.3c0,0,0,0,0.1,0.1l0,0l0,0l0,0
					c0,0,0,0,0,0.1l0,0l0,0h-0.1l0,0l0,0l0,0l0,0c0,0,0,0,0.1,0c0,0,0,0,0.1,0l0,0l0,0l0,0c0,0,0.1,0,0.1,0.1
					c0.1,0.1,0.2,0.1,0.3,0.2c0.1,0.1,0.2,0.1,0.3,0.2l0.2,0.1c0.1,0.1,0.2,0.2,0.4,0.2c0.1,0.1,0.2,0.1,0.3,0.2l0,0c0,0,0,0,0.1,0
					c0,0,0.1,0,0.1,0.1h0.1v-0.1c0,0,0,0,0-0.1l0,0c0-0.1,0-0.2,0.1-0.3v-0.1c0-0.1,0-0.2,0-0.3c0-0.1,0-0.2-0.1-0.3v-0.1
					c0-0.1,0-0.1-0.1-0.2l0,0l0,0c0-0.1-0.1-0.2-0.1-0.2c0-0.1-0.1-0.1-0.1-0.2l0,0c0,0,0-0.1-0.1-0.1l0,0l0,0v-0.1
					c0-0.1-0.1-0.2-0.1-0.3c0-0.1-0.1-0.1-0.1-0.2v-0.1c0-0.1-0.1-0.1-0.1-0.2s0-0.1-0.1-0.2l0,0v-0.1c0-0.1,0-0.1-0.1-0.2l0,0l0,0
					c0-0.1-0.1-0.2-0.1-0.2l0,0v-0.1V94v-0.1l0,0c0,0,0,0,0-0.1c0,0,0-0.1,0.1-0.1l0,0c0,0,0.1,0,0.1,0.1v0.1V94v0.1v0.1v0.1
					c0,0.1,0,0.1,0.1,0.2l0,0l0,0l0,0c0,0.1,0,0.1,0.1,0.2v0.1c0,0.1,0.1,0.2,0.1,0.3v0.1c0,0.1,0,0.1,0.1,0.2v0.1
					c0,0.1,0.1,0.2,0.1,0.3c0,0.1,0.1,0.1,0.1,0.2l0,0l0,0l0,0c0,0,0,0,0.1,0h0.1l0,0c0.1,0,0.1,0,0.2-0.1h0.1l0,0l0,0l0,0l0,0l0,0
					l0,0l0,0l0,0l0,0l0,0l0,0l0,0l0,0c0,0,0,0,0,0.1c0,0,0,0,0,0.1l0,0c0,0,0,0.1,0.1,0.1c0,0.1,0,0.1,0,0.2l0,0c0,0,0,0-0.1,0l0,0
					l0,0v-0.1l0,0l0,0l0,0l0,0c0,0,0,0-0.1,0l0,0c0,0-0.1,0.1,0,0.1c0,0.1,0.1,0.2,0.1,0.2v0.1c0,0.1,0.1,0.2,0.1,0.3l0,0l0,0l0,0
					c0,0-0.1,0-0.1,0.1v0.1l0,0l0,0v0.1v0.1l0,0c0,0.1,0,0.1,0.1,0.2v0.1v0.1l0,0l0,0l0,0l0,0l0,0l0,0l0,0l0,0l0,0
					c0.1,0,0.1-0.1,0.1-0.1l0,0l0,0l0,0l0,0v-0.1l0,0v-0.1v-0.1l0,0l0,0l0,0l0,0l0,0c0,0,0,0.1,0.1,0.1l0,0l0,0v0.1
					c0,0,0,0.1,0.1,0.1l0,0l0,0l0,0c0,0,0,0.1,0.1,0.1l0,0l0,0l0,0l0,0l0,0l0,0l0,0l0,0v0.1l0,0l0,0l0,0l0,0l0,0c0,0,0,0-0.1,0l0,0
					V98l0,0l0,0c0,0,0,0,0,0.1l0,0h-0.1h-0.1l0,0l0,0l0,0l0,0l0,0l0,0c0,0,0,0,0,0.1l0,0h-0.1l0,0l0,0l0,0l0,0l0,0c0,0,0,0-0.1,0
					l0,0c-0.1,0.1-0.2,0.3-0.2,0.4l-0.1,0.1c0,0.1-0.1,0.2-0.1,0.3c0,0.1-0.1,0.2-0.1,0.3c0,0.1-0.1,0.2-0.1,0.3
					c0,0.1-0.1,0.2-0.1,0.3c0,0.1,0,0.1-0.1,0.2c0,0.1,0,0.2,0,0.3l0,0C116.8,100.2,116.7,100.2,116.5,100.1z"/>
			</g>
			<g>
				<path class="st55" d="M114.1,98.3L114.1,98.3L114.1,98.3z M113.9,98.4C113.9,98.3,113.9,98.3,113.9,98.4c0-0.2,0.1-0.3,0.1-0.4
					c0.1-0.2,0.1-0.4,0.2-0.5c0-0.1,0.1-0.2,0.1-0.2c0-0.1,0.1-0.1,0.2-0.2c0.1-0.2,0.2-0.3,0.3-0.4c0.1-0.1,0.2-0.1,0.3-0.2
					c0,0,0.1,0,0.1-0.1l0,0l0,0l0,0c0,0,0,0,0.1-0.1l0,0l0,0l0,0l0,0l0,0l0,0l0,0l0,0c0,0,0,0,0,0.1l0,0l0,0c0,0,0,0,0,0.1l0,0
					l-0.1,0.1c-0.1,0.1-0.2,0.1-0.2,0.2c-0.1,0.1-0.1,0.1-0.2,0.2s-0.2,0.2-0.2,0.3c-0.1,0.1-0.1,0.2-0.2,0.3
					c-0.1,0.2-0.1,0.3-0.2,0.5c0,0.1-0.1,0.2-0.1,0.3l0,0l0,0l0,0l0,0l0,0C114,98.4,114,98.4,113.9,98.4L113.9,98.4z"/>
			</g>
			<g>
				<path class="st56" d="M117.4,96c0-0.1-0.1-0.1-0.1-0.2c0,0,0-0.1-0.1-0.1l0,0l0,0v-0.1h0.1l0,0l0,0c0,0,0,0.1,0.1,0.1l0.1,0.1
					l0.1,0.1V96C117.5,96,117.5,96,117.4,96C117.5,96,117.4,96,117.4,96z"/>
			</g>
			<g>
				<path class="st56" d="M117.5,96.4L117.5,96.4L117.5,96.4z M117.5,97.7C117.4,97.7,117.4,97.6,117.5,97.7
					C117.4,97.6,117.4,97.6,117.5,97.7c-0.1-0.1-0.1-0.1-0.1-0.2l0,0l0,0l0,0l0,0c0,0,0,0,0-0.1v-0.1c0-0.1,0-0.2,0.1-0.2
					c0-0.1,0-0.1,0-0.2s0-0.1,0-0.2s0-0.1,0-0.2s0-0.2,0-0.2c0-0.1-0.1-0.2-0.1-0.3c0,0,0-0.1-0.1-0.1c0,0,0-0.1-0.1-0.1l0,0
					c0,0,0,0,0-0.1c0,0,0-0.1,0.1-0.1c0,0,0.1,0,0.1,0.1s0.1,0.1,0.1,0.2c0,0,0,0.1,0.1,0.1c0,0,0,0.1,0.1,0.1c0,0,0,0.1,0.1,0.1
					v0.1c0,0.1,0,0.2,0,0.3c0,0.2,0,0.3-0.1,0.5v0.1l0,0l0,0l0,0c0,0,0,0,0-0.1h0.1c0,0,0,0,0.1,0l0,0c0,0,0,0,0,0.1v0.1l0,0
					c0,0,0,0,0,0.1v0.1l0,0l0,0c0,0,0,0-0.1,0.1c0,0,0,0-0.1,0l0,0l0,0C117.6,97.7,117.6,97.7,117.5,97.7L117.5,97.7L117.5,97.7
					L117.5,97.7z"/>
			</g>
			<g>
				<path class="st56" d="M118.2,96.6L118.2,96.6L118.2,96.6L118.2,96.6z M118.2,96.6L118.2,96.6L118.2,96.6z M118.2,96.6
					L118.2,96.6L118.2,96.6L118.2,96.6z M118.2,96.6L118.2,96.6L118.2,96.6L118.2,96.6L118.2,96.6L118.2,96.6L118.2,96.6z
					 M118.2,96.6L118.2,96.6L118.2,96.6L118.2,96.6z M118,96.6L118,96.6L118,96.6z M118,96.6L118,96.6L118,96.6L118,96.6z M118,96.6
					L118,96.6L118,96.6L118,96.6L118,96.6L118,96.6z M118.3,97.2c0-0.1-0.1-0.1-0.1-0.2s-0.1-0.2-0.1-0.3l0,0l0,0l0,0l0,0l0,0l0,0
					l0,0l0,0l0,0l0,0l0,0l0,0l0,0l0,0l0,0l0,0l0,0l0,0l0,0l0,0l0,0l0,0l0,0l0,0l0,0l0,0l0,0l0,0l0,0l0,0c0-0.1-0.1-0.2-0.1-0.3
					c0-0.1,0-0.2-0.1-0.3c0-0.1,0-0.2-0.1-0.3c0-0.1,0-0.1,0-0.2v-0.1l0,0c-0.1,0-0.1,0-0.2,0.1c-0.1,0-0.1,0-0.2,0.1h-0.1h-0.1
					v-0.1l0,0l0,0l0,0c0,0,0,0,0.1,0h0.1l0,0c0.1,0,0.1,0,0.2-0.1h0.1l0,0l0,0l0,0l0,0l0,0l0,0l0,0v0.1c0,0.1,0,0.1,0,0.2
					c0,0.2,0.1,0.3,0.1,0.5c0,0.1,0.1,0.2,0.1,0.3l0,0l0,0l0,0l0,0l0,0l0,0l0,0l0,0l0,0l0,0l0,0l0,0l0,0l0,0l0,0l0,0l0,0l0,0l0,0
					l0,0l0,0l0,0l0,0l0,0l0,0l0,0l0,0l0,0l0,0l0,0l0,0l0,0l0,0l0,0l0,0l0,0l0,0l0,0l0,0l0,0l0,0l0,0l0,0l0,0l0,0l0,0l0,0l0,0l0,0
					l0,0l0,0l0,0l0,0l0,0c0,0.1,0.1,0.2,0.1,0.3c0,0.1,0.1,0.2,0.1,0.2l0,0v0.1C118.4,97.3,118.4,97.3,118.3,97.2
					C118.4,97.3,118.3,97.3,118.3,97.2z"/>
			</g>
			<g>
				<path class="st56" d="M117.7,95.4L117.7,95.4L117.7,95.4z M117.7,95.4L117.7,95.4L117.7,95.4z M117.8,95.6L117.8,95.6
					L117.8,95.6z M117.8,95.6L117.8,95.6L117.8,95.6z M117.5,95.6L117.5,95.6L117.5,95.6z M117.5,95.6L117.5,95.6L117.5,95.6z
					 M117.3,95.7L117.3,95.7L117.3,95.7L117.3,95.7z M117.8,95.8L117.8,95.8L117.8,95.8L117.8,95.8z M118,96L118,96L118,96z
					 M117.7,97.5L117.7,97.5c0-0.1,0-0.1,0-0.2c0,0,0,0,0-0.1l0,0l0,0l0,0l0,0C117.6,97.4,117.6,97.4,117.7,97.5
					C117.6,97.4,117.6,97.4,117.7,97.5L117.7,97.5L117.7,97.5c-0.1,0-0.1,0-0.2,0c0,0,0,0,0-0.1v-0.1v-0.1c0-0.1,0-0.1,0.1-0.2
					c0-0.1,0-0.1,0-0.2l0,0l0,0v-0.1l0,0l0,0l0,0c0-0.1,0-0.1,0-0.2v-0.1l0,0l0,0c0,0,0-0.1-0.1-0.1c0,0,0-0.1-0.1-0.1l0,0
					c0,0,0-0.1-0.1-0.1c0,0,0,0,0-0.1l0,0l0,0l0,0l0,0l0,0l0,0c0,0,0,0,0-0.1l0,0l0,0c0,0,0,0,0.1,0l0,0h0.1l0,0l0,0l0,0l0,0l0,0
					l0,0l0,0l0,0l0,0l0,0c0,0,0.1,0,0.1,0.1c0,0,0,0,0,0.1c0,0,0,0,0,0.1l0,0l0,0l0,0l0,0l0,0l0,0l0,0l0,0l0,0l0,0l0,0l0,0l0,0l0,0
					c0,0,0,0,0,0.1l0,0l0,0l0,0l0,0l0,0l0,0l0,0l0,0l0,0l0,0l0,0l0,0l0,0l0,0l0,0l0,0l0,0l0,0c0,0,0,0,0.1,0l0,0l0,0l0,0v0.1l0,0
					l0,0c0,0,0,0,0,0.1l0,0c0.1,0.1,0.1,0.3,0.1,0.4V97l0,0c0,0,0,0,0,0.1l0,0l0,0l0,0l0,0l0,0c0,0,0,0,0,0.1v0.1
					C117.8,97.3,117.8,97.3,117.7,97.5L117.7,97.5C117.7,97.4,117.7,97.4,117.7,97.5L117.7,97.5L117.7,97.5L117.7,97.5
					c0,0.1,0,0.1,0,0.2l0,0v0.1l0,0l0,0c0,0,0,0-0.1,0l0,0h-0.1l0,0c0,0,0,0-0.1,0l0,0c0,0,0,0-0.1,0l0,0l0,0l0,0l0,0
					C117.8,97.5,117.8,97.5,117.7,97.5C117.8,97.5,117.8,97.5,117.7,97.5L117.7,97.5z"/>
			</g>
			<g>
				<path class="st55" d="M115.3,96.3C115.2,96.3,115.2,96.3,115.3,96.3C115.2,96.3,115.2,96.3,115.3,96.3
					C115.2,96.3,115.2,96.3,115.3,96.3C115.2,96.3,115.2,96.3,115.3,96.3c-0.1-0.1-0.2-0.2-0.2-0.2c-0.1-0.2-0.2-0.3-0.3-0.5
					c-0.1-0.1-0.1-0.2-0.1-0.3c-0.1-0.1-0.1-0.2-0.1-0.3c-0.1-0.2-0.2-0.4-0.3-0.6c-0.1-0.2-0.1-0.4-0.2-0.7
					c-0.1-0.2-0.1-0.5-0.1-0.7v-0.1c0-0.1,0-0.2,0-0.2c0-0.1,0-0.1,0-0.2l0,0l0,0l0,0c0,0,0-0.1,0.1-0.1l0,0h0.1l0,0l0,0l0,0l0,0
					l0,0l0,0v0.1v0.2v0.2V93c0,0.2,0.1,0.4,0.1,0.6c0.1,0.3,0.1,0.5,0.2,0.8c0.1,0.2,0.2,0.4,0.3,0.6c0,0.1,0.1,0.2,0.1,0.3
					c0,0.1,0.1,0.2,0.1,0.3c0.1,0.2,0.2,0.3,0.2,0.4C115.3,96.1,115.3,96.2,115.3,96.3c0.1,0,0.1,0,0.2,0.1l0,0l0,0c0,0,0,0,0.1,0.1
					l0,0l0,0l0,0l0,0C115.4,96.4,115.3,96.4,115.3,96.3C115.3,96.4,115.3,96.4,115.3,96.3z"/>
			</g>
			<g>
				<path d="M112.3,89.2c-0.1-0.2-0.1-0.2-0.2-0.4c-0.2-0.4-0.3-0.7-0.5-1.1c0,1.1-0.9,1.9-1.8,2.3c-0.4,0.2-1.2,0.4-1.7,0.1
					c-0.2-0.1-0.1-0.3,0.1-0.3c0.2-0.1,0.5-0.2,0.7-0.3c0.9-0.8,0.4-2.1-0.1-3c-0.5-0.8-1.2-1.7-0.6-2.7c0.2-0.5,0.7-0.8,1.1-0.9
					c0.6-0.2,1.5-0.1,2,0.4c0.8-1,2.3-1.6,3.4-1.6c0.7,0,1.4,0.2,1.8,0.8c0.2,0.3,0.3,0.8,0.1,1.1c-0.1,0.2-0.3,0.4-0.4,0.6
					c-0.5,0.6-1.1,1.2-1.6,1.9c-0.3,0.5-0.6,1-0.9,1.5c-0.1,0.3-0.3,0.5-0.4,0.8C113.1,88.7,112.3,89.3,112.3,89.2z"/>
			</g>
			<g>
				<path class="st54" d="M113.4,91.1c-0.1,0-0.2,0-0.3,0c-0.1,0-0.2,0-0.3,0l0,0l-0.1-0.1l-0.1-0.1l0,0c0,0,0,0-0.1-0.1l0,0l0,0
					l0,0l0,0l0,0l0,0l0,0c0,0,0,0,0.1,0h0.1h0.1l0,0l0,0c0.1,0,0.3,0.1,0.4,0.1S113.3,90.9,113.4,91.1c0.1-0.1,0.2-0.1,0.2-0.1l0,0
					c0.1,0,0.3,0,0.5,0c0.1,0,0.3,0,0.5,0s0.3-0.1,0.4-0.1s0.2,0,0.2-0.1v0.1l0,0c-0.1,0-0.3,0.1-0.4,0.1c-0.2,0-0.4,0.1-0.6,0.1
					c-0.1,0-0.2,0-0.3,0c-0.1,0-0.2,0-0.3,0H113.4C113.5,91.1,113.4,91.1,113.4,91.1z"/>
			</g>
			<g>
				<path class="st56" d="M115.3,90.9L115.3,90.9C115.2,90.9,115.2,90.9,115.3,90.9c-0.1-0.1-0.1-0.1,0-0.2l0,0l0,0l0,0l0,0l0,0l0,0
					C115.3,90.8,115.3,90.9,115.3,90.9L115.3,90.9L115.3,90.9L115.3,90.9z"/>
			</g>
			<g>
				<path class="st56" d="M117.6,86.8c-0.2-0.2-0.5-0.4-0.5-0.7c0.1-0.4,0.2-0.7,0.2-1.1s-0.1-0.7-0.3-1.1c-0.2-0.3-0.3-0.5-0.5-0.7
					c-0.1-0.1-0.3-0.3-0.5-0.3c-0.1,0.1-0.2,0.3-0.2,0.4c-0.1,0.4-0.2,0.7-0.4,1.1c-0.3,0.6-0.7,1.2-1.2,1.7
					c-0.1,0.1-0.2,0.2-0.3,0.3c-0.1,0.1-0.1,0.1-0.2,0.2c-0.1,0,0,0-0.1,0c0,0,0-0.1-0.1-0.1c-0.2-0.2-0.6-0.5-1-0.3
					s-0.3,0.6-0.1,0.9c0,0.1,0.1,0.1,0.1,0.2s0.2,0.3,0.1,0.4s-0.1,0.2-0.2,0.4c-0.1,0.4-0.4,0.8-0.2,1.1c0.2,0.5,0.1,0.3,0.2,0.5
					c0,0.2,0,0.4,0,0.6c0,0.1,0,0.2,0,0.3v0.1l0.1,0.1c0.1,0.1,0.1,0.2,0.2,0.2s0.2,0,0.3,0c0.1,0,0.2,0,0.3,0c0.3,0,0.6,0,1,0
					c0.3,0,0.7-0.1,1-0.2c0-0.1,0-0.1-0.1-0.2c0,0.1,0-0.2,0-0.3c0-0.1,0-0.2,0-0.4l0,0l0,0c0-0.1,0-0.4,0-0.5l0.1-0.1
					c0.1,0,0.2,0,0.3,0c0.2,0,0.3,0,0.5-0.1c0.3-0.1,0.6-0.9,0.7-1.2c0.1-0.2,0.1-0.4,0.1-0.6v-0.1c0-0.1,0-0.1,0.1-0.1s0.1,0,0.2,0
					s0.3-0.1,0.3-0.2C117.8,87.1,117.8,86.9,117.6,86.8z"/>
			</g>
			<g>
				<path class="st56" d="M112.8,91L112.8,91L112.8,91l-0.2-0.2l0,0l0,0h0.1c0.1,0,0.1,0,0.2,0c0,0,0,0,0.1,0c0,0,0.1,0,0.1,0.1V91
					l0,0C113,91,112.9,91,112.8,91C112.9,91,112.8,91,112.8,91L112.8,91L112.8,91z"/>
			</g>
			<g>
				<path class="st56" d="M112.6,90.8L112.6,90.8L112.6,90.8C112.5,90.7,112.5,90.7,112.6,90.8L112.6,90.8
					C112.5,90.7,112.5,90.7,112.6,90.8L112.6,90.8L112.6,90.8L112.6,90.8c-0.1-0.2-0.1-0.3-0.1-0.4l0,0l0,0l0,0l0,0l0,0l0,0l0,0
					v-0.1h0.1c0,0,0,0,0,0.1v0.1C112.6,90.5,112.6,90.6,112.6,90.8L112.6,90.8L112.6,90.8z"/>
			</g>
			<g>
				<path class="st24" d="M120.9,109.2c-0.2-0.3-0.5-0.6-0.7-0.8c-0.4-0.5-0.7-1-1.1-1.4l0,0c-0.1-0.1-0.3-0.4-0.3-0.4l0,0
					c0,0-0.2-0.3-0.2-0.4c-0.7-1-1.3-2.1-1.8-3.2c-0.1,0.2-0.4,0.2-0.6,0.2c-0.3,0.1-0.5,0.1-0.8,0.1c-0.5,0-0.9,0-1.4,0
					c-0.5-0.1-0.9-0.2-1.3-0.4c-0.1-0.1-0.3-0.1-0.4-0.1s-0.2-0.1-0.3-0.1h-0.1c-0.5,5.4-2.1,10.5-2.8,11.1l13-2.8
					C122,110.7,121.1,109.3,120.9,109.2z"/>
			</g>
			<g>
				<path class="st50" d="M94.8,143.8c-0.1,0-0.1,0-0.2-0.1c-0.2-0.1-0.3-0.4-0.2-0.6l37.2-63.5c0.1-0.2,0.4-0.3,0.6-0.2
					c0.2,0.1,0.3,0.4,0.2,0.6l-37.2,63.5C95.1,143.7,94.9,143.8,94.8,143.8z"/>
			</g>
			<g>
				<path class="st56" d="M118.1,100.6L118.1,100.6L118.1,100.6L118.1,100.6L118.1,100.6L118.1,100.6L118.1,100.6z M118.1,100.6
					L118.1,100.6L118.1,100.6z M120,101.1C120,101.1,119.9,101.1,120,101.1c-0.2-0.2-0.3-0.3-0.3-0.3c-0.1-0.1-0.2-0.2-0.3-0.4
					c-0.1-0.1-0.2-0.3-0.2-0.4c0,0,0,0,0-0.1c-0.2,0.2-0.4,0.4-0.6,0.5c0,0,0,0-0.1,0s-0.1,0.1-0.2,0.1h-0.1l0,0l0,0l0,0l0,0l0,0
					l0,0l0,0c-0.1,0-0.2,0-0.3,0c-0.1,0-0.1,0-0.2-0.1c-0.1,0-0.2-0.1-0.3-0.1c-0.1,0-0.2-0.1-0.3-0.1c-0.1,0-0.1-0.1-0.2-0.1l0,0
					c-0.1,0-0.2-0.1-0.3-0.2c-0.1,0-0.2-0.1-0.3-0.1c-0.2-0.1-0.3-0.2-0.5-0.3c-0.2-0.1-0.3-0.2-0.5-0.3c-0.2-0.1-0.3-0.2-0.5-0.3
					c-0.1,0-0.1-0.1-0.2-0.1l-0.1-0.1l0,0c-0.1-0.1-0.1-0.1-0.2-0.2l0,0l0,0c-0.1,0-0.1-0.1-0.2-0.2l0,0l0,0c0,0,0,0-0.1-0.1
					c0,0,0-0.1-0.1-0.1V98c0-0.1,0-0.2,0.1-0.2c0-0.1,0-0.1,0.1-0.2c0-0.1,0.1-0.1,0.1-0.2c0,0,0,0,0-0.1c0,0,0,0,0-0.1
					c0.1-0.2,0.2-0.3,0.4-0.5c0.1-0.1,0.2-0.3,0.4-0.4l0.1-0.1l0.1-0.1c0,0,0,0,0.1,0c0,0,0,0,0.1,0c0,0,0,0,0.1,0l0,0l0,0
					c0,0,0.1,0,0.1,0.1c0.1,0.1,0.2,0.1,0.3,0.2c0.1,0.1,0.2,0.1,0.3,0.2l0.2,0.1c0.1,0.1,0.2,0.2,0.4,0.2c0.1,0.1,0.2,0.1,0.3,0.2
					l0,0c0,0,0,0,0.1,0c0,0,0.1,0,0.1,0.1c0,0,0,0,0.1,0h0.1h0.1h0.1h0.1c0,0,0,0,0.1,0c0,0,0.1,0,0.1-0.1l0,0h0.1
					c0,0,0.1,0,0.1-0.1c0.1-0.1,0.2-0.1,0.3-0.2c0.2-0.1,0.4-0.3,0.5-0.4c0.4-0.3,0.7-0.5,1-0.8c0.2-0.1,0.4-0.3,0.5-0.4
					c0.2-0.1,0.4-0.3,0.5-0.4c0.2-0.1,0.4-0.3,0.5-0.4c0.2-0.1,0.4-0.3,0.5-0.4c0.2-0.1,0.4-0.3,0.5-0.4l0,0
					c0.2-0.1,0.4-0.3,0.7-0.5l0,0l0,0l0,0l0,0l0,0c0.2-0.1,0.4-0.3,0.6-0.4c0,0,0.1,0,0.1-0.1c0.2-0.1,0.3-0.2,0.5-0.3h0.1l0,0h0.1
					l0,0c0.1,0,0.2,0,0.2,0.1c0.1,0.1,0.1,0.1,0.2,0.3c0,0.1,0.1,0.2,0.1,0.3c0,0.2,0.1,0.5,0,0.7c0,0.2-0.1,0.4-0.2,0.6
					c0,0.1-0.1,0.2-0.2,0.3l-0.1,0.1h-0.1c0,0,0,0-0.1,0h-0.1c-0.1,0-0.1,0-0.2,0s-0.1,0-0.2,0h-0.1c-0.1,0-0.1,0-0.2,0
					c0,0-0.1,0-0.1,0.1c-0.1,0-0.1,0.1-0.2,0.2s-0.1,0.1-0.2,0.2c-0.2,0.2-0.3,0.3-0.4,0.4l0,0l0,0l-0.1,0.1l-0.1,0.1l0,0l0,0l0,0
					l0,0c-0.2,0.2-0.3,0.4-0.5,0.5c-0.1,0.2-0.3,0.3-0.4,0.5l0,0l0,0l0,0c-0.1,0.1-0.1,0.1-0.2,0.2l0,0c-0.1,0.1-0.2,0.2-0.2,0.3
					l0,0c-0.3,0.3-0.6,0.7-0.9,1l-0.1,0.1c0.1,0,0.2,0,0.3,0.1c0.2,0.1,0.4,0.1,0.5,0.3l0.1,0.1l0,0l0.1,0.1c0,0.1,0,0.1,0,0.2
					s-0.1,0.2-0.1,0.2c-0.1,0.2-0.2,0.3-0.4,0.5l-0.2,0.2l-0.1,0.1c-0.1,0.1-0.1,0.2-0.2,0.2l0,0l-0.1,0.1c-0.1,0.1-0.1,0.1-0.2,0.2
					c0,0,0,0-0.1,0h-0.1c0,0,0,0-0.1,0C120.1,101.1,120,101.1,120,101.1z"/>
			</g>
			<g>
				
					<rect x="102" y="87" transform="matrix(5.705472e-02 -0.9984 0.9984 5.705472e-02 13.838 206.6761)" class="st52" width="28.7" height="18"/>
			</g>
			<g>
				<g>
					<path class="st54" d="M116.1,91.4L116.1,91.4L116.1,91.4z"/>
				</g>
				<g>
					<path class="st54" d="M116.1,91.4L116.1,91.4L116.1,91.4z"/>
				</g>
				<g>
					<path class="st54" d="M117.9,95.4l-0.1-0.3c0-0.2-0.1-0.3-0.1-0.5c-0.1-0.2-0.1-0.4-0.2-0.6c-0.2-0.5-0.2-1.1-0.5-1.5
						c-0.2-0.3-0.6-0.8-0.9-1c-0.1-0.1-0.3-0.2-0.5-0.2c-0.1-0.1-0.2-0.2-0.3-0.2c-0.1,0-0.3,0.1-0.4,0.1c-0.6,0.1-1.2,0.1-1.8-0.1
						c-0.2-0.1-0.5-0.1-0.6-0.4c0-0.1,0-0.3-0.1-0.2c-0.1,0-0.1,0.2-0.1,0.3c-0.2,0.5-0.5,1.1-0.7,1.6c-0.2,0.6-0.4,1.2-0.5,1.8
						c-0.2,1.2-0.2,2.5,0,3.7c0.2,0.8,0.3,1.5,0.3,2.2c0.1,0.6,0.1,1.3,0.2,1.9c0,0.1,0,0.3,0.1,0.4c0,0.2,0.1,0.1,0.2,0.1
						c0.2,0,0.5,0.2,0.7,0.2c0.5,0.2,1.1,0.4,1.6,0.4c0.6,0.1,1.3,0,1.9-0.1c0.2,0,0.7-0.1,0.8-0.4c0.1-0.2,0-0.6,0-0.8
						c-0.1-0.5,0-1.1,0-1.6c0-0.2,0-0.1-0.2-0.2s-0.3-0.2-0.5-0.2c-0.3-0.2-0.6-0.3-0.9-0.6c-0.4-0.3-0.9-0.6-1.2-1
						c-0.1,0.1-0.1,0-0.1-0.1s0.1-0.3,0.1-0.4c0.1-0.2,0.2-0.5,0.3-0.7c0.2-0.4,0.5-0.7,0.9-0.9c-0.5-0.6-0.9-1.4-1.1-2.2
						c-0.1-0.4-0.2-0.8-0.3-1.2c0-0.1-0.1-0.3-0.1-0.4s0.1-0.1,0.1-0.1c0.1,0.2,0.1,0.4,0.1,0.5c0.1,0.4,0.2,0.9,0.3,1.3
						c0.1,0.4,0.3,0.8,0.6,1.2c0.1,0.2,0.2,0.4,0.3,0.5c0.1,0.1,0.3,0.2,0.2,0.3c0,0,0,0,0.1,0c0,0,0.7,0.5,0.9,0.5
						c0.3,0.2,0.6,0.5,1,0.6c-0.1-0.1,0-0.3,0-0.4c0-0.2,0.1-0.4,0.1-0.5c0-0.3-0.1-0.5-0.2-0.7c-0.2-0.5-0.5-0.9-0.6-1.4
						c-0.1-0.2-0.1-0.4-0.2-0.6c0-0.1-0.3-0.8,0-0.6c0.1,0,0.1,0.4,0.1,0.5s0.1,0.2,0.1,0.3c0.1,0.2,0.1,0.5,0.2,0.7
						s0.1,0.3,0.2,0.4c0,0.1,0.1,0.3,0.2,0.4l0.4-0.1c0.1,0,0.1-0.1,0.2,0C117.8,95.3,117.9,95.4,117.9,95.4z"/>
				</g>
			</g>
			<g>
				<path class="st55" d="M117.3,97.5L117.3,97.5L117.3,97.5L117.3,97.5c-0.1-0.1-0.1-0.1-0.1-0.2l0,0c0-0.1,0-0.2,0.1-0.3v-0.1
					c0-0.1,0-0.2,0-0.3c0-0.1,0-0.2-0.1-0.3v-0.1c0-0.1,0-0.1-0.1-0.2l0,0l0,0c0-0.1-0.1-0.2-0.1-0.2c0-0.1-0.1-0.1-0.1-0.2l0,0
					c0,0,0-0.1-0.1-0.1l0,0l0,0v-0.1c0-0.1-0.1-0.2-0.1-0.3c0-0.1-0.1-0.1-0.1-0.2v-0.1c0-0.1-0.1-0.1-0.1-0.2s0-0.1-0.1-0.2l0,0
					v-0.1c0-0.1,0-0.1-0.1-0.2l0,0l0,0l0,0l0,0l0,0c0-0.1-0.1-0.2-0.1-0.2l0,0v-0.1v-0.1v-0.1l0,0c0,0,0,0,0-0.1c0,0,0-0.1,0.1-0.1
					l0,0c0,0,0.1,0,0.1,0.1v0.1v0.1v0.1v0.1V94c0,0.1,0,0.1,0.1,0.2l0,0l0,0l0,0c0,0.1,0,0.1,0.1,0.2v0.1c0,0.1,0.1,0.2,0.1,0.3v0.1
					c0,0.1,0,0.1,0.1,0.2v0.1c0,0.1,0.1,0.2,0.1,0.3c0,0.1,0.1,0.1,0.1,0.2l0,0l0,0l0,0c0,0.1,0.1,0.1,0.1,0.2s0.1,0.1,0.1,0.2
					s0.1,0.2,0.1,0.3c0,0.1,0,0.2,0.1,0.3c0,0.1,0,0.2,0,0.3c0,0.1,0,0.1,0,0.2l0,0l0,0l0,0l0,0C117.4,97.3,117.4,97.4,117.3,97.5
					c0,0.1,0,0.1,0,0.2l0,0C117.4,97.5,117.4,97.5,117.3,97.5L117.3,97.5z"/>
			</g>
			<g>
				<circle cx="115.8" cy="86.2" r="0.3"/>
			</g>
		</g>
		<g>
			<path class="st49" d="M68.4,83.9c0,0-0.6,0-0.7,0.3s-0.7,1-0.7,1.3c0,0.2,0.5,0.3,0.5,0.3l1.1-1.2L68.4,83.9z"/>
		</g>
		<g>
			<path class="st3" d="M57.3,137.2H25.8c-0.6,0-1.1-0.5-1.1-1.1s0.5-1.1,1.1-1.1h31.5c0.6,0,1.1,0.5,1.1,1.1S57.9,137.2,57.3,137.2
				z"/>
		</g>
		<g>
			<path class="st50" d="M33.1,143.8c-0.1,0-0.1,0-0.2-0.1c-0.2-0.1-0.3-0.4-0.2-0.6l22.4-38.4c0.1-0.2,0.4-0.3,0.6-0.2
				c0.2,0.1,0.3,0.4,0.2,0.6l-22.4,38.5C33.4,143.7,33.2,143.8,33.1,143.8z"/>
		</g>
		<g>
			<path class="st57" d="M55.3,16.6c-0.6,0-0.6,0.9,0,0.9C55.9,17.5,55.9,16.6,55.3,16.6z"/>
		</g>
	</g>
	<g>
		<g>
			<polygon class="st58" points="96.6,58.7 96.6,66.1 87.8,67.4 89.4,64.2 87.3,61.3 			"/>
		</g>
		<g>
			<path class="st59" d="M96.8,74.5c-0.4,0-0.7-0.3-0.7-0.7V59.4c0-0.4,0.3-0.7,0.7-0.7s0.7,0.3,0.7,0.7v14.4
				C97.5,74.2,97.2,74.5,96.8,74.5z"/>
		</g>
	</g>
</g>
</svg>
