<?xml version="1.0" encoding="utf-8"?>
<!-- Generator: Adobe Illustrator 26.0.1, SVG Export Plug-In . SVG Version: 6.00 Build 0)  -->
<svg version="1.1" id="Layer_1" xmlns="http://www.w3.org/2000/svg" xmlns:xlink="http://www.w3.org/1999/xlink" x="0px" y="0px"
	 viewBox="0 0 1440 449" style="enable-background:new 0 0 1440 449;" xml:space="preserve">
<style type="text/css">
	.st0{fill-rule:evenodd;clip-rule:evenodd;fill:#E2FAFF;}
	.st1{filter:url(#Adobe_OpacityMaskFilter);}
	.st2{fill-rule:evenodd;clip-rule:evenodd;fill:#FFFFFF;}
	.st3{opacity:0.3;mask:url(#mask-2_00000028291374647566122160000011262538153351065984_);}
	.st4{opacity:0.4;}
	.st5{fill:none;stroke:url(#SVGID_1_);stroke-width:0.5569;}
	.st6{opacity:0.33;fill:#61C3B5;enable-background:new    ;}
	.st7{opacity:0.3;fill:url(#SVGID_00000105387925702775059180000018391268032797519011_);enable-background:new    ;}
	.st8{fill:none;stroke:url(#SVGID_00000129203603069385585420000014492601145231692726_);stroke-width:0.5569;}
	.st9{opacity:0.3;fill:url(#SVGID_00000092418934494019690650000011377952023318864037_);enable-background:new    ;}
	.st10{fill:#0A8585;}
</style>
<g id="Page-2">
	<g id="Service---Instructional-Coaching-Copy-2" transform="translate(0.000000, -324.000000)">
		<g id="Simple-Honeycomb-Multicolor-large" transform="translate(0.000000, 324.000000)">
			<g id="Mask">
				<rect id="path-1_00000016784291023635836430000011527224624690399668_" y="0" class="st0" width="1440" height="449"/>
			</g>
			<defs>
				<filter id="Adobe_OpacityMaskFilter" filterUnits="userSpaceOnUse" x="-30.3" y="101.7" width="1518.6" height="411.6">
					<feColorMatrix  type="matrix" values="1 0 0 0 0  0 1 0 0 0  0 0 1 0 0  0 0 0 1 0"/>
				</filter>
			</defs>
			
				<mask maskUnits="userSpaceOnUse" x="-30.3" y="101.7" width="1518.6" height="411.6" id="mask-2_00000028291374647566122160000011262538153351065984_">
				<g class="st1">
					<rect id="path-1_00000143584848754045214240000004977956051741588373_" y="0" class="st2" width="1440" height="449"/>
				</g>
			</mask>
			<g id="multicolor-hexagon-pattern-2" class="st3">
				<g id="Group" transform="translate(-30.000000, 102.000000)">
					<g>
						<g id="Shape">
							<g class="st4">
								
									<linearGradient id="SVGID_1_" gradientUnits="userSpaceOnUse" x1="328.6579" y1="419.5974" x2="329.6584" y2="419.5974" gradientTransform="matrix(874.6292 0 0 -409.7066 -287454 172116.6875)">
									<stop  offset="0" style="stop-color:#03AAB0"/>
									<stop  offset="0.2366" style="stop-color:#3679BC"/>
									<stop  offset="0.4844" style="stop-color:#31B45E"/>
									<stop  offset="0.722" style="stop-color:#F2AA25"/>
									<stop  offset="1" style="stop-color:#E36328"/>
								</linearGradient>
								<path class="st5" d="M714.1,210c-1.8-3.1-1.8-8.1,0-11.2l16.7-28.9c1.8-3.1,6.1-5.6,9.7-5.6h33.4c3.5,0,7.9,2.5,9.7,5.6
									l16.7,28.9c1.8,3.1,1.8,8.1,0,11.2l-16.7,28.9c-1.8,3.1-6.1,5.6-9.7,5.6h-33.4c-3.6,0-7.9-2.5-9.7-5.6L714.1,210z
									 M799.6,210c1.8-3.1,1.8-8.1,0-11.2l-16.3-28.3c-1.8-3.1-6.1-5.6-9.7-5.6h-32.7c-3.5,0-7.9,2.5-9.7,5.6l-16.3,28.3
									c-1.8,3.1-1.8,8.1,0,11.2l16.3,28.3c1.8,3.1,6.1,5.6,9.7,5.6h32.7c3.5,0,7.9-2.5,9.7-5.6L799.6,210z M785.3,251.1
									c-1.8-3.1-1.8-8.1,0-11.2L802,211c1.8-3.1,6.1-5.6,9.7-5.6h33.4c3.6,0,7.9,2.5,9.7,5.6l16.7,28.9c1.8,3.1,1.8,8.1,0,11.2
									L854.8,280c-1.8,3.1-6.1,5.6-9.7,5.6h-33.4c-3.5,0-7.9-2.5-9.7-5.6L785.3,251.1z M870.8,251.1c1.8-3.1,1.8-8.1,0-11.2
									l-16.3-28.3c-1.8-3.1-6.1-5.6-9.7-5.6h-32.7c-3.6,0-7.9,2.5-9.7,5.6l-16.3,28.3c-1.8,3.1-1.8,8.1,0,11.2l16.3,28.3
									c1.8,3.1,6.1,5.6,9.7,5.6h32.7c3.6,0,7.9-2.5,9.7-5.6L870.8,251.1z M642.8,168.8c-1.8-3.1-1.8-8.1,0-11.2l16.7-28.9
									c1.8-3.1,6.2-5.6,9.7-5.6h33.4c3.5,0,7.9,2.5,9.7,5.6l16.7,28.9c1.8,3.1,1.8,8.1,0,11.2l-16.7,28.9
									c-1.8,3.1-6.1,5.6-9.7,5.6h-33.4c-3.5,0-7.9-2.5-9.7-5.6L642.8,168.8z M728.3,168.8c1.8-3.1,1.8-8.1,0-11.2L712,129.3
									c-1.8-3.1-6.2-5.6-9.7-5.6h-32.7c-3.6,0-7.9,2.5-9.7,5.6l-16.3,28.3c-1.8,3.1-1.8,8.1,0,11.2l16.3,28.3
									c1.8,3.1,6.1,5.6,9.7,5.6h32.7c3.5,0,7.9-2.5,9.7-5.6L728.3,168.8z M500.3,251.1c-1.8-3.1-1.8-8.1,0-11.2L517,211
									c1.8-3.1,6.1-5.6,9.7-5.6h33.4c3.5,0,7.9,2.5,9.7,5.6l16.7,28.9c1.8,3.1,1.8,8.1,0,11.2L569.8,280c-1.8,3.1-6.1,5.6-9.7,5.6
									h-33.4c-3.5,0-7.9-2.5-9.7-5.6L500.3,251.1z M585.7,251.1c1.8-3.1,1.8-8.1,0-11.2l-16.3-28.3c-1.8-3.1-6.1-5.6-9.7-5.6H527
									c-3.6,0-7.9,2.5-9.7,5.6L501,239.9c-1.8,3.1-1.8,8.1,0,11.2l16.3,28.3c1.8,3.1,6.1,5.6,9.7,5.6h32.7c3.6,0,7.9-2.5,9.7-5.6
									L585.7,251.1z M571.6,292.2c-1.8-3.1-1.8-8.1,0-11.2l16.7-28.9c1.8-3.1,6.1-5.6,9.7-5.6h33.4c3.5,0,7.9,2.5,9.7,5.6
									l16.7,28.9c1.8,3.1,1.8,8.1,0,11.2l-16.7,28.9c-1.8,3.1-6.2,5.6-9.7,5.6h-33.4c-3.6,0-7.9-2.5-9.7-5.6L571.6,292.2z
									 M657,292.2c1.8-3.1,1.8-8.1,0-11.2l-16.3-28.3c-1.8-3.1-6.2-5.6-9.7-5.6h-32.7c-3.6,0-7.9,2.5-9.7,5.6L572.3,281
									c-1.8,3.1-1.8,8.1,0,11.2l16.3,28.3c1.8,3.1,6.1,5.6,9.7,5.6H631c3.6,0,7.9-2.5,9.7-5.6L657,292.2z M357.7,333.4
									c-1.8-3.1-1.8-8.1,0-11.2l16.7-28.9c1.8-3.1,6.2-5.6,9.7-5.6h33.4c3.6,0,7.9,2.5,9.7,5.6l16.7,28.9c1.8,3.1,1.8,8.1,0,11.2
									l-16.7,28.9c-1.8,3.1-6.1,5.6-9.7,5.6h-33.4c-3.6,0-7.9-2.5-9.7-5.6L357.7,333.4z M443.2,333.4c1.8-3.1,1.8-8.1,0-11.2
									l-16.3-28.3c-1.8-3.1-6.1-5.6-9.7-5.6h-32.7c-3.6,0-7.9,2.5-9.7,5.6l-16.4,28.3c-1.8,3.1-1.8,8.1,0,11.2l16.3,28.3
									c1.8,3.1,6.2,5.6,9.7,5.6h32.7c3.6,0,7.9-2.5,9.7-5.6L443.2,333.4z M286.5,210c-1.8-3.1-1.8-8.1,0-11.2l16.7-28.9
									c1.8-3.1,6.1-5.6,9.7-5.6h33.4c3.5,0,7.9,2.5,9.7,5.6l16.7,28.9c1.8,3.1,1.8,8.1,0,11.2l-16.7,28.9
									c-1.8,3.1-6.2,5.6-9.7,5.6h-33.4c-3.6,0-7.9-2.5-9.7-5.6L286.5,210z M371.9,210c1.8-3.1,1.8-8.1,0-11.2l-16.3-28.3
									c-1.8-3.1-6.2-5.6-9.7-5.6h-32.7c-3.6,0-7.9,2.5-9.7,5.6l-16.3,28.3c-1.8,3.1-1.8,8.1,0,11.2l16.3,28.3
									c1.8,3.1,6.2,5.6,9.7,5.6h32.7c3.6,0,7.9-2.5,9.7-5.6L371.9,210z M429,292.2c-1.8-3.1-1.8-8.1,0-11.2l16.7-28.9
									c1.8-3.1,6.1-5.6,9.7-5.6h33.3c3.6,0,7.9,2.5,9.7,5.6l16.7,28.9c1.8,3.1,1.8,8.1,0,11.2l-16.7,28.9
									c-1.8,3.1-6.1,5.6-9.7,5.6h-33.3c-3.5,0-7.9-2.5-9.7-5.6L429,292.2z M514.4,292.2c1.8-3.1,1.8-8.1,0-11.2l-16.3-28.3
									c-1.8-3.1-6.1-5.6-9.7-5.6h-32.7c-3.5,0-7.9,2.5-9.7,5.6L429.7,281c-1.8,3.1-1.8,8.1,0,11.2l16.3,28.3
									c1.8,3.1,6.1,5.6,9.7,5.6h32.7c3.6,0,7.9-2.5,9.7-5.6L514.4,292.2z M357.7,168.8c-1.8-3.1-1.8-8.1,0-11.2l16.7-28.9
									c1.8-3.1,6.2-5.6,9.7-5.6h33.4c3.6,0,7.9,2.5,9.7,5.6l16.7,28.9c1.8,3.1,1.8,8.1,0,11.2l-16.7,28.9
									c-1.8,3.1-6.1,5.6-9.7,5.6h-33.4c-3.6,0-7.9-2.5-9.7-5.6L357.7,168.8z M443.2,168.8c1.8-3.1,1.8-8.1,0-11.2l-16.3-28.3
									c-1.8-3.1-6.2-5.6-9.7-5.6h-32.7c-3.6,0-7.9,2.5-9.7,5.6l-16.3,28.3c-1.8,3.1-1.8,8.1,0,11.2l16.3,28.3
									c1.8,3.1,6.2,5.6,9.7,5.6h32.7c3.6,0,7.9-2.5,9.7-5.6L443.2,168.8z M429,210c-1.8-3.1-1.8-8.1,0-11.2l16.7-28.9
									c1.8-3.1,6.1-5.6,9.7-5.6h33.3c3.6,0,7.9,2.5,9.7,5.6l16.7,28.9c1.8,3.1,1.8,8.1,0,11.2l-16.7,28.9
									c-1.8,3.1-6.1,5.6-9.7,5.6h-33.3c-3.5,0-7.9-2.5-9.7-5.6L429,210z M514.4,210c1.8-3.1,1.8-8.1,0-11.2l-16.3-28.3
									c-1.8-3.1-6.1-5.6-9.7-5.6h-32.7c-3.5,0-7.9,2.5-9.7,5.6l-16.3,28.3c-1.8,3.1-1.8,8.1,0,11.2l16.3,28.3
									c1.8,3.1,6.1,5.6,9.7,5.6h32.7c3.6,0,7.9-2.5,9.7-5.6L514.4,210z M429,127.6c-1.8-3.1-1.8-8.1,0-11.2l16.7-28.9
									c1.8-3.1,6.1-5.6,9.7-5.6h33.3c3.6,0,7.9,2.5,9.7,5.6l16.7,28.9c1.8,3.1,1.8,8.1,0,11.2l-16.7,28.9
									c-1.8,3.1-6.2,5.6-9.7,5.6h-33.3c-3.5,0-7.9-2.5-9.7-5.6L429,127.6z M514.4,127.6c1.8-3.1,1.8-8.1,0-11.2l-16.3-28.3
									c-1.8-3.1-6.1-5.6-9.7-5.6h-32.7c-3.5,0-7.9,2.5-9.7,5.6l-16.3,28.3c-1.8,3.1-1.8,8.1,0,11.2l16.3,28.3
									c1.8,3.1,6.1,5.6,9.7,5.6h32.7c3.6,0,7.9-2.5,9.7-5.6L514.4,127.6z M571.6,210c-1.8-3.1-1.8-8.1,0-11.2l16.7-28.9
									c1.8-3.1,6.1-5.6,9.7-5.6h33.4c3.5,0,7.9,2.5,9.7,5.6l16.7,28.9c1.8,3.1,1.8,8.1,0,11.2L641,238.8c-1.8,3.1-6.1,5.6-9.7,5.6
									h-33.4c-3.6,0-7.9-2.5-9.7-5.6L571.6,210z M657,210c1.8-3.1,1.8-8.1,0-11.2l-16.3-28.3c-1.8-3.1-6.2-5.6-9.7-5.6h-32.7
									c-3.6,0-7.9,2.5-9.7,5.6l-16.3,28.3c-1.8,3.1-1.8,8.1,0,11.2l16.3,28.3c1.8,3.1,6.1,5.6,9.7,5.6H631c3.6,0,7.9-2.5,9.7-5.6
									L657,210z M1.3,210c-1.8-3.1-1.8-8.1,0-11.2L18,169.9c1.8-3.1,6.1-5.6,9.7-5.6h33.3c3.6,0,7.9,2.5,9.7,5.6l16.7,28.9
									c1.8,3.1,1.8,8.1,0,11.2l-16.7,28.9c-1.8,3.1-6.1,5.6-9.7,5.6H27.7c-3.6,0-7.9-2.5-9.7-5.6L1.3,210z M86.8,210
									c1.8-3.1,1.8-8.1,0-11.2l-16.3-28.3c-1.8-3.1-6.1-5.6-9.7-5.6H28.1c-3.6,0-7.9,2.5-9.7,5.6L2.1,198.7
									c-1.8,3.1-1.8,8.1,0,11.2l16.3,28.3c1.8,3.1,6.2,5.6,9.7,5.6h32.7c3.6,0,7.9-2.5,9.7-5.6L86.8,210z M143.9,127.6
									c-1.8-3.1-1.8-8.1,0-11.2l16.7-28.9c1.8-3.1,6.1-5.6,9.7-5.6h33.4c3.6,0,7.9,2.5,9.7,5.6l16.7,28.9c1.8,3.1,1.8,8.1,0,11.2
									l-16.7,28.9c-1.8,3.1-6.1,5.6-9.7,5.6h-33.4c-3.5,0-7.9-2.5-9.7-5.6L143.9,127.6z M229.3,127.6c1.8-3.1,1.8-8.1,0-11.2
									L213,88.1c-1.8-3.1-6.1-5.6-9.7-5.6h-32.7c-3.6,0-7.9,2.5-9.7,5.6l-16.3,28.3c-1.8,3.1-1.8,8.1,0,11.2l16.3,28.3
									c1.8,3.1,6.1,5.6,9.7,5.6h32.7c3.6,0,7.9-2.5,9.7-5.6L229.3,127.6z M215.2,168.8c-1.8-3.1-1.8-8.1,0-11.2l16.7-28.9
									c1.8-3.1,6.1-5.6,9.7-5.6H275c3.5,0,7.9,2.5,9.7,5.6l16.7,28.9c1.8,3.1,1.8,8.1,0,11.2l-16.7,28.9c-1.8,3.1-6.2,5.6-9.7,5.6
									h-33.4c-3.6,0-7.9-2.5-9.7-5.6L215.2,168.8z M300.6,168.8c1.8-3.1,1.8-8.1,0-11.2l-16.3-28.3c-1.8-3.1-6.2-5.6-9.7-5.6
									h-32.7c-3.5,0-7.9,2.5-9.7,5.6l-16.3,28.3c-1.8,3.1-1.8,8.1,0,11.2l16.3,28.3c1.8,3.1,6.1,5.6,9.7,5.6h32.6
									c3.6,0,7.9-2.5,9.7-5.6L300.6,168.8z M286.5,292.2c-1.8-3.1-1.8-8.1,0-11.2l16.7-28.9c1.8-3.1,6.1-5.6,9.7-5.6h33.4
									c3.5,0,7.9,2.5,9.7,5.6l16.7,28.9c1.8,3.1,1.8,8.1,0,11.2l-16.7,28.9c-1.8,3.1-6.2,5.6-9.7,5.6h-33.4
									c-3.5,0-7.9-2.5-9.7-5.6L286.5,292.2z M371.9,292.2c1.8-3.1,1.8-8.1,0-11.2l-16.3-28.3c-1.8-3.1-6.2-5.6-9.7-5.6h-32.7
									c-3.5,0-7.9,2.5-9.7,5.6L287.2,281c-1.8,3.1-1.8,8.1,0,11.2l16.3,28.3c1.8,3.1,6.1,5.6,9.7,5.6h32.7c3.6,0,7.9-2.5,9.7-5.6
									L371.9,292.2z M787.1,168.4c-1.8-3.1-1.8-8.1,0-11.2l16.7-28.9c1.8-3.1,6.1-5.6,9.7-5.6h33.4c3.6,0,7.9,2.5,9.7,5.6
									l16.7,28.9c1.8,3.1,1.8,8.1,0,11.2l-16.7,28.9c-1.8,3.1-6.2,5.6-9.7,5.6h-33.4c-3.5,0-7.9-2.5-9.7-5.6L787.1,168.4z
									 M872.6,168.4c1.8-3.1,1.8-8.1,0-11.2l-16.3-28.3c-1.8-3.1-6.2-5.6-9.7-5.6h-32.7c-3.5,0-7.9,2.5-9.7,5.6l-16.3,28.3
									c-1.8,3.1-1.8,8.1,0,11.2l16.3,28.3c1.8,3.1,6.1,5.6,9.7,5.6h32.7c3.5,0,7.9-2.5,9.7-5.6L872.6,168.4z M215.2,251.1
									c-1.8-3.1-1.8-8.1,0-11.2l16.7-28.9c1.8-3.1,6.1-5.6,9.7-5.6H275c3.6,0,7.9,2.5,9.7,5.6l16.7,28.9c1.8,3.1,1.8,8.1,0,11.2
									l-16.7,29c-1.8,3.1-6.1,5.6-9.7,5.6h-33.4c-3.6,0-7.9-2.5-9.7-5.6L215.2,251.1z M300.6,251.1c1.8-3.1,1.8-8.1,0-11.2
									l-16.3-28.3c-1.8-3.1-6.2-5.6-9.7-5.6h-32.7c-3.5,0-7.9,2.5-9.7,5.6l-16.3,28.3c-1.8,3.1-1.8,8.1,0,11.2l16.3,28.3
									c1.8,3.1,6.1,5.6,9.7,5.6h32.6c3.6,0,7.9-2.5,9.7-5.6L300.6,251.1z M72.6,168.8c-1.8-3.1-1.8-8.1,0-11.2l16.7-28.9
									c1.8-3.1,6.2-5.6,9.7-5.6h33.4c3.6,0,7.9,2.5,9.7,5.6l16.7,28.9c1.8,3.1,1.8,8.1,0,11.2l-16.7,28.9
									c-1.8,3.1-6.1,5.6-9.7,5.6H99c-3.6,0-7.9-2.5-9.7-5.6L72.6,168.8z M158.1,168.8c1.8-3.1,1.8-8.1,0-11.2l-16.3-28.3
									c-1.8-3.1-6.2-5.6-9.7-5.6H99.4c-3.6,0-7.9,2.5-9.7,5.6l-16.3,28.3c-1.8,3.1-1.8,8.1,0,11.2l16.3,28.3
									c1.8,3.1,6.1,5.6,9.7,5.6H132c3.6,0,7.9-2.5,9.7-5.6L158.1,168.8z M143.9,292.2c-1.8-3.1-1.8-8.1,0-11.2l16.7-28.9
									c1.8-3.1,6.1-5.6,9.7-5.6h33.4c3.6,0,7.9,2.5,9.7,5.6l16.7,28.9c1.8,3.1,1.8,8.1,0,11.2l-16.7,28.9
									c-1.8,3.1-6.1,5.6-9.7,5.6h-33.4c-3.5,0-7.9-2.5-9.7-5.6L143.9,292.2z M229.3,292.2c1.8-3.1,1.8-8.1,0-11.2L213,252.7
									c-1.8-3.1-6.1-5.6-9.7-5.6h-32.7c-3.6,0-7.9,2.5-9.7,5.6L144.6,281c-1.8,3.1-1.8,8.1,0,11.2l16.3,28.3
									c1.8,3.1,6.1,5.6,9.7,5.6h32.7c3.6,0,7.9-2.5,9.7-5.6L229.3,292.2z M72.6,251.1c-1.8-3.1-1.8-8.1,0-11.2L89.3,211
									c1.8-3.1,6.2-5.6,9.7-5.6h33.4c3.6,0,7.9,2.5,9.7,5.6l16.7,28.9c1.8,3.1,1.8,8.1,0,11.2l-16.7,28.9
									c-1.8,3.1-6.1,5.6-9.7,5.6H99c-3.6,0-7.9-2.5-9.7-5.6L72.6,251.1z M158.1,251.1c1.8-3.1,1.8-8.1,0-11.2l-16.3-28.3
									c-1.8-3.1-6.2-5.6-9.7-5.6H99.4c-3.6,0-7.9,2.5-9.7,5.6l-16.3,28.4c-1.8,3.1-1.8,8.1,0,11.2l16.3,28.3
									c1.8,3.1,6.1,5.6,9.7,5.6H132c3.6,0,7.9-2.5,9.7-5.6L158.1,251.1z M72.6,333.4c-1.8-3.1-1.8-8.1,0-11.2l16.7-28.9
									c1.8-3.1,6.2-5.6,9.7-5.6h33.4c3.6,0,7.9,2.5,9.7,5.6l16.7,28.9c1.8,3.1,1.8,8.1,0,11.2l-16.7,28.9
									c-1.8,3.1-6.1,5.6-9.7,5.6H99c-3.6,0-7.9-2.5-9.7-5.6L72.6,333.4z M158.1,333.4c1.8-3.1,1.8-8.1,0-11.2l-16.3-28.3
									c-1.8-3.1-6.1-5.6-9.7-5.6H99.4c-3.6,0-7.9,2.5-9.7,5.6l-16.3,28.3c-1.8,3.1-1.8,8.1,0,11.2l16.3,28.3
									c1.8,3.1,6.2,5.6,9.7,5.6H132c3.6,0,7.9-2.5,9.7-5.6L158.1,333.4z M143.9,45.7c-1.8-3.1-1.8-8.1,0-11.2l16.7-28.9
									c1.8-3.1,6.1-5.6,9.7-5.6h33.4c3.6,0,7.9,2.5,9.7,5.6l16.7,28.9c1.8,3.1,1.8,8.1,0,11.2l-16.7,28.9
									c-1.8,3.1-6.1,5.6-9.7,5.6h-33.4c-3.5,0-7.9-2.5-9.7-5.6L143.9,45.7z M229.3,45.7c1.8-3.1,1.8-8.1,0-11.2L213,6.3
									c-1.8-3.1-6.1-5.6-9.7-5.6h-32.7c-3.6,0-7.9,2.5-9.7,5.6l-16.3,28.3c-1.8,3.1-1.8,8.1,0,11.2l16.3,28.3
									c1.8,3.1,6.1,5.6,9.7,5.6h32.7c3.6,0,7.9-2.5,9.7-5.6L229.3,45.7z M215.2,86.9c-1.8-3.1-1.8-8.1,0-11.2l16.7-28.9
									c1.8-3.1,6.1-5.6,9.7-5.6H275c3.5,0,7.9,2.5,9.7,5.6l16.7,28.9c1.8,3.1,1.8,8.1,0,11.2l-16.7,28.9c-1.8,3.1-6.2,5.6-9.7,5.6
									h-33.4c-3.6,0-7.9-2.5-9.7-5.6L215.2,86.9z M300.6,86.9c1.8-3.1,1.8-8.1,0-11.2l-16.3-28.3c-1.8-3.1-6.2-5.6-9.7-5.6h-32.7
									c-3.5,0-7.9,2.5-9.7,5.6l-16.3,28.3c-1.8,3.1-1.8,8.1,0,11.2l16.3,28.3c1.8,3.1,6.1,5.6,9.7,5.6h32.6c3.6,0,7.9-2.5,9.7-5.6
									L300.6,86.9z M500.2,85.2c-1.8-3.1-1.8-8.1,0-11.2l16.7-28.9c1.8-3.1,6.1-5.6,9.7-5.6H560c3.5,0,7.9,2.5,9.7,5.6L586.4,74
									c1.8,3.1,1.8,8.1,0,11.2l-16.7,28.9c-1.8,3.1-6.2,5.6-9.7,5.6h-33.4c-3.5,0-7.9-2.5-9.7-5.6L500.2,85.2z M585.7,85.2
									c1.8-3.1,1.8-8.1,0-11.2l-16.3-28.3c-1.8-3.1-6.2-5.6-9.7-5.6H527c-3.6,0-7.9,2.5-9.7,5.6L501,74c-1.8,3.1-1.8,8.1,0,11.2
									l16.3,28.3c1.8,3.1,6.1,5.6,9.7,5.6h32.7c3.5,0,7.9-2.5,9.7-5.6L585.7,85.2z M1.3,375.2c-1.8-3.1-1.8-8.1,0-11.2L18,335.1
									c1.8-3.1,6.1-5.6,9.7-5.6h33.3c3.6,0,7.9,2.5,9.7,5.6L87.4,364c1.8,3.1,1.8,8.1,0,11.2l-16.7,28.9c-1.8,3.1-6.1,5.6-9.7,5.6
									H27.7c-3.6,0-7.9-2.5-9.7-5.6L1.3,375.2z M86.8,375.2c1.8-3.1,1.8-8.1,0-11.2l-16.3-28.3c-1.8-3.1-6.1-5.6-9.7-5.6H28.1
									c-3.6,0-7.9,2.5-9.7,5.6L2.1,364c-1.8,3.1-1.8,8.1,0,11.2l16.3,28.3c1.8,3.1,6.2,5.6,9.7,5.6h32.7c3.6,0,7.9-2.5,9.7-5.6
									L86.8,375.2z"/>
							</g>
							<path class="st6" d="M56.5,224c-12.6,0-22.9-10.3-22.9-22.9s10.3-22.9,22.9-22.9s22.9,10.3,22.9,22.9S69.2,224,56.5,224z
								 M56.5,179.5c-11.9,0-21.6,9.7-21.6,21.6s9.7,21.6,21.6,21.6s21.6-9.7,21.6-21.6S68.4,179.5,56.5,179.5z M683.4,281.2
								c-8.4,0-15.2-6.8-15.2-15.2s6.8-15.2,15.2-15.2c8.4,0,15.2,6.8,15.2,15.2S691.8,281.2,683.4,281.2z M683.4,251.6
								c-7.9,0-14.3,6.4-14.3,14.3s6.4,14.3,14.3,14.3s14.3-6.4,14.3-14.3S691.3,251.6,683.4,251.6z M802.4,228.9
								c-8.4,0-15.2-6.8-15.2-15.2c0-8.4,6.8-15.2,15.2-15.2s15.2,6.8,15.2,15.2C817.7,222.1,810.8,228.9,802.4,228.9z M802.4,199.5
								c-7.9,0-14.3,6.4-14.3,14.3c0,7.9,6.4,14.3,14.3,14.3s14.3-6.4,14.3-14.3C816.7,205.9,810.3,199.5,802.4,199.5z M500.3,266.1
								c-12.6,0-22.9-10.3-22.9-22.9s10.3-22.9,22.9-22.9c12.6,0,22.9,10.3,22.9,22.9C523.3,255.8,512.9,266.1,500.3,266.1z
								 M500.3,221.6c-11.9,0-21.6,9.7-21.6,21.6s9.7,21.6,21.6,21.6c11.9,0,21.6-9.7,21.6-21.6
								C521.8,231.2,512.2,221.6,500.3,221.6z M528,71.2c-12.6,0-22.9-10.3-22.9-22.9s10.3-22.9,22.9-22.9
								c12.6,0,22.9,10.3,22.9,22.9C551,60.9,540.7,71.2,528,71.2z M528,26.7c-11.9,0-21.6,9.7-21.6,21.6s9.7,21.6,21.6,21.6
								c11.9,0,21.6-9.7,21.6-21.6S540,26.7,528,26.7z M491.5,179.2c-8.1,0-14.7-6.6-14.7-14.7c0-8.1,6.6-14.7,14.7-14.7
								c8.1,0,14.7,6.6,14.7,14.7C506.3,172.6,499.6,179.2,491.5,179.2z M491.5,150.6c-7.6,0-13.9,6.2-13.9,13.9
								c0,7.6,6.2,13.9,13.9,13.9c7.6,0,13.9-6.2,13.9-13.9C505.4,156.8,499.1,150.6,491.5,150.6z M351.4,177.1
								c-10.1,0-18.3-8.3-18.3-18.3c0-10.1,8.3-18.3,18.3-18.3c10.1,0,18.3,8.2,18.3,18.3C369.7,168.9,361.5,177.1,351.4,177.1z
								 M351.4,141.6c-9.5,0-17.2,7.8-17.2,17.2s7.8,17.2,17.2,17.2c9.5,0,17.2-7.8,17.2-17.2C368.7,149.2,360.9,141.6,351.4,141.6z
								 M242.2,333.2c-14.3,0-25.9-11.6-25.9-25.9c0-14.3,11.6-25.9,25.9-25.9c14.3,0,25.9,11.6,25.9,25.9
								C268.1,321.5,256.5,333.2,242.2,333.2z M242.2,282.8c-13.4,0-24.4,10.9-24.4,24.4c0,13.4,10.9,24.4,24.4,24.4
								c13.4,0,24.4-10.9,24.4-24.4C266.6,293.7,255.6,282.8,242.2,282.8z M365.9,393.3c-14.3,0-25.9-11.6-25.9-25.9
								c0-14.3,11.6-25.9,25.9-25.9c14.3,0,25.9,11.6,25.9,25.9C391.9,381.6,380.3,393.3,365.9,393.3z M365.9,342.9
								c-13.4,0-24.4,10.9-24.4,24.4s10.9,24.4,24.4,24.4c13.4,0,24.4-10.9,24.4-24.4S379.4,342.9,365.9,342.9z M267.5,191.7
								c-8,0-14.6-6.5-14.6-14.6c0-8,6.5-14.6,14.6-14.6s14.6,6.5,14.6,14.6C282.1,185.2,275.5,191.7,267.5,191.7z M267.5,163.4
								c-7.5,0-13.7,6.1-13.7,13.7c0,7.5,6.1,13.7,13.7,13.7s13.7-6.1,13.7-13.7C281.2,169.6,275,163.4,267.5,163.4z M137.3,247.5
								c-8.4,0-15.2-6.8-15.2-15.2s6.8-15.2,15.2-15.2c8.4,0,15.2,6.8,15.2,15.2S145.7,247.5,137.3,247.5z M137.3,217.9
								c-7.9,0-14.3,6.4-14.3,14.3c0,7.9,6.4,14.3,14.3,14.3c7.9,0,14.3-6.4,14.3-14.3C151.6,224.3,145.2,217.9,137.3,217.9z
								 M738.8,250c-8.4,0-15.2-6.8-15.2-15.2s6.8-15.2,15.2-15.2c8.4,0,15.2,6.8,15.2,15.2S747.2,250,738.8,250z M738.8,220.5
								c-7.9,0-14.3,6.4-14.3,14.3c0,7.9,6.4,14.3,14.3,14.3c7.9,0,14.3-6.4,14.3-14.3C753.1,226.9,746.7,220.5,738.8,220.5z
								 M715.1,153.6c-18.8,0-34.2-15.3-34.2-34.2c0-18.8,15.3-34.2,34.2-34.2c18.9,0,34.2,15.3,34.2,34.2S734,153.6,715.1,153.6z
								 M715.1,87.4c-17.7,0-32.1,14.4-32.1,32.1c0,17.7,14.4,32.1,32.1,32.1c17.7,0,32.1-14.4,32.1-32.1S732.8,87.4,715.1,87.4z"/>
							
								<linearGradient id="SVGID_00000101817525303350297150000016585989116959081360_" gradientUnits="userSpaceOnUse" x1="328.4713" y1="419.3893" x2="329.4713" y2="419.3893" gradientTransform="matrix(565.4822 0 0 -188.9738 -185694.7188 79454.9844)">
								<stop  offset="0" style="stop-color:#03AAB0"/>
								<stop  offset="0.9859" style="stop-color:#3679BC"/>
							</linearGradient>
							
								<path style="opacity:0.3;fill:url(#SVGID_00000101817525303350297150000016585989116959081360_);enable-background:new    ;" d="
								M391.9,177.8c-6.7,0-12.1,5.4-12.1,12.1s5.4,12.1,12.1,12.1c6.7,0,12.1-5.4,12.1-12.1S398.6,177.8,391.9,177.8z M391.9,196.7
								c-3.8,0-6.8-3.1-6.8-6.8s3.1-6.8,6.8-6.8c3.7,0,6.8,3.1,6.8,6.8S395.7,196.7,391.9,196.7z M545.6,275.6
								c-5.6,0-10.1,4.5-10.1,10.1c0,5.6,4.5,10.1,10.1,10.1c5.6,0,10.1-4.5,10.1-10.1C555.8,280.2,551.2,275.6,545.6,275.6z
								 M545.6,291.5c-3.2,0-5.7-2.6-5.7-5.7c0-3.2,2.6-5.7,5.7-5.7c3.2,0,5.7,2.6,5.7,5.7C551.4,288.9,548.8,291.5,545.6,291.5z
								 M500.3,144.2c-4.7,0-8.5,3.8-8.5,8.5s3.8,8.5,8.5,8.5c4.7,0,8.5-3.8,8.5-8.5S505,144.2,500.3,144.2z M500.3,157.5
								c-2.7,0-4.8-2.2-4.8-4.8c0-2.7,2.2-4.8,4.8-4.8c2.7,0,4.8,2.2,4.8,4.8C505.1,155.3,503,157.5,500.3,157.5z M540.1,218.1
								c-3.6,0-6.5,2.9-6.5,6.5c0,3.6,2.9,6.5,6.5,6.5c3.6,0,6.5-2.9,6.5-6.5C546.6,221,543.6,218.1,540.1,218.1z M540.1,228.3
								c-2,0-3.7-1.7-3.7-3.7c0-2,1.7-3.7,3.7-3.7c2,0,3.7,1.7,3.7,3.7C543.8,226.6,542.1,228.3,540.1,228.3z M608.9,254.9
								c-3.6,0-6.5,2.9-6.5,6.5s2.9,6.5,6.5,6.5s6.5-2.9,6.5-6.5S612.5,254.9,608.9,254.9z M608.9,265c-2,0-3.7-1.7-3.7-3.7
								s1.7-3.7,3.7-3.7s3.7,1.7,3.7,3.7S610.9,265,608.9,265z M424.5,281.5c-3.6,0-6.5,2.9-6.5,6.5c0,3.6,2.9,6.5,6.5,6.5
								s6.5-2.9,6.5-6.5C431,284.5,428.1,281.5,424.5,281.5z M424.5,291.7c-2,0-3.7-1.7-3.7-3.7c0-2,1.7-3.7,3.7-3.7
								s3.7,1.7,3.7,3.7C428.2,290,426.5,291.7,424.5,291.7z M291.6,252.6c-4.4,0-8,3.6-8,8c0,4.4,3.6,8,8,8s8-3.6,8-8
								C299.6,256.2,296.1,252.6,291.6,252.6z M291.6,265.1c-2.5,0-4.5-2-4.5-4.5s2-4.5,4.5-4.5s4.5,2,4.5,4.5
								S294.1,265.1,291.6,265.1z M203.4,251c-2.2,0-4-1.8-4-4s1.8-4,4-4c2.2,0,4,1.8,4,4S205.6,251,203.4,251z M56.9,253.3
								c-3.8,0-7,3.1-7,7c0,3.8,3.1,7,7,7c3.8,0,7-3.1,7-7C63.8,256.4,60.7,253.3,56.9,253.3z M56.9,264.1c-2.2,0-4-1.8-4-4
								c0-2.2,1.8-4,4-4s4,1.8,4,4C60.8,262.4,59,264.1,56.9,264.1z M68.7,156.4c-4.5,0-8,3.6-8,8s3.6,8,8,8s8-3.6,8-8
								C76.6,159.9,73.1,156.4,68.7,156.4z M68.7,168.9c-2.5,0-4.5-2-4.5-4.5c0-2.5,2-4.5,4.5-4.5c2.5,0,4.5,2,4.5,4.5
								C73.2,166.9,71.1,168.9,68.7,168.9z M169.4,106.9c-3.7,0-6.7,3-6.7,6.7c0,3.7,3,6.7,6.7,6.7c3.7,0,6.7-3,6.7-6.7
								C176.1,109.9,173.1,106.9,169.4,106.9z M169.4,117.3c-2.1,0-3.8-1.7-3.8-3.8s1.7-3.8,3.8-3.8c2.1,0,3.8,1.7,3.8,3.8
								S171.5,117.3,169.4,117.3z"/>
						</g>
						<g id="Shape_00000093864299000035728530000003200239517247421331_" transform="translate(243.922585, 55.398776)">
							<g transform="translate(613.210494, 27.376049)" class="st4">
								
									<linearGradient id="SVGID_00000157297724893285760290000007793929086573346441_" gradientUnits="userSpaceOnUse" x1="-527.5853" y1="336.7784" x2="-528.5861" y2="336.7784" gradientTransform="matrix(660.8669 0 0 -328.2252 349324.6875 110703.25)">
									<stop  offset="0" style="stop-color:#03AAB0"/>
									<stop  offset="0.2366" style="stop-color:#3679BC"/>
									<stop  offset="0.4844" style="stop-color:#31B45E"/>
									<stop  offset="0.722" style="stop-color:#F2AA25"/>
									<stop  offset="1" style="stop-color:#E36328"/>
								</linearGradient>
								<path style="fill:none;stroke:url(#SVGID_00000157297724893285760290000007793929086573346441_);stroke-width:0.5569;" d="
									M160.6,169.8c1.8-3.1,1.8-8.1,0-11.2l-16.7-28.9c-1.8-3.1-6.1-5.6-9.7-5.6h-33.4c-3.5,0-7.9,2.5-9.7,5.6l-16.7,28.9
									c-1.8,3.1-1.8,8.1,0,11.2l16.7,28.9c1.8,3.1,6.1,5.6,9.7,5.6h33.4c3.5,0,7.9-2.5,9.7-5.6L160.6,169.8z M75.1,169.8
									c-1.8-3.1-1.8-8.1,0-11.2l16.3-28.3c1.8-3.1,6.1-5.6,9.7-5.6h32.7c3.5,0,7.9,2.5,9.7,5.6l16.3,28.3c1.8,3.1,1.8,8.1,0,11.2
									l-16.3,28.3c-1.8,3.1-6.1,5.6-9.7,5.6h-32.7c-3.6,0-7.9-2.5-9.7-5.6L75.1,169.8z M87.3,211c1.8-3.1,1.8-8.1,0-11.2
									l-16.7-28.9c-1.8-3.1-6.1-5.6-9.7-5.6H27.5c-3.5,0-7.9,2.5-9.7,5.6L1.1,199.8c-1.8,3.1-1.8,8.1,0,11.2l16.7,28.9
									c1.8,3.1,6.1,5.6,9.7,5.6h33.4c3.5,0,7.9-2.5,9.7-5.6L87.3,211z M1.9,211c-1.8-3.1-1.8-8.1,0-11.2l16.3-28.3
									c1.8-3.1,6.1-5.6,9.7-5.6h32.7c3.6,0,7.9,2.5,9.7,5.6l16.3,28.3c1.8,3.1,1.8,8.1,0,11.2l-16.3,28.3
									c-1.8,3.1-6.1,5.6-9.7,5.6H27.9c-3.5,0-7.9-2.5-9.7-5.6L1.9,211z M231.9,128.6c1.8-3.1,1.8-8.1,0-11.2l-16.7-28.9
									c-1.8-3.1-6.2-5.6-9.7-5.6h-33.4c-3.5,0-7.9,2.5-9.7,5.6l-16.7,28.9c-1.8,3.1-1.8,8.1,0,11.2l16.7,28.9
									c1.8,3.1,6.1,5.6,9.7,5.6h33.4c3.6,0,7.9-2.5,9.7-5.6L231.9,128.6z M146.4,128.6c-1.8-3.1-1.8-8.1,0-11.2l16.3-28.3
									c1.8-3.1,6.2-5.6,9.7-5.6h32.7c3.5,0,7.9,2.5,9.7,5.6l16.3,28.3c1.8,3.1,1.8,8.1,0,11.2l-16.3,28.3
									c-1.8,3.1-6.1,5.6-9.7,5.6h-32.7c-3.6,0-7.9-2.5-9.7-5.6L146.4,128.6z M374.4,211c1.8-3.1,1.8-8.1,0-11.2l-16.7-28.9
									c-1.8-3.1-6.1-5.6-9.7-5.6h-33.4c-3.5,0-7.9,2.5-9.7,5.6l-16.7,28.9c-1.8,3.1-1.8,8.1,0,11.2l16.7,28.9
									c1.8,3.1,6.1,5.6,9.7,5.6H348c3.6,0,7.9-2.5,9.7-5.6L374.4,211z M289,211c-1.8-3.1-1.8-8.1,0-11.2l16.3-28.3
									c1.8-3.1,6.1-5.6,9.7-5.6h32.7c3.6,0,7.9,2.5,9.7,5.6l16.3,28.3c1.8,3.1,1.8,8.1,0,11.2l-16.3,28.3
									c-1.8,3.1-6.1,5.6-9.7,5.6H315c-3.5,0-7.9-2.5-9.7-5.6L289,211z M303.1,252.1c1.8-3.1,1.8-8.1,0-11.2L286.5,212
									c-1.8-3.1-6.1-5.6-9.7-5.6h-33.4c-3.5,0-7.9,2.5-9.7,5.6L217,240.9c-1.8,3.1-1.8,8.1,0,11.2l16.7,28.9
									c1.8,3.1,6.2,5.6,9.7,5.6h33.4c3.5,0,7.9-2.5,9.7-5.6L303.1,252.1z M217.7,252.1c-1.8-3.1-1.8-8.1,0-11.2l16.3-28.3
									c1.8-3.1,6.2-5.6,9.7-5.6h32.7c3.5,0,7.9,2.5,9.7,5.6l16.3,28.3c1.8,3.1,1.8,8.1,0,11.2l-16.3,28.3
									c-1.8,3.1-6.2,5.6-9.7,5.6h-32.7c-3.5,0-7.9-2.5-9.7-5.6L217.7,252.1z M588.2,169.8c1.8-3.1,1.8-8.1,0-11.2l-16.7-28.9
									c-1.8-3.1-6.1-5.6-9.7-5.6h-33.4c-3.5,0-7.9,2.5-9.7,5.6l-16.7,28.9c-1.8,3.1-1.8,8.1,0,11.2l16.7,28.9
									c1.8,3.1,6.2,5.6,9.7,5.6h33.4c3.5,0,7.9-2.5,9.7-5.6L588.2,169.8z M502.8,169.8c-1.8-3.1-1.8-8.1,0-11.2l16.3-28.3
									c1.8-3.1,6.2-5.6,9.7-5.6h32.7c3.5,0,7.9,2.5,9.7,5.6l16.3,28.3c1.8,3.1,1.8,8.1,0,11.2l-16.3,28.3
									c-1.8,3.1-6.2,5.6-9.7,5.6h-32.7c-3.5,0-7.9-2.5-9.7-5.6L502.8,169.8z M445.7,252.1c1.8-3.1,1.8-8.1,0-11.2L429,212
									c-1.8-3.1-6.1-5.6-9.7-5.6H386c-3.6,0-7.9,2.5-9.7,5.6l-16.7,28.9c-1.8,3.1-1.8,8.1,0,11.2l16.7,28.9
									c1.8,3.1,6.1,5.6,9.7,5.6h33.3c3.6,0,7.9-2.5,9.7-5.6L445.7,252.1z M360.3,252.1c-1.8-3.1-1.8-8.1,0-11.2l16.3-28.3
									c1.8-3.1,6.1-5.6,9.7-5.6H419c3.6,0,7.9,2.5,9.7,5.6l16.3,28.3c1.8,3.1,1.8,8.1,0,11.2l-16.3,28.3c-1.8,3.1-6.1,5.6-9.7,5.6
									h-32.7c-3.6,0-7.9-2.5-9.7-5.6L360.3,252.1z M517,128.6c1.8-3.1,1.8-8.1,0-11.2l-16.7-28.9c-1.8-3.1-6.2-5.6-9.7-5.6h-33.4
									c-3.5,0-7.9,2.5-9.7,5.6l-16.7,28.9c-1.8,3.1-1.8,8.1,0,11.2l16.7,28.9c1.8,3.1,6.1,5.6,9.7,5.6h33.4c3.5,0,7.9-2.5,9.7-5.6
									L517,128.6z M431.5,128.6c-1.8-3.1-1.8-8.1,0-11.2l16.3-28.3c1.8-3.1,6.2-5.6,9.7-5.6h32.7c3.6,0,7.9,2.5,9.7,5.6l16.3,28.3
									c1.8,3.1,1.8,8.1,0,11.2l-16.3,28.3c-1.8,3.1-6.2,5.6-9.7,5.6h-32.7c-3.6,0-7.9-2.5-9.7-5.6L431.5,128.6z M445.7,169.8
									c1.8-3.1,1.8-8.1,0-11.2L429,129.7c-1.8-3.1-6.1-5.6-9.7-5.6H386c-3.6,0-7.9,2.5-9.7,5.6l-16.7,28.9
									c-1.8,3.1-1.8,8.1,0,11.2l16.7,28.9c1.8,3.1,6.1,5.6,9.7,5.6h33.3c3.6,0,7.9-2.5,9.7-5.6L445.7,169.8z M360.3,169.8
									c-1.8-3.1-1.8-8.1,0-11.2l16.3-28.3c1.8-3.1,6.1-5.6,9.7-5.6H419c3.6,0,7.9,2.5,9.7,5.6l16.3,28.3c1.8,3.1,1.8,8.1,0,11.2
									l-16.3,28.3c-1.8,3.1-6.1,5.6-9.7,5.6h-32.7c-3.6,0-7.9-2.5-9.7-5.6L360.3,169.8z M445.7,87.4c1.8-3.1,1.8-8.1,0-11.2
									L429,47.4c-1.8-3.1-6.1-5.6-9.7-5.6H386c-3.6,0-7.9,2.5-9.7,5.6l-16.7,28.9c-1.8,3.1-1.8,8.1,0,11.2l16.7,28.9
									c1.8,3.1,6.2,5.6,9.7,5.6h33.3c3.6,0,7.9-2.5,9.7-5.6L445.7,87.4z M360.3,87.4c-1.8-3.1-1.8-8.1,0-11.2l16.3-28.3
									c1.8-3.1,6.1-5.6,9.7-5.6H419c3.6,0,7.9,2.5,9.7,5.6L445,76.2c1.8,3.1,1.8,8.1,0,11.2l-16.3,28.3c-1.8,3.1-6.1,5.6-9.7,5.6
									h-32.7c-3.6,0-7.9-2.5-9.7-5.6L360.3,87.4z M303.1,169.8c1.8-3.1,1.8-8.1,0-11.2l-16.7-28.9c-1.8-3.1-6.1-5.6-9.7-5.6h-33.4
									c-3.5,0-7.9,2.5-9.7,5.6L217,158.6c-1.8,3.1-1.8,8.1,0,11.2l16.7,28.9c1.8,3.1,6.1,5.6,9.7,5.6h33.4c3.5,0,7.9-2.5,9.7-5.6
									L303.1,169.8z M217.7,169.8c-1.8-3.1-1.8-8.1,0-11.2l16.3-28.3c1.8-3.1,6.2-5.6,9.7-5.6h32.7c3.5,0,7.9,2.5,9.7,5.6
									l16.3,28.3c1.8,3.1,1.8,8.1,0,11.2l-16.3,28.3c-1.8,3.1-6.1,5.6-9.7,5.6h-32.7c-3.5,0-7.9-2.5-9.7-5.6L217.7,169.8z
									 M659.5,128.6c1.8-3.1,1.8-8.1,0-11.2l-16.7-28.9c-1.8-3.1-6.1-5.6-9.7-5.6h-33.4c-3.5,0-7.9,2.5-9.7,5.6l-16.7,28.9
									c-1.8,3.1-1.8,8.1,0,11.2l16.7,28.9c1.8,3.1,6.2,5.6,9.7,5.6h33.4c3.5,0,7.9-2.5,9.7-5.6L659.5,128.6z M574.1,128.6
									c-1.8-3.1-1.8-8.1,0-11.2l16.3-28.3c1.8-3.1,6.2-5.6,9.7-5.6h32.7c3.5,0,7.9,2.5,9.7,5.6l16.3,28.3c1.8,3.1,1.8,8.1,0,11.2
									l-16.3,28.3c-1.8,3.1-6.1,5.6-9.7,5.6h-32.7c-3.5,0-7.9-2.5-9.7-5.6L574.1,128.6z M588.2,252.1c1.8-3.1,1.8-8.1,0-11.2
									L571.6,212c-1.8-3.1-6.1-5.6-9.7-5.6h-33.4c-3.5,0-7.9,2.5-9.7,5.6l-16.7,28.9c-1.8,3.1-1.8,8.1,0,11.2l16.7,28.9
									c1.8,3.1,6.2,5.6,9.7,5.6h33.4c3.5,0,7.9-2.5,9.7-5.6L588.2,252.1z M502.8,252.1c-1.8-3.1-1.8-8.1,0-11.2l16.3-28.3
									c1.8-3.1,6.2-5.6,9.7-5.6h32.7c3.5,0,7.9,2.5,9.7,5.6l16.3,28.3c1.8,3.1,1.8,8.1,0,11.2l-16.3,28.3
									c-1.8,3.1-6.1,5.6-9.7,5.6h-32.7c-3.5,0-7.9-2.5-9.7-5.6L502.8,252.1z M659.2,45.7c1.8-3.1,1.8-8.1,0-11.2L642.5,5.6
									c-1.8-3.1-6.1-5.6-9.7-5.6h-33.4c-3.5,0-7.9,2.5-9.7,5.6L573,34.5c-1.8,3.1-1.8,8.1,0,11.2l16.7,28.9
									c1.8,3.1,6.2,5.6,9.7,5.6h33.4c3.5,0,7.9-2.5,9.7-5.6L659.2,45.7z M573.7,45.7c-1.8-3.1-1.8-8.1,0-11.2L590,6.2
									c1.8-3.1,6.2-5.6,9.7-5.6h32.7c3.5,0,7.9,2.5,9.7,5.6l16.3,28.3c1.8,3.1,1.8,8.1,0,11.2L642.1,74c-1.8,3.1-6.1,5.6-9.7,5.6
									h-32.7c-3.6,0-7.9-2.5-9.7-5.6L573.7,45.7z M374.2,45.9c1.8-3.1,1.8-8.1,0-11.2L357.5,5.8c-1.8-3.1-6.1-5.6-9.7-5.6h-33.4
									c-3.6,0-7.9,2.5-9.7,5.6L288,34.7c-1.8,3.1-1.8,8.1,0,11.2l16.7,28.9c1.8,3.1,6.2,5.6,9.7,5.6h33.4c3.5,0,7.9-2.5,9.7-5.6
									L374.2,45.9z M288.8,45.9c-1.8-3.1-1.8-8.1,0-11.2l16.3-28.3c1.8-3.1,6.2-5.6,9.7-5.6h32.7c3.5,0,7.9,2.5,9.7,5.6l16.3,28.3
									c1.8,3.1,1.8,8.1,0,11.2l-16.3,28.3c-1.8,3.1-6.1,5.6-9.7,5.6h-32.7c-3.5,0-7.9-2.5-9.7-5.6L288.8,45.9z M87.5,128.3
									c1.8-3.1,1.8-8.1,0-11.2L70.8,88.2c-1.8-3.1-6.1-5.6-9.7-5.6H27.7c-3.5,0-7.9,2.5-9.7,5.6L1.3,117c-1.8,3.1-1.8,8.1,0,11.2
									L18,157.1c1.8,3.1,6.2,5.6,9.7,5.6h33.4c3.5,0,7.9-2.5,9.7-5.6L87.5,128.3z M2.1,128.3c-1.8-3.1-1.8-8.1,0-11.2l16.3-28.3
									c1.8-3.1,6.2-5.6,9.7-5.6h32.7c3.5,0,7.9,2.5,9.7,5.6L86.8,117c1.8,3.1,1.8,8.1,0,11.2l-16.3,28.3c-1.8,3.1-6.1,5.6-9.7,5.6
									H28.1c-3.6,0-7.9-2.5-9.7-5.6L2.1,128.3z M659.5,210.9c1.8-3.1,1.8-8.1,0-11.2l-16.7-28.9c-1.8-3.1-6.1-5.6-9.7-5.6h-33.4
									c-3.6,0-7.9,2.5-9.7,5.6l-16.7,28.9c-1.8,3.1-1.8,8.1,0,11.2l16.7,28.9c1.8,3.1,6.1,5.6,9.7,5.6h33.4c3.5,0,7.9-2.5,9.7-5.6
									L659.5,210.9z M574.1,210.9c-1.8-3.1-1.8-8.1,0-11.2l16.3-28.3c1.8-3.1,6.2-5.6,9.7-5.6h32.7c3.5,0,7.9,2.5,9.7,5.6
									l16.3,28.3c1.8,3.1,1.8,8.1,0,11.2l-16.3,28.3c-1.8,3.1-6.1,5.6-9.7,5.6h-32.7c-3.6,0-7.9-2.5-9.7-5.6L574.1,210.9z
									 M430.8,293.7c-1.8-3.1-1.8-8.1,0-11.2l16.7-28.9c1.8-3.1,6.1-5.6,9.7-5.6h33.4c3.5,0,7.9,2.5,9.7,5.6l16.7,28.9
									c1.8,3.1,1.8,8.1,0,11.2l-16.7,28.9c-1.8,3.1-6.2,5.6-9.7,5.6h-33.4c-3.5,0-7.9-2.5-9.7-5.6L430.8,293.7z M516.2,293.7
									c1.8-3.1,1.8-8.1,0-11.2l-16.3-28.3c-1.8-3.1-6.2-5.6-9.7-5.6h-32.7c-3.5,0-7.9,2.5-9.7,5.6l-16.3,28.3
									c-1.8,3.1-1.8,8.1,0,11.2l16.3,28.3c1.8,3.1,6.1,5.6,9.7,5.6h32.7c3.6,0,7.9-2.5,9.7-5.6L516.2,293.7z"/>
							</g>
							<path class="st6" d="M804.5,268.4c8.4,0,15.2-6.8,15.2-15.2c0-8.4-6.8-15.2-15.2-15.2s-15.2,6.8-15.2,15.2
								C789.3,261.5,796.1,268.4,804.5,268.4z M804.5,238.9c7.9,0,14.3,6.4,14.3,14.3s-6.4,14.3-14.3,14.3s-14.3-6.4-14.3-14.3
								S796.6,238.9,804.5,238.9z M685.4,216.1c8.4,0,15.2-6.8,15.2-15.2s-6.8-15.2-15.2-15.2s-15.2,6.8-15.2,15.2
								C670.2,209.3,677.1,216.1,685.4,216.1z M685.4,186.7c7.9,0,14.3,6.4,14.3,14.3s-6.4,14.3-14.3,14.3s-14.3-6.4-14.3-14.3
								S677.6,186.7,685.4,186.7z M905.6,186.2c12.6,0,22.9-10.3,22.9-22.9s-10.3-22.9-22.9-22.9c-12.6,0-22.9,10.3-22.9,22.9
								C882.6,175.9,892.9,186.2,905.6,186.2z M905.6,141.6c11.9,0,21.6,9.7,21.6,21.6s-9.7,21.6-21.6,21.6
								c-11.9,0-21.6-9.7-21.6-21.6S893.6,141.6,905.6,141.6z M969.5,45.8c12.6,0,22.9-10.3,22.9-22.9S982.2,0,969.5,0
								s-22.9,10.3-22.9,22.9C946.5,35.5,956.9,45.8,969.5,45.8z M969.5,1.3c11.9,0,21.6,9.7,21.6,21.6s-9.7,21.6-21.6,21.6
								S948,34.7,948,22.8S957.6,1.3,969.5,1.3z M996.3,166.4c8.1,0,14.7-6.6,14.7-14.7s-6.6-14.7-14.7-14.7s-14.7,6.6-14.7,14.7
								S988.2,166.4,996.3,166.4z M996.3,137.8c7.6,0,13.9,6.2,13.9,13.9c0,7.6-6.2,13.9-13.9,13.9c-7.7,0-13.9-6.2-13.9-13.9
								C982.5,144.1,988.7,137.8,996.3,137.8z M1136.4,164.3c10.1,0,18.3-8.3,18.3-18.3c0-10.1-8.3-18.3-18.3-18.3
								c-10.1,0-18.3,8.2-18.3,18.3C1118.1,156.1,1126.4,164.3,1136.4,164.3z M1136.4,128.8c9.5,0,17.2,7.8,17.2,17.2
								c0,9.5-7.8,17.2-17.2,17.2c-9.5,0-17.2-7.8-17.2-17.2C1119.3,136.4,1126.9,128.8,1136.4,128.8z M1220.3,178.9
								c8,0,14.6-6.5,14.6-14.6c0-8-6.5-14.6-14.6-14.6c-8,0-14.6,6.5-14.6,14.6C1205.8,172.4,1212.3,178.9,1220.3,178.9z
								 M1220.3,150.6c7.5,0,13.7,6.1,13.7,13.7c0,7.5-6.1,13.7-13.7,13.7s-13.7-6.1-13.7-13.7
								C1206.7,156.8,1212.8,150.6,1220.3,150.6z M772.7,140.8c18.8,0,34.2-15.3,34.2-34.2c0-18.8-15.3-34.2-34.2-34.2
								c-18.9,0-34.2,15.3-34.2,34.2C738.6,125.5,753.9,140.8,772.7,140.8z M772.7,74.6c17.7,0,32.1,14.4,32.1,32.1
								c0,17.7-14.4,32.1-32.1,32.1s-32.1-14.4-32.1-32.1C740.7,89,755,74.6,772.7,74.6z"/>
							
								<linearGradient id="SVGID_00000139994332606315925850000017821556250420923287_" gradientUnits="userSpaceOnUse" x1="85.1759" y1="363.7858" x2="84.1759" y2="363.7858" gradientTransform="matrix(331.6743 0 0 -123.5156 -27046.4785 45126.4531)">
								<stop  offset="0" style="stop-color:#03AAB0"/>
								<stop  offset="0.9859" style="stop-color:#3679BC"/>
							</linearGradient>
							
								<path style="opacity:0.3;fill:url(#SVGID_00000139994332606315925850000017821556250420923287_);enable-background:new    ;" d="
								M1062.7,179.6c6.7,0,12.1,5.4,12.1,12.1s-5.4,12.1-12.1,12.1c-6.7,0-12.1-5.4-12.1-12.1S1056,179.6,1062.7,179.6z
								 M1062.7,198.5c3.8,0,6.8-3.1,6.8-6.8s-3.1-6.8-6.8-6.8s-6.8,3.1-6.8,6.8S1059,198.5,1062.7,198.5z M987.5,131.5
								c4.7,0,8.5,3.8,8.5,8.5s-3.8,8.5-8.5,8.5c-4.7,0-8.5-3.8-8.5-8.5C979.1,135.2,982.9,131.5,987.5,131.5z M987.5,144.7
								c2.7,0,4.8-2.2,4.8-4.8c0-2.7-2.2-4.8-4.8-4.8s-4.8,2.2-4.8,4.8C982.8,142.6,984.9,144.7,987.5,144.7z M947.8,205.4
								c3.6,0,6.5,2.9,6.5,6.5c0,3.6-2.9,6.5-6.5,6.5s-6.5-2.9-6.5-6.5C941.3,208.2,944.2,205.4,947.8,205.4z M947.8,215.5
								c2,0,3.7-1.7,3.7-3.7s-1.7-3.7-3.7-3.7c-2,0-3.7,1.7-3.7,3.7S945.8,215.5,947.8,215.5z M879,242.1c3.6,0,6.5,2.9,6.5,6.5
								c0,3.6-2.9,6.5-6.5,6.5s-6.5-2.9-6.5-6.5C872.4,244.9,875.4,242.1,879,242.1z M879,252.2c2,0,3.7-1.7,3.7-3.7
								s-1.7-3.7-3.7-3.7c-2,0-3.7,1.7-3.7,3.7S876.9,252.2,879,252.2z M1196.2,229.1c4.4,0,8,3.6,8,8s-3.6,8-8,8c-4.4,0-8-3.6-8-8
								S1191.8,229.1,1196.2,229.1z M1196.2,241.6c2.5,0,4.5-2,4.5-4.5s-2-4.5-4.5-4.5c-2.5,0-4.5,2-4.5,4.5
								S1193.7,241.6,1196.2,241.6z"/>
							<g transform="translate(0.000000, 171.872727)">
								<path class="st10" d="M6.1,14.9C4.7,13.4,4.9,10.6,5,9.6c1-0.1,3.9-0.4,5.3,1.1c1.2,1.2,1.3,3.4,1.1,4.7l-3.1-3
									c-0.2-0.2-0.6-0.2-0.7,0c-0.2,0.2-0.2,0.5,0,0.7l0,0l3,2.9c-0.2,0-0.5,0-0.8,0C8.7,16,7.1,15.8,6.1,14.9 M18.3,10.7
									c1.5-1.4,4.3-1.2,5.3-1.1c0.1,1,0.4,3.8-1.1,5.2c-1.3,1.2-3.6,1.2-4.8,1.1l2.9-2.9c0.2-0.2,0.2-0.5,0-0.7s-0.5-0.2-0.7,0
									l0,0l-2.8,2.7C17,13.9,17.1,11.9,18.3,10.7 M11.4,5.7c0-2.1,2.2-3.9,3-4.5c0.8,0.6,3,2.4,3,4.5c0,1.7-1.5,3.2-2.4,4v-4
									c0-0.3-0.2-0.5-0.5-0.5c-0.3,0-0.5,0.2-0.5,0.5v4C12.8,9,11.4,7.4,11.4,5.7 M14.1,0.1c-0.1,0.1-3.7,2.5-3.7,5.5
									c0,2.7,2.7,4.8,3.5,5.4v6.5l-1.3-1.3c0.1-0.9,0.6-4.4-1.4-6.3C9,7.8,4.7,8.6,4.5,8.6C4.3,8.7,4.2,8.8,4.1,9.1
									c0,0.1-0.9,4.4,1.4,6.5c1.2,1.2,3.1,1.5,4.5,1.5c0.6,0,1.1-0.1,1.7-0.1l2.1,2.1v4.2c0,0.3,0.2,0.5,0.5,0.5s0.5-0.2,0.5-0.5
									v-4.5l1.9-1.9C17.3,17,18,17,18.6,17c1.4,0,3.3-0.3,4.6-1.5c2.2-2.2,1.4-6.4,1.3-6.5c-0.1-0.2-0.2-0.4-0.4-0.4
									c-0.2,0-4.5-0.9-6.6,1.3c-1.8,1.8-1.6,5-1.4,6.1l-1.2,1.2V11c0.9-0.6,3.5-2.7,3.5-5.4c0-3.1-3.6-5.5-3.7-5.5
									C14.5,0,14.4,0,14.3,0S14.2,0.1,14.1,0.1"/>
								<path class="st10" d="M1.1,31.7V22c0-0.1,0.1-0.2,0.2-0.2h1V29c0,0.7,0.6,1.3,1.3,1.3h8h0.1l2,0.9c0.1,0.1,0.3,0.1,0.4,0.1
									c0.1,0.1,0.2,0.1,0.3,0.1c0.1,0,0.4-0.1,0.4-0.2l2.1-0.9H17h8.1c0.7,0,1.3-0.6,1.3-1.3v-7.3h1c0.1,0,0.2,0.1,0.2,0.2v9.6
									c0,0.1-0.1,0.2-0.2,0.2H16.5c-0.3,0-0.5,0.2-0.5,0.5c0,0.1,0,0.1,0,0.1c-0.3,0.9-1.2,1.4-2.2,1.2c-0.6-0.1-1.1-0.6-1.2-1.2
									c0-0.1,0-0.1,0-0.1c0-0.3-0.2-0.5-0.5-0.5H1.3l0,0C1.1,31.9,1.1,31.8,1.1,31.7 M18.1,19.3c-0.3,0-0.5,0.2-0.5,0.5
									s0.2,0.5,0.5,0.5h7c0.1,0,0.2,0.1,0.2,0.2V29c0,0.1-0.1,0.2-0.2,0.2H17c-0.1,0-0.4,0-0.5,0.1L14.9,30v-3.2
									c0-0.3-0.2-0.5-0.5-0.5c-0.3,0-0.5,0.2-0.5,0.5v3.4l-1.7-0.8c-0.1-0.1-0.4-0.1-0.6-0.1h-8c-0.1,0-0.2-0.1-0.2-0.2v-8.5
									c0-0.1,0.1-0.2,0.2-0.2h7c0.3,0,0.5-0.2,0.5-0.5s-0.2-0.5-0.5-0.5h-7c-0.7,0-1.3,0.6-1.3,1.3v0.2h-1c-0.7,0-1.3,0.6-1.3,1.3
									v9.7c0,0.7,0.6,1.3,1.3,1.3h10.4c0.5,1.4,2.1,2.2,3.5,1.7c0.8-0.3,1.4-0.9,1.7-1.7h10.4c0.7,0,1.3-0.6,1.3-1.3v-9.7
									c0-0.7-0.6-1.3-1.3-1.3h-1v-0.3c0-0.7-0.6-1.3-1.3-1.3L18.1,19.3L18.1,19.3L18.1,19.3z"/>
							</g>
						</g>
					</g>
					<g transform="translate(97.000000, 149.000000)">
						<path id="Shape_00000086666382738378870380000004219372410051783050_" class="st10" d="M18.3,16.8c2.8,0,5-2.2,5-4.8
							s-2.3-4.8-5-4.8c-2.8,0-5,2.2-5,4.8S15.5,16.8,18.3,16.8z M14.2,12.1c0-2.1,1.8-3.8,4.1-3.8s4.1,1.7,4.1,3.8s-1.8,3.8-4.1,3.8
							C16,15.8,14.2,14.1,14.2,12.1z"/>
						<path id="Path" class="st10" d="M18,16.9c-4.7,0-8.8,3.1-9.9,7.5c0,0.1,0,0.3,0.1,0.3C8.3,24.9,8.3,25,8.5,25h0.1
							c0.1,0,0.2,0,0.3-0.1c0.1-0.1,0.2-0.1,0.2-0.3c0.9-3.9,4.6-6.7,8.8-6.7s8,2.9,8.8,6.7c0.1,0.3,0.3,0.4,0.6,0.3
							c0.1,0,0.2-0.1,0.3-0.2c0.1-0.1,0.1-0.2,0.1-0.3C26.8,20.1,22.7,16.9,18,16.9z"/>
						<path id="Shape_00000113317672105519283160000009823214940333016449_" class="st10" d="M3.8,13.7c0,2,1.7,3.6,3.8,3.6
							s3.8-1.6,3.8-3.6s-1.7-3.6-3.8-3.6S3.8,11.8,3.8,13.7z M7.5,16.4c-1.5,0-2.8-1.2-2.8-2.7s1.3-2.7,2.8-2.7s2.8,1.2,2.8,2.7
							S9.1,16.4,7.5,16.4z"/>
						<path id="Path_00000132806532733492224650000007374532985270477987_" class="st10" d="M10.9,19.3c0.1,0,0.2-0.1,0.3-0.2
							c0.1-0.2,0.1-0.5-0.2-0.6c-1.1-0.6-2.4-0.9-3.7-0.9c-3.5,0-6.6,2.3-7.3,5.5c-0.1,0.3,0.1,0.5,0.4,0.6h0.1
							c0.2,0,0.4-0.1,0.5-0.3c0.7-2.8,3.3-4.8,6.3-4.8c1.1,0,2.2,0.3,3.2,0.8C10.7,19.3,10.8,19.3,10.9,19.3z"/>
						<path id="Shape_00000061444532165714555160000010206394208679464332_" class="st10" d="M28.5,17.3c2.1,0,3.8-1.6,3.8-3.6
							s-1.7-3.6-3.8-3.6s-3.8,1.6-3.8,3.6S26.4,17.3,28.5,17.3z M25.7,13.7c0-1.5,1.3-2.7,2.8-2.7c1.5,0,2.8,1.2,2.8,2.7
							s-1.3,2.7-2.8,2.7C27,16.4,25.7,15.2,25.7,13.7z"/>
						<path id="Path_00000156557316831685001340000016794502682694476704_" class="st10" d="M36,23c-0.7-3.2-3.8-5.5-7.3-5.5
							c-1.3,0-2.6,0.3-3.7,0.9c-0.2,0.1-0.3,0.4-0.2,0.6c0.1,0.1,0.1,0.2,0.3,0.2c0.1,0,0.3,0,0.4-0.1c1-0.5,2.1-0.8,3.2-0.8
							c3,0,5.7,2,6.3,4.8c0.1,0.2,0.2,0.3,0.5,0.3h0.1C35.9,23.5,36.1,23.3,36,23z"/>
						<path id="Shape_00000009567136462553698370000015474209583737610637_" class="st10" d="M15.5,3.1l2.2,2.2
							c0.1,0.1,0.3,0.2,0.5,0.2s0.4-0.1,0.5-0.2l2.2-2.2c0.2-0.2,0.4-0.5,0.5-0.8c0.1-0.3,0.1-0.7,0-1c-0.1-0.3-0.3-0.7-0.7-0.9
							C20.6,0.2,20.3,0,19.9,0c-0.3-0.1-0.7,0-1,0.1c-0.3,0.1-0.6,0.2-0.8,0.4c-0.2-0.2-0.5-0.3-0.8-0.4C17,0,16.7,0,16.4,0
							c-0.3,0.1-0.6,0.2-0.9,0.3c-0.3,0.3-0.5,0.6-0.7,0.9c-0.1,0.3-0.1,0.6,0,1C15.1,2.6,15.3,2.9,15.5,3.1z M15.7,1.4
							c0.1-0.2,0.2-0.4,0.4-0.6c0.2-0.1,0.4-0.2,0.7-0.2h0.1c0.3,0,0.6,0.1,0.8,0.3l0.5,0.5L18.7,1c0.2-0.2,0.5-0.3,0.8-0.3
							c0.3,0,0.6,0.1,0.8,0.2s0.4,0.3,0.4,0.6c0.1,0.2,0.1,0.4,0,0.6s-0.1,0.4-0.3,0.6l-2.2,2.2L16,2.6c-0.1-0.1-0.2-0.3-0.3-0.6
							C15.6,1.8,15.6,1.6,15.7,1.4z"/>
						<path id="Path_00000170992338743455844670000012233405044108913025_" class="st10" d="M27.4,3.5c0.1,0,0.1,0,0.2-0.1
							c0.1-0.1,0.1-0.1,0.1-0.2c0-0.2,0.1-0.3,0.2-0.5c0.1-0.1,0.3-0.2,0.5-0.2c0.1,0,0.1,0,0.2-0.1c0.1-0.1,0.1-0.1,0.1-0.2
							c0-0.1,0-0.1-0.1-0.2c-0.1-0.1-0.1-0.1-0.2-0.1c-0.4,0-0.7,0.1-0.9,0.3s-0.4,0.5-0.4,0.8c0,0.1,0,0.1,0.1,0.2
							C27.4,3.4,27.4,3.5,27.4,3.5z"/>
						<path id="Shape_00000134226754412818754890000002625510747929576330_" class="st10" d="M26.7,4.5c0.1,0.1,0.2,0.3,0.3,0.4
							c0.1,0.2,0.2,0.3,0.3,0.6c0,0.1,0.1,0.1,0.1,0.1c0.1,0.1,0.1,0.1,0.2,0.1h1.5c0.1,0,0.1,0,0.2-0.1c0.1-0.1,0.1-0.1,0.1-0.1
							c0.1-0.2,0.2-0.4,0.3-0.6c0.1-0.1,0.1-0.2,0.3-0.4c0.1-0.2,0.3-0.3,0.4-0.5c0.1-0.2,0.1-0.5,0.1-0.8c0-0.4-0.1-0.8-0.3-1
							s-0.4-0.6-0.8-0.8c-0.4-0.2-0.7-0.3-1.1-0.3c-0.4,0-0.8,0.1-1.1,0.3c-0.3,0.2-0.6,0.4-0.8,0.8s-0.3,0.7-0.3,1s0.1,0.6,0.1,0.8
							C26.4,4.1,26.5,4.3,26.7,4.5z M26.9,3.2c0-0.3,0.1-0.5,0.2-0.7s0.3-0.4,0.6-0.6c0.4-0.3,1.1-0.3,1.5,0
							c0.2,0.1,0.4,0.3,0.6,0.6C30,2.7,30.1,3,30.1,3.2s0,0.4-0.1,0.6c-0.1,0.1-0.1,0.2-0.2,0.3c-0.1,0.1-0.2,0.3-0.3,0.3
							c-0.1,0.1-0.2,0.3-0.4,0.6H28c-0.1-0.2-0.2-0.4-0.4-0.6c-0.1-0.1-0.1-0.2-0.3-0.3c-0.1-0.1-0.2-0.3-0.2-0.3
							C27,3.6,26.9,3.4,26.9,3.2z"/>
						<path id="Path_00000043450877534368032720000006348347875911594886_" class="st10" d="M27.7,7.1c0.1,0.1,0.1,0.1,0.3,0.1h1
							c0.1,0,0.2,0,0.3-0.1c0.1-0.1,0.1-0.1,0.1-0.3l0,0c0.1,0,0.1-0.1,0.1-0.1c0.1-0.1,0.1-0.1,0.1-0.2V6.1c0-0.1,0-0.1-0.1-0.1
							c-0.1-0.1-0.1-0.1-0.1-0.1h-1.7c-0.1,0-0.1,0-0.1,0.1C27.5,6,27.5,6,27.5,6.1v0.3c0,0.1,0,0.1,0.1,0.2c0,0.1,0.1,0.1,0.1,0.1
							v0.1C27.6,6.9,27.7,7,27.7,7.1z"/>
						<path id="Shape_00000134249674274867291340000007149134725943326857_" class="st10" d="M4.6,6.5c0.5,0.2,1.1,0.3,1.7,0.3
							c0.4,0,0.8-0.1,1.2-0.1C8,7,8.6,7.2,9.2,7.2c0.1,0,0.1,0,0.2-0.1S9.5,7.1,9.6,7c0-0.1,0.1-0.1,0-0.2c0-0.1-0.1-0.1-0.1-0.1
							S9.4,6.5,9.3,6.4C9.2,6.2,9,6,8.9,5.8c0.4-0.5,0.7-1,0.7-1.5c0-0.5-0.1-0.9-0.4-1.3S8.4,2.3,7.9,2.1l0,0
							C7.4,1.8,6.8,1.7,6.2,1.7S5,1.8,4.5,2.1S3.6,2.6,3.3,3C3,3.4,2.8,3.8,2.8,4.3S3,5.2,3.3,5.6C3.7,5.9,4.1,6.2,4.6,6.5z
							 M8.1,5.6l0.1,0.3C8.3,6,8.3,6.1,8.4,6.2C8.2,6.2,8,6.1,7.9,6L7.6,5.8L7.3,5.9l0,0C7,6,6.6,6,6.4,6C5.9,6,5.5,6,5,5.8
							c-0.4-0.1-0.7-0.4-1-0.7C3.8,4.8,3.7,4.4,3.7,4.2c0-0.3,0.1-0.6,0.4-0.9s0.5-0.5,1-0.7c0.4-0.1,0.8-0.3,1.3-0.3
							s0.9,0.1,1.3,0.3C8,2.7,8.4,3,8.6,3.2S9,3.9,9,4.2c0,0.4-0.1,0.8-0.5,1.1L8.1,5.6z"/>
					</g>
					<g transform="translate(1313.000000, 191.000000)">
						<path id="Shape_00000020388530363858825430000002681480775582498186_" class="st10" d="M33,15.1c0-2.1-4.3-3.4-9.7-4.1
							c2.2-5.1,3.1-9.6,1.3-10.6c-1.1-0.6-2.9,0.4-4.9,2.5c-0.3-0.1-0.6-0.2-1-0.2c-1,0.1-1.7,1.1-1.6,2.1c0.1,0.4,0.1,0.6,0.3,0.9
							c-0.3,0.4-0.5,0.7-0.8,1.1c-0.9-1.3-1.8-2.5-2.7-3.5c-2.3-2.6-4.1-3.6-5.2-3S7.4,2.9,8.3,6.3c0.3,1.4,0.9,3,1.5,4.6
							C4.3,11.5,0,12.9,0,15c0,1,1,1.8,2.5,2.4c0,0.1,0,0.1,0,0.2c0.1,1,1,1.8,2,1.6c0.6-0.1,1-0.4,1.3-0.9c1.2,0.2,2.4,0.4,3.8,0.6
							c-0.7,1.6-1.2,3.1-1.6,4.5c-1,3.4-0.8,5.4,0.3,6.1c0.2,0.1,0.5,0.2,0.8,0.2c1.1,0,2.7-1.1,4.5-3.1c0.9-1,1.8-2.1,2.7-3.4
							c0.9,1.4,1.8,2.5,2.7,3.5c1.9,2.1,3.4,3.2,4.5,3.2c0.3,0,0.5-0.1,0.8-0.2c1-0.6,1.2-2.2,0.8-4.5c0.7-0.4,1.1-1.1,1-1.9
							c-0.1-1-1-1.7-2-1.6c-0.3-0.9-0.6-1.8-1-2.7C28.7,18.5,33,17.1,33,15.1z M32,15.1c0,1.1-3.4,2.4-9.2,3c-0.4-1-0.8-2-1.3-3
							c0.6-1,1-2.1,1.5-3.1C28.6,12.6,32,14,32,15.1z M16.6,18.4c-0.6,0-1.3,0-2,0c-0.3-0.6-0.6-1.1-0.9-1.7
							c-0.3-0.6-0.6-1.1-0.8-1.6c0.3-0.5,0.6-1.1,0.8-1.6c0.3-0.6,0.6-1.1,1-1.6c0.6,0,1.3,0,1.9,0c0.6,0,1.3,0,2,0
							c0.3,0.6,0.6,1.1,0.9,1.7c0.3,0.6,0.6,1.1,0.8,1.6c-0.3,0.5-0.6,1.1-0.8,1.6c-0.3,0.6-0.6,1.1-1,1.6
							C17.8,18.4,17.2,18.4,16.6,18.4z M17.8,19.4c-0.4,0.7-0.8,1.4-1.3,2c-0.4-0.6-0.8-1.3-1.3-2c0.4,0,0.8,0,1.3,0
							C16.9,19.5,17.3,19.5,17.8,19.4z M12.7,17.1c0.2,0.4,0.4,0.8,0.6,1.1c-0.7,0-1.4-0.1-2.1-0.1c0.3-0.6,0.6-1.4,0.9-2
							C12.4,16.5,12.6,16.8,12.7,17.1z M12.2,13.8c-0.3-0.6-0.6-1.3-0.8-1.9c0.6-0.1,1.3-0.1,2-0.1c-0.2,0.4-0.4,0.7-0.6,1.1
							C12.6,13.2,12.4,13.6,12.2,13.8z M15.3,10.7c0.4-0.7,0.8-1.4,1.3-2c0.4,0.6,0.8,1.3,1.3,2c-0.4,0-0.8,0-1.3,0
							C16.2,10.6,15.7,10.6,15.3,10.7z M20.3,13c-0.2-0.4-0.4-0.8-0.6-1.1c0.7,0,1.4,0.1,2.1,0.1c-0.3,0.6-0.6,1.3-1,2
							C20.7,13.6,20.5,13.3,20.3,13z M20.3,17.2c0.1-0.3,0.3-0.6,0.5-0.9c0.3,0.6,0.6,1.3,0.8,1.9c-0.6,0.1-1.3,0.1-2,0.1
							C19.9,18,20.1,17.6,20.3,17.2z M18.2,6.3c0.3,0.1,0.6,0.1,0.9,0.1c1-0.1,1.7-1.1,1.6-2.1c0-0.3-0.1-0.5-0.3-0.7
							c1.7-1.9,3.1-2.6,3.6-2.4c0.9,0.5,0.4,4.1-1.9,9.6c-1-0.1-2.1-0.1-3.1-0.2c-0.6-1.1-1.2-2.1-1.8-3C17.5,7.2,17.9,6.8,18.2,6.3
							z M9.4,6.1C8.5,2.8,8.8,1.4,9.2,1.2c0.1-0.1,0.1-0.1,0.3-0.1c0.6,0,1.8,0.7,3.7,2.9c0.9,1.1,1.9,2.3,2.8,3.7
							c-0.6,0.9-1.3,2-2,3c-1,0.1-2.1,0.1-3.1,0.2C10.3,9.2,9.7,7.6,9.4,6.1z M6.3,17.5c0-0.1,0-0.1,0-0.2c-0.1-1-1-1.8-2-1.6
							c-0.6,0.1-1,0.4-1.3,0.9c-1.1-0.5-1.7-1-1.7-1.4c0-1.1,3.4-2.4,9.2-3c0.4,1,0.8,2,1.3,3c-0.6,1.1-1,2.1-1.5,3.1
							C8.7,17.9,7.4,17.7,6.3,17.5z M12.9,26.1c-2.2,2.4-3.5,3-4,2.7c-0.5-0.3-0.7-1.7,0.2-4.9c0.4-1.4,1-3,1.7-4.6
							c1,0.1,2.1,0.1,3.1,0.2c0.6,1.1,1.2,2.1,1.8,3C14.8,23.8,13.8,25.1,12.9,26.1z M23.2,22.2c-0.5,0.4-0.8,1-0.7,1.7
							c0.1,0.9,0.8,1.6,1.6,1.6c0.3,1.9,0.3,3.1-0.2,3.4c-0.5,0.3-1.7-0.3-3.9-2.8c-0.9-1.1-1.9-2.3-2.8-3.7c0.6-0.9,1.3-1.9,1.9-3
							c1-0.1,2.1-0.1,3.1-0.2C22.5,20.3,22.9,21.3,23.2,22.2z"/>
						<path id="Path_00000129891282051371436280000018380991150895840690_" class="st10" d="M16.6,13.2c-1,0-1.8,0.9-1.8,1.9
							c0,1.1,0.8,1.9,1.8,1.9s1.8-0.9,1.8-1.9C18.4,14,17.6,13.2,16.6,13.2z"/>
					</g>
				</g>
			</g>
		</g>
	</g>
</g>
</svg>
